<svg width="50" height="50" viewBox="0 0 50 50" fill="none" xmlns="http://www.w3.org/2000/svg">
<g id="icon=togo" clip-path="url(#clip0_105_2629)">
<path id="Vector" d="M25 50C38.8071 50 50 38.8071 50 25C50 11.1929 38.8071 0 25 0C11.1929 0 0 11.1929 0 25C0 38.8071 11.1929 50 25 50Z" fill="#FFDA44"/>
<g id="Group">
<path id="Vector_2" d="M25 0C24.9818 0.000195313 23.9131 10 23.9131 10H45.0012C40.4401 3.92803 33.1789 0 25 0Z" fill="#496E2D"/>
<path id="Vector_3" d="M25.0001 50C33.179 50 40.4402 46.072 45.0012 40H4.99902C9.55996 46.072 16.8212 50 25.0001 50Z" fill="#496E2D"/>
<path id="Vector_4" d="M49.4994 20H23.9131L25 30H49.4994C49.8275 28.3845 50 26.7124 50 25C50 23.2876 49.8273 21.6155 49.4994 20V20Z" fill="#496E2D"/>
</g>
<path id="Vector_5" d="M25 30C25 24.7826 25 5.86953 25 0C11.193 0 0 11.193 0 25C0 26.7124 0.172656 28.3845 0.500586 30H25Z" fill="#D80027"/>
<path id="Vector_6" d="M13.7947 11.9565L15.4135 16.9385H20.6522L16.4143 20.0179L18.0328 25L13.7947 21.9209L9.55664 25L11.1755 20.0179L6.9375 16.9385H12.1761L13.7947 11.9565Z" fill="#F0F0F0"/>
</g>
<defs>
<clipPath id="clip0_105_2629">
<rect width="50" height="50" fill="white"/>
</clipPath>
</defs>
</svg>
