<svg width="50" height="50" viewBox="0 0 50 50" fill="none" xmlns="http://www.w3.org/2000/svg">
<g id="icon=samoa" clip-path="url(#clip0_105_2315)">
<path id="Vector" d="M50 25C50 38.807 38.807 50 25 50C11.193 50 0 38.807 0 25C8.58691 16.4131 15.8695 9.13047 25 0C38.807 0 50 11.193 50 25Z" fill="#D80027"/>
<path id="Vector_2" d="M25 25C25 11.193 25 9.56523 25 0C11.193 0 0 11.193 0 25H25Z" fill="#0052B4"/>
<g id="Group">
<path id="Vector_3" d="M20.0249 16.3044L20.4297 17.55H21.7393L20.6797 18.3196L21.0845 19.5652L20.0249 18.7954L18.9653 19.5652L19.3701 18.3196L18.3105 17.55H19.6201L20.0249 16.3044Z" fill="#F0F0F0"/>
<path id="Vector_4" d="M13.4471 6.52177L14.1216 8.59785H16.3044L14.5384 9.88056L15.2131 11.9565L13.4471 10.6734L11.6812 11.9565L12.3558 9.88056L10.5898 8.59785H12.7725L13.4471 6.52177Z" fill="#F0F0F0"/>
<path id="Vector_5" d="M19.9686 8.6956L20.6431 10.7718H22.8258L21.0599 12.0545L21.7344 14.1305L19.9686 12.8474L18.2026 14.1305L18.8772 12.0545L17.1113 10.7718H19.2939L19.9686 8.6956Z" fill="#F0F0F0"/>
<path id="Vector_6" d="M14.8143 17.3913L15.4889 19.4674H17.6715L15.9056 20.7501L16.5802 22.8261L14.8143 21.5431L13.0483 22.8261L13.7229 20.7501L11.957 19.4674H14.1397L14.8143 17.3913Z" fill="#F0F0F0"/>
<path id="Vector_7" d="M9.09932 11.9565L9.77393 14.0326H11.9566L10.1906 15.3153L10.8652 17.3913L9.09932 16.1083L7.3335 17.3913L8.00801 15.3153L6.24219 14.0326H8.4248L9.09932 11.9565Z" fill="#F0F0F0"/>
</g>
</g>
<defs>
<clipPath id="clip0_105_2315">
<rect width="50" height="50" fill="white"/>
</clipPath>
</defs>
</svg>
