<svg width="50" height="50" viewBox="0 0 50 50" fill="none" xmlns="http://www.w3.org/2000/svg">
<g id="icon=paraguay" clip-path="url(#clip0_105_2212)">
<path id="Vector" d="M25 50C38.8071 50 50 38.8071 50 25C50 11.1929 38.8071 0 25 0C11.1929 0 0 11.1929 0 25C0 38.8071 11.1929 50 25 50Z" fill="#F0F0F0"/>
<path id="Vector_2" d="M25 0C15.0885 0 6.52446 5.76807 2.48071 14.1305H47.5193C43.4756 5.76807 34.9115 0 25 0V0Z" fill="#D80027"/>
<path id="Vector_3" d="M25 50C34.9115 50 43.4756 44.2319 47.5194 35.8695H2.48071C6.52446 44.2319 15.0885 50 25 50Z" fill="#0052B4"/>
<path id="Vector_4" d="M31.1487 17.7643L28.8429 20.0701C29.8264 21.0536 30.4348 22.4123 30.4348 23.9131C30.4348 26.9146 28.0015 29.3478 25.0001 29.3478C21.9986 29.3478 19.5653 26.9145 19.5653 23.9131C19.5653 22.4123 20.1737 21.0536 21.1572 20.0701L18.8514 17.7643C17.2777 19.3378 16.3044 21.5117 16.3044 23.9131C16.3044 28.7156 20.1976 32.6087 25.0001 32.6087C29.8025 32.6087 33.6957 28.7155 33.6957 23.9131C33.6956 21.5117 32.7223 19.3378 31.1487 17.7643V17.7643Z" fill="#6DA544"/>
<path id="Vector_5" d="M25 20.6522L25.8095 23.1434H28.4287L26.3097 24.6828L27.1191 27.1739L25 25.6344L22.8809 27.1739L23.6903 24.6828L21.5713 23.1434H24.1905L25 20.6522Z" fill="#FFDA44"/>
</g>
<defs>
<clipPath id="clip0_105_2212">
<rect width="50" height="50" fill="white"/>
</clipPath>
</defs>
</svg>
