<svg width="50" height="50" viewBox="0 0 50 50" fill="none" xmlns="http://www.w3.org/2000/svg">
<g id="icon=zimbabwe">
<path id="Vector" d="M25 50C38.8071 50 50 38.8071 50 25C50 11.1929 38.8071 0 25 0C11.1929 0 0 11.1929 0 25C0 38.8071 11.1929 50 25 50Z" fill="#F0F0F0"/>
<g id="Group">
<path id="Vector_2" d="M47.6072 14.3167C46.3371 11.6337 44.6036 9.21346 42.5099 7.15829L25.0001 5.43475L7.49033 7.15839C7.43447 7.21317 7.37998 7.26923 7.32471 7.3246L14.3169 14.3168L25.0001 14.6431L47.6072 14.3167Z" fill="#FFDA44"/>
<path id="Vector_3" d="M7.32422 42.6757C7.41621 42.7676 7.50801 42.8597 7.60137 42.9504L24.9999 44.5652L42.3982 42.9504C44.5136 40.8996 46.2683 38.4792 47.5562 35.792L15.2172 34.7826C12.4347 37.5652 9.22529 40.7744 7.32422 42.6757V42.6757Z" fill="#FFDA44"/>
</g>
<path id="Vector_4" d="M49.7516 21.4751L20.6523 20.6522L25.0002 25C23.7124 26.2878 21.7899 28.2103 20.6523 29.3479L49.7363 28.6336C49.9092 27.4472 50.0002 26.2343 50.0002 25C50.0002 23.8033 49.9143 22.627 49.7516 21.4751V21.4751Z" fill="black"/>
<path id="Vector_5" d="M25 0C18.1809 0 12.0006 2.73145 7.49023 7.1584H42.5098C37.9994 2.73145 31.8191 0 25 0Z" fill="#6DA544"/>
<g id="Group_2">
<path id="Vector_6" d="M21.4753 21.4751H49.7516C49.3948 18.9479 48.6608 16.5422 47.6073 14.3167H14.3169L21.4753 21.4751Z" fill="#D80027"/>
<path id="Vector_7" d="M14.208 35.792H47.5564C48.6223 33.5682 49.368 31.1622 49.7362 28.6336H21.3664C18.5942 31.4058 16.2448 33.7552 14.208 35.792Z" fill="#D80027"/>
</g>
<path id="Vector_8" d="M24.9999 50C31.7631 50 37.8979 47.3133 42.3982 42.9503H7.60156C12.102 47.3133 18.2367 50 24.9999 50Z" fill="#6DA544"/>
<path id="Vector_9" d="M8.92725 5.85291C8.37148 6.3199 7.83525 6.80945 7.32227 7.32224L25 25L7.32227 42.6777C7.83516 43.1906 8.37148 43.6801 8.92725 44.147L28.0743 25L8.92725 5.85291Z" fill="black"/>
<path id="Vector_10" d="M10.0511 18.4782L11.6697 23.4602H16.9085L12.6704 26.5395L14.2892 31.5218L10.0511 28.4426L5.81289 31.5218L7.43184 26.5395L3.19385 23.4602H8.43232L10.0511 18.4782Z" fill="#D80027"/>
<path id="Vector_11" d="M14.504 25.4076L10.2854 23.9131C10.2854 23.9131 9.97373 20.989 9.95488 20.8899C9.81172 20.1357 9.14893 19.5652 8.35303 19.5652C7.45264 19.5652 6.72256 20.2952 6.72256 21.1957C6.72256 21.345 6.74434 21.4889 6.78193 21.6264L5.59912 22.8171H7.70225C7.70225 25 6.07334 25 6.07334 27.1739L6.97695 29.3479H12.4117L13.3176 27.1739H13.3172C13.4079 26.9653 13.463 26.7502 13.4857 26.5353C14.2666 26.2194 14.504 25.4076 14.504 25.4076V25.4076Z" fill="#FFDA44"/>
</g>
</svg>
