<svg width="50" height="51" viewBox="0 0 50 51" fill="none" xmlns="http://www.w3.org/2000/svg">
<g id="icon=central african republic" clip-path="url(#clip0_105_1197)">
<path id="Vector" d="M25 50.9893C38.8071 50.9893 50 39.7964 50 25.9893C50 12.1821 38.8071 0.989258 25 0.989258C11.1929 0.989258 0 12.1821 0 25.9893C0 39.7964 11.1929 50.9893 25 50.9893Z" fill="#F0F0F0"/>
<g id="Group">
<path id="Vector_2" d="M46.9603 14.0327C43.7299 8.11191 38.1749 3.64229 31.5218 1.84912L30.4349 14.0327H46.9603Z" fill="#0052B4"/>
<path id="Vector_3" d="M3.03979 14.0327H19.5652L18.4783 1.84912C11.8252 3.64229 6.27036 8.11201 3.03979 14.0327V14.0327Z" fill="#0052B4"/>
</g>
<g id="Group_2">
<path id="Vector_4" d="M30.4348 25.9893V37.9458H46.9602C48.8982 34.3939 50 30.3203 50 25.9893H30.4348Z" fill="#6DA544"/>
<path id="Vector_5" d="M19.5652 25.9893H0C0 30.3203 1.10186 34.3939 3.03975 37.9458H19.5651V25.9893H19.5652Z" fill="#6DA544"/>
</g>
<g id="Group_3">
<path id="Vector_6" d="M3.03979 37.9458C6.27036 43.8666 11.8252 48.3362 18.4783 50.1294L19.5652 39.4742L3.03979 37.9458Z" fill="#FFDA44"/>
<path id="Vector_7" d="M31.5218 50.1294C38.1749 48.3362 43.7299 43.8666 46.9603 37.9458L30.4349 39.474L31.5218 50.1294Z" fill="#FFDA44"/>
<path id="Vector_8" d="M30.4348 39.474L46.9603 37.9458H30.4348V39.474Z" fill="#FFDA44"/>
<path id="Vector_9" d="M19.5653 37.9458H3.03979L19.5653 39.474V37.9458Z" fill="#FFDA44"/>
</g>
<path id="Vector_10" d="M25 0.989258C22.7435 0.989258 20.5578 1.29004 18.4783 1.85049V50.1281C20.5578 50.6885 22.7435 50.9893 25 50.9893C27.2566 50.9893 29.4423 50.6885 31.5218 50.128V1.85049C29.4423 1.29004 27.2566 0.989258 25 0.989258V0.989258Z" fill="#D80027"/>
<path id="Vector_11" d="M13.4471 6.42407L14.1215 8.49995H16.3044L14.5386 9.78296L15.2131 11.8588L13.4471 10.5759L11.6812 11.8588L12.3559 9.78296L10.5901 8.49995H12.7728L13.4471 6.42407Z" fill="#FFDA44"/>
</g>
<defs>
<clipPath id="clip0_105_1197">
<rect width="50" height="50" fill="white" transform="translate(0 0.989258)"/>
</clipPath>
</defs>
</svg>
