<svg width="51" height="50" viewBox="0 0 51 50" fill="none" xmlns="http://www.w3.org/2000/svg">
<g id="icon=suriname" clip-path="url(#clip0_105_2544)">
<path id="Vector" d="M25.5781 50C39.3852 50 50.5781 38.8071 50.5781 25C50.5781 11.1929 39.3852 0 25.5781 0C11.771 0 0.578125 11.1929 0.578125 25C0.578125 38.8071 11.771 50 25.5781 50Z" fill="#F0F0F0"/>
<path id="Vector_2" d="M49.023 16.3044H2.13301C1.12822 19.0128 0.578125 21.942 0.578125 25C0.578125 28.0581 1.12822 30.9875 2.13301 33.6957H49.0231C50.0281 30.9875 50.5781 28.0581 50.5781 25C50.5781 21.942 50.0281 19.0128 49.023 16.3044Z" fill="#A2001D"/>
<g id="Group">
<path id="Vector_3" d="M25.6504 50.0001C34.2131 50.0001 41.7693 45.6943 46.275 39.1306H5.02588C9.53154 45.6943 17.0876 50.0001 25.6504 50.0001Z" fill="#6DA544"/>
<path id="Vector_4" d="M25.6504 0.000244141C34.2131 0.000244141 41.7693 4.3061 46.275 10.8698H5.02588C9.53154 4.3061 17.0876 0.000244141 25.6504 0.000244141V0.000244141Z" fill="#6DA544"/>
</g>
<path id="Vector_5" d="M25.5782 16.3044L27.7365 22.947H34.7214L29.0706 27.0529L31.2291 33.6957L25.5782 29.5903L19.9273 33.6957L22.0859 27.0529L16.4351 22.947H23.4199L25.5782 16.3044Z" fill="#FFDA44"/>
</g>
<defs>
<clipPath id="clip0_105_2544">
<rect width="50" height="50" fill="white" transform="translate(0.578125)"/>
</clipPath>
</defs>
</svg>
