<svg width="51" height="50" viewBox="0 0 51 50" fill="none" xmlns="http://www.w3.org/2000/svg">
<g id="icon=nepal" clip-path="url(#clip0_105_2061)">
<path id="Vector" d="M25.9883 50C39.7954 50 50.9883 38.8071 50.9883 25C50.9883 11.1929 39.7954 0 25.9883 0C12.1812 0 0.988281 11.1929 0.988281 25C0.988281 38.8071 12.1812 50 25.9883 50Z" fill="#F0F0F0"/>
<g id="Group">
<path id="Vector_2" d="M50.8415 27.7173L50.8409 27.7166L50.8408 27.7173H50.8415Z" fill="#0052B4"/>
<path id="Vector_3" d="M50.8408 27.7173C50.8408 27.7171 50.8409 27.7169 50.8409 27.7165L23.4244 0.129883C22.1876 0.255957 20.9773 0.472168 19.8005 0.771875C8.98613 3.52529 0.988281 24.9999 0.988281 24.9999C0.988281 24.9999 35.9881 48.4213 39.981 45.719C40.7799 45.1784 41.5459 44.5928 42.2752 43.9658L26.0269 27.7173H50.8408Z" fill="#0052B4"/>
</g>
<path id="Vector_4" d="M44.4665 25.0001L20.1528 0.686523C9.16094 3.31514 0.988281 13.2024 0.988281 25.0001C0.988281 38.8071 12.1812 50.0001 25.9883 50.0001C31.2255 50.0001 36.0856 48.3886 40.1024 45.6359L19.4665 25.0001H44.4665Z" fill="#D80027"/>
<g id="Group_2">
<path id="Vector_5" d="M24.7649 36.9134L21.7116 35.4772L23.3375 32.5203L20.0221 33.1546L19.602 29.8052L17.2927 32.2686L14.9834 29.8052L14.5632 33.1546L11.2479 32.5202L12.8738 35.4772L9.82043 36.9134L12.8738 38.3494L11.2479 41.3064L14.5634 40.6723L14.9833 44.0215L17.2927 41.5581L19.602 44.0215L20.0221 40.6723L23.3374 41.3065L21.7115 38.3496L24.7649 36.9134Z" fill="#F0F0F0"/>
<path id="Vector_6" d="M22.7274 13.8655L20.5067 12.821L21.6892 10.6704L19.2778 11.1317L18.9722 8.69556L17.2927 10.4873L15.6131 8.69556L15.3074 11.1317L12.896 10.6704L14.0786 12.821L11.8578 13.8655L17.2927 14.9526L22.7274 13.8655Z" fill="#F0F0F0"/>
<path id="Vector_7" d="M23.8144 13.8655C23.8144 17.4673 20.8945 20.3873 17.2927 20.3873C13.6908 20.3873 10.7709 17.4673 10.7709 13.8655" fill="#F0F0F0"/>
</g>
</g>
<defs>
<clipPath id="clip0_105_2061">
<rect width="50" height="50" fill="white" transform="translate(0.988281)"/>
</clipPath>
</defs>
</svg>
