<svg width="50" height="50" viewBox="0 0 50 50" fill="none" xmlns="http://www.w3.org/2000/svg">
<g id="icon=peru" clip-path="url(#clip0_105_2218)">
<path id="Vector" d="M25 50C38.8071 50 50 38.8071 50 25C50 11.1929 38.8071 0 25 0C11.1929 0 0 11.1929 0 25C0 38.8071 11.1929 50 25 50Z" fill="#F0F0F0"/>
<g id="Group">
<path id="Vector_2" d="M49.9999 25C49.9999 14.251 43.2156 5.08728 33.6956 1.55505V48.4452C43.2156 44.9127 49.9999 35.7492 49.9999 25V25Z" fill="#D80027"/>
<path id="Vector_3" d="M0 25C0 35.7492 6.78437 44.9127 16.3044 48.4451V1.55505C6.78437 5.08728 0 14.251 0 25V25Z" fill="#D80027"/>
</g>
</g>
<defs>
<clipPath id="clip0_105_2218">
<rect width="50" height="50" fill="white"/>
</clipPath>
</defs>
</svg>
