<svg width="50" height="50" viewBox="0 0 50 50" fill="none" xmlns="http://www.w3.org/2000/svg">
<g id="icon=solomon islands" clip-path="url(#clip0_105_2445)">
<path id="Vector" d="M42.6784 42.6783C52.0545 33.3022 52.4247 18.333 43.793 8.51282L25 24.9998L8.51294 43.7928C18.3331 52.4246 33.3022 52.0543 42.6784 42.6783V42.6783Z" fill="#496E2D"/>
<path id="Vector_2" d="M7.32162 7.32167C16.6977 -2.05439 31.6669 -2.4246 41.4871 6.20712L24.9999 25.0002L6.20717 41.4871C-2.42465 31.6669 -2.05434 16.6977 7.32162 7.32167V7.32167Z" fill="#0052B4"/>
<path id="Vector_3" d="M41.4869 6.20703L6.20703 41.487C6.56367 41.8928 6.93398 42.2908 7.32158 42.6783C7.70908 43.0658 8.10722 43.4361 8.51308 43.7929L43.7928 8.51289C43.4362 8.10703 43.0658 7.70898 42.6782 7.32138C42.2909 6.93408 41.8927 6.56367 41.4869 6.20703V6.20703Z" fill="#FFDA44"/>
<g id="Group">
<path id="Vector_4" d="M10.5334 8.69495L11.0731 10.3558H12.8193L11.4066 11.3821L11.9462 13.0429L10.5334 12.0164L9.1206 13.0429L9.66035 11.3821L8.24756 10.3558H9.99384L10.5334 8.69495Z" fill="#F0F0F0"/>
<path id="Vector_5" d="M19.4533 8.69495L19.9931 10.3558H21.7392L20.3265 11.3821L20.8661 13.0429L19.4533 12.0164L18.0405 13.0429L18.5803 11.3821L17.1675 10.3558H18.9137L19.4533 8.69495Z" fill="#F0F0F0"/>
<path id="Vector_6" d="M10.5334 17.3909L11.0731 19.0517H12.8193L11.4066 20.0781L11.9462 21.7389L10.5334 20.7124L9.1206 21.7389L9.66035 20.0781L8.24756 19.0517H9.99384L10.5334 17.3909Z" fill="#F0F0F0"/>
<path id="Vector_7" d="M19.4533 17.3909L19.9931 19.0517H21.7392L20.3265 20.0781L20.8661 21.7389L19.4533 20.7124L18.0405 21.7389L18.5803 20.0781L17.1675 19.0517H18.9137L19.4533 17.3909Z" fill="#F0F0F0"/>
<path id="Vector_8" d="M14.9935 13.0428L15.5332 14.7037H17.2793L15.8666 15.73L16.4062 17.3909L14.9935 16.3644L13.5807 17.3909L14.1203 15.73L12.7075 14.7037H14.4538L14.9935 13.0428Z" fill="#F0F0F0"/>
</g>
</g>
<defs>
<clipPath id="clip0_105_2445">
<rect width="50" height="50" fill="white"/>
</clipPath>
</defs>
</svg>
