<svg width="50" height="50" viewBox="0 0 50 50" fill="none" xmlns="http://www.w3.org/2000/svg">
<g id="icon=palestine" clip-path="url(#clip0_105_2191)">
<path id="Vector" d="M25 50C38.8071 50 50 38.8071 50 25C50 11.1929 38.8071 0 25 0C11.1929 0 0 11.1929 0 25C0 38.8071 11.1929 50 25 50Z" fill="#F0F0F0"/>
<path id="Vector_2" d="M15.2175 16.3044H48.445C44.9128 6.78437 35.7491 0 25.0001 0C18.0964 0 11.8471 2.79873 7.32324 7.32314L15.2175 16.3044Z" fill="black"/>
<path id="Vector_3" d="M15.2175 33.6956H48.445C44.9128 43.2156 35.7491 49.9999 25.0001 49.9999C18.0964 49.9999 11.8471 47.2012 7.32324 42.6768L15.2175 33.6956Z" fill="#6DA544"/>
<path id="Vector_4" d="M7.32231 7.32227C-2.44077 17.0854 -2.44077 32.9145 7.32231 42.6777C11.3568 38.6433 15.237 34.7631 25 25L7.32231 7.32227Z" fill="#D80027"/>
</g>
<defs>
<clipPath id="clip0_105_2191">
<rect width="50" height="50" fill="white"/>
</clipPath>
</defs>
</svg>
