<svg width="51" height="50" viewBox="0 0 51 50" fill="none" xmlns="http://www.w3.org/2000/svg">
<g id="icon=syria" clip-path="url(#clip0_105_2576)">
<path id="Vector" d="M25.5781 50C39.3852 50 50.5781 38.8071 50.5781 25C50.5781 11.1929 39.3852 0 25.5781 0C11.771 0 0.578125 11.1929 0.578125 25C0.578125 38.8071 11.771 50 25.5781 50Z" fill="#F0F0F0"/>
<path id="Vector_2" d="M25.5778 0C14.8287 0 5.66514 6.78437 2.13281 16.3044H49.0229C45.4905 6.78437 36.327 0 25.5778 0V0Z" fill="#D80027"/>
<path id="Vector_3" d="M25.5778 49.9999C36.327 49.9999 45.4905 43.2156 49.0229 33.6956H2.13281C5.66514 43.2156 14.8287 49.9999 25.5778 49.9999Z" fill="black"/>
<g id="Group">
<path id="Vector_4" d="M15.5162 19.0217L16.8651 23.1733H21.2307L17.6989 25.7395L19.0479 29.8913L15.5162 27.3253L11.9845 29.8913L13.3335 25.7395L9.80176 23.1733H14.1673L15.5162 19.0217Z" fill="#6DA544"/>
<path id="Vector_5" d="M35.6412 19.0217L36.9901 23.1733H41.3558L37.8239 25.7395L39.1729 29.8913L35.6412 27.3253L32.1095 29.8913L33.4585 25.7395L29.9268 23.1733H34.2923L35.6412 19.0217Z" fill="#6DA544"/>
</g>
</g>
<defs>
<clipPath id="clip0_105_2576">
<rect width="50" height="50" fill="white" transform="translate(0.578125)"/>
</clipPath>
</defs>
</svg>
