<svg width="50" height="50" viewBox="0 0 50 50" fill="none" xmlns="http://www.w3.org/2000/svg">
<g id="icon=greece" clip-path="url(#clip0_105_1566)">
<path id="Vector" d="M25 50C38.8071 50 50 38.8071 50 25C50 11.1929 38.8071 0 25 0C11.1929 0 0 11.1929 0 25C0 38.8071 11.1929 50 25 50Z" fill="#F0F0F0"/>
<g id="Group">
<path id="Vector_2" d="M25 18.4783H49.1388C48.5119 16.1527 47.5592 13.9612 46.3307 11.9565H25V18.4783Z" fill="#338AF3"/>
<path id="Vector_3" d="M9.43789 44.5652H40.5622C42.8437 42.748 44.8004 40.5408 46.3307 38.0435H3.66943C5.1998 40.5407 7.15645 42.748 9.43789 44.5652V44.5652Z" fill="#338AF3"/>
<path id="Vector_4" d="M8.6957 6.04883C6.73027 7.74131 5.03115 9.73437 3.66943 11.9566H8.6957V6.04883Z" fill="#338AF3"/>
<path id="Vector_5" d="M25 25C25 22.4536 25 20.3224 25 18.4783H15.2174V25H8.69561V18.4783H0.86123C0.300781 20.5578 0 22.7435 0 25C0 27.2566 0.300781 29.4423 0.86123 31.5218H49.1389C49.6992 29.4423 50 27.2566 50 25H25Z" fill="#338AF3"/>
<path id="Vector_6" d="M24.9999 0C21.5283 0 18.2222 0.708301 15.2173 1.98711V11.9565H24.9999C24.9999 9.67998 24.9999 7.74375 24.9999 5.43477H40.5621C36.2915 2.03359 30.8836 0 24.9999 0V0Z" fill="#338AF3"/>
</g>
</g>
<defs>
<clipPath id="clip0_105_1566">
<rect width="50" height="50" fill="white"/>
</clipPath>
</defs>
</svg>
