<svg width="50" height="50" viewBox="0 0 50 50" fill="none" xmlns="http://www.w3.org/2000/svg">
<g id="icon=luxembourg" clip-path="url(#clip0_105_1860)">
<path id="Vector" d="M25 50C38.8071 50 50 38.8071 50 25C50 11.1929 38.8071 0 25 0C11.1929 0 0 11.1929 0 25C0 38.8071 11.1929 50 25 50Z" fill="#F0F0F0"/>
<path id="Vector_2" d="M25.0002 0C14.2511 0 5.0875 6.78437 1.55518 16.3044H48.4453C44.9129 6.78437 35.7493 0 25.0002 0V0Z" fill="#D80027"/>
<path id="Vector_3" d="M25.0002 50.0002C35.7493 50.0002 44.9129 43.2158 48.4452 33.6958H1.55518C5.0875 43.2158 14.2511 50.0002 25.0002 50.0002Z" fill="#338AF3"/>
</g>
<defs>
<clipPath id="clip0_105_1860">
<rect width="50" height="50" fill="white"/>
</clipPath>
</defs>
</svg>
