<svg width="50" height="50" viewBox="0 0 50 50" fill="none" xmlns="http://www.w3.org/2000/svg">
<g id="icon=sint eustatius" clip-path="url(#clip0_105_2407)">
<path id="SVGCleanerId 0" d="M10.9092 45.6522C14.9215 48.3949 19.7728 50 24.9997 50C30.2267 50 35.078 48.3949 39.0902 45.6522L24.9997 43.4783L10.9092 45.6522Z" fill="#D80027"/>
<path id="SVGCleanerId 1" d="M39.0902 4.34785C35.078 1.60518 30.2267 0 24.9997 0C19.7728 0 14.9213 1.60518 10.9092 4.34785L24.9997 6.52178L39.0902 4.34785Z" fill="#D80027"/>
<g id="Group">
<path id="SVGCleanerId 0 1" d="M10.9092 45.6522C14.9215 48.3949 19.7728 50 24.9997 50C30.2267 50 35.078 48.3949 39.0902 45.6522L24.9997 43.4783L10.9092 45.6522Z" fill="#D80027"/>
</g>
<g id="Group_2">
<path id="SVGCleanerId 1 1" d="M39.0902 4.34785C35.078 1.60518 30.2267 0 24.9997 0C19.7728 0 14.9213 1.60518 10.9092 4.34785L24.9997 6.52178L39.0902 4.34785Z" fill="#D80027"/>
</g>
<g id="Group_3">
<path id="Vector" d="M49.9365 23.3696C49.3442 15.6537 44.6561 8.15217 39.0907 4.34778H10.9097C4.74404 8.56272 0.561719 15.4658 0.0527344 23.3696L25.0002 25L49.9365 23.3696Z" fill="#0052B4"/>
<path id="Vector_2" d="M0.0527344 26.6305C0.561719 34.5343 4.74394 41.4373 10.9096 45.6522H39.0906C45.2565 41.4374 49.4386 34.5343 49.9476 26.6305L25.0002 25L0.0527344 26.6305Z" fill="#0052B4"/>
</g>
<path id="Vector_3" d="M49.9363 23.3695H26.6305V3.26086H23.3696V23.3695H0.0526367C0.0179687 23.9085 0 24.4522 0 25C0 25.5478 0.0178711 26.0913 0.0525391 26.6304H23.3696V46.7392H26.6305V26.6304H49.9476C49.9821 26.0913 50 25.5478 50 25C50 24.4562 49.978 23.9123 49.9363 23.3695Z" fill="#D80027"/>
<path id="Vector_4" d="M9.78223 25L24.9995 15.4353L40.217 25L24.9995 34.5647L9.78223 25Z" fill="#F0F0F0"/>
<path id="Vector_5" d="M16.3047 29.3478H35.8698L31.5221 22.826L29.3481 25L27.1742 23.9131L25.0003 27.1739H20.6524L18.4785 25L16.3047 29.3478Z" fill="#6DA544"/>
<path id="Vector_6" d="M25.0005 18.4783L25.5401 20.1389H27.2861L25.8735 21.1654L26.4132 22.8261L25.0005 21.7998L23.5878 22.8261L24.1274 21.1654L22.7148 20.1389H24.4608L25.0005 18.4783Z" fill="#FFDA44"/>
<path id="Vector_7" d="M24.9997 12.7025L5.43457 25L24.9997 37.2974L44.565 25L24.9997 12.7025ZM11.5623 25L24.9997 16.554L38.4373 25L24.9997 33.446L11.5623 25Z" fill="#D80027"/>
</g>
<defs>
<clipPath id="clip0_105_2407">
<rect width="50" height="50" fill="white"/>
</clipPath>
</defs>
</svg>
