<svg width="50" height="51" viewBox="0 0 50 51" fill="none" xmlns="http://www.w3.org/2000/svg">
<g id="icon=dominica" clip-path="url(#clip0_105_1377)">
<path id="Vector" d="M25 50.9893C38.8071 50.9893 50 39.7964 50 25.9893C50 12.1821 38.8071 0.989258 25 0.989258C11.1929 0.989258 0 12.1821 0 25.9893C0 39.7964 11.1929 50.9893 25 50.9893Z" fill="#F0F0F0"/>
<g id="Group">
<path id="Vector_2" d="M29.8912 50.5095C39.7743 48.5489 47.5596 40.7636 49.5201 30.8806H29.8912V50.5095Z" fill="#496E2D"/>
<path id="Vector_3" d="M0.479736 30.8806C2.44019 40.7636 10.2255 48.5489 20.1086 50.5095V30.8806H0.479736Z" fill="#496E2D"/>
<path id="Vector_4" d="M49.5201 21.0979C47.5596 11.2149 39.7743 3.42959 29.8912 1.46904V21.0979H49.5201Z" fill="#496E2D"/>
<path id="Vector_5" d="M20.1086 1.46904C10.2255 3.42959 2.44019 11.2149 0.479736 21.0979H20.1086V1.46904Z" fill="#496E2D"/>
</g>
<g id="Group_2">
<path id="Vector_6" d="M23.3695 30.8806H20.1086V50.5095C21.1728 50.7205 22.2614 50.8635 23.3695 50.9349V30.8806Z" fill="#FFDA44"/>
<path id="Vector_7" d="M23.3695 21.098V1.04366C22.2614 1.11494 21.1727 1.25801 20.1086 1.46905V21.098H23.3695Z" fill="#FFDA44"/>
</g>
<path id="Vector_8" d="M26.6304 1.04365C26.0912 1.00879 25.5479 0.989258 25 0.989258C24.452 0.989258 23.9088 1.00879 23.3695 1.04365V21.098H26.6303V1.04365H26.6304Z" fill="black"/>
<path id="Vector_9" d="M23.3695 50.9349C23.9088 50.9697 24.452 50.9893 25 50.9893C25.5479 50.9893 26.0912 50.9697 26.6304 50.9349V30.8806H23.3696V50.9349H23.3695Z" fill="black"/>
<g id="Group_3">
<path id="Vector_10" d="M20.1087 24.3588V21.0979H0.479834C0.268701 22.1622 0.125732 23.2507 0.0544434 24.3588H20.1087Z" fill="#FFDA44"/>
<path id="Vector_11" d="M29.8914 24.3588H49.9458C49.8745 23.2507 49.7314 22.1622 49.5204 21.0979H29.8915V24.3588H29.8914Z" fill="#FFDA44"/>
</g>
<path id="Vector_12" d="M29.8914 27.6197H49.9458C49.9805 27.0806 50 26.5372 50 25.9893C50 25.4413 49.9805 24.898 49.9457 24.3588H29.8914V27.6197Z" fill="black"/>
<path id="Vector_13" d="M0.0543945 24.3588C0.0196289 24.898 0 25.4413 0 25.9893C0 26.5372 0.0196289 27.0806 0.0543945 27.6197H20.1088V24.3589H0.0543945V24.3588Z" fill="black"/>
<path id="Vector_14" d="M25 37.9458C31.6034 37.9458 36.9565 32.5927 36.9565 25.9893C36.9565 19.3858 31.6034 14.0327 25 14.0327C18.3966 14.0327 13.0435 19.3858 13.0435 25.9893C13.0435 32.5927 18.3966 37.9458 25 37.9458Z" fill="#D80027"/>
<g id="Group_4">
<path id="Vector_15" d="M27.724 27.3232C26.8346 25.5446 25.6786 23.7419 25.6786 23.7419C25.6786 23.7419 25.7073 22.9211 25.7073 22.432C25.7073 21.6953 25.1101 21.098 24.3734 21.098C23.6754 21.098 23.1035 21.6343 23.0452 22.317C22.4964 22.3528 22.0621 22.8081 22.0621 23.3659C22.0621 23.7715 22.2919 24.1229 22.6282 24.2986C22.7954 23.9076 23.1228 23.6023 23.5277 23.4632C23.5937 23.5172 23.6646 23.5654 23.7403 23.6063L23.9112 23.6882C23.9112 23.6882 23.2775 25.4744 23.2775 26.434C23.2775 29.1316 25.0562 29.9636 25.0562 29.9636V29.9914L24.1668 30.8807H25.9454V29.1019L26.8348 29.9913C26.8426 29.9746 28.5194 28.9142 27.724 27.3232V27.3232Z" fill="#496E2D"/>
<path id="Vector_16" d="M25 16.2066L25.4047 17.4521H26.7143L25.6548 18.222L26.0596 19.4675L25 18.6977L23.9405 19.4675L24.3452 18.222L23.2858 17.4521H24.5953L25 16.2066Z" fill="#496E2D"/>
<path id="Vector_17" d="M19.25 18.075L20.3094 18.8448L21.3689 18.0749L20.9642 19.3206L22.0238 20.0902L20.7141 20.0903L20.3094 21.3358L19.9047 20.0903L18.5951 20.0902L19.6546 19.3204L19.25 18.075Z" fill="#496E2D"/>
<path id="Vector_18" d="M15.6962 22.9663H17.0056L17.4104 21.7208L17.8151 22.9663L19.1248 22.9662L18.0653 23.7361L18.4701 24.9816L17.4104 24.2118L16.351 24.9815L16.7555 23.736L15.6962 22.9663Z" fill="#496E2D"/>
<path id="Vector_19" d="M15.6962 29.0122L16.7555 28.2426L16.3509 26.997L17.4104 27.7668L18.47 26.997L18.0653 28.2425L19.1249 29.0123L17.8151 29.0124L17.4104 30.2578L17.0056 29.0122H15.6962Z" fill="#496E2D"/>
<path id="Vector_20" d="M19.25 33.9035L19.6545 32.6582L18.595 31.8884H19.9046L20.3094 30.6428L20.7141 31.8883H22.0238L20.9642 32.6582L21.3689 33.9036L20.3093 33.1338L19.25 33.9035Z" fill="#496E2D"/>
<path id="Vector_21" d="M25 35.7719L24.5953 34.5266H23.2858L24.3452 33.7566L23.9405 32.5111L25 33.2808L26.0595 32.511L25.6548 33.7566L26.7143 34.5265L25.4047 34.5266L25 35.7719Z" fill="#496E2D"/>
<path id="Vector_22" d="M30.75 33.9035L29.6906 33.1338L28.6312 33.9037L29.0358 32.6582L27.9762 31.8884L29.2859 31.8883L29.6905 30.6428L30.0953 31.8884H31.4049L30.3454 32.6582L30.75 33.9035Z" fill="#496E2D"/>
<path id="Vector_23" d="M34.3038 29.0122H32.9944L32.5896 30.2578L32.1849 29.0124H30.8751L31.9347 28.2425L31.5299 26.9971L32.5896 27.7668L33.6489 26.9971L33.2445 28.2426L34.3038 29.0122Z" fill="#496E2D"/>
<path id="Vector_24" d="M34.3038 22.9663L33.2445 23.736L33.649 24.9815L32.5896 24.2118L31.53 24.9817L31.9347 23.7361L30.8751 22.9664L32.1849 22.9662L32.5895 21.7209L32.9944 22.9663H34.3038Z" fill="#496E2D"/>
<path id="Vector_25" d="M30.75 18.075L30.3454 19.3204L31.4049 20.0902H30.0953L29.6906 21.3358L29.2859 20.0903L27.9762 20.0904L29.0358 19.3204L28.6311 18.0751L29.6906 18.8447L30.75 18.075Z" fill="#496E2D"/>
</g>
</g>
<defs>
<clipPath id="clip0_105_1377">
<rect width="50" height="50" fill="white" transform="translate(0 0.989258)"/>
</clipPath>
</defs>
</svg>
