<svg width="50" height="50" viewBox="0 0 50 50" fill="none" xmlns="http://www.w3.org/2000/svg">
<g id="icon=guam" clip-path="url(#clip0_105_1602)">
<g id="Group">
<path id="Vector" d="M10.9094 45.6522C14.9215 48.3949 19.7731 50 25 50C30.2268 50 35.0783 48.3949 39.0905 45.6522L25 43.4783L10.9094 45.6522Z" fill="#D80027"/>
<path id="Vector_2" d="M39.0905 4.34785C35.0783 1.60518 30.2268 0 25 0C19.7731 0 14.9215 1.60518 10.9094 4.34785L25 6.52178L39.0905 4.34785Z" fill="#D80027"/>
</g>
<path id="Vector_3" d="M50 25C50 16.7276 45.0473 8.41997 39.0905 4.3479H10.9095C4.32324 8.85024 0 16.42 0 25C0 33.5804 4.32324 41.1499 10.9095 45.6522H39.0905C45.6769 41.1499 50 33.5804 50 25Z" fill="#0052B4"/>
<path id="Vector_4" d="M23.5852 40.781C23.2436 40.488 15.2173 33.5106 15.2173 25C15.2173 16.4894 23.2435 9.51191 23.5852 9.21904L24.9999 8.00635L26.4146 9.21895C26.7562 9.51191 34.7825 16.4893 34.7825 25C34.7825 33.5107 26.7563 40.4882 26.4146 40.781L24.9999 41.9937L23.5852 40.781Z" fill="#D80027"/>
<path id="Vector_5" d="M32.6087 25.0001C32.6087 17.3914 25 10.8696 25 10.8696C25 10.8696 17.3914 17.3916 17.3914 25.0001C17.3914 27.3277 18.104 29.5532 19.0924 31.5219H30.9077C31.8961 29.5532 32.6087 27.3277 32.6087 25.0001Z" fill="#338AF3"/>
<path id="Vector_6" d="M32.6087 25C32.6087 27.3276 31.8961 29.5531 30.9077 31.5218L25 32.6087L19.0924 31.5218C18.104 29.5532 17.3914 27.3276 17.3914 25H32.6087Z" fill="#0052B4"/>
<path id="Vector_7" d="M24.9999 39.1304C24.9999 39.1304 28.6647 35.9881 30.9075 31.5217H19.0923C21.3351 35.9881 24.9999 39.1304 24.9999 39.1304Z" fill="#FFDA44"/>
<path id="Vector_8" d="M20.1086 20.6521H29.8913L25 25.5434L20.1086 20.6521Z" fill="#6DA544"/>
<path id="Vector_9" d="M23.3696 23.9131H26.6305V33.6957H23.3696V23.9131Z" fill="#A2001D"/>
</g>
<defs>
<clipPath id="clip0_105_1602">
<rect width="50" height="50" fill="white"/>
</clipPath>
</defs>
</svg>
