<svg width="50" height="50" viewBox="0 0 50 50" fill="none" xmlns="http://www.w3.org/2000/svg">
<g id="icon=bolivia" clip-path="url(#clip0_105_997)">
<path id="Vector" d="M50 25.0009C50 21.9429 49.45 19.0135 48.445 16.3053L25 15.2183L1.55498 16.3052C0.55 19.0135 0 21.9429 0 25.0009C0 28.0589 0.55 30.9883 1.55498 33.6965L25 34.7835L48.445 33.6966C49.45 30.9883 50 28.0589 50 25.0009Z" fill="#FFDA44"/>
<path id="Vector_2" d="M25 50.0009C35.7491 50.0009 44.9127 43.2166 48.445 33.6965H1.55498C5.0873 43.2166 14.2509 50.0009 25 50.0009Z" fill="#6DA544"/>
<path id="Vector_3" d="M1.55498 16.3054H48.4451C44.9127 6.78535 35.7491 0.000976562 25 0.000976562C14.2509 0.000976562 5.0873 6.78535 1.55498 16.3054V16.3054Z" fill="#D80027"/>
</g>
<defs>
<clipPath id="clip0_105_997">
<rect width="50" height="50" fill="white" transform="translate(0 0.000976562)"/>
</clipPath>
</defs>
</svg>
