<svg width="50" height="50" viewBox="0 0 50 50" fill="none" xmlns="http://www.w3.org/2000/svg">
<g id="icon=czech republic" clip-path="url(#clip0_105_1354)">
<path id="Vector" d="M25 50C38.8071 50 50 38.8071 50 25C50 11.1929 38.8071 0 25 0C11.1929 0 0 11.1929 0 25C0 38.8071 11.1929 50 25 50Z" fill="#F0F0F0"/>
<path id="Vector_2" d="M22.8261 25C22.8261 25 7.33691 42.6812 7.32227 42.6776C11.8463 47.2018 18.0964 50 25 50C38.807 50 50 38.807 50 25H22.8261Z" fill="#D80027"/>
<path id="Vector_3" d="M7.32231 7.32227C-2.44077 17.0854 -2.44077 32.9145 7.32231 42.6777C11.3568 38.6433 15.237 34.7631 25 25L7.32231 7.32227Z" fill="#0052B4"/>
</g>
<defs>
<clipPath id="clip0_105_1354">
<rect width="50" height="50" fill="white"/>
</clipPath>
</defs>
</svg>
