<svg width="50" height="50" viewBox="0 0 50 50" fill="none" xmlns="http://www.w3.org/2000/svg">
<g id="icon=liberia" clip-path="url(#clip0_105_1828)">
<g id="Group">
<path id="Vector" d="M25 50C38.8071 50 50 38.8071 50 25C50 11.1929 38.8071 0 25 0C11.1929 0 0 11.1929 0 25C0 38.8071 11.1929 50 25 50Z" fill="#F0F0F0"/>
<path id="Vector_2" d="M5.71448 9.09082H44.2856C42.861 7.36572 41.2086 5.83594 39.3757 4.54541H10.6243C8.79143 5.83574 7.13918 7.36562 5.71448 9.09082V9.09082Z" fill="#F0F0F0"/>
<path id="Vector_3" d="M0 25.0002C0 25.7665 0.0364258 26.5241 0.103906 27.273H49.8961C49.9636 26.5241 50 25.7665 50 25.0002C50 24.2339 49.9636 23.4763 49.8961 22.7275H0.103906C0.0364258 23.4763 0 24.2339 0 25.0002H0Z" fill="#F0F0F0"/>
<path id="Vector_4" d="M2.72617 36.3637H47.2738C48.01 34.9236 48.6103 33.403 49.0586 31.8184H0.941406C1.38955 33.403 1.99014 34.9237 2.72617 36.3637V36.3637Z" fill="#F0F0F0"/>
<path id="Vector_5" d="M10.6243 45.4546H39.3756C41.2085 44.1641 42.8609 42.6343 44.2855 40.9092H5.71448C7.13918 42.6341 8.79143 44.1641 10.6243 45.4546V45.4546Z" fill="#F0F0F0"/>
<path id="Vector_6" d="M0.941284 18.1816H49.0587C48.6104 16.5969 48.0099 15.0762 47.2738 13.6362H2.72615C1.99011 15.0762 1.38953 16.5969 0.941284 18.1816V18.1816Z" fill="#F0F0F0"/>
</g>
<g id="Group_2">
<path id="Vector_7" d="M11.9565 4.54541H39.3757C35.3093 1.68232 30.3513 0 25 0C21.7392 0 16.0229 1.68232 11.9565 4.54541Z" fill="#D80027"/>
<path id="Vector_8" d="M23.9131 13.6362H47.2738C46.4425 12.01 45.4384 10.4866 44.2855 9.09082H23.9131V13.6362Z" fill="#D80027"/>
<path id="Vector_9" d="M23.9131 22.7275H49.8961C49.7555 21.1668 49.4729 19.6469 49.0587 18.1821H23.9131V22.7275Z" fill="#D80027"/>
<path id="Vector_10" d="M0.941382 31.8184H49.0586C49.4728 30.3537 49.7554 28.8337 49.8961 27.2729H0.103882C0.244507 28.8337 0.527124 30.3536 0.941382 31.8184V31.8184Z" fill="#D80027"/>
<path id="Vector_11" d="M5.71448 40.9092H44.2856C45.4384 39.5132 46.4425 37.9899 47.2739 36.3638H2.7262C3.55754 37.99 4.56165 39.5134 5.71448 40.9092V40.9092Z" fill="#D80027"/>
<path id="Vector_12" d="M25 50C30.3512 50 35.3092 48.3177 39.3756 45.4546H10.6243C14.6907 48.3177 19.6487 50 25 50Z" fill="#D80027"/>
</g>
<path id="Vector_13" d="M0.941284 18.1818C0.527026 19.6467 0.244507 21.1665 0.103882 22.7272H25V0C13.5566 0 3.90925 7.68867 0.941284 18.1818V18.1818Z" fill="#0052B4"/>
<path id="Vector_14" d="M14.8816 6.52197L16.5003 11.5039H21.7391L17.501 14.5832L19.1196 19.5654L14.8816 16.4863L10.6434 19.5654L12.2624 14.5832L8.02429 11.5039H13.2629L14.8816 6.52197Z" fill="#F0F0F0"/>
</g>
<defs>
<clipPath id="clip0_105_1828">
<rect width="50" height="50" fill="white"/>
</clipPath>
</defs>
</svg>
