<svg width="50" height="50" viewBox="0 0 50 50" fill="none" xmlns="http://www.w3.org/2000/svg">
<g id="icon=angola" clip-path="url(#clip0_105_817)">
<path id="Vector" d="M0 25C0 11.193 11.193 0 25 0C38.807 0 50 11.193 50 25C48.9131 25 25 28.2608 25 28.2608L0 25Z" fill="#D80027"/>
<path id="Vector_2" d="M50 25C50 38.807 38.807 50 25 50C11.193 50 0 38.807 0 25" fill="black"/>
<g id="Group">
<path id="Vector_3" d="M21.572 19.8843L23.6914 21.4224L22.8837 23.9134L25.0015 22.3728L27.121 23.9108L26.3103 21.4206L28.4279 19.8802L25.8092 19.8817L24.9984 17.3916L24.1907 19.8826L21.572 19.8843Z" fill="#FFDA44"/>
<path id="Vector_4" d="M31.25 14.1749C29.28 13.0375 27.126 12.5007 25 12.5044V15.7646C26.5714 15.7617 28.1634 16.1582 29.6195 16.999C34.0314 19.5463 35.5485 25.208 33.0012 29.6199C30.454 34.0319 24.7924 35.5489 20.3804 33.0017C19.095 32.2596 18.0574 31.252 17.2926 30.0892L14.5703 31.8864C15.6052 33.4596 17.011 34.8216 18.75 35.8255C24.7191 39.2718 32.379 37.2194 35.8252 31.2502C39.2715 25.2811 37.2191 17.6212 31.25 14.1749V14.1749Z" fill="#FFDA44"/>
<path id="Vector_5" d="M17.792 22.8262C16.9277 24.4062 17.508 26.3877 19.0879 27.252L29.6786 33.0391C28.9584 34.3556 29.3409 35.958 30.6574 36.6782L33.5183 38.2432C34.8348 38.9635 36.4862 38.4799 37.2064 37.1633L38.7714 34.3025L17.792 22.8262Z" fill="#FFDA44"/>
</g>
</g>
<defs>
<clipPath id="clip0_105_817">
<rect width="50" height="50" fill="white"/>
</clipPath>
</defs>
</svg>
