<svg width="50" height="50" viewBox="0 0 50 50" fill="none" xmlns="http://www.w3.org/2000/svg">
<g id="icon=brunei" clip-path="url(#clip0_105_1106)">
<path id="Vector" d="M25.0002 49.9966C38.8053 49.9966 49.9966 38.8053 49.9966 25.0002C49.9966 11.1951 38.8053 0.00390625 25.0002 0.00390625C11.1951 0.00390625 0.00390625 11.1951 0.00390625 25.0002C0.00390625 38.8053 11.1951 49.9966 25.0002 49.9966Z" fill="#F0F0F0"/>
<path id="Vector_2" d="M3.35259 12.502C2.22435 14.4559 1.3921 16.4987 0.837891 18.5795L42.6413 42.7149C44.1663 41.1945 45.5194 39.4521 46.6474 37.4983L3.35259 12.502Z" fill="black"/>
<g id="Group">
<path id="Vector_3" d="M37.4983 3.35251C27.4965 -2.42193 15.1642 -0.497379 7.35864 7.28521L49.1621 31.4204C51.9993 20.7696 47.4998 9.12705 37.4983 3.35251V3.35251Z" fill="#FFDA44"/>
<path id="Vector_4" d="M12.502 46.6474C22.5036 52.4219 34.8361 50.4973 42.6415 42.7148L0.837954 18.5793C-1.99912 29.2305 2.5002 40.873 12.502 46.6474Z" fill="#FFDA44"/>
</g>
<g id="Group_2">
<path id="Vector_5" d="M32.0643 22.283C32.0643 26.1844 28.9015 29.3472 25.0001 29.3472C21.0986 29.3472 17.9359 26.1845 17.9359 22.283C17.9359 21.0666 18.2434 19.9219 18.785 18.9226C17.2521 20.4903 16.3057 22.6341 16.3057 25C16.3057 29.8017 20.1982 33.6944 25.0001 33.6944C29.8019 33.6944 33.6945 29.8018 33.6945 25C33.6945 22.6341 32.7482 20.4903 31.2152 18.9226C31.7568 19.9221 32.0643 21.0666 32.0643 22.283V22.283Z" fill="#D80027"/>
<path id="Vector_6" d="M23.3701 14.1321H26.6305V30.4341H23.3701V14.1321Z" fill="#D80027"/>
<path id="Vector_7" d="M30.4341 17.3923H19.5662C19.5662 18.1426 20.2198 18.7509 20.97 18.7509H20.9247C20.9247 19.5012 21.533 20.1094 22.2832 20.1094C22.2832 20.8597 22.8915 21.4679 23.6417 21.4679H26.3587C27.109 21.4679 27.7172 20.8597 27.7172 20.1094C28.4675 20.1094 29.0757 19.5012 29.0757 18.7509H29.0305C29.7805 18.7508 30.4341 18.1427 30.4341 17.3923Z" fill="#D80027"/>
<path id="Vector_8" d="M17.3927 31.5208H32.6079V34.7812H17.3927V31.5208Z" fill="#D80027"/>
<path id="Vector_9" d="M28.2606 32.6077H34.7814V35.8681H28.2606V32.6077Z" fill="#D80027"/>
<path id="Vector_10" d="M15.2191 32.6077H21.7399V35.8681H15.2191V32.6077Z" fill="#D80027"/>
</g>
</g>
<defs>
<clipPath id="clip0_105_1106">
<rect width="50" height="50" fill="white"/>
</clipPath>
</defs>
</svg>
