<svg width="50" height="50" viewBox="0 0 50 50" fill="none" xmlns="http://www.w3.org/2000/svg">
<g id="icon=malawi" clip-path="url(#clip0_105_1887)">
<path id="Vector" d="M0 24.9999C0 28.0579 0.550098 30.9872 1.55498 33.6955L25 34.7825L48.445 33.6956C49.45 30.9872 50 28.0579 50 24.9999C50 21.9419 49.45 19.0126 48.445 16.3043L25 15.2173L1.55498 16.3042C0.550098 19.0126 0 21.9419 0 24.9999H0Z" fill="#D80027"/>
<path id="Vector_2" d="M24.9997 0C14.2506 0 5.08701 6.78437 1.55469 16.3044H48.4448C44.9124 6.78437 35.7488 0 24.9997 0V0Z" fill="black"/>
<path id="Vector_3" d="M48.4447 33.6958H1.55469C5.08701 43.2157 14.2506 50.0002 24.9997 50.0002C35.7488 50.0002 44.9124 43.2157 48.4447 33.6958Z" fill="#496E2D"/>
<path id="Vector_4" d="M32.4717 11.9563L29.4186 10.5202L31.0444 7.56328L27.729 8.19756L27.3089 4.84814L24.9995 7.31152L22.6902 4.84814L22.27 8.19756L18.9547 7.56328L20.5806 10.5202L17.5273 11.9563H32.4717Z" fill="#D80027"/>
</g>
<defs>
<clipPath id="clip0_105_1887">
<rect width="50" height="50" fill="white"/>
</clipPath>
</defs>
</svg>
