<svg width="50" height="50" viewBox="0 0 50 50" fill="none" xmlns="http://www.w3.org/2000/svg">
<g id="icon=british indian ocean territory" clip-path="url(#clip0_105_1055)">
<path id="Vector" d="M25 50C38.8071 50 50 38.8071 50 25C50 11.1929 38.8071 0 25 0C11.1929 0 0 11.1929 0 25C0 38.8071 11.1929 50 25 50Z" fill="#F0F0F0"/>
<g id="Group">
<path id="Vector_2" d="M45.833 27.9918C43.7497 27.9918 43.7497 26.0869 41.6663 26.0869C39.583 26.0869 39.583 27.9918 37.4998 27.9918C35.4166 27.9918 35.4165 26.0869 33.3333 26.0869C31.25 26.0869 31.2499 27.9918 29.1666 27.9918C27.0832 27.9918 27.0831 26.0869 24.9996 26.0869C22.9163 26.0869 22.9163 27.9918 20.8331 27.9918C18.75 27.9918 18.75 26.0869 16.6667 26.0869C14.5833 26.0869 14.5833 27.9918 12.4998 27.9918C10.4163 27.9918 10.4163 26.0869 8.33276 26.0869C6.24976 26.0869 6.24976 27.9918 4.16646 27.9918C2.09438 27.9918 2.08237 26.1079 0.0324707 26.0878C0.0901855 27.2313 0.226709 28.354 0.433154 29.452C2.0937 29.6958 2.23911 31.325 4.16665 31.325C6.24995 31.325 6.24995 29.4203 8.33296 29.4203C10.4165 29.4203 10.4165 31.325 12.5 31.325C14.5834 31.325 14.5834 29.4203 16.6669 29.4203C18.7502 29.4203 18.7502 31.325 20.8333 31.325C22.9166 31.325 22.9166 29.4203 24.9998 29.4203C27.0833 29.4203 27.0833 31.325 29.1667 31.325C31.2502 31.325 31.2502 29.4203 33.3334 29.4203C35.4167 29.4203 35.4167 31.325 37.5 31.325C39.5833 31.325 39.5833 29.4203 41.6665 29.4203C43.75 29.4203 43.75 31.325 45.8332 31.325C47.7608 31.325 47.9062 29.6959 49.5668 29.452C49.7734 28.3539 49.9097 27.2313 49.9677 26.0878C47.9173 26.108 47.9051 27.9918 45.833 27.9918V27.9918Z" fill="#0052B4"/>
<path id="Vector_3" d="M41.6663 32.6086C39.583 32.6086 39.583 34.5135 37.4998 34.5135C35.4166 34.5135 35.4165 32.6086 33.3333 32.6086C31.25 32.6086 31.2499 34.5135 29.1666 34.5135C27.0831 34.5135 27.0831 32.6086 24.9996 32.6086C22.9163 32.6086 22.9163 34.5135 20.8331 34.5135C18.75 34.5135 18.75 32.6086 16.6667 32.6086C14.5833 32.6086 14.5833 34.5135 12.4998 34.5135C10.4163 34.5135 10.4163 32.6086 8.33276 32.6086C6.24976 32.6086 6.24976 34.5135 4.16646 34.5135C2.63179 34.5135 2.22661 33.4805 1.28687 32.9364C1.85601 34.6375 2.60356 36.2565 3.5064 37.7725C3.7019 37.8197 3.91929 37.8468 4.16636 37.8468C6.24966 37.8468 6.24966 35.9421 8.33267 35.9421C10.4162 35.9421 10.4162 37.8468 12.4997 37.8468C14.5832 37.8468 14.5832 35.9421 16.6667 35.9421C18.75 35.9421 18.75 37.8468 20.833 37.8468C22.9163 37.8468 22.9163 35.9421 24.9995 35.9421C27.083 35.9421 27.083 37.8468 29.1665 37.8468C31.25 37.8468 31.25 35.9421 33.3332 35.9421C35.4165 35.9421 35.4165 37.8468 37.4997 37.8468C39.5829 37.8468 39.583 35.9421 41.6662 35.9421C43.7497 35.9421 43.7497 37.8468 45.8329 37.8468C46.0801 37.8468 46.2977 37.8197 46.4933 37.7724C47.3962 36.2565 48.1437 34.6375 48.7127 32.9365C47.773 33.4806 47.3677 34.5136 45.8329 34.5136C43.7498 34.5135 43.7498 32.6086 41.6663 32.6086V32.6086Z" fill="#0052B4"/>
<path id="Vector_4" d="M49.4183 19.6231C47.8955 19.9392 47.7013 21.4701 45.833 21.4701C43.7497 21.4701 43.7497 19.5652 41.6663 19.5652C39.583 19.5652 39.583 21.4701 37.4998 21.4701C35.4166 21.4701 35.4165 19.5652 33.3333 19.5652C31.25 19.5652 31.25 21.4701 29.1666 21.4701C27.0832 21.4701 27.0831 19.5652 24.9996 19.5652C23.8739 19.5652 23.3563 20.1212 22.7898 20.6326V23.9659C23.3563 23.4546 23.8738 22.8987 24.9996 22.8987C27.0831 22.8987 27.0831 24.8034 29.1666 24.8034C31.25 24.8034 31.25 22.8987 33.3333 22.8987C35.4166 22.8987 35.4166 24.8034 37.4998 24.8034C39.583 24.8034 39.5831 22.8987 41.6663 22.8987C43.7498 22.8987 43.7498 24.8034 45.833 24.8034C47.7606 24.8034 47.906 23.1743 49.5667 22.9303C49.6731 22.9303 49.792 22.9292 49.9138 22.9278C49.8215 21.8035 49.6545 20.7003 49.4183 19.6231V19.6231Z" fill="#0052B4"/>
<path id="Vector_5" d="M47.592 14.2846C47.1603 14.6472 46.6613 14.9483 45.833 14.9483C43.7497 14.9483 43.7497 13.0435 41.6663 13.0435C39.583 13.0435 39.583 14.9483 37.4998 14.9483C35.4166 14.9483 35.4165 13.0435 33.3333 13.0435C31.25 13.0435 31.25 14.9483 29.1666 14.9483C27.0832 14.9483 27.0831 13.0435 24.9996 13.0435C23.8739 13.0435 23.3563 13.5995 22.7898 14.1108V17.4441C23.3563 16.9329 23.8738 16.377 24.9996 16.377C27.0831 16.377 27.0831 18.2816 29.1666 18.2816C31.2499 18.2816 31.2499 16.377 33.3332 16.377C35.4165 16.377 35.4165 18.2816 37.4997 18.2816C39.5829 18.2816 39.5829 16.377 41.6662 16.377C43.7497 16.377 43.7497 18.2816 45.8329 18.2816C47.3111 18.2816 47.7416 17.3241 48.6108 16.7673C48.3146 15.918 47.9745 15.0894 47.592 14.2846V14.2846Z" fill="#0052B4"/>
<path id="Vector_6" d="M41.8443 6.52681C41.7865 6.52368 41.7276 6.52173 41.6664 6.52173C39.5831 6.52173 39.5831 8.42661 37.4999 8.42661C35.4166 8.42661 35.4166 6.52173 33.3333 6.52173C31.25 6.52173 31.25 8.42661 29.1666 8.42661C27.0831 8.42661 27.0831 6.52173 24.9996 6.52173C23.8739 6.52173 23.3563 7.07778 22.7898 7.58911V10.9224C23.3563 10.4112 23.8738 9.85522 24.9996 9.85522C27.0831 9.85522 27.0831 11.7599 29.1666 11.7599C31.25 11.7599 31.25 9.85522 33.3333 9.85522C35.4166 9.85522 35.4166 11.7599 37.4998 11.7599C39.583 11.7599 39.5831 9.85522 41.6663 9.85522C43.7498 9.85522 43.7498 11.7599 45.833 11.7599C45.9613 11.7599 46.0811 11.7523 46.1946 11.7387C44.9845 9.80864 43.5193 8.05503 41.8443 6.52681V6.52681Z" fill="#0052B4"/>
<path id="Vector_7" d="M31.3898 0.825635C30.818 1.34009 30.3012 1.90513 29.1665 1.90513C27.083 1.90513 27.083 0.000439453 24.9996 0.000244141H24.9992C23.9219 0.000341797 23.4018 0.509814 22.8623 1.0019V4.3353C23.4017 3.84321 23.922 3.33364 24.9996 3.33364C27.0831 3.33364 27.0831 5.23833 29.1666 5.23833C31.25 5.23833 31.25 3.33364 33.3333 3.33364C35.4166 3.33364 35.4166 5.23833 37.4998 5.23833C38.3739 5.23833 38.881 4.90278 39.3294 4.51353C36.9528 2.848 34.2733 1.58569 31.3898 0.825635V0.825635Z" fill="#0052B4"/>
<path id="Vector_8" d="M29.1665 47.5571C27.083 47.5571 27.083 45.6522 24.9995 45.6522C22.9162 45.6522 22.9162 47.5571 20.833 47.5571C18.75 47.5571 18.75 45.6522 16.6667 45.6522C15.0709 45.6522 14.6965 46.7688 13.6731 47.292C16.4954 48.729 19.6269 49.6449 22.9414 49.9151C23.454 49.4467 23.9747 48.9856 24.9995 48.9856C26.0246 48.9856 26.5453 49.4467 27.058 49.9152C30.3725 49.6451 33.5042 48.7291 36.3266 47.2921C35.303 46.769 34.9288 45.6521 33.3332 45.6521C31.25 45.6522 31.25 47.5571 29.1665 47.5571V47.5571Z" fill="#0052B4"/>
<path id="Vector_9" d="M37.4997 41.0353C35.4164 41.0353 35.4164 39.1304 33.3332 39.1304C31.2499 39.1304 31.2499 41.0353 29.1665 41.0353C27.083 41.0353 27.083 39.1304 24.9995 39.1304C22.9162 39.1304 22.9162 41.0353 20.833 41.0353C18.75 41.0353 18.75 39.1304 16.6667 39.1304C14.5832 39.1304 14.5832 41.0353 12.4997 41.0353C10.4162 41.0353 10.4162 39.1304 8.33267 39.1304C6.83452 39.1304 6.41382 40.1157 5.52075 40.6689C6.08052 41.3641 6.67563 42.0295 7.30542 42.6603C7.58755 42.5398 7.9186 42.4638 8.33257 42.4638C10.4161 42.4638 10.4161 44.3685 12.4996 44.3685C14.5831 44.3685 14.5831 42.4638 16.6666 42.4638C18.7499 42.4638 18.7499 44.3685 20.8329 44.3685C22.9162 44.3685 22.9162 42.4638 24.9994 42.4638C27.0829 42.4638 27.0829 44.3685 29.1664 44.3685C31.2499 44.3685 31.2499 42.4638 33.3331 42.4638C35.4163 42.4638 35.4164 44.3685 37.4996 44.3685C39.5828 44.3685 39.5829 42.4638 41.6661 42.4638C42.0805 42.4638 42.4116 42.5398 42.6939 42.6605C43.3238 42.0296 43.9189 41.3642 44.4787 40.669C43.5855 40.1159 43.1648 39.1305 41.6662 39.1305C39.5829 39.1304 39.5829 41.0353 37.4997 41.0353V41.0353Z" fill="#0052B4"/>
</g>
<g id="Group_2">
<path id="Vector_10" d="M24.9331 25H25C25 24.9775 25 24.9557 25 24.9331C24.9777 24.9555 24.9555 24.9777 24.9331 25Z" fill="#F0F0F0"/>
</g>
<g id="Group_3">
<path id="Vector_11" d="M25 13.0435V20.3885L16.3044 11.9565L25 13.0435Z" fill="#0052B4"/>
<path id="Vector_12" d="M13.0436 24.9999H20.3883L13.0435 15.2173L11.9565 22.826L13.0436 24.9999Z" fill="#0052B4"/>
</g>
<path id="Vector_13" d="M25 13.0435C25 8.64453 25 5.76221 25 0H24.9958C11.1906 0.00234375 0 11.1942 0 25H13.0436V17.6552L20.3883 25H24.9332C24.9555 24.9777 24.9777 24.9555 25.0001 24.9331C25.0001 23.2488 25.0001 21.746 25.0001 20.3885L17.6551 13.0435H25Z" fill="#F0F0F0"/>
<g id="Group_4">
<path id="Vector_14" d="M12.6479 3.26074C8.73779 5.48721 5.48721 8.73779 3.26074 12.6479V24.9999H9.78252V9.78272V9.78252H24.9999C24.9999 7.72559 24.9999 5.76602 24.9999 3.26074H12.6479Z" fill="#D80027"/>
<path id="Vector_15" d="M25 21.9256L16.1177 13.0435H13.0435V13.0437L24.9998 24.9999H25C25 24.9999 25 22.8801 25 21.9256V21.9256Z" fill="#D80027"/>
</g>
<path id="Vector_16" d="M32.6086 13.0435H42.3913L37.5 17.9348L32.6086 13.0435Z" fill="#6DA544"/>
<g id="Group_5">
<path id="Vector_17" d="M36.4131 16.8479H38.587V22.8261H36.4131V16.8479Z" fill="#A2001D"/>
<path id="Vector_18" d="M36.4131 32.6086H38.587V38.5869H36.4131V32.6086Z" fill="#A2001D"/>
</g>
<path id="Vector_19" d="M44.0217 29.348C44.0217 27.5471 42.5618 26.0871 40.7609 26.0871C39.9255 26.0871 39.164 26.4016 38.587 26.9181V25.0001H39.6739V22.8262H38.587V21.7393H36.413V22.8262H35.3261V25.0001H36.413V26.9181C35.836 26.4016 35.0745 26.0871 34.2391 26.0871C32.4382 26.0871 30.9783 27.5471 30.9783 29.348C30.9783 30.3135 31.3983 31.1807 32.0652 31.7778V33.6958H42.9347V31.7778C43.6017 31.1807 44.0217 30.3135 44.0217 29.348V29.348Z" fill="#FFDA44"/>
<path id="Vector_20" d="M40.7609 28.2607C40.4181 28.2607 40.178 28.4113 40.0369 28.5375L38.587 29.8354H36.4132L34.9633 28.5375C34.8222 28.4113 34.5821 28.2607 34.2393 28.2607C33.6399 28.2607 33.1523 28.7483 33.1523 29.3477C33.1523 29.7698 33.38 30.0365 33.5156 30.1581L34.2394 30.8062V31.5216H40.7611V30.8062L41.4849 30.1581C41.6205 30.0366 41.8481 29.7698 41.8481 29.3477C41.8479 28.7483 41.3604 28.2607 40.7609 28.2607V28.2607Z" fill="#D80027"/>
</g>
<defs>
<clipPath id="clip0_105_1055">
<rect width="50" height="50" fill="white"/>
</clipPath>
</defs>
</svg>
