<svg width="50" height="50" viewBox="0 0 50 50" fill="none" xmlns="http://www.w3.org/2000/svg">
<g id="icon=puerto rico" clip-path="url(#clip0_105_2254)">
<path id="Vector" d="M25 50C38.8071 50 50 38.8071 50 25C50 11.1929 38.8071 0 25 0C11.1929 0 0 11.1929 0 25C0 38.8071 11.1929 50 25 50Z" fill="#F0F0F0"/>
<g id="Group">
<path id="Vector_2" d="M25.0001 0C16.8212 0 9.55996 3.92803 4.99902 10H45.0012C40.4402 3.92803 33.179 0 25.0001 0Z" fill="#D80027"/>
<path id="Vector_3" d="M25.0001 50C33.179 50 40.4402 46.072 45.0012 40H4.99902C9.55996 46.072 16.8212 50 25.0001 50Z" fill="#D80027"/>
<path id="Vector_4" d="M0 25C0 26.7124 0.172656 28.3845 0.500684 30H49.4995C49.8275 28.3845 50 26.7124 50 25C50 23.2876 49.8273 21.6155 49.4994 20H0.500684C0.172656 21.6155 0 23.2876 0 25H0Z" fill="#D80027"/>
</g>
<path id="Vector_5" d="M7.32231 7.32227C-2.44077 17.0854 -2.44077 32.9145 7.32231 42.6777C11.3568 38.6433 15.237 34.7631 25 25L7.32231 7.32227Z" fill="#0052B4"/>
<path id="Vector_6" d="M10.1181 18.4782L11.7367 23.4602H16.9756L12.7375 26.5395L14.3561 31.5218L10.1181 28.4426L5.87988 31.5218L7.49883 26.5395L3.26074 23.4602H8.49922L10.1181 18.4782Z" fill="#F0F0F0"/>
</g>
<defs>
<clipPath id="clip0_105_2254">
<rect width="50" height="50" fill="white"/>
</clipPath>
</defs>
</svg>
