<svg width="50" height="50" viewBox="0 0 50 50" fill="none" xmlns="http://www.w3.org/2000/svg">
<g id="icon=singapore" clip-path="url(#clip0_105_2397)">
<path id="Vector" d="M25 50C38.8071 50 50 38.8071 50 25C50 11.1929 38.8071 0 25 0C11.1929 0 0 11.1929 0 25C0 38.8071 11.1929 50 25 50Z" fill="#F0F0F0"/>
<path id="Vector_2" d="M0 25.0001C0 11.193 11.193 0 25 0C38.807 0 50 11.193 50 25.0001" fill="#D80027"/>
<g id="Group">
<path id="Vector_3" d="M15.217 13.0434C15.217 9.40102 17.7769 6.35825 21.1952 5.61167C20.6698 5.49702 20.1248 5.43481 19.5647 5.43481C15.3625 5.43481 11.9561 8.84126 11.9561 13.0435C11.9561 17.2458 15.3625 20.6522 19.5647 20.6522C20.1246 20.6522 20.6697 20.59 21.1952 20.4752C17.7769 19.7287 15.217 16.6859 15.217 13.0434V13.0434Z" fill="#F0F0F0"/>
<path id="Vector_4" d="M24.9996 5.97827L25.5393 7.63892H27.2855L25.8727 8.66538L26.4123 10.326L24.9996 9.29976L23.5869 10.326L24.1266 8.66538L22.7139 7.63892H24.46L24.9996 5.97827Z" fill="#F0F0F0"/>
<path id="Vector_5" d="M20.7635 9.23914L21.303 10.8999H23.0492L21.6365 11.9262L22.1762 13.5869L20.7635 12.5606L19.3506 13.5869L19.8903 11.9262L18.4775 10.8999H20.2237L20.7635 9.23914Z" fill="#F0F0F0"/>
<path id="Vector_6" d="M29.2359 9.23914L29.7757 10.8999H31.5218L30.109 11.9262L30.6487 13.5869L29.2359 12.5606L27.8232 13.5869L28.3629 11.9262L26.9502 10.8999H28.6963L29.2359 9.23914Z" fill="#F0F0F0"/>
<path id="Vector_7" d="M27.6051 14.1304L28.1447 15.7911H29.8908L28.4781 16.8175L29.0178 18.4781L27.6051 17.4519L26.1924 18.4781L26.732 16.8175L25.3193 15.7911H27.0653L27.6051 14.1304Z" fill="#F0F0F0"/>
<path id="Vector_8" d="M22.3942 14.1304L22.9338 15.7911H24.6801L23.2673 16.8175L23.807 18.4781L22.3942 17.4519L20.9814 18.4781L21.5211 16.8175L20.1084 15.7911H21.8546L22.3942 14.1304Z" fill="#F0F0F0"/>
</g>
</g>
<defs>
<clipPath id="clip0_105_2397">
<rect width="50" height="50" fill="white"/>
</clipPath>
</defs>
</svg>
