<svg width="50" height="50" viewBox="0 0 50 50" fill="none" xmlns="http://www.w3.org/2000/svg">
<g id="icon=guyana" clip-path="url(#clip0_105_1635)">
<path id="Vector" d="M25 50C38.8071 50 50 38.8071 50 25C50 11.1929 38.8071 0 25 0C11.1929 0 0 11.1929 0 25C0 38.8071 11.1929 50 25 50Z" fill="#F0F0F0"/>
<path id="Vector_2" d="M25.0001 0C20.5801 0 16.4289 1.14863 12.8262 3.16133V46.8387C16.429 48.8514 20.5801 50 25.0001 50C38.8071 50 50.0001 38.807 50.0001 25C50.0001 11.193 38.8071 0 25.0001 0Z" fill="#6DA544"/>
<path id="Vector_3" d="M12.8997 3.12012C11.327 3.9917 9.8584 5.02764 8.5167 6.20537C8.65234 6.08643 8.78936 5.96885 8.92744 5.85283L28.0744 24.9999L8.92734 44.147C8.78916 44.031 8.65225 43.9134 8.5166 43.7944C9.8583 44.9722 11.327 46.008 12.8996 46.8797L50.0001 24.9999L12.8997 3.12012Z" fill="#F0F0F0"/>
<path id="Vector_4" d="M10.7882 4.43188C10.0258 4.95981 9.29355 5.52788 8.5958 6.13501L25.0001 25L8.5957 43.8651C9.29346 44.4722 10.0257 45.0404 10.7881 45.5682L45.7206 25L10.7882 4.43188Z" fill="#FFDA44"/>
<path id="Vector_5" d="M8.92725 5.85303C8.37148 6.32002 7.83516 6.80957 7.32227 7.32236L22.8261 25.0001L7.32227 42.6778C7.83516 43.1907 8.37139 43.6804 8.92725 44.1472L28.0743 25.0001L8.92725 5.85303Z" fill="black"/>
<path id="Vector_6" d="M7.32231 7.32227C-2.44077 17.0854 -2.44077 32.9145 7.32231 42.6777C11.3568 38.6433 15.237 34.7631 25 25L7.32231 7.32227Z" fill="#D80027"/>
</g>
<defs>
<clipPath id="clip0_105_1635">
<rect width="50" height="50" fill="white"/>
</clipPath>
</defs>
</svg>
