<svg width="50" height="50" viewBox="0 0 50 50" fill="none" xmlns="http://www.w3.org/2000/svg">
<g id="icon=nato" clip-path="url(#clip0_105_2041)">
<path id="Vector" d="M25 50C38.8071 50 50 38.8071 50 25C50 11.1929 38.8071 0 25 0C11.1929 0 0 11.1929 0 25C0 38.8071 11.1929 50 25 50Z" fill="#0052B4"/>
<path id="Vector_2" d="M35.7286 26.7442C35.8206 26.1762 35.8691 25.5937 35.8691 25.0001C35.8691 25.5937 35.8206 26.1762 35.7286 26.7442L40.217 25.0001L35.7286 23.2561L33.2633 22.2981L29.2579 20.7418L27.7016 16.7364C30.326 17.5967 32.4028 19.6735 33.2632 22.298L35.7285 23.256C34.9835 18.6567 31.3428 15.0159 26.7437 14.271L24.9996 9.78271L23.2555 14.2711C18.6563 15.0162 15.0156 18.6568 14.2706 23.2561L9.78223 25.0001L14.2707 26.7442C15.0157 31.3435 18.6563 34.9841 23.2556 35.7291L24.9996 40.2175L26.7437 35.7291C31.3429 34.9841 34.9836 31.3434 35.7286 26.7442V26.7442ZM27.5785 22.4213L24.9996 25.0001H34.2149L27.5784 27.579L24.9996 25.0001V34.2155L22.4207 27.5789L24.9996 25.0001H15.7843L22.4207 22.4213L24.9996 25.0001V15.7848L27.5785 22.4213ZM22.2976 16.7365L20.7411 20.7419L16.7359 22.2982C17.5962 19.6735 19.673 17.5969 22.2976 16.7365ZM16.736 27.7021L20.7411 29.2585L22.2976 33.2637C19.673 32.4033 17.5964 30.3267 16.736 27.7021ZM27.7017 33.2637L29.258 29.2585L33.2632 27.7021C32.4028 30.3267 30.3262 32.4033 27.7017 33.2637Z" fill="#F0F0F0"/>
<g id="Group">
<path id="Vector_3" d="M34.2153 25H25L27.5789 27.5789L34.2153 25Z" fill="#0052B4"/>
<path id="Vector_4" d="M15.7842 25H24.9995L22.4206 22.4211L15.7842 25Z" fill="#0052B4"/>
<path id="Vector_5" d="M24.9998 34.2154V25L22.4209 27.5789L24.9998 34.2154Z" fill="#0052B4"/>
<path id="Vector_6" d="M25 25L27.5789 22.4212L25 15.7847V25Z" fill="#0052B4"/>
</g>
<g id="Group_2">
<path id="Vector_7" d="M23.9131 3.26074H26.087V7.60859H23.9131V3.26074Z" fill="#F0F0F0"/>
<path id="Vector_8" d="M3.26074 23.9131H7.60859V26.087H3.26074V23.9131Z" fill="#F0F0F0"/>
<path id="Vector_9" d="M23.9131 42.3911H26.087V46.739H23.9131V42.3911Z" fill="#F0F0F0"/>
<path id="Vector_10" d="M42.3916 23.9131H46.7395V26.087H42.3916V23.9131Z" fill="#F0F0F0"/>
</g>
</g>
<defs>
<clipPath id="clip0_105_2041">
<rect width="50" height="50" fill="white"/>
</clipPath>
</defs>
</svg>
