<svg width="50" height="50" viewBox="0 0 50 50" fill="none" xmlns="http://www.w3.org/2000/svg">
<g id="icon=martinique" clip-path="url(#clip0_105_1920)">
<path id="Vector" d="M25 50C38.8071 50 50 38.8071 50 25C50 11.1929 38.8071 0 25 0C11.1929 0 0 11.1929 0 25C0 38.8071 11.1929 50 25 50Z" fill="#F0F0F0"/>
<g id="Group">
<path id="Vector_2" d="M49.7861 21.7393C49.0965 16.4672 46.7283 11.3729 42.678 7.32256C38.6277 3.27227 33.5333 0.904004 28.2612 0.214355L28.2613 21.7393H49.7861Z" fill="#0052B4"/>
<path id="Vector_3" d="M21.7393 0.214355C16.4672 0.904004 11.3728 3.27217 7.32246 7.32246C3.27227 11.3729 0.904004 16.4673 0.214355 21.7395L21.7394 21.7394L21.7393 0.214355Z" fill="#0052B4"/>
<path id="Vector_4" d="M0.214355 28.2612C0.904004 33.5333 3.27227 38.6278 7.32246 42.678C11.3728 46.7282 16.4671 49.0964 21.7394 49.7863L21.7393 28.2614L0.214355 28.2612Z" fill="#0052B4"/>
<path id="Vector_5" d="M28.2612 49.786C33.5333 49.0964 38.6276 46.7282 42.6779 42.6779C46.7282 38.6276 49.0964 33.5333 49.786 28.2612H28.2612V49.786Z" fill="#0052B4"/>
</g>
<g id="Group_2">
<path id="Vector_6" d="M33.5339 15.8631C33.5339 15.5307 33.8041 15.2604 34.1366 15.2604H35.428C37.4694 15.2604 39.1303 13.5997 39.1303 11.5584C39.1303 9.51709 37.4695 7.85625 35.428 7.85625H34.2017C33.8014 7.55557 33.2644 7.37012 32.672 7.37012C31.4363 7.37012 30.4347 8.17139 30.4347 9.15986C30.4347 10.1388 31.4172 10.9329 32.6363 10.9483L32.6357 10.9555H35.428C35.7605 10.9555 36.0308 11.2258 36.0308 11.5582C36.0308 11.8906 35.7605 12.1608 35.428 12.1608H34.1366C32.0952 12.1608 30.4346 13.8216 30.4346 15.8629C30.4346 17.9042 32.0951 19.565 34.1366 19.565H39.1302V16.4656H34.1366C33.8041 16.4657 33.5339 16.1955 33.5339 15.8631V15.8631Z" fill="#F0F0F0"/>
<path id="Vector_7" d="M13.9688 15.8631C13.9688 15.5307 14.2391 15.2604 14.5716 15.2604H15.863C17.9044 15.2604 19.5652 13.5997 19.5652 11.5584C19.5652 9.51709 17.9045 7.85625 15.863 7.85625H14.6366C14.2363 7.55557 13.6993 7.37012 13.1069 7.37012C11.8713 7.37012 10.8696 8.17139 10.8696 9.15986C10.8696 10.1388 11.8521 10.9329 13.0713 10.9483L13.0707 10.9555H15.8631C16.1956 10.9555 16.4658 11.2258 16.4658 11.5582C16.4658 11.8906 16.1956 12.1608 15.8631 12.1608H14.5717C12.5303 12.1608 10.8696 13.8216 10.8696 15.8629C10.8696 17.9042 12.5302 19.565 14.5717 19.565H19.5651V16.4656H14.5716C14.2391 16.4657 13.9688 16.1955 13.9688 15.8631V15.8631Z" fill="#F0F0F0"/>
<path id="Vector_8" d="M33.534 38.9275C33.534 38.5951 33.8042 38.3249 34.1367 38.3249H35.4281C37.4695 38.3249 39.1304 36.6642 39.1304 34.6229C39.1304 32.5815 37.4696 30.9207 35.4281 30.9207H34.2018C33.8015 30.62 33.2645 30.4346 32.6721 30.4346C31.4363 30.4346 30.4347 31.2359 30.4347 32.2243C30.4347 33.2032 31.4172 33.9974 32.6363 34.0128L32.6357 34.0199H35.428C35.7605 34.0199 36.0308 34.2902 36.0308 34.6227C36.0308 34.9551 35.7605 35.2253 35.428 35.2253H34.1366C32.0952 35.2253 30.4346 36.886 30.4346 38.9273C30.4346 40.9687 32.0951 42.6295 34.1366 42.6295H39.1303V39.5302H34.1367C33.8042 39.5303 33.534 39.2599 33.534 38.9275V38.9275Z" fill="#F0F0F0"/>
<path id="Vector_9" d="M13.9689 38.9275C13.9689 38.5951 14.2392 38.3249 14.5717 38.3249H15.8631C17.9045 38.3249 19.5653 36.6642 19.5653 34.6229C19.5653 32.5815 17.9046 30.9207 15.8631 30.9207H14.6367C14.2364 30.62 13.6994 30.4346 13.107 30.4346C11.8713 30.4346 10.8696 31.2359 10.8696 32.2243C10.8696 33.2032 11.8521 33.9974 13.0713 34.0128L13.0707 34.0199H15.8631C16.1956 34.0199 16.4658 34.2902 16.4658 34.6227C16.4658 34.9551 16.1956 35.2253 15.8631 35.2253H14.5717C12.5303 35.2253 10.8696 36.886 10.8696 38.9273C10.8696 40.9687 12.5302 42.6295 14.5717 42.6295H19.5652V39.5302H14.5717C14.2392 39.5303 13.9689 39.2599 13.9689 38.9275Z" fill="#F0F0F0"/>
</g>
</g>
<defs>
<clipPath id="clip0_105_1920">
<rect width="50" height="50" fill="white"/>
</clipPath>
</defs>
</svg>
