<svg width="50" height="50" viewBox="0 0 50 50" fill="none" xmlns="http://www.w3.org/2000/svg">
<g id="icon=djibouti" clip-path="url(#clip0_105_1372)">
<path id="Vector" d="M22.8261 27.1739C22.8261 27.1739 7.33691 7.31885 7.32227 7.32236C11.8463 2.79824 18.0964 0 25 0C38.807 0 50 11.193 50 25L22.8261 27.1739Z" fill="#338AF3"/>
<path id="Vector_2" d="M22.8261 25C22.8261 25 7.33691 42.6812 7.32227 42.6776C11.8463 47.2018 18.0964 50 25 50C38.807 50 50 38.807 50 25H22.8261Z" fill="#6DA544"/>
<path id="Vector_3" d="M7.32231 7.32227C-2.44077 17.0854 -2.44077 32.9145 7.32231 42.6777C11.3568 38.6433 15.237 34.7631 25 25L7.32231 7.32227Z" fill="#F0F0F0"/>
<path id="Vector_4" d="M10.1181 18.4782L11.7367 23.4603H16.9756L12.7375 26.5396L14.3561 31.5218L10.1181 28.4426L5.87988 31.5218L7.49883 26.5396L3.26074 23.4603H8.49922L10.1181 18.4782Z" fill="#D80027"/>
</g>
<defs>
<clipPath id="clip0_105_1372">
<rect width="50" height="50" fill="white"/>
</clipPath>
</defs>
</svg>
