<svg width="50" height="51" viewBox="0 0 50 51" fill="none" xmlns="http://www.w3.org/2000/svg">
<g id="icon=india" clip-path="url(#clip0_105_1689)">
<path id="Vector" d="M25 50.9893C38.8071 50.9893 50 39.7964 50 25.9893C50 12.1821 38.8071 0.989258 25 0.989258C11.1929 0.989258 0 12.1821 0 25.9893C0 39.7964 11.1929 50.9893 25 50.9893Z" fill="#F0F0F0"/>
<path id="Vector_2" d="M25 0.989258C15.0885 0.989258 6.52446 6.75732 2.48071 15.1197H47.5193C43.4756 6.75732 34.9115 0.989258 25 0.989258V0.989258Z" fill="#FF9811"/>
<path id="Vector_3" d="M25 50.9894C34.9115 50.9894 43.4756 45.2213 47.5194 36.8589H2.48071C6.52446 45.2213 15.0885 50.9894 25 50.9894Z" fill="#6DA544"/>
<path id="Vector_4" d="M25 34.6849C29.8025 34.6849 33.6957 30.7918 33.6957 25.9893C33.6957 21.1869 29.8025 17.2937 25 17.2937C20.1976 17.2937 16.3044 21.1869 16.3044 25.9893C16.3044 30.7918 20.1976 34.6849 25 34.6849Z" fill="#0052B4"/>
<path id="Vector_5" d="M25 31.424C28.0015 31.424 30.4347 28.9907 30.4347 25.9892C30.4347 22.9877 28.0015 20.5544 25 20.5544C21.9984 20.5544 19.5652 22.9877 19.5652 25.9892C19.5652 28.9907 21.9984 31.424 25 31.424Z" fill="#F0F0F0"/>
<path id="Vector_6" d="M25 19.2827L26.6767 23.0853L30.808 22.6359L28.3533 25.9892L30.808 29.3424L26.6767 28.8931L25 32.6956L23.3234 28.8931L19.1921 29.3423L21.6468 25.9892L19.1921 22.6359L23.3234 23.0853L25 19.2827Z" fill="#0052B4"/>
</g>
<defs>
<clipPath id="clip0_105_1689">
<rect width="50" height="50" fill="white" transform="translate(0 0.989258)"/>
</clipPath>
</defs>
</svg>
