<svg width="50" height="50" viewBox="0 0 50 50" fill="none" xmlns="http://www.w3.org/2000/svg">
<g id="icon=gabon" clip-path="url(#clip0_105_1530)">
<path id="Vector" d="M48.445 33.6956C49.45 30.9874 50 28.058 50 25C50 21.942 49.45 19.0128 48.445 16.3044L25 14.1305L1.55498 16.3044C0.550098 19.0128 0 21.942 0 25C0 28.058 0.550098 30.9874 1.55498 33.6956L25 35.8696L48.445 33.6956Z" fill="#FFDA44"/>
<path id="Vector_2" d="M25 49.9999C35.7491 49.9999 44.9127 43.2156 48.445 33.6956H1.55493C5.08735 43.2156 14.2508 49.9999 25 49.9999Z" fill="#0052B4"/>
<path id="Vector_3" d="M25 0C14.2508 0 5.08735 6.78437 1.55493 16.3044H48.4451C44.9127 6.78437 35.7491 0 25 0Z" fill="#6DA544"/>
</g>
<defs>
<clipPath id="clip0_105_1530">
<rect width="50" height="50" fill="white"/>
</clipPath>
</defs>
</svg>
