<svg width="50" height="50" viewBox="0 0 50 50" fill="none" xmlns="http://www.w3.org/2000/svg">
<g id="icon=hong kong" clip-path="url(#clip0_105_1669)">
<path id="Vector" d="M25 50C38.8071 50 50 38.8071 50 25C50 11.1929 38.8071 0 25 0C11.1929 0 0 11.1929 0 25C0 38.8071 11.1929 50 25 50Z" fill="#D80027"/>
<g id="Group">
<path id="Vector_2" d="M27.581 18.9129C27.0128 21.2761 26.0034 20.8254 25.508 22.8864C22.5897 22.1847 20.7924 19.2502 21.4941 16.3317C22.1955 13.4134 25.1303 11.6162 28.0487 12.3178C27.0578 16.4396 28.0893 16.7994 27.581 18.9129Z" fill="#F0F0F0"/>
<path id="Vector_3" d="M20.0086 20.664C22.0805 21.9345 21.3399 22.7555 23.1467 23.8636C21.5776 26.4223 18.2314 27.2246 15.6726 25.6555C13.1139 24.0865 12.3115 20.7401 13.8806 18.1814C17.4945 20.3974 18.1551 19.5276 20.0086 20.664V20.664Z" fill="#F0F0F0"/>
<path id="Vector_4" d="M19.3341 28.4075C21.1828 26.8296 21.7345 27.7876 23.3467 26.4116C25.2954 28.6945 25.0243 32.125 22.7415 34.0737C20.4585 36.0225 17.028 35.7511 15.0796 33.4684C18.3036 30.7161 17.6805 29.8187 19.3341 28.4075Z" fill="#F0F0F0"/>
<path id="Vector_5" d="M26.4896 31.442C25.5599 29.1962 26.6415 28.9673 25.8311 27.009C28.6044 25.8612 31.7833 27.179 32.9312 29.9523C34.0789 32.7257 32.7609 35.9045 29.9876 37.0523C28.3668 33.1354 27.321 33.4507 26.4896 31.442Z" fill="#F0F0F0"/>
<path id="Vector_6" d="M31.5869 25.574C29.1638 25.7641 29.2801 24.6645 27.1673 24.8303C26.9326 21.8382 29.1684 19.2219 32.1607 18.9871C35.1528 18.7528 37.7691 20.9883 38.0036 23.9807C33.7774 24.3121 33.754 25.4042 31.5869 25.574Z" fill="#F0F0F0"/>
</g>
</g>
<defs>
<clipPath id="clip0_105_1669">
<rect width="50" height="50" fill="white"/>
</clipPath>
</defs>
</svg>
