<svg width="50" height="51" viewBox="0 0 50 51" fill="none" xmlns="http://www.w3.org/2000/svg">
<g id="icon=corsica" clip-path="url(#clip0_105_1298)">
<path id="Vector" d="M25 50.9893C38.8071 50.9893 50 39.7964 50 25.9893C50 12.1821 38.8071 0.989258 25 0.989258C11.1929 0.989258 0 12.1821 0 25.9893C0 39.7964 11.1929 50.9893 25 50.9893Z" fill="#FCFCFC"/>
<path id="Vector_2" d="M33.7047 22.1644C33.7047 16.8769 29.4184 12.5906 24.131 12.5906C20.2292 12.5906 16.875 14.9256 15.3836 18.2736L14.2029 22.5544L15.2898 23.6413L13.1158 27.9892L15.2898 29.0761L14.2029 30.163V31.2499L15.2898 32.3368V34.5108L16.3767 35.5977L19.6375 34.5108C19.6375 34.5108 19.6375 35.5977 20.7244 36.6847C21.8114 37.7716 22.8985 39.9456 22.8985 39.9456C22.8985 39.9456 26.1593 41.0325 28.3332 37.7717C30.5072 34.5109 32.6811 33.4238 32.6811 33.4238L30.5858 29.233C32.502 27.4827 33.7047 24.9645 33.7047 22.1644V22.1644Z" fill="black"/>
<path id="Vector_3" d="M34.4849 25.8254C38.9018 25.0804 39.6375 16.4313 39.6375 16.4313H33.5506C36.7028 24.04 33.4035 24.5518 33.4035 24.5518C32.9565 24.2193 16.9606 16.6416 16.4536 16.4489C16.3314 16.6124 15.8817 17.0418 15.335 18.3787C14.7882 19.7156 14.6541 20.9183 14.6541 20.9183C14.9101 21.0852 31.8977 27.017 32.3467 27.0664C33.2378 27.649 34.3343 29.3913 33.7215 34.5571L39.5803 32.9059C39.5805 32.9059 37.5921 27.6166 34.4849 25.8254V25.8254Z" fill="#ACABB1"/>
</g>
<defs>
<clipPath id="clip0_105_1298">
<rect width="50" height="50" fill="white" transform="translate(0 0.989258)"/>
</clipPath>
</defs>
</svg>
