<svg width="50" height="50" viewBox="0 0 50 50" fill="none" xmlns="http://www.w3.org/2000/svg">
<g id="icon=guatemala" clip-path="url(#clip0_105_1613)">
<path id="Vector" d="M25 50C38.8071 50 50 38.8071 50 25C50 11.1929 38.8071 0 25 0C11.1929 0 0 11.1929 0 25C0 38.8071 11.1929 50 25 50Z" fill="#F0F0F0"/>
<g id="Group">
<path id="Vector_2" d="M50.0001 25C50.0001 15.0885 44.232 6.52446 35.8696 2.48071V47.5193C44.232 43.4756 50.0001 34.9115 50.0001 25V25Z" fill="#338AF3"/>
<path id="Vector_3" d="M0 25C0 34.9115 5.76807 43.4756 14.1305 47.5194V2.48071C5.76807 6.52446 0 15.0885 0 25Z" fill="#338AF3"/>
</g>
<path id="Vector_4" d="M31.5329 29.2274L27.3058 25.0002L31.3295 20.9763L31.1472 18.8511L29.9952 17.699L24.9999 22.6943L20.0046 17.699L18.8526 18.8511L18.6703 20.9763L22.694 25.0002L18.4668 29.2274L20.7727 31.5331L24.9999 27.306L29.2271 31.5331L31.5329 29.2274Z" fill="#ACABB1"/>
<path id="Vector_5" d="M31.1488 18.8513L28.843 21.1571C29.8265 22.1406 30.4349 23.4993 30.4349 25C30.4349 28.0016 28.0016 30.4348 25.0001 30.4348C21.9987 30.4348 19.5653 28.0016 19.5653 25C19.5653 23.4993 20.1737 22.1406 21.1572 21.1571L18.8514 18.8513C17.2777 20.4248 16.3044 22.5987 16.3044 25C16.3044 29.8026 20.1976 33.6957 25 33.6957C29.8025 33.6957 33.6957 29.8025 33.6957 25C33.6957 22.5988 32.7224 20.4249 31.1488 18.8513V18.8513Z" fill="#6DA544"/>
</g>
<defs>
<clipPath id="clip0_105_1613">
<rect width="50" height="50" fill="white"/>
</clipPath>
</defs>
</svg>
