<svg width="50" height="50" viewBox="0 0 50 50" fill="none" xmlns="http://www.w3.org/2000/svg">
<g id="icon=china" clip-path="url(#clip0_105_1244)">
<path id="Vector" d="M25 50C38.8071 50 50 38.8071 50 25C50 11.1929 38.8071 0 25 0C11.1929 0 0 11.1929 0 25C0 38.8071 11.1929 50 25 50Z" fill="#D80027"/>
<g id="Group">
<path id="Vector_2" d="M13.6816 15.2148L15.8398 21.8555H22.8223L17.1777 25.9668L19.3359 32.6074L13.6816 28.5059L8.02734 32.6074L10.1953 25.9668L4.54102 21.8555H11.5234L13.6816 15.2148Z" fill="#FFDA44"/>
<path id="Vector_3" d="M29.6387 38.7207L27.9883 36.6895L25.5469 37.6367L26.9629 35.4395L25.3125 33.3984L27.8418 34.0723L29.2676 31.875L29.4043 34.4922L31.9434 35.166L29.4922 36.1035L29.6387 38.7207Z" fill="#FFDA44"/>
<path id="Vector_4" d="M32.9199 32.7637L33.7012 30.2637L31.5625 28.75L34.1797 28.7109L34.9512 26.2109L35.8008 28.6914L38.418 28.6621L36.3184 30.2246L37.1582 32.7051L35.0195 31.1914L32.9199 32.7637Z" fill="#FFDA44"/>
<path id="Vector_5" d="M37.3438 18.3496L36.1914 20.7031L38.0664 22.5293L35.4785 22.1582L34.3262 24.502L33.877 21.9238L31.2793 21.5527L33.6035 20.332L33.1543 17.7441L35.0293 19.5703L37.3438 18.3496Z" fill="#FFDA44"/>
<path id="Vector_6" d="M29.707 11.2207L29.5117 13.8281L31.9434 14.8145L29.3945 15.4395L29.209 18.0566L27.832 15.8301L25.2832 16.4551L26.9727 14.4531L25.5859 12.2363L28.0176 13.2227L29.707 11.2207Z" fill="#FFDA44"/>
</g>
</g>
<defs>
<clipPath id="clip0_105_1244">
<rect width="50" height="50" fill="white"/>
</clipPath>
</defs>
</svg>
