<svg width="50" height="50" viewBox="0 0 50 50" fill="none" xmlns="http://www.w3.org/2000/svg">
<g id="icon=armenia" clip-path="url(#clip0_105_853)">
<path id="Vector" d="M50 24.9999C50 21.9419 49.45 19.0125 48.445 16.3043L25 15.2173L1.55498 16.3042C0.550098 19.0125 0 21.9419 0 24.9999C0 28.0579 0.550098 30.9873 1.55498 33.6955L25 34.7825L48.445 33.6956C49.45 30.9873 50 28.0579 50 24.9999Z" fill="#0052B4"/>
<path id="Vector_2" d="M25.0002 50.0002C35.7493 50.0002 44.9129 43.2158 48.4452 33.6958H1.55518C5.0875 43.2158 14.2511 50.0002 25.0002 50.0002Z" fill="#FF9811"/>
<path id="Vector_3" d="M1.55518 16.3044H48.4453C44.9129 6.78437 35.7493 0 25.0002 0C14.2511 0 5.0875 6.78437 1.55518 16.3044V16.3044Z" fill="#D80027"/>
</g>
<defs>
<clipPath id="clip0_105_853">
<rect width="50" height="50" fill="white"/>
</clipPath>
</defs>
</svg>
