<svg width="50" height="50" viewBox="0 0 50 50" fill="none" xmlns="http://www.w3.org/2000/svg">
<g id="icon=bahamas" clip-path="url(#clip0_105_907)">
<path id="Vector" d="M25 50C38.8071 50 50 38.8071 50 25C50 11.1929 38.8071 0 25 0C11.1929 0 0 11.1929 0 25C0 38.8071 11.1929 50 25 50Z" fill="#FFDA44"/>
<g id="Group">
<path id="Vector_2" d="M15.2174 16.3044H48.4449C44.9127 6.78437 35.749 0 25 0C18.0963 0 11.8469 2.79873 7.32312 7.32314L15.2174 16.3044Z" fill="#338AF3"/>
<path id="Vector_3" d="M15.2174 33.6958H48.4449C44.9127 43.2158 35.749 50.0002 25 50.0002C18.0963 50.0002 11.8469 47.2015 7.32312 42.677L15.2174 33.6958Z" fill="#338AF3"/>
</g>
<path id="Vector_4" d="M7.32231 7.32227C-2.44077 17.0854 -2.44077 32.9145 7.32231 42.6777C11.3568 38.6433 15.237 34.7631 25 25L7.32231 7.32227Z" fill="black"/>
</g>
<defs>
<clipPath id="clip0_105_907">
<rect width="50" height="50" fill="white"/>
</clipPath>
</defs>
</svg>
