<svg width="50" height="50" viewBox="0 0 50 50" fill="none" xmlns="http://www.w3.org/2000/svg">
<g id="icon=united arab emirates" clip-path="url(#clip0_105_2747)">
<path id="Vector" d="M25 49.999C38.8071 49.999 50 38.8061 50 24.999C50 11.1919 38.8071 -0.000976562 25 -0.000976562C11.1929 -0.000976562 0 11.1919 0 24.999C0 38.8061 11.1929 49.999 25 49.999Z" fill="#F0F0F0"/>
<path id="Vector_2" d="M14.1304 33.6948L16.3043 48.4444C19.0125 49.4494 21.9419 49.9992 24.9999 49.9992C35.7489 49.9992 44.9126 43.2148 48.4448 33.6948H14.1304Z" fill="black"/>
<path id="Vector_3" d="M14.1304 16.3034L16.3043 1.55381C19.0125 0.548828 21.9419 -0.000976562 24.9999 -0.000976562C35.7489 -0.000976562 44.9126 6.7834 48.4448 16.3034H14.1304Z" fill="#6DA544"/>
<path id="Vector_4" d="M0 24.9992C0 35.7483 6.78447 44.9119 16.3044 48.4442V1.5542C6.78447 5.08652 0 14.2501 0 24.9992Z" fill="#A2001D"/>
</g>
<defs>
<clipPath id="clip0_105_2747">
<rect width="50" height="50" fill="white" transform="translate(0 -0.000976562)"/>
</clipPath>
</defs>
</svg>
