<svg width="50" height="50" viewBox="0 0 50 50" fill="none" xmlns="http://www.w3.org/2000/svg">
<g id="icon=melilla" clip-path="url(#clip0_105_1942)">
<path id="Vector" d="M25 50C38.8071 50 50 38.8071 50 25C50 11.1929 38.8071 0 25 0C11.1929 0 0 11.1929 0 25C0 38.8071 11.1929 50 25 50Z" fill="#338AF3"/>
<path id="Vector_2" d="M11.9565 27.1738H38.0435V30.4347H11.9565V27.1738Z" fill="#818085"/>
<path id="Vector_3" d="M16.3042 17.3915L24.9998 18.4786L33.6954 17.3915V12.1741L30.2172 13.9133L24.9998 8.6958L19.7824 13.9133L16.3042 12.1741V17.3915Z" fill="#FFDA44"/>
<g id="Group">
<path id="Vector_4" d="M14.1306 33.6959H10.8696V27.7176L11.9566 26.087L10.8696 24.4566V20.6523H14.1306V33.6959Z" fill="#F0F0F0"/>
<path id="Vector_5" d="M39.1306 33.6959H35.8696V20.6523H39.1306V24.4565L38.0436 26.1144L39.1306 27.7178V33.6959Z" fill="#F0F0F0"/>
</g>
<path id="Vector_6" d="M10.8696 24.4565H39.1305V27.7174H10.8696V24.4565Z" fill="#ACABB1"/>
<path id="Vector_7" d="M24.9998 38.0437C20.205 38.0437 16.3042 34.1428 16.3042 29.348V17.3916H33.6955V29.348C33.6954 34.1428 29.7946 38.0437 24.9998 38.0437Z" fill="#F0F0F0"/>
<path id="Vector_8" d="M25.0002 34.7826C22.0034 34.7826 19.5654 32.3445 19.5654 29.3479V20.6523H30.435V29.3479C30.435 32.3445 27.997 34.7826 25.0002 34.7826V34.7826Z" fill="#0052B4"/>
<g id="Group_2">
<path id="Vector_9" d="M16.3042 17.3911H19.565V20.652H16.3042V17.3911Z" fill="#D80027"/>
<path id="Vector_10" d="M30.4346 17.3911H33.6954V20.652H30.4346V17.3911Z" fill="#D80027"/>
<path id="Vector_11" d="M30.4346 24.4565H33.6954V27.7174H30.4346V24.4565Z" fill="#D80027"/>
<path id="Vector_12" d="M16.3042 24.4565H19.565V27.7174H16.3042V24.4565Z" fill="#D80027"/>
<path id="Vector_13" d="M23.3691 17.3911H26.63V20.652H23.3691V17.3911Z" fill="#D80027"/>
<path id="Vector_14" d="M24.9996 34.7824C24.4316 34.7824 23.8841 34.6945 23.3691 34.5322V37.8878C23.8977 37.9886 24.4422 38.0434 24.9996 38.0434C25.557 38.0434 26.1016 37.9886 26.6301 37.8878V34.5322C26.1151 34.6944 25.5676 34.7824 24.9996 34.7824Z" fill="#D80027"/>
<path id="Vector_15" d="M19.6375 30.23L17.0352 32.8323C17.4863 33.8596 18.1301 34.7833 18.9213 35.5577L21.226 33.253C20.4035 32.4584 19.8306 31.4076 19.6375 30.23Z" fill="#D80027"/>
<path id="Vector_16" d="M32.9642 32.8323L30.3618 30.23C30.1687 31.4075 29.5958 32.4582 28.7734 33.2531L31.0781 35.5578C31.8691 34.7833 32.513 33.8596 32.9642 32.8323Z" fill="#D80027"/>
</g>
</g>
<defs>
<clipPath id="clip0_105_1942">
<rect width="50" height="50" fill="white"/>
</clipPath>
</defs>
</svg>
