<svg width="50" height="51" viewBox="0 0 50 51" fill="none" xmlns="http://www.w3.org/2000/svg">
<g id="icon=guernsey" clip-path="url(#clip0_105_1620)">
<path id="Vector" d="M25 50.9893C38.8071 50.9893 50 39.7964 50 25.9893C50 12.1821 38.8071 0.989258 25 0.989258C11.1929 0.989258 0 12.1821 0 25.9893C0 39.7964 11.1929 50.9893 25 50.9893Z" fill="#F0F0F0"/>
<path id="Vector_2" d="M49.7884 22.7284H28.261H28.2609V1.20088C27.1935 1.06191 26.1052 0.989258 25 0.989258C23.8948 0.989258 22.8065 1.06191 21.7392 1.20088V22.7284H0.211621C0.0726563 23.7958 0 24.8841 0 25.9893C0 27.0944 0.0726563 28.1827 0.211621 29.2501H21.739H21.7391V50.7776C22.8065 50.9166 23.8948 50.9893 25 50.9893C26.1052 50.9893 27.1935 50.9167 28.2608 50.7776V29.2504V29.2502H49.7884C49.9273 28.1827 50 27.0944 50 25.9893C50 24.8841 49.9273 23.7958 49.7884 22.7284V22.7284Z" fill="#D80027"/>
<path id="Vector_3" d="M32.0653 27.0762L33.6957 28.1632V23.8154L32.0653 24.9024H26.087V18.9241L27.174 17.2937H22.8261L23.9131 18.9241V24.9024H17.9348L16.3044 23.8154V28.1632L17.9348 27.0762H23.9131V33.0545L22.8261 34.6849H27.174L26.087 33.0545V27.0762H32.0653Z" fill="#FFDA44"/>
</g>
<defs>
<clipPath id="clip0_105_1620">
<rect width="50" height="50" fill="white" transform="translate(0 0.989258)"/>
</clipPath>
</defs>
</svg>
