<svg width="50" height="50" viewBox="0 0 50 50" fill="none" xmlns="http://www.w3.org/2000/svg">
<g id="icon=chile" clip-path="url(#clip0_105_1239)">
<path id="Vector" d="M25 50C38.8071 50 50 38.8071 50 25C50 11.1929 38.8071 0 25 0C11.1929 0 0 11.1929 0 25C0 38.8071 11.1929 50 25 50Z" fill="#F0F0F0"/>
<path id="Vector_2" d="M50 25C50 38.807 38.807 50 25 50C11.193 50 0 38.807 0 25C0 11.193 25 25 25 25C25 25 43.922 25 50 25Z" fill="#D80027"/>
<path id="Vector_3" d="M0 25C0 11.193 11.193 0 25 0V25C25 25 8.69561 25 0 25Z" fill="#0052B4"/>
<path id="Vector_4" d="M14.8818 8.69562L16.5007 13.6778H21.7393L17.5012 16.7569L19.1199 21.7392L14.8818 18.66L10.6437 21.7392L12.2625 16.7569L8.02441 13.6778H13.263L14.8818 8.69562Z" fill="#F0F0F0"/>
</g>
<defs>
<clipPath id="clip0_105_1239">
<rect width="50" height="50" fill="white"/>
</clipPath>
</defs>
</svg>
