<svg width="50" height="50" viewBox="0 0 50 50" fill="none" xmlns="http://www.w3.org/2000/svg">
<g id="icon=kenya" clip-path="url(#clip0_105_1758)">
<path id="Vector" d="M25 50C38.8071 50 50 38.8071 50 25C50 11.1929 38.8071 0 25 0C11.1929 0 0 11.1929 0 25C0 38.8071 11.1929 50 25 50Z" fill="#F0F0F0"/>
<path id="Vector_2" d="M24.9998 0C15.0883 0 6.52422 5.76807 2.48047 14.1305H47.519C43.4754 5.76807 34.9112 0 24.9998 0V0Z" fill="black"/>
<path id="Vector_3" d="M24.9998 50.0001C15.0883 50.0001 6.52422 44.232 2.48047 35.8696H47.519C43.4754 44.232 34.9112 50.0001 24.9998 50.0001V50.0001Z" fill="#496E2D"/>
<path id="Vector_4" d="M48.8194 17.3911H1.18057C0.414746 19.7904 0 22.3466 0 24.9998C0 27.653 0.414746 30.2092 1.18057 32.6085H48.8193C49.5853 30.2092 50 27.653 50 24.9998C50 22.3466 49.5853 19.7904 48.8194 17.3911Z" fill="#A2001D"/>
<g id="Group">
<path id="Vector_5" d="M32.7847 11.553L29.824 10.1865L25 21.1095L20.176 10.1865L17.2153 11.553L23.2044 25.0002L17.2153 38.4474L20.176 39.8139L25 28.8909L29.824 39.8139L32.7847 38.4474L26.7956 25.0002L32.7847 11.553Z" fill="#F0F0F0"/>
<path id="Vector_6" d="M27.0109 12.8408C25.8648 11.5892 25.0001 10.8696 25.0001 10.8696C25.0001 10.8696 24.1354 11.5891 22.9893 12.8408V37.1592C24.1354 38.411 25.0001 39.1306 25.0001 39.1306C25.0001 39.1306 25.8648 38.4111 27.0109 37.1593V12.8408Z" fill="#F0F0F0"/>
</g>
<g id="Group_2">
<path id="Vector_7" d="M19.5654 17.5042V32.4956C20.7766 34.6416 22.2589 36.4006 23.3698 37.5668V12.4331C22.2589 13.5992 20.7765 15.3583 19.5654 17.5042V17.5042Z" fill="#A2001D"/>
<path id="Vector_8" d="M30.4348 17.5042C29.2235 15.3582 27.7413 13.5992 26.6304 12.4331V37.5668C27.7412 36.4006 29.2235 34.6416 30.4348 32.4956V17.5042Z" fill="#A2001D"/>
</g>
<path id="Vector_9" d="M30.4346 17.5044V32.4958C31.6606 30.323 32.6085 27.7538 32.6085 25.0002C32.6085 22.2466 31.6606 19.6772 30.4346 17.5044Z" fill="black"/>
<path id="Vector_10" d="M19.565 17.5044V32.4958C18.339 30.323 17.3911 27.7538 17.3911 25.0002C17.3911 22.2466 18.339 19.6772 19.565 17.5044Z" fill="black"/>
</g>
<defs>
<clipPath id="clip0_105_1758">
<rect width="50" height="50" fill="white"/>
</clipPath>
</defs>
</svg>
