<svg width="50" height="50" viewBox="0 0 50 50" fill="none" xmlns="http://www.w3.org/2000/svg">
<g id="icon=greenland" clip-path="url(#clip0_105_1574)">
<path id="Vector" d="M0 25C0 11.193 11.193 0 25 0C38.807 0 50 11.193 50 25C48.9131 25 25 28.2608 25 28.2608L0 25Z" fill="#F0F0F0"/>
<path id="Vector_2" d="M50 25C50 38.807 38.807 50 25 50C11.193 50 0 38.807 0 25" fill="#D80027"/>
<path id="Vector_3" d="M17.3911 36.9565C23.9945 36.9565 29.3477 31.6034 29.3477 25C29.3477 18.3966 23.9945 13.0435 17.3911 13.0435C10.7877 13.0435 5.43457 18.3966 5.43457 25C5.43457 31.6034 10.7877 36.9565 17.3911 36.9565Z" fill="#F0F0F0"/>
<path id="Vector_4" d="M5.43457 25C5.43457 18.3968 10.7877 13.0435 17.3911 13.0435C23.9946 13.0435 29.3477 18.3967 29.3477 25" fill="#D80027"/>
</g>
<defs>
<clipPath id="clip0_105_1574">
<rect width="50" height="50" fill="white"/>
</clipPath>
</defs>
</svg>
