<svg width="50" height="50" viewBox="0 0 50 50" fill="none" xmlns="http://www.w3.org/2000/svg">
<g id="icon=northern cyprus" clip-path="url(#clip0_105_2139)">
<path id="Vector" d="M25 50C38.8071 50 50 38.8071 50 25C50 11.1929 38.8071 0 25 0C11.1929 0 0 11.1929 0 25C0 38.8071 11.1929 50 25 50Z" fill="#F0F0F0"/>
<g id="Group">
<path id="Vector_2" d="M6.04868 8.69556C5.17144 9.7144 4.37505 10.8045 3.66919 11.9564H46.3305C45.6247 10.8045 44.8284 9.71431 43.951 8.69556H6.04868Z" fill="#D80027"/>
<path id="Vector_3" d="M6.04871 41.3043H43.9511C44.8284 40.2854 45.6248 39.1953 46.3306 38.0435H3.66931C4.37507 39.1952 5.17146 40.2854 6.04871 41.3043V41.3043Z" fill="#D80027"/>
<path id="Vector_4" d="M21.8008 20.4282L23.852 23.2549L27.1739 22.1777L25.1195 25.002L27.1705 27.8285L23.8497 26.7473L21.7953 29.5715L21.7974 26.0792L18.4766 24.9979L21.7986 23.9208L21.8008 20.4282Z" fill="#D80027"/>
<path id="Vector_5" d="M16.2025 32.0651C12.3006 32.0651 9.1373 28.9019 9.1373 24.9999C9.1373 21.0979 12.3006 17.9347 16.2025 17.9347C17.4191 17.9347 18.564 18.2423 19.5634 18.7839C17.9955 17.2506 15.8513 16.3042 13.4852 16.3042C8.68262 16.3042 4.78955 20.1974 4.78955 24.9998C4.78955 29.8022 8.68271 33.6954 13.4852 33.6954C15.8513 33.6954 17.9955 32.749 19.5634 31.2157C18.564 31.7575 17.4192 32.0651 16.2025 32.0651Z" fill="#D80027"/>
</g>
</g>
<defs>
<clipPath id="clip0_105_2139">
<rect width="50" height="50" fill="white"/>
</clipPath>
</defs>
</svg>
