<svg width="50" height="50" viewBox="0 0 50 50" fill="none" xmlns="http://www.w3.org/2000/svg">
<g id="icon=sardinia" clip-path="url(#clip0_105_2340)">
<path id="Vector" d="M25 50.001C38.8071 50.001 50 38.8081 50 25.001C50 11.1939 38.8071 0.000976562 25 0.000976562C11.1929 0.000976562 0 11.1939 0 25.001C0 38.8081 11.1929 50.001 25 50.001Z" fill="#F0F0F0"/>
<path id="Vector_2" d="M49.7884 21.7401H28.261H28.2609V0.212598C27.1935 0.0736328 26.1052 0.000976562 25 0.000976562C23.8948 0.000976562 22.8065 0.0736328 21.7392 0.212598V21.7399V21.74H0.211621C0.0726563 22.8075 0 23.8958 0 25.001C0 26.1062 0.0726563 27.1944 0.211621 28.2618H21.739H21.7391V49.7894C22.8065 49.9283 23.8948 50.001 25 50.001C26.1052 50.001 27.1935 49.9284 28.2608 49.7894V28.2621V28.2619H49.7884C49.9273 27.1944 50 26.1062 50 25.001C50 23.8958 49.9273 22.8075 49.7884 21.7401V21.7401Z" fill="#D80027"/>
<path id="Vector_3" d="M36.9566 8.69653C34.9306 8.69653 33.2283 10.0822 32.7457 11.9574L36.9566 13.0443L41.1674 11.9574C40.6848 10.0823 38.9825 8.69653 36.9566 8.69653V8.69653Z" fill="black"/>
<path id="Vector_4" d="M32.6086 18.4792L38.0434 19.5661V17.2553C39.5712 16.8619 40.7738 15.6591 41.167 14.1313L36.9565 13.0444H31.5217L32.6086 16.3053V18.4792Z" fill="black"/>
<path id="Vector_5" d="M41.1673 11.9575H31.5217V14.1314V16.3054H32.6086V14.1314H41.167C41.2565 13.7841 41.3043 13.4198 41.3043 13.0445C41.3043 12.6691 41.2568 12.3049 41.1673 11.9575V11.9575Z" fill="#ACABB1"/>
<path id="Vector_6" d="M14.1305 8.69653C12.1045 8.69653 10.4023 10.0822 9.91968 11.9574L14.1305 13.0443L18.3414 11.9574C17.8587 10.0823 16.1565 8.69653 14.1305 8.69653Z" fill="black"/>
<path id="Vector_7" d="M9.78257 18.4792L15.2173 19.5661V17.2553C16.7452 16.8619 17.9477 15.6591 18.341 14.1313L14.1304 13.0444H8.69556L9.78247 16.3053V18.4792H9.78257Z" fill="black"/>
<path id="Vector_8" d="M18.3413 11.9575H8.69556V14.1314V16.3054H9.78247V14.1314H18.3409C18.4303 13.7841 18.4782 13.4198 18.4782 13.0445C18.4782 12.6691 18.4307 12.3049 18.3413 11.9575Z" fill="#ACABB1"/>
<path id="Vector_9" d="M36.9566 30.4358C34.9306 30.4358 33.2283 31.8214 32.7457 33.6966L36.9566 34.7835L41.1674 33.6966C40.6848 31.8214 38.9825 30.4358 36.9566 30.4358V30.4358Z" fill="black"/>
<path id="Vector_10" d="M32.6086 40.2183L38.0434 41.3052V38.9944C39.5712 38.601 40.7738 37.3982 41.167 35.8705L36.9565 34.7836H31.5217L32.6086 38.0444V40.2183Z" fill="black"/>
<path id="Vector_11" d="M41.1673 33.6965H31.5217V35.8705V38.0444H32.6086V35.8705H41.167C41.2565 35.5231 41.3043 35.1588 41.3043 34.7835C41.3043 34.4083 41.2568 34.044 41.1673 33.6965V33.6965Z" fill="#ACABB1"/>
<path id="Vector_12" d="M14.1305 30.4358C12.1045 30.4358 10.4023 31.8214 9.91968 33.6966L14.1305 34.7835L18.3414 33.6966C17.8587 31.8214 16.1565 30.4358 14.1305 30.4358Z" fill="black"/>
<path id="Vector_13" d="M9.78257 40.2183L15.2173 41.3052V38.9944C16.7452 38.601 17.9477 37.3982 18.341 35.8705L14.1304 34.7836H8.69556L9.78247 38.0444V40.2183H9.78257Z" fill="black"/>
<path id="Vector_14" d="M18.3413 33.6965H8.69556V35.8705V38.0444H9.78247V35.8705H18.3409C18.4303 35.5231 18.4782 35.1588 18.4782 34.7835C18.4782 34.4083 18.4307 34.044 18.3413 33.6965Z" fill="#ACABB1"/>
</g>
<defs>
<clipPath id="clip0_105_2340">
<rect width="50" height="50" fill="white" transform="translate(0 0.000976562)"/>
</clipPath>
</defs>
</svg>
