<svg width="50" height="50" viewBox="0 0 50 50" fill="none" xmlns="http://www.w3.org/2000/svg">
<g id="icon=orkney islands" clip-path="url(#clip0_105_2168)">
<path id="Vector" d="M49.1388 31.5218C49.6992 29.4423 50 27.2565 50 25C50 22.7434 49.6992 20.5577 49.1388 18.4782L22.8261 0.0950928C17.9412 0.515991 13.4585 2.34119 9.78262 5.1655L0.86123 18.4782C0.300781 20.5577 0 22.7434 0 25C0 27.2433 0.297168 29.4171 0.851367 31.4856L9.78252 44.8344C13.4584 47.6588 17.9411 49.4841 22.826 49.9049L49.1388 31.5218Z" fill="#FFDA44"/>
<g id="Group">
<path id="Vector_2" d="M0.861328 31.5217C2.30781 36.8888 5.4959 41.5406 9.78272 44.8344V31.5217H0.861328Z" fill="#D80027"/>
<path id="Vector_3" d="M22.8262 49.9048C23.5428 49.9666 24.2675 50 25.0001 50C36.5508 50 46.2701 42.1659 49.1389 31.5217H22.8262V49.9048Z" fill="#D80027"/>
<path id="Vector_4" d="M49.1389 18.4782C46.2701 7.83408 36.5508 0 25.0001 0C24.2675 0 23.5428 0.0333984 22.8262 0.0951172V18.4782H49.1389Z" fill="#D80027"/>
<path id="Vector_5" d="M9.78272 5.16553C5.4959 8.45947 2.30781 13.1111 0.861328 18.4782H9.78272V5.16553Z" fill="#D80027"/>
</g>
<path id="Vector_6" d="M49.7884 21.7392H19.5653H19.5652V0.594238C17.2549 1.10654 15.0646 1.93691 13.0435 3.03975V21.7391H0.211621C0.0726563 22.8065 0 23.8948 0 25C0 26.1052 0.0726563 27.1935 0.211621 28.2608H13.0434H13.0435V46.9602C15.0646 48.0629 17.2549 48.8935 19.5652 49.4057V28.2611V28.2609H49.7884C49.9273 27.1935 50 26.1052 50 25C50 23.8948 49.9273 22.8065 49.7884 21.7392V21.7392Z" fill="#0052B4"/>
</g>
<defs>
<clipPath id="clip0_105_2168">
<rect width="50" height="50" fill="white"/>
</clipPath>
</defs>
</svg>
