<svg width="50" height="50" viewBox="0 0 50 50" fill="none" xmlns="http://www.w3.org/2000/svg">
<g id="icon=transnistria" clip-path="url(#clip0_105_2650)">
<g id="Group">
<path id="Vector" d="M49.1389 18.4782C46.2701 7.83408 36.5508 0 25.0001 0C13.4494 0 3.73008 7.83408 0.861328 18.4782L25.0001 19.5652L49.1389 18.4782Z" fill="#A2001D"/>
<path id="Vector_2" d="M0.861328 31.5218C3.73008 42.1659 13.4494 50 25.0001 50C36.5508 50 46.2701 42.166 49.1389 31.5218L25.0001 30.4348L0.861328 31.5218Z" fill="#A2001D"/>
</g>
<path id="Vector_3" d="M49.1388 18.4783H0.86123C0.300781 20.5577 0 22.7435 0 25C0 27.2566 0.300781 29.4424 0.86123 31.5218H49.1389C49.6992 29.4424 50 27.2566 50 25C50 22.7435 49.6992 20.5577 49.1388 18.4783V18.4783Z" fill="#6DA544"/>
</g>
<defs>
<clipPath id="clip0_105_2650">
<rect width="50" height="50" fill="white"/>
</clipPath>
</defs>
</svg>
