<svg width="50" height="50" viewBox="0 0 50 50" fill="none" xmlns="http://www.w3.org/2000/svg">
<g id="icon=cape verde" clip-path="url(#clip0_105_1161)">
<path id="Vector" d="M25 50C38.8071 50 50 38.8071 50 25C50 11.1929 38.8071 0 25 0C11.1929 0 0 11.1929 0 25C0 38.8071 11.1929 50 25 50Z" fill="#F0F0F0"/>
<g id="Group">
<path id="Vector_2" d="M25.0001 50C32.5773 50 39.3667 46.6286 43.9514 41.3044H6.04883C10.6335 46.6286 17.4229 50 25.0001 50Z" fill="#0052B4"/>
<path id="Vector_3" d="M50 25C50 11.193 38.807 0 25 0C11.193 0 0 11.193 0 25C0 27.2565 0.300781 29.4423 0.86123 31.5218H49.1389C49.6992 29.4423 50 27.2565 50 25Z" fill="#0052B4"/>
</g>
<path id="Vector_4" d="M1.98706 34.7826C2.46899 35.915 3.03237 37.0041 3.66938 38.0434H46.3307C46.9675 37.004 47.5309 35.9149 48.013 34.7826H1.98706Z" fill="#D80027"/>
<g id="Group_2">
<path id="Vector_5" d="M17.87 26.6305L18.2747 27.876H19.5844L18.5249 28.6458L18.9296 29.8913L17.87 29.1215L16.8104 29.8913L17.2152 28.6458L16.1558 27.876H17.4654L17.87 26.6305Z" fill="#FFDA44"/>
<path id="Vector_6" d="M17.87 42.9348L18.2747 44.1804H19.5844L18.5249 44.9501L18.9296 46.1957L17.87 45.4259L16.8104 46.1957L17.2152 44.9501L16.1558 44.1804H17.4654L17.87 42.9348Z" fill="#FFDA44"/>
<path id="Vector_7" d="M10.2807 37.4208L10.6854 38.6662H11.995L10.9355 39.4359L11.3402 40.6816L10.2807 39.9118L9.22109 40.6816L9.62598 39.4359L8.56641 38.6662H9.87598L10.2807 37.4208Z" fill="#FFDA44"/>
<path id="Vector_8" d="M13.1797 28.2609L13.5844 29.5065H14.8939L13.8346 30.2762L14.2393 31.5218L13.1797 30.752L12.1201 31.5218L12.525 30.2762L11.4653 29.5065H12.775L13.1797 28.2609Z" fill="#FFDA44"/>
<path id="Vector_9" d="M8.56641 33.3901L9.87578 33.3902L10.2806 32.1444L10.6854 33.3901L11.995 33.39L10.9354 34.1598L11.3402 35.4054L10.2806 34.6356L9.22109 35.4052L9.62578 34.1597L8.56641 33.3901Z" fill="#FFDA44"/>
<path id="Vector_10" d="M12.1201 44.3273L12.5248 43.082L11.4651 42.3123H12.7748L13.1795 41.0667L13.5843 42.3122H14.8939L13.8343 43.0819L14.239 44.3276L13.1794 43.5577L12.1201 44.3273Z" fill="#FFDA44"/>
<path id="Vector_11" d="M25.4567 37.4208L25.0521 38.6662H23.7424L24.8018 39.4359L24.3971 40.6816L25.4567 39.9118L26.5163 40.6816L26.1115 39.4359L27.171 38.6662H25.8614L25.4567 37.4208Z" fill="#FFDA44"/>
<path id="Vector_12" d="M22.5578 28.2609L22.1532 29.5065H20.8435L21.9029 30.2762L21.4982 31.5218L22.5578 30.752L23.6173 31.5218L23.2125 30.2762L24.2721 29.5065H22.9625L22.5578 28.2609Z" fill="#FFDA44"/>
<path id="Vector_13" d="M27.171 33.3901L25.8616 33.3902L25.4568 32.1444L25.0521 33.3901L23.7424 33.39L24.8019 34.1598L24.3971 35.4054L25.4568 34.6356L26.5163 35.4052L26.1116 34.1597L27.171 33.3901Z" fill="#FFDA44"/>
<path id="Vector_14" d="M23.6173 44.3273L23.2127 43.082L24.2723 42.3123H22.9626L22.5579 41.0667L22.1532 42.3122H20.8435L21.9031 43.0819L21.4984 44.3276L22.558 43.5577L23.6173 44.3273Z" fill="#FFDA44"/>
</g>
</g>
<defs>
<clipPath id="clip0_105_1161">
<rect width="50" height="50" fill="white"/>
</clipPath>
</defs>
</svg>
