<svg width="50" height="50" viewBox="0 0 50 50" fill="none" xmlns="http://www.w3.org/2000/svg">
<g id="icon=saba island" clip-path="url(#clip0_105_2298)">
<path id="Vector" d="M25 50C38.8071 50 50 38.8071 50 25C50 11.1929 38.8071 0 25 0C11.1929 0 0 11.1929 0 25C0 38.8071 11.1929 50 25 50Z" fill="#F0F0F0"/>
<g id="Group">
<path id="Vector_2" d="M25 -8.22914e-05C24.9767 -0.0176604 -0.0066393 24.9934 1.32359e-06 24.9999C1.32359e-06 11.1929 11.193 -8.22914e-05 25 -8.22914e-05Z" fill="#D80027"/>
<path id="Vector_3" d="M25 -8.22914e-05C25.0233 -0.0176604 50.0066 24.9933 50 24.9999C50 11.1929 38.807 -8.22914e-05 25 -8.22914e-05Z" fill="#D80027"/>
</g>
<g id="Group_2">
<path id="Vector_4" d="M25 50C24.9767 50.0176 -0.0066393 25.0066 1.32359e-06 25C1.32359e-06 38.807 11.193 50 25 50Z" fill="#0052B4"/>
<path id="Vector_5" d="M25 50C25.0233 50.0176 50.0066 25.0066 50 25C50 38.807 38.807 50 25 50Z" fill="#0052B4"/>
</g>
<path id="Vector_6" d="M25.0002 13.0435L27.6982 21.3471H36.4292L29.3656 26.4789L32.0637 34.7826L25.0002 29.6507L17.9367 34.7826L20.6348 26.4789L13.5713 21.3471H22.3021L25.0002 13.0435Z" fill="#FFDA44"/>
</g>
<defs>
<clipPath id="clip0_105_2298">
<rect width="50" height="50" fill="white"/>
</clipPath>
</defs>
</svg>
