<svg width="50" height="50" viewBox="0 0 50 50" fill="none" xmlns="http://www.w3.org/2000/svg">
<g id="icon=kiribati" clip-path="url(#clip0_105_1771)">
<path id="Vector" d="M0 25C0 11.193 11.193 0 25 0C38.807 0 50 11.193 50 25" fill="#D80027"/>
<g id="Group">
<path id="Vector_2" d="M33.6954 23.2495L30.1422 24.9207L32.0344 28.362L28.1761 27.6238L27.6872 31.5215L24.9998 28.6548L22.3123 31.5215L21.8235 27.6238L17.9652 28.3618L19.8573 24.9207L16.3042 23.2495L19.8573 21.578L17.9652 18.1371L21.8234 18.875L22.3124 14.9775L24.9998 17.844L27.6873 14.9775L28.1761 18.875L32.0345 18.1371L30.1425 21.5783L33.6954 23.2495Z" fill="#FFDA44"/>
<path id="Vector_3" d="M31.5216 8.15195H26.6303C26.6303 7.25166 25.9002 6.52148 24.9998 6.52148C24.0994 6.52148 23.3693 7.25156 23.3693 8.15195H18.478C18.478 9.05234 19.2624 9.78242 20.1628 9.78242H20.1084C20.1084 10.6828 20.8383 11.4129 21.7389 11.4129C21.7389 12.3133 22.4688 13.0434 23.3693 13.0434H26.6302C27.5305 13.0434 28.2606 12.3134 28.2606 11.4129C29.1609 11.4129 29.8911 10.6829 29.8911 9.78242H29.8367C30.7372 9.78242 31.5216 9.05244 31.5216 8.15195V8.15195Z" fill="#FFDA44"/>
</g>
<path id="Vector_4" d="M50 25C50 38.807 38.807 50 25 50C11.193 50 0 38.807 0 25H50Z" fill="#F0F0F0"/>
<g id="Group_2">
<path id="Vector_5" d="M25 50.0001C32.8146 50.0001 39.7906 46.4138 44.3752 40.7981C43.5506 40.2359 43.1054 39.3271 41.6663 39.3271C39.583 39.3271 39.583 41.232 37.4998 41.232C35.4166 41.232 35.4165 39.3271 33.3333 39.3271C31.25 39.3271 31.25 41.232 29.1666 41.232C27.0832 41.232 27.0831 39.3271 24.9996 39.3271C22.9163 39.3271 22.9163 41.232 20.8331 41.232C18.7501 41.232 18.7501 39.3271 16.6668 39.3271C14.5833 39.3271 14.5833 41.232 12.4998 41.232C10.4163 41.232 10.4163 39.3271 8.33281 39.3271C6.89395 39.3271 6.44873 40.2357 5.62451 40.7979C10.2089 46.4138 17.1853 50.0001 25 50.0001V50.0001Z" fill="#0052B4"/>
<path id="Vector_6" d="M45.8332 28.1886C43.7499 28.1886 43.7499 26.2837 41.6665 26.2837C39.5832 26.2837 39.5832 28.1886 37.5 28.1886C35.4168 28.1886 35.4167 26.2837 33.3335 26.2837C31.2502 26.2837 31.2502 28.1886 29.1668 28.1886C27.0834 28.1886 27.0833 26.2837 24.9998 26.2837C22.9165 26.2837 22.9165 28.1886 20.8333 28.1886C18.7503 28.1886 18.7503 26.2837 16.667 26.2837C14.5835 26.2837 14.5835 28.1886 12.5 28.1886C10.4165 28.1886 10.4165 26.2837 8.33301 26.2837C6.25 26.2837 6.25 28.1886 4.1667 28.1886C2.09463 28.1886 2.08262 26.3047 0.0327148 26.2846C0.0904297 27.4281 0.226953 28.5508 0.433398 29.6486C2.09395 29.8927 2.23936 31.5219 4.1668 31.5219C6.2501 31.5219 6.2501 29.6172 8.33311 29.6172C10.4166 29.6172 10.4166 31.5219 12.5001 31.5219C14.5836 31.5219 14.5836 29.6172 16.6671 29.6172C18.7504 29.6172 18.7504 31.5219 20.8334 31.5219C22.9167 31.5219 22.9167 29.6172 24.9999 29.6172C27.0834 29.6172 27.0834 31.5219 29.1669 31.5219C31.2504 31.5219 31.2504 29.6172 33.3336 29.6172C35.4169 29.6172 35.4169 31.5219 37.5001 31.5219C39.5833 31.5219 39.5834 29.6172 41.6666 29.6172C43.7501 29.6172 43.7501 31.5219 45.8333 31.5219C47.7609 31.5219 47.9063 29.8928 49.567 29.6487C49.7735 28.5508 49.9099 27.4282 49.9679 26.2847C47.9176 26.3049 47.9054 28.1886 45.8332 28.1886V28.1886Z" fill="#0052B4"/>
<path id="Vector_7" d="M41.6665 32.8057C39.5832 32.8057 39.5832 34.7105 37.5 34.7105C35.4168 34.7105 35.4167 32.8057 33.3335 32.8057C31.2502 32.8057 31.2502 34.7105 29.1668 34.7105C27.0833 34.7105 27.0833 32.8057 24.9998 32.8057C22.9165 32.8057 22.9165 34.7105 20.8333 34.7105C18.7503 34.7105 18.7503 32.8057 16.667 32.8057C14.5835 32.8057 14.5835 34.7105 12.5 34.7105C10.4165 34.7105 10.4165 32.8057 8.33301 32.8057C6.25 32.8057 6.25 34.7105 4.1667 34.7105C2.67813 34.7105 2.25293 33.7383 1.37158 33.1828C1.9583 34.878 2.72158 36.4906 3.64082 37.998C3.80068 38.0275 3.97471 38.0438 4.1667 38.0438C6.25 38.0438 6.25 36.1392 8.33301 36.1392C10.4165 36.1392 10.4165 38.0438 12.5 38.0438C14.5835 38.0438 14.5835 36.1392 16.667 36.1392C18.7503 36.1392 18.7503 38.0438 20.8333 38.0438C22.9166 38.0438 22.9166 36.1392 24.9998 36.1392C27.0833 36.1392 27.0833 38.0438 29.1668 38.0438C31.2503 38.0438 31.2503 36.1392 33.3335 36.1392C35.4168 36.1392 35.4168 38.0438 37.5 38.0438C39.5832 38.0438 39.5833 36.1392 41.6665 36.1392C43.75 36.1392 43.75 38.0438 45.8332 38.0438C46.0254 38.0438 46.1994 38.0275 46.3593 37.9979C47.2785 36.4906 48.0417 34.878 48.6287 33.1829C47.7473 33.7381 47.322 34.7105 45.8332 34.7105C43.75 34.7105 43.75 32.8057 41.6665 32.8057Z" fill="#0052B4"/>
</g>
<path id="Vector_8" d="M49.9225 23.0251C47.9176 23.0725 47.8899 24.9278 45.833 24.9278C43.7497 24.9278 43.7497 23.0229 41.6663 23.0229C39.583 23.0229 39.583 24.9278 37.4998 24.9278C35.4166 24.9278 35.4165 23.0229 33.3333 23.0229C31.25 23.0229 31.25 24.9278 29.1666 24.9278C27.0832 24.9278 27.0831 23.0229 24.9996 23.0229C22.9163 23.0229 22.9163 24.9278 20.8331 24.9278C18.7501 24.9278 18.7501 23.0229 16.6668 23.0229C14.5833 23.0229 14.5833 24.9278 12.4998 24.9278C10.4163 24.9278 10.4163 23.0229 8.33281 23.0229C6.2498 23.0229 6.2498 24.9278 4.1665 24.9278C2.10996 24.9278 2.08213 23.0727 0.0774414 23.0251C0.0265625 23.6769 0 24.3354 0 25.0002C0 25.4556 0.0128906 25.908 0.037207 26.3573C2.08242 26.3803 2.096 28.261 4.1666 28.261C6.2499 28.261 6.2499 26.3563 8.33291 26.3563C10.4164 26.3563 10.4164 28.261 12.4999 28.261C14.5834 28.261 14.5834 26.3563 16.6669 26.3563C18.7502 26.3563 18.7502 28.261 20.8332 28.261C22.9165 28.261 22.9165 26.3563 24.9997 26.3563C27.0832 26.3563 27.0832 28.261 29.1667 28.261C31.2502 28.261 31.2502 26.3563 33.3334 26.3563C35.4167 26.3563 35.4167 28.261 37.4999 28.261C39.5831 28.261 39.5832 26.3563 41.6664 26.3563C43.7499 26.3563 43.7499 28.261 45.8331 28.261C47.9039 28.261 47.9175 26.3803 49.9631 26.3573C49.9871 25.9079 50 25.4556 50 25.0002C50 24.3354 49.9734 23.6769 49.9225 23.0251V23.0251Z" fill="#F0F0F0"/>
</g>
<defs>
<clipPath id="clip0_105_1771">
<rect width="50" height="50" fill="white"/>
</clipPath>
</defs>
</svg>
