<svg width="50" height="50" viewBox="0 0 50 50" fill="none" xmlns="http://www.w3.org/2000/svg">
<g id="icon=belize" clip-path="url(#clip0_105_962)">
<path id="Vector" d="M50 24.9999C50 16.4197 45.6769 8.8501 39.0905 4.34775L25 3.26074L10.9095 4.34766C4.32324 8.8501 0 16.4198 0 24.9999C0 33.5803 4.32324 41.1497 10.9095 45.6521L25 46.7391L39.0905 45.6521C45.6769 41.1497 50 33.5803 50 24.9999Z" fill="#0052B4"/>
<g id="Group">
<path id="Vector_2" d="M39.0905 4.34785C35.0783 1.60508 30.2269 0 25 0C19.7731 0 14.9216 1.60508 10.9094 4.34785H39.0905Z" fill="#A2001D"/>
<path id="Vector_3" d="M10.9094 45.6521C14.9215 48.3949 19.7731 50 25 50C30.2269 50 35.0783 48.3949 39.0905 45.6521H10.9094Z" fill="#A2001D"/>
</g>
<path id="Vector_4" d="M25 36.9565C31.6034 36.9565 36.9565 31.6034 36.9565 25C36.9565 18.3966 31.6034 13.0435 25 13.0435C18.3966 13.0435 13.0435 18.3966 13.0435 25C13.0435 31.6034 18.3966 36.9565 25 36.9565Z" fill="#F0F0F0"/>
<path id="Vector_5" d="M24.9999 34.7825C30.4027 34.7825 34.7825 30.4027 34.7825 24.9999C34.7825 19.5971 30.4027 15.2173 24.9999 15.2173C19.5971 15.2173 15.2173 19.5971 15.2173 24.9999C15.2173 30.4027 19.5971 34.7825 24.9999 34.7825Z" fill="#6DA544"/>
<path id="Vector_6" d="M25 31.5218C28.6019 31.5218 31.5218 28.6019 31.5218 25C31.5218 21.3982 28.6019 18.4783 25 18.4783C21.3982 18.4783 18.4783 21.3982 18.4783 25C18.4783 28.6019 21.3982 31.5218 25 31.5218Z" fill="#F0F0F0"/>
<path id="Vector_7" d="M24.9999 23.3696L21.4673 25.0001V27.7175L24.9999 29.8914L28.5325 27.7175V25.0001L24.9999 23.3696Z" fill="#0052B4"/>
<path id="Vector_8" d="M21.4673 21.7393H28.5325V25.0001H21.4673V21.7393Z" fill="#FFDA44"/>
</g>
<defs>
<clipPath id="clip0_105_962">
<rect width="50" height="50" fill="white"/>
</clipPath>
</defs>
</svg>
