<svg width="51" height="50" viewBox="0 0 51 50" fill="none" xmlns="http://www.w3.org/2000/svg">
<g id="icon=sudan" clip-path="url(#clip0_105_2539)">
<path id="Vector" d="M3.05879 14.1305C1.46953 17.4172 0.578125 21.1044 0.578125 25C0.578125 28.8956 1.46953 32.5828 3.05879 35.8695L25.5781 38.0435L48.0975 35.8695C49.6867 32.5828 50.5781 28.8956 50.5781 25C50.5781 21.1044 49.6867 17.4172 48.0975 14.1305L25.5781 11.9565L3.05879 14.1305Z" fill="#F0F0F0"/>
<path id="Vector_2" d="M3.05957 35.8696C7.10312 44.232 15.6665 50.0001 25.578 50.0001C35.4896 50.0001 44.0529 44.232 48.0965 35.8696H3.05957Z" fill="black"/>
<path id="Vector_3" d="M3.05957 14.1305H48.0965C44.0529 5.76807 35.4896 0 25.578 0C15.6665 0 7.10312 5.76807 3.05957 14.1305Z" fill="#D80027"/>
<path id="Vector_4" d="M7.90044 7.32227C-1.86265 17.0854 -1.86265 32.9145 7.90044 42.6777C11.9349 38.6433 15.8151 34.7631 25.5782 25L7.90044 7.32227Z" fill="#496E2D"/>
</g>
<defs>
<clipPath id="clip0_105_2539">
<rect width="50" height="50" fill="white" transform="translate(0.578125)"/>
</clipPath>
</defs>
</svg>
