<svg width="50" height="50" viewBox="0 0 50 50" fill="none" xmlns="http://www.w3.org/2000/svg">
<g id="icon=guinea bissau" clip-path="url(#clip0_105_1624)">
<path id="Vector" d="M25 0C22.7435 0 20.5576 0.300781 18.4782 0.86123L16.3044 25L18.4783 49.1388C20.5576 49.6992 22.7435 50 25 50C38.807 50 50 38.807 50 25C50 11.193 38.807 0 25 0Z" fill="#FFDA44"/>
<path id="Vector_2" d="M16.3044 25L18.4783 49.1388C20.5576 49.6992 22.7435 50 25 50C38.807 50 50 38.807 50 25H16.3044Z" fill="#6DA544"/>
<g id="Group">
<path id="Vector_3" d="M0 25C0 34.4761 5.27246 42.7203 13.0435 46.9603V3.03979C5.27246 7.27983 0 15.524 0 25Z" fill="#D80027"/>
<path id="Vector_4" d="M0 25.0001C0 36.5508 7.83408 46.2701 18.4782 49.1389V0.861328C7.83408 3.73008 0 13.4494 0 25.0001Z" fill="#D80027"/>
</g>
<path id="Vector_5" d="M9.44686 18.4783L11.0655 23.4603H16.3044L12.0663 26.5396L13.6849 31.5218L9.44686 28.4426L5.20868 31.5218L6.82762 26.5396L2.58954 23.4603H7.82811L9.44686 18.4783Z" fill="black"/>
</g>
<defs>
<clipPath id="clip0_105_1624">
<rect width="50" height="50" fill="white"/>
</clipPath>
</defs>
</svg>
