<svg width="50" height="50" viewBox="0 0 50 50" fill="none" xmlns="http://www.w3.org/2000/svg">
<g id="icon=french polynesia" clip-path="url(#clip0_105_1519)">
<path id="Vector" d="M25 50C38.8071 50 50 38.8071 50 25C50 11.1929 38.8071 0 25 0C11.1929 0 0 11.1929 0 25C0 38.8071 11.1929 50 25 50Z" fill="#F0F0F0"/>
<g id="Group">
<path id="Vector_2" d="M3.03955 13.0435H46.96C42.7199 5.27236 34.4759 0 24.9998 0C15.5237 0 7.27969 5.27236 3.03955 13.0435V13.0435Z" fill="#D80027"/>
<path id="Vector_3" d="M24.9998 50C34.4759 50 42.7199 44.7276 46.9601 36.9565H3.03955C7.27969 44.7276 15.5237 50 24.9998 50Z" fill="#D80027"/>
</g>
<path id="Vector_4" d="M33.6954 25C33.6954 29.8026 29.8022 32.6087 24.9998 32.6087C20.1974 32.6087 16.3042 29.8026 16.3042 25C16.3042 20.1975 20.1974 16.3044 24.9998 16.3044C29.8022 16.3044 33.6954 20.1975 33.6954 25Z" fill="#FFDA44"/>
<path id="Vector_5" d="M33.6954 25C33.6954 29.8025 29.8022 33.6956 24.9998 33.6956C20.1974 33.6956 16.3042 29.8025 16.3042 25" fill="#0052B4"/>
<g id="Group_2">
<path id="Vector_6" d="M19.5654 22.826H21.7394V27.1739H19.5654V22.826Z" fill="#D80027"/>
<path id="Vector_7" d="M28.2612 22.826H30.4352V27.1739H28.2612V22.826Z" fill="#D80027"/>
<path id="Vector_8" d="M23.9131 19.5652H26.087V27.1739H23.9131V19.5652Z" fill="#D80027"/>
</g>
</g>
<defs>
<clipPath id="clip0_105_1519">
<rect width="50" height="50" fill="white"/>
</clipPath>
</defs>
</svg>
