<svg width="50" height="50" viewBox="0 0 50 50" fill="none" xmlns="http://www.w3.org/2000/svg">
<g id="icon=italy" clip-path="url(#clip0_105_1725)">
<path id="Vector" d="M25 50C38.8071 50 50 38.8071 50 25C50 11.1929 38.8071 0 25 0C11.1929 0 0 11.1929 0 25C0 38.8071 11.1929 50 25 50Z" fill="#F0F0F0"/>
<path id="Vector_2" d="M50.0002 25.0002C50.0002 14.2511 43.2158 5.0875 33.6958 1.55518V48.4453C43.2158 44.9129 50.0002 35.7493 50.0002 25.0002V25.0002Z" fill="#D80027"/>
<path id="Vector_3" d="M0 25.0002C0 35.7493 6.78437 44.9129 16.3044 48.4452V1.55518C6.78437 5.0875 0 14.2511 0 25.0002Z" fill="#6DA544"/>
</g>
<defs>
<clipPath id="clip0_105_1725">
<rect width="50" height="50" fill="white"/>
</clipPath>
</defs>
</svg>
