<svg width="50" height="50" viewBox="0 0 50 50" fill="none" xmlns="http://www.w3.org/2000/svg">
<g id="icon=gibraltar" clip-path="url(#clip0_105_1560)">
<path id="Vector" d="M25 50C38.8071 50 50 38.8071 50 25C50 11.1929 38.8071 0 25 0C11.1929 0 0 11.1929 0 25C0 38.8071 11.1929 50 25 50Z" fill="#F9F9F9"/>
<g id="Group">
<path id="Vector_2" d="M24.9998 49.9999C35.7488 49.9999 44.9125 43.2156 48.4447 33.6956H1.55469C5.08711 43.2156 14.2506 49.9999 24.9998 49.9999Z" fill="#D80027"/>
<path id="Vector_3" d="M34.7826 20.6522V17.3914H35.8695V15.2174H33.6956V16.3044H31.5218V15.2174H29.3479V17.3914H30.4348V20.6522H28.2608V13.0437H29.3479V10.8699H27.1739V11.9566H26.0869V10.8699H23.9131V11.9566H22.8261V10.8699H20.6521V13.0437H21.7392V20.6522H19.5652V17.3914H20.6521V15.2174H18.4782V16.3044H16.3044V15.2174H14.1305V17.3914H15.2174V20.6522H13.0435V29.3479H36.9565V20.6522H34.7826Z" fill="#D80027"/>
</g>
<path id="Vector_4" d="M25.0001 28.2607C23.1992 28.2607 21.7393 29.7207 21.7393 31.5216C21.7393 32.9411 22.6469 34.1485 23.9132 34.5962V39.1304H20.6523V43.4782H26.0871V34.5963C27.3534 34.1486 28.261 32.9413 28.261 31.5217C28.2609 29.7208 26.801 28.2607 25.0001 28.2607V28.2607ZM25.0001 32.6086C24.3998 32.6086 23.9132 32.1219 23.9132 31.5217C23.9132 30.9214 24.3998 30.4348 25.0001 30.4348C25.6004 30.4348 26.087 30.9214 26.087 31.5217C26.087 32.1219 25.6004 32.6086 25.0001 32.6086Z" fill="#FFDA44"/>
</g>
<defs>
<clipPath id="clip0_105_1560">
<rect width="50" height="50" fill="white"/>
</clipPath>
</defs>
</svg>
