<svg width="50" height="50" viewBox="0 0 50 50" fill="none" xmlns="http://www.w3.org/2000/svg">
<g id="icon=montenegro" clip-path="url(#clip0_105_1998)">
<path id="Vector" d="M25 50C38.8071 50 50 38.8071 50 25C50 11.1929 38.8071 0 25 0C11.1929 0 0 11.1929 0 25C0 38.8071 11.1929 50 25 50Z" fill="#FFDA44"/>
<path id="Vector_2" d="M50 25C50 16.4199 45.6769 8.85015 39.0905 4.3479H10.9095C4.32324 8.85015 0 16.4199 0 25C0 33.5804 4.32324 41.1499 10.9095 45.6522H39.0905C45.6769 41.1499 50 33.5804 50 25Z" fill="#A2001D"/>
<g id="Group">
<path id="Vector_3" d="M19.5654 18.4782H30.435V14.1305L28.261 15.2174L25.0002 11.9565L21.7394 15.2174L19.5654 14.1305V18.4782Z" fill="#FFDA44"/>
<path id="Vector_4" d="M34.7827 24.9999H29.35C29.5631 24.6313 29.6869 24.2049 29.6869 23.7486C29.6869 22.3632 28.5638 21.2402 27.1785 21.2402C26.2214 21.2402 25.3901 21.7766 24.9672 22.5646C24.5442 21.7765 23.713 21.2402 22.7559 21.2402C21.3706 21.2402 20.2475 22.3632 20.2475 23.7486C20.2475 24.205 20.3715 24.6314 20.5844 24.9999H15.2173C15.2173 26.6623 16.6652 28.0099 18.3275 28.0099H18.2273C18.2273 29.3734 19.1343 30.5248 20.3777 30.8946L17.9347 33.3379L20.2404 35.6437L23.5112 32.3729C23.6394 32.4198 23.7719 32.4573 23.9089 32.4831L21.9325 36.9455C22.8796 37.3307 23.9146 37.5444 25.0001 37.5444C26.0854 37.5444 27.1205 37.3307 28.0677 36.9455L26.0913 32.4831C26.2282 32.4574 26.3607 32.4198 26.4888 32.3729L29.7596 35.6437L32.0652 33.3379L29.6221 30.8947C30.8654 30.5247 31.7725 29.3735 31.7725 28.01H31.6722C33.3347 28.0099 34.7827 26.6623 34.7827 24.9999V24.9999Z" fill="#FFDA44"/>
</g>
<path id="Vector_5" d="M24.9999 26.6304L21.4673 28.2607V31.5217L24.9999 33.6955L28.5325 31.5217V28.2607L24.9999 26.6304Z" fill="#6DA544"/>
<path id="Vector_6" d="M21.4673 25H28.5325V29.3479H21.4673V25Z" fill="#0052B4"/>
</g>
<defs>
<clipPath id="clip0_105_1998">
<rect width="50" height="50" fill="white"/>
</clipPath>
</defs>
</svg>
