<svg width="50" height="50" viewBox="0 0 50 50" fill="none" xmlns="http://www.w3.org/2000/svg">
<g id="icon=seychelles" clip-path="url(#clip0_105_2387)">
<path id="Vector" d="M25 50C38.8071 50 50 38.8071 50 25C50 11.1929 38.8071 0 25 0C11.1929 0 0 11.1929 0 25C0 38.8071 11.1929 50 25 50Z" fill="#F0F0F0"/>
<path id="Vector_2" d="M41.8758 6.55635C37.4285 2.48486 31.5046 0 24.9999 0C23.9351 0 22.8857 0.0670898 21.8559 0.196289L9.78252 14.1305L0.791016 31.2628C1.37187 33.5148 2.25996 35.6432 3.40576 37.6023L24.9999 25L41.8758 6.55635Z" fill="#FFDA44"/>
<path id="Vector_3" d="M45.8138 38.8513L10.8364 45.6013C14.8627 48.3749 19.7414 50 25.0002 50C33.6839 50 41.3322 45.5719 45.8138 38.8513V38.8513Z" fill="#6DA544"/>
<path id="Vector_4" d="M41.8792 6.55969L3.41992 37.6266C4.42588 39.3422 5.63027 40.9273 7.00205 42.35L49.9998 25C49.9998 17.6993 46.8698 11.1302 41.8792 6.55969V6.55969Z" fill="#D80027"/>
<path id="Vector_5" d="M0 25C0 27.1628 0.274805 29.2613 0.791113 31.2628L21.856 0.196289C9.53301 1.74258 0 12.2578 0 25Z" fill="#0052B4"/>
</g>
<defs>
<clipPath id="clip0_105_2387">
<rect width="50" height="50" fill="white"/>
</clipPath>
</defs>
</svg>
