<svg width="50" height="50" viewBox="0 0 50 50" fill="none" xmlns="http://www.w3.org/2000/svg">
<g id="icon=scotland" clip-path="url(#clip0_105_2364)">
<path id="Vector" d="M25 50C38.8071 50 50 38.8071 50 25C50 11.1929 38.8071 0 25 0C11.1929 0 0 11.1929 0 25C0 38.8071 11.1929 50 25 50Z" fill="#F0F0F0"/>
<g id="Group">
<path id="Vector_2" d="M40.2203 5.16797C36.0047 1.92764 30.7279 0 25 0C19.272 0 13.9951 1.92773 9.77954 5.16797L25 20.3883L40.2203 5.16797Z" fill="#0052B4"/>
<path id="Vector_3" d="M5.16787 9.77966C1.92773 13.9952 0 19.272 0 25C0 30.7279 1.92773 36.0049 5.16797 40.2205L20.3884 25L5.16787 9.77966Z" fill="#0052B4"/>
<path id="Vector_4" d="M9.77954 44.832C13.9952 48.0723 19.272 50 25 50C30.7279 50 36.0047 48.0722 40.2204 44.832L25 29.6117L9.77954 44.832Z" fill="#0052B4"/>
<path id="Vector_5" d="M44.8321 40.2203C48.0725 36.0048 50.0001 30.7279 50.0001 25C50.0001 19.272 48.0725 13.9952 44.8321 9.77966L29.6118 25L44.8321 40.2203Z" fill="#0052B4"/>
</g>
</g>
<defs>
<clipPath id="clip0_105_2364">
<rect width="50" height="50" fill="white"/>
</clipPath>
</defs>
</svg>
