<svg width="50" height="50" viewBox="0 0 50 50" fill="none" xmlns="http://www.w3.org/2000/svg">
<g id="icon=grenada" clip-path="url(#clip0_105_1579)">
<path id="Vector" d="M25 50C38.8071 50 50 38.8071 50 25C50 11.1929 38.8071 0 25 0C11.1929 0 0 11.1929 0 25C0 38.8071 11.1929 50 25 50Z" fill="#FFDA44"/>
<path id="Vector_2" d="M10.9097 4.34785C14.9219 1.60508 19.7732 0 25.0002 0C30.2271 0 35.0785 1.60508 39.0907 4.34785L25.0002 5.43477L10.9097 4.34785Z" fill="#A2001D"/>
<path id="Vector_3" d="M25.0001 25L23.4046 23.4045L22.981 24.1634L25.0001 25Z" fill="#0052B4"/>
<g id="Group">
<path id="Vector_4" d="M7.32231 7.32227C-2.44077 17.0854 -2.44077 32.9145 7.32231 42.6777C11.3568 38.6433 15.237 34.7631 25 25L7.32231 7.32227Z" fill="#496E2D"/>
<path id="Vector_5" d="M42.6777 7.32227C52.4408 17.0854 52.4408 32.9145 42.6777 42.6777C38.6433 38.6433 34.7631 34.7631 25 25L42.6777 7.32227Z" fill="#496E2D"/>
</g>
<path id="Vector_6" d="M24.9998 33.6957C29.8023 33.6957 33.6954 29.8025 33.6954 25C33.6954 20.1976 29.8023 16.3044 24.9998 16.3044C20.1974 16.3044 16.3042 20.1976 16.3042 25C16.3042 29.8025 20.1974 33.6957 24.9998 33.6957Z" fill="#A2001D"/>
<g id="Group_2">
<path id="Vector_7" d="M25 16.3044L26.9491 22.3034H33.2575L28.1542 26.0117L30.1033 32.0109L25 28.3033L19.8965 32.0109L21.846 26.0117L16.7427 22.3034H23.0507L25 16.3044Z" fill="#FFDA44"/>
<path id="Vector_8" d="M25.0001 0C24.9973 0 24.9945 0.000195313 24.9917 0.000195313H25.0084C25.0057 0.000195313 25.0029 0 25.0001 0V0Z" fill="#FFDA44"/>
</g>
<g id="Group_3">
<path id="Vector_9" d="M25.0085 0H24.9918C18.0921 0.00224609 11.8459 2.79941 7.32373 7.32109H42.6766C38.1543 2.79941 31.9081 0.00224609 25.0085 0Z" fill="#A2001D"/>
<path id="Vector_10" d="M7.32373 42.679C11.8478 47.2023 18.0972 50 25 50C31.9028 50 38.1522 47.2023 42.6763 42.679H7.32373Z" fill="#A2001D"/>
</g>
<g id="Group_4">
<path id="Vector_11" d="M25 2.71729L25.4048 3.96279H26.7144L25.6549 4.73262L26.0597 5.97812L25 5.2084L23.9405 5.97812L24.3453 4.73262L23.2856 3.96279H24.5952L25 2.71729Z" fill="#FFDA44"/>
<path id="Vector_12" d="M18.9375 2.71729L19.3423 3.96279H20.6519L19.5924 4.73262L19.9972 5.97812L18.9375 5.2084L17.8781 5.97812L18.2828 4.73262L17.2231 3.96279H18.5327L18.9375 2.71729Z" fill="#FFDA44"/>
<path id="Vector_13" d="M31.062 2.71729L31.4668 3.96279H32.7764L31.7169 4.73262L32.1217 5.97812L31.062 5.2084L30.0025 5.97812L30.4073 4.73262L29.3477 3.96279H30.6572L31.062 2.71729Z" fill="#FFDA44"/>
<path id="Vector_14" d="M25 44.0217L25.4048 45.2672H26.7144L25.6549 46.0371L26.0597 47.2826L25 46.5127L23.9405 47.2826L24.3453 46.0371L23.2856 45.2672H24.5952L25 44.0217Z" fill="#FFDA44"/>
<path id="Vector_15" d="M18.9375 44.0217L19.3423 45.2672H20.6519L19.5924 46.0371L19.9972 47.2826L18.9375 46.5127L17.8781 47.2826L18.2828 46.0371L17.2231 45.2672H18.5327L18.9375 44.0217Z" fill="#FFDA44"/>
<path id="Vector_16" d="M31.062 44.0217L31.4668 45.2672H32.7764L31.7169 46.0371L32.1217 47.2826L31.062 46.5127L30.0025 47.2826L30.4073 46.0371L29.3477 45.2672H30.6572L31.062 44.0217Z" fill="#FFDA44"/>
<path id="Vector_17" d="M7.61742 24.5871C8.25951 25.6017 7.95775 26.9445 6.9432 27.5867C5.92875 28.2289 4.58578 27.9271 3.94359 26.9126C2.78099 25.0759 3.45512 22.0762 3.45512 22.0762C3.45512 22.0762 6.45472 22.7503 7.61742 24.5871V24.5871Z" fill="#FFDA44"/>
</g>
<path id="Vector_18" d="M6.36182 27.7554C6.9621 27.7554 7.44873 27.2687 7.44873 26.6685C7.44873 26.0682 6.9621 25.5815 6.36182 25.5815C5.76153 25.5815 5.2749 26.0682 5.2749 26.6685C5.2749 27.2687 5.76153 27.7554 6.36182 27.7554Z" fill="#A2001D"/>
</g>
<defs>
<clipPath id="clip0_105_1579">
<rect width="50" height="50" fill="white"/>
</clipPath>
</defs>
</svg>
