<svg width="51" height="50" viewBox="0 0 51 50" fill="none" xmlns="http://www.w3.org/2000/svg">
<g id="icon=norfolk island" clip-path="url(#clip0_105_2125)">
<path id="Vector" d="M36.8583 2.48066C33.5716 0.891406 29.8844 0 25.9888 0C22.0932 0 18.406 0.891406 15.1192 2.48066L12.9453 25L15.1192 47.5193C18.406 49.1086 22.0932 50 25.9888 50C29.8844 50 33.5716 49.1086 36.8583 47.5193L39.0322 25L36.8583 2.48066Z" fill="#F0F0F0"/>
<g id="Group">
<path id="Vector_2" d="M15.1187 2.48145C6.75635 6.525 0.988281 15.0884 0.988281 24.9999C0.988281 34.9114 6.75635 43.4748 15.1187 47.5184V2.48145Z" fill="#6DA544"/>
<path id="Vector_3" d="M36.8574 2.48145V47.5184C45.2198 43.4748 50.9879 34.9113 50.9879 24.9999C50.9879 15.0885 45.2198 6.525 36.8574 2.48145Z" fill="#6DA544"/>
<path id="Vector_4" d="M32.5104 32.6087L25.9886 11.9565L19.4668 32.6087H24.3581V38.0435H27.619V32.6087H32.5104Z" fill="#6DA544"/>
</g>
</g>
<defs>
<clipPath id="clip0_105_2125">
<rect width="50" height="50" fill="white" transform="translate(0.988281)"/>
</clipPath>
</defs>
</svg>
