<svg width="50" height="50" viewBox="0 0 50 50" fill="none" xmlns="http://www.w3.org/2000/svg">
<g id="icon=venezuela" clip-path="url(#clip0_105_2844)">
<path id="Vector" d="M47.5193 35.8695C49.1087 32.5828 50 28.8956 50 25C50 21.1044 49.1087 17.4172 47.5193 14.1305L25 11.9565L2.48066 14.1305C0.891309 17.4172 0 21.1044 0 25C0 28.8956 0.891309 32.5828 2.48066 35.8695L25 38.0435L47.5193 35.8695Z" fill="#0052B4"/>
<path id="Vector_2" d="M24.9998 50.0001C34.9112 50.0001 43.4754 44.232 47.5191 35.8696H2.48047C6.52422 44.232 15.0883 50.0001 24.9998 50.0001Z" fill="#D80027"/>
<g id="Group">
<path id="Vector_3" d="M43.2978 29.9073L41.9773 30.9392L42.5504 32.5135L41.161 31.5767L39.8405 32.6083L40.3022 30.9975L38.9131 30.0604L40.5878 30.002L41.0499 28.3911L41.6231 29.9657L43.2978 29.9073Z" fill="#F0F0F0"/>
<path id="Vector_4" d="M39.9163 24.0507L39.0285 25.4719L40.1058 26.7553L38.4797 26.3504L37.5916 27.7712L37.4745 26.0996L35.8486 25.694L37.4025 25.0662L37.2857 23.3945L38.3628 24.6784L39.9163 24.0507Z" fill="#F0F0F0"/>
<path id="Vector_5" d="M34.7359 19.7036L34.3877 21.3428L35.8389 22.1807L34.1724 22.3563L33.8239 23.995L33.1423 22.4644L31.4756 22.6393L32.7211 21.518L32.0396 19.9873L33.4907 20.825L34.7359 19.7036Z" fill="#F0F0F0"/>
<path id="Vector_6" d="M28.3813 17.3911L28.6147 19.0506L30.2648 19.3414L28.7588 20.0764L28.9921 21.7357L27.828 20.5303L26.3216 21.2648L27.1085 19.7851L25.9443 18.5798L27.5947 18.8707L28.3813 17.3911Z" fill="#F0F0F0"/>
<path id="Vector_7" d="M21.6188 17.3911L22.4057 18.8707L24.0557 18.5796L22.8919 19.7854L23.6783 21.265L22.1723 20.5303L21.008 21.7354L21.2415 20.0764L19.7354 19.3418L21.3856 19.0506L21.6188 17.3911Z" fill="#F0F0F0"/>
<path id="Vector_8" d="M15.2643 19.7036L16.5098 20.825L17.9606 19.9873L17.2793 21.5186L18.5245 22.6396L16.858 22.4644L16.1762 23.995L15.8282 22.3561L14.1616 22.1811L15.6128 21.343L15.2643 19.7036Z" fill="#F0F0F0"/>
<path id="Vector_9" d="M10.084 24.0509L11.638 24.6786L12.7147 23.395L12.5982 25.067L14.1518 25.6948L12.5259 26.1L12.4088 27.7714L11.5211 26.3506L9.89502 26.7558L10.9722 25.4721L10.084 24.0509Z" fill="#F0F0F0"/>
<path id="Vector_10" d="M6.70264 29.9071L8.37764 29.9655L8.95049 28.3911L9.41289 30.0021L11.0874 30.0605L9.69814 30.9977L10.1599 32.6084L8.83955 31.5768L7.4502 32.5136L8.02334 30.939L6.70264 29.9071Z" fill="#F0F0F0"/>
</g>
<path id="Vector_11" d="M47.5191 14.1305C43.4754 5.76807 34.9112 0 24.9998 0C15.0883 0 6.52422 5.76807 2.48047 14.1305H47.5191Z" fill="#FFDA44"/>
</g>
<defs>
<clipPath id="clip0_105_2844">
<rect width="50" height="50" fill="white"/>
</clipPath>
</defs>
</svg>
