<svg width="50" height="50" viewBox="0 0 50 50" fill="none" xmlns="http://www.w3.org/2000/svg">
<g id="icon=guinea" clip-path="url(#clip0_105_1631)">
<path id="Vector" d="M33.6959 1.55605C30.9875 0.551074 28.0581 0.000976562 25 0.000976562C21.9421 0.000976562 19.0128 0.551074 16.3046 1.55586L15.2176 25.001L16.3045 48.4461C19.0128 49.451 21.9421 50.001 25 50.001C28.0582 50.001 30.9875 49.451 33.6959 48.4459L34.7828 25.001L33.6959 1.55605Z" fill="#FFDA44"/>
<path id="Vector_2" d="M0 25.001C0 35.75 6.78437 44.9137 16.3044 48.4459V1.55591C6.78437 5.08833 0 14.2518 0 25.001Z" fill="#D80027"/>
<path id="Vector_3" d="M50 25.001C50 14.2518 43.2156 5.08833 33.6956 1.55591V48.446C43.2156 44.9137 50 35.75 50 25.001Z" fill="#6DA544"/>
</g>
<defs>
<clipPath id="clip0_105_1631">
<rect width="50" height="50" fill="white" transform="translate(0 0.000976562)"/>
</clipPath>
</defs>
</svg>
