<svg width="50" height="50" viewBox="0 0 50 50" fill="none" xmlns="http://www.w3.org/2000/svg">
<g id="icon=maldives" clip-path="url(#clip0_105_1903)">
<path id="Vector" d="M25 50C38.8071 50 50 38.8071 50 25C50 11.1929 38.8071 0 25 0C11.1929 0 0 11.1929 0 25C0 38.8071 11.1929 50 25 50Z" fill="#D80027"/>
<path id="Vector_2" d="M8.69556 13.0435H41.3042V36.9565H8.69556V13.0435Z" fill="#6DA544"/>
<path id="Vector_3" d="M29.026 32.0651C25.1241 32.0651 21.9608 28.9019 21.9608 24.9999C21.9608 21.0979 25.1241 17.9347 29.026 17.9347C30.2426 17.9347 31.3875 18.2423 32.3869 18.7839C30.819 17.2506 28.675 16.3042 26.3086 16.3042C21.5063 16.3042 17.613 20.1974 17.613 24.9998C17.613 29.8022 21.5063 33.6954 26.3086 33.6954C28.675 33.6954 30.8191 32.749 32.3869 31.2157C31.3875 31.7575 30.2426 32.0651 29.026 32.0651Z" fill="#F0F0F0"/>
</g>
<defs>
<clipPath id="clip0_105_1903">
<rect width="50" height="50" fill="white"/>
</clipPath>
</defs>
</svg>
