<svg width="51" height="50" viewBox="0 0 51 50" fill="none" xmlns="http://www.w3.org/2000/svg">
<g id="icon=bulgaria" clip-path="url(#clip0_105_1119)">
<path id="Vector" d="M50.9893 24.9999C50.9893 21.9419 50.4393 19.0125 49.4343 16.3043L25.9893 15.2173L2.54424 16.3042C1.53936 19.0125 0.989258 21.9419 0.989258 24.9999C0.989258 28.0579 1.53936 30.9873 2.54424 33.6955L25.9893 34.7825L49.4343 33.6956C50.4393 30.9873 50.9893 28.0579 50.9893 24.9999Z" fill="#496E2D"/>
<path id="Vector_2" d="M25.9893 49.9999C36.7384 49.9999 45.902 43.2156 49.4343 33.6956H2.54425C6.07657 43.2156 15.2401 49.9999 25.9893 49.9999Z" fill="#D80027"/>
<path id="Vector_3" d="M2.54425 16.3044H49.4344C45.902 6.78437 36.7384 0 25.9893 0C15.2401 0 6.07657 6.78437 2.54425 16.3044V16.3044Z" fill="#F0F0F0"/>
</g>
<defs>
<clipPath id="clip0_105_1119">
<rect width="50" height="50" fill="white" transform="translate(0.989258)"/>
</clipPath>
</defs>
</svg>
