<svg width="50" height="50" viewBox="0 0 50 50" fill="none" xmlns="http://www.w3.org/2000/svg">
<g id="icon=balearic islands" clip-path="url(#clip0_105_916)">
<path id="Vector" d="M25 0C38.807 0 50 11.1929 50 25C50 38.807 38.807 49.9999 25 49.9999C11.193 49.9999 9.15527e-05 38.807 9.15527e-05 25" fill="#FFDA44"/>
<g id="Group">
<path id="Vector_2" d="M24.4566 11.1112H45.789C44.3843 9.01288 42.6701 7.13984 40.7121 5.55566H24.4566V11.1112Z" fill="#D80027"/>
<path id="Vector_3" d="M24.4566 22.2225H49.8457C49.6326 20.2961 49.2009 18.436 48.5756 16.667H24.4566V22.2225Z" fill="#D80027"/>
<path id="Vector_4" d="M1.42461 33.3335H48.5754C49.2007 31.5644 49.6325 29.7042 49.8456 27.7778H0.154495C0.367385 29.7043 0.799221 31.5645 1.42461 33.3335V33.3335Z" fill="#D80027"/>
<path id="Vector_5" d="M9.28788 44.4442H40.712C42.6699 42.8601 44.3842 40.9869 45.7889 38.8887H4.21123C5.61591 40.9869 7.32997 42.8601 9.28788 44.4442V44.4442Z" fill="#D80027"/>
</g>
<path id="Vector_6" d="M25.0001 0C11.1929 0 -9.76554e-05 11.1929 6.39011e-10 25.0001C5.70565 25 11.1929 25.0001 25 25.0001L25.0001 0Z" fill="#4A1F63"/>
<path id="Vector_7" d="M20.6522 13.0436V15.2175H19.5653V13.0436H17.3914V15.2175H16.3045V10.8696H11.9566V15.2175H10.8696V13.0436H8.69578V15.2175H7.60877V13.0436H5.43475V19.5652H22.8261V13.0436H20.6522Z" fill="#F0F0F0"/>
</g>
<defs>
<clipPath id="clip0_105_916">
<rect width="50" height="50" fill="white"/>
</clipPath>
</defs>
</svg>
