<svg width="50" height="51" viewBox="0 0 50 51" fill="none" xmlns="http://www.w3.org/2000/svg">
<g id="icon=tajikistan" clip-path="url(#clip0_105_2589)">
<path id="Vector" d="M2.48066 14.7115C0.891406 17.9982 0 21.6855 0 25.5811C0 29.4766 0.891406 33.1639 2.48066 36.4506L25 38.6245L47.5193 36.4506C49.1086 33.1639 50 29.4766 50 25.5811C50 21.6855 49.1086 17.9982 47.5193 14.7115L25 12.5376L2.48066 14.7115Z" fill="#F0F0F0"/>
<path id="Vector_2" d="M2.48157 36.4507C6.52522 44.813 15.0886 50.5812 25 50.5812C34.9115 50.5812 43.4749 44.813 47.5185 36.4507H2.48157Z" fill="#6DA544"/>
<path id="Vector_3" d="M2.48157 14.7115H47.5185C43.4749 6.34922 34.9115 0.581055 25 0.581055C15.0886 0.581055 6.52522 6.34922 2.48157 14.7115Z" fill="#D80027"/>
<g id="Group">
<path id="Vector_4" d="M20.6522 32.1028H29.3479V28.4071L27.6088 29.2767L25.0001 26.668L22.3914 29.2767L20.6522 28.4071V32.1028Z" fill="#FFDA44"/>
<path id="Vector_5" d="M15.677 27.7549L16.0818 29.0004H17.3914L16.3318 29.7702L16.7366 31.0157L15.677 30.246L14.6174 31.0157L15.0222 29.7702L13.9626 29.0004H15.2722L15.677 27.7549Z" fill="#FFDA44"/>
<path id="Vector_6" d="M16.9318 23.407L17.3365 24.6525H18.6461L17.5865 25.4223L17.9912 26.6678L16.9318 25.8981L15.8722 26.6678L16.277 25.4223L15.2174 24.6525H16.527L16.9318 23.407Z" fill="#FFDA44"/>
<path id="Vector_7" d="M20.5189 20.1462L20.9237 21.3917H22.2332L21.1738 22.1616L21.5784 23.4071L20.5189 22.6374L19.4594 23.4071L19.8641 22.1616L18.8046 21.3917H20.1142L20.5189 20.1462Z" fill="#FFDA44"/>
<path id="Vector_8" d="M34.3231 27.7549L33.9183 29.0004H32.6088L33.6683 29.7702L33.2636 31.0157L34.3231 30.246L35.3826 31.0157L34.9779 29.7702L36.0375 29.0004H34.7279L34.3231 27.7549Z" fill="#FFDA44"/>
<path id="Vector_9" d="M33.0684 23.407L32.6636 24.6525H31.354L32.4136 25.4223L32.0088 26.6678L33.0684 25.8981L34.1279 26.6678L33.7231 25.4223L34.7827 24.6525H33.4731L33.0684 23.407Z" fill="#FFDA44"/>
<path id="Vector_10" d="M29.4812 20.1462L29.0764 21.3917H27.767L28.8263 22.1616L28.4217 23.4071L29.4812 22.6374L30.5407 23.4071L30.136 22.1616L31.1955 21.3917H29.8859L29.4812 20.1462Z" fill="#FFDA44"/>
<path id="Vector_11" d="M25 18.5156L25.4048 19.7611H26.7144L25.6548 20.531L26.0596 21.7765L25 21.0067L23.9404 21.7765L24.3452 20.531L23.2856 19.7611H24.5952L25 18.5156Z" fill="#FFDA44"/>
</g>
</g>
<defs>
<clipPath id="clip0_105_2589">
<rect width="50" height="50" fill="white" transform="translate(0 0.581055)"/>
</clipPath>
</defs>
</svg>
