<svg width="50" height="50" viewBox="0 0 50 50" fill="none" xmlns="http://www.w3.org/2000/svg">
<g id="icon=madagascar" clip-path="url(#clip0_105_1876)">
<path id="Vector" d="M25 50C38.8071 50 50 38.8071 50 25C50 11.1929 38.8071 0 25 0C11.1929 0 0 11.1929 0 25C0 38.8071 11.1929 50 25 50Z" fill="#F0F0F0"/>
<path id="Vector_2" d="M16.3042 25.0002V48.4452C19.0124 49.4502 21.9418 50.0002 24.9998 50.0002C38.8068 50.0002 49.9998 38.8073 49.9998 25.0002C49.9998 11.1932 16.3042 25.0002 16.3042 25.0002Z" fill="#6DA544"/>
<path id="Vector_3" d="M24.9998 0C21.9418 0 19.0124 0.550098 16.3042 1.55498V25H49.9998C49.9998 11.193 38.8068 0 24.9998 0Z" fill="#D80027"/>
</g>
<defs>
<clipPath id="clip0_105_1876">
<rect width="50" height="50" fill="white"/>
</clipPath>
</defs>
</svg>
