<svg width="50" height="50" viewBox="0 0 50 50" fill="none" xmlns="http://www.w3.org/2000/svg">
<g id="icon=isle of man" clip-path="url(#clip0_105_1716)">
<path id="Vector" d="M25 50C38.8071 50 50 38.8071 50 25C50 11.1929 38.8071 0 25 0C11.1929 0 0 11.1929 0 25C0 38.8071 11.1929 50 25 50Z" fill="#D80027"/>
<path id="Vector_2" d="M34.2565 16.7592L32.4896 23.0649L27.1878 22.0859L23.7751 15.0513L14.5557 18.3229L13.8286 16.274L11.4165 15.9769L13.234 21.0988L19.5786 19.4763L21.3816 24.5572L16.9957 31.0301L24.4388 37.3783L23.028 39.0323L23.9767 41.27L27.5038 37.1349L22.9263 32.4516L26.425 28.3497L34.2236 28.9116L35.9999 19.2915L38.1377 19.6863L39.6015 17.7459L34.2565 16.7592Z" fill="#F0F0F0"/>
</g>
<defs>
<clipPath id="clip0_105_1716">
<rect width="50" height="50" fill="white"/>
</clipPath>
</defs>
</svg>
