<svg width="50" height="51" viewBox="0 0 50 51" fill="none" xmlns="http://www.w3.org/2000/svg">
<g id="icon=turkey" clip-path="url(#clip0_105_2667)">
<path id="Vector" d="M25 50.5811C38.8071 50.5811 50 39.3882 50 25.5811C50 11.7739 38.8071 0.581055 25 0.581055C11.1929 0.581055 0 11.7739 0 25.5811C0 39.3882 11.1929 50.5811 25 50.5811Z" fill="#D80027"/>
<g id="Group">
<path id="Vector_2" d="M23.9763 21.0093L26.0276 23.8359L29.3496 22.7588L27.2951 25.583L29.346 28.4096L26.0252 27.3283L23.9709 30.1525L23.973 26.6603L20.6521 25.579L23.9742 24.5019L23.9763 21.0093Z" fill="#F0F0F0"/>
<path id="Vector_3" d="M18.3783 32.6462C14.4764 32.6462 11.3131 29.4829 11.3131 25.581C11.3131 21.679 14.4764 18.5157 18.3783 18.5157C19.5949 18.5157 20.7396 18.8234 21.7391 19.3649C20.1712 17.8315 18.027 16.8853 15.6609 16.8853C10.8584 16.8853 6.96533 20.7784 6.96533 25.5809C6.96533 30.3833 10.8585 34.2765 15.6609 34.2765C18.0271 34.2765 20.1713 33.3301 21.7391 31.7968C20.7396 32.3385 19.5949 32.6462 18.3783 32.6462V32.6462Z" fill="#F0F0F0"/>
</g>
</g>
<defs>
<clipPath id="clip0_105_2667">
<rect width="50" height="50" fill="white" transform="translate(0 0.581055)"/>
</clipPath>
</defs>
</svg>
