<svg width="50" height="50" viewBox="0 0 50 50" fill="none" xmlns="http://www.w3.org/2000/svg">
<g id="icon=chad" clip-path="url(#clip0_105_1235)">
<path id="Vector" d="M25 0.000976562C21.942 0.000976562 19.0126 0.551074 16.3044 1.55596L15.2174 25.001L16.3043 48.446C19.0126 49.451 21.942 50.001 25 50.001C28.058 50.001 30.9874 49.451 33.6956 48.446L34.7826 25.001L33.6957 1.55596C30.9874 0.551074 28.058 0.000976563 25 0.000976563V0.000976562Z" fill="#FFDA44"/>
<path id="Vector_2" d="M50 25.0009C50 14.2518 43.2156 5.08823 33.6956 1.55591V48.446C43.2156 44.9136 50 35.75 50 25.0009V25.0009Z" fill="#D80027"/>
<path id="Vector_3" d="M16.3044 48.4459V1.55591C6.78437 5.08823 0 14.2518 0 25.0009C0 35.75 6.78437 44.9136 16.3044 48.4459Z" fill="#0052B4"/>
</g>
<defs>
<clipPath id="clip0_105_1235">
<rect width="50" height="50" fill="white" transform="translate(0 0.000976562)"/>
</clipPath>
</defs>
</svg>
