<svg width="50" height="50" viewBox="0 0 50 50" fill="none" xmlns="http://www.w3.org/2000/svg">
<g id="icon=egypt" clip-path="url(#clip0_105_1428)">
<path id="Vector" d="M25 50C38.8071 50 50 38.8071 50 25C50 11.1929 38.8071 0 25 0C11.1929 0 0 11.1929 0 25C0 38.8071 11.1929 50 25 50Z" fill="#F0F0F0"/>
<path id="Vector_2" d="M25.0002 0C14.2511 0 5.0875 6.78437 1.55518 16.3044H48.4453C44.9129 6.78437 35.7493 0 25.0002 0V0Z" fill="#D80027"/>
<path id="Vector_3" d="M25.0002 49.9999C35.7493 49.9999 44.9129 43.2156 48.4452 33.6956H1.55518C5.0875 43.2156 14.2511 49.9999 25.0002 49.9999Z" fill="black"/>
<path id="Vector_4" d="M33.6956 22.2826H27.1738C27.1738 21.082 26.2005 20.1086 24.9999 20.1086C23.7993 20.1086 22.826 21.082 22.826 22.2826H16.3042C16.3042 23.4833 17.35 24.4565 18.5506 24.4565H18.4781C18.4781 25.6572 19.4514 26.6304 20.6521 26.6304C20.6521 27.8311 21.6253 28.8043 22.826 28.8043H27.1738C28.3745 28.8043 29.3478 27.8311 29.3478 26.6304C30.5484 26.6304 31.5217 25.6572 31.5217 24.4565H31.4493C32.6499 24.4565 33.6956 23.4833 33.6956 22.2826V22.2826Z" fill="#FF9811"/>
</g>
<defs>
<clipPath id="clip0_105_1428">
<rect width="50" height="50" fill="white"/>
</clipPath>
</defs>
</svg>
