<svg width="50" height="50" viewBox="0 0 50 50" fill="none" xmlns="http://www.w3.org/2000/svg">
<g id="icon=portugal" clip-path="url(#clip0_105_2248)">
<path id="Vector" d="M0 25C0 35.749 6.78438 44.9126 16.3042 48.4449L18.4782 24.9999L16.3042 1.55499C6.78438 5.08741 0 14.2509 0 25Z" fill="#6DA544"/>
<path id="Vector_2" d="M50 25C50 11.193 38.807 0 25 0C21.942 0 19.0126 0.550098 16.3042 1.55498V48.445C19.0126 49.45 21.942 50 25 50C38.807 50 50 38.807 50 25Z" fill="#D80027"/>
<path id="Vector_3" d="M16.3045 33.6956C21.1069 33.6956 25.0001 29.8024 25.0001 25C25.0001 20.1975 21.1069 16.3044 16.3045 16.3044C11.502 16.3044 7.60889 20.1975 7.60889 25C7.60889 29.8024 11.502 33.6956 16.3045 33.6956Z" fill="#FFDA44"/>
<path id="Vector_4" d="M11.4131 20.6522V26.0869C11.4131 28.7883 13.6029 30.9782 16.3044 30.9782C19.0059 30.9782 21.1957 28.7884 21.1957 26.0869V20.6522H11.4131Z" fill="#D80027"/>
<path id="Vector_5" d="M16.3043 27.7174C15.4053 27.7174 14.6738 26.9859 14.6738 26.0869V23.9131H17.9347V26.087C17.9347 26.9859 17.2032 27.7174 16.3043 27.7174Z" fill="#F0F0F0"/>
</g>
<defs>
<clipPath id="clip0_105_2248">
<rect width="50" height="50" fill="white"/>
</clipPath>
</defs>
</svg>
