<svg width="50" height="50" viewBox="0 0 50 50" fill="none" xmlns="http://www.w3.org/2000/svg">
<g id="icon=cayman islands" clip-path="url(#clip0_105_1178)">
<path id="Vector" d="M50 25C50 38.807 38.807 50 25 50C11.193 50 0 38.807 0 25C0 25.006 25 0.00273438 25 0C38.807 0 50 11.193 50 25Z" fill="#0052B4"/>
<g id="Group">
<path id="Vector_2" d="M24.9331 25H25C25 24.9775 25 24.9557 25 24.9331C24.9777 24.9555 24.9555 24.9777 24.9331 25Z" fill="#F0F0F0"/>
<path id="Vector_3" d="M25 13.0435C25 8.64453 25 5.76221 25 0H24.9958C11.1905 0.00234375 0 11.1942 0 25H13.0435V17.6552L20.3883 25H24.9332C24.9555 24.9777 24.9777 24.9555 25.0001 24.9331C25.0001 23.2488 25.0001 21.746 25.0001 20.3885L17.6551 13.0435H25Z" fill="#F0F0F0"/>
</g>
<path id="Vector_4" d="M35.8696 18.4783C38.2708 18.4783 40.2174 16.5317 40.2174 14.1304C40.2174 11.7292 38.2708 9.78259 35.8696 9.78259C33.4683 9.78259 31.5217 11.7292 31.5217 14.1304C31.5217 16.5317 33.4683 18.4783 35.8696 18.4783Z" fill="#6DA544"/>
<g id="Group_2">
<path id="Vector_5" d="M12.6479 3.26086C8.73779 5.48733 5.48711 8.73791 3.26074 12.648V25H9.78252V9.78284V9.78264H24.9999C24.9999 7.72571 24.9999 5.76614 24.9999 3.26086H12.6479Z" fill="#D80027"/>
<path id="Vector_6" d="M25 21.9257L16.1177 13.0436H13.0435V13.0438L24.9998 25H25C25 25 25 22.8802 25 21.9257V21.9257Z" fill="#D80027"/>
<path id="Vector_7" d="M28.2607 13.0435H43.4781V19.5652H28.2607V13.0435Z" fill="#D80027"/>
</g>
<path id="Vector_8" d="M28.2607 29.3479V33.6958H30.5482C31.9198 35.0399 33.7973 35.8697 35.8694 35.8697C37.9416 35.8697 39.819 35.0399 41.1906 33.6958H41.3042H43.4781V29.3479H28.2607Z" fill="#FFDA44"/>
<path id="Vector_9" d="M28.2607 18.4783V25C28.2607 30.8242 35.8694 32.6087 35.8694 32.6087C35.8694 32.6087 43.4781 30.8242 43.4781 25V18.4783H28.2607Z" fill="#338AF3"/>
<g id="Group_3">
<path id="Vector_10" d="M35.8692 21.9618C33.9671 21.9618 33.9671 23.701 32.0651 23.701C30.163 23.701 30.163 21.9618 28.261 21.9618V25.0052C30.163 25.0052 30.163 26.7444 32.0651 26.7444C33.9671 26.7444 33.9671 25.0052 35.8692 25.0052C37.7714 25.0052 37.7714 26.7444 39.6738 26.7444C41.5761 26.7444 41.576 25.0052 43.4784 25.0052V21.9618C41.5761 21.9618 41.5761 23.701 39.6738 23.701C37.7714 23.701 37.7714 21.9618 35.8692 21.9618V21.9618Z" fill="#F3F3F3"/>
<path id="Vector_11" d="M35.8692 15.8695C33.9671 15.8695 33.9671 17.6087 32.0651 17.6087C30.163 17.6087 30.163 15.8695 28.261 15.8695V18.913C30.163 18.913 30.163 20.6521 32.0651 20.6521C33.9671 20.6521 33.9671 18.913 35.8692 18.913C37.7714 18.913 37.7714 20.6521 39.6738 20.6521C41.5761 20.6521 41.576 18.913 43.4784 18.913V15.8695C41.5761 15.8695 41.5761 17.6087 39.6738 17.6087C37.7714 17.6087 37.7714 15.8695 35.8692 15.8695Z" fill="#F3F3F3"/>
</g>
</g>
<defs>
<clipPath id="clip0_105_1178">
<rect width="50" height="50" fill="white"/>
</clipPath>
</defs>
</svg>
