<svg width="50" height="50" viewBox="0 0 50 50" fill="none" xmlns="http://www.w3.org/2000/svg">
<g id="icon=madeira" clip-path="url(#clip0_105_1880)">
<path id="Vector" d="M35.8695 2.48066C32.5828 0.891406 28.8956 0 25 0C21.1044 0 17.4172 0.891406 14.1305 2.48066L11.9565 25L14.1305 47.5193C17.4172 49.1086 21.1044 50 25 50C28.8956 50 32.5828 49.1086 35.8695 47.5193L38.0435 25L35.8695 2.48066Z" fill="#FFDA44"/>
<g id="Group">
<path id="Vector_2" d="M14.1305 2.48145C5.76807 6.5251 0 15.0885 0 24.9999C0 34.9113 5.76807 43.4747 14.1305 47.5184V2.48145Z" fill="#0052B4"/>
<path id="Vector_3" d="M35.8696 2.48145V47.5184C44.2319 43.4747 50.0001 34.9113 50.0001 24.9999C50.0001 15.0885 44.2319 6.5251 35.8696 2.48145Z" fill="#0052B4"/>
</g>
<path id="Vector_4" d="M32.065 27.1737L33.6954 29.3477V20.652L32.065 22.8259H27.1737V17.9346L29.3477 16.3042H20.652L22.8259 17.9346V22.8259H17.9346L16.3042 20.652V29.3477L17.9346 27.1737H22.8259V32.065L20.652 33.6954H29.3477L27.1737 32.065V27.1737H32.065Z" fill="#D80027"/>
<path id="Vector_5" d="M31.5216 23.9129H26.0867V18.478H23.9129V23.9129H18.478V26.0867H23.9129V31.5216H26.0867V26.0867H31.5216V23.9129Z" fill="#F0F0F0"/>
</g>
<defs>
<clipPath id="clip0_105_1880">
<rect width="50" height="50" fill="white"/>
</clipPath>
</defs>
</svg>
