<svg width="50" height="50" viewBox="0 0 50 50" fill="none" xmlns="http://www.w3.org/2000/svg">
<g id="icon=abkhazia" clip-path="url(#clip0_105_760)">
<path id="Vector" d="M25 50C38.8071 50 50 38.8071 50 25C50 11.1929 38.8071 0 25 0C11.1929 0 0 11.1929 0 25C0 38.8071 11.1929 50 25 50Z" fill="#F0F0F0"/>
<g id="Group">
<path id="Vector_2" d="M42.4939 7.14297C37.9849 2.725 31.8112 0 25 0C22.8261 0 16.4654 2.725 11.9565 7.14297H42.4939Z" fill="#6DA544"/>
<path id="Vector_3" d="M25 21.4285H49.7449C49.3842 18.9065 48.6476 16.5062 47.5928 14.2856H23.9131L25 21.4285Z" fill="#6DA544"/>
<path id="Vector_4" d="M2.40713 35.7143H47.5925C48.6474 33.4938 49.384 31.0933 49.7447 28.5713H0.254883C0.615723 31.0934 1.35215 33.4939 2.40713 35.7143V35.7143Z" fill="#6DA544"/>
<path id="Vector_5" d="M7.50586 42.8569C12.0149 47.2749 18.1886 49.9999 24.9998 49.9999C31.811 49.9999 37.9847 47.2749 42.4938 42.8569H7.50586Z" fill="#6DA544"/>
</g>
<path id="Vector_6" d="M24.9998 0C12.4055 0 1.98809 9.31357 0.254883 21.4286H24.9998V0Z" fill="#D80027"/>
<g id="Group_2">
<path id="Vector_7" d="M12.5 19.1668L11.4131 16.993V12.6451L14.1305 10.4712L16.8479 12.6451V15.906L17.9348 14.819V16.993L15.7608 19.1668H12.5Z" fill="#F0F0F0"/>
<path id="Vector_8" d="M6.65361 12.5L6.94141 13.3857H7.87266L7.11924 13.9333L7.40713 14.8189L6.65361 14.2715L5.9001 14.8189L6.18799 13.9333L5.43457 13.3857H6.36582L6.65361 12.5Z" fill="#F0F0F0"/>
<path id="Vector_9" d="M8.82744 10.3262L9.11523 11.2119H10.0466L9.29307 11.7595L9.58086 12.6451L8.82744 12.0978L8.07402 12.6451L8.36191 11.7595L7.6084 11.2119H8.53955L8.82744 10.3262Z" fill="#F0F0F0"/>
<path id="Vector_10" d="M11.0013 8.15234L11.2891 9.03809H12.2202L11.4669 9.58564L11.7546 10.4713L11.0013 9.92393L10.2478 10.4713L10.5355 9.58564L9.78223 9.03809H10.7134L11.0013 8.15234Z" fill="#F0F0F0"/>
<path id="Vector_11" d="M21.6066 12.5L21.3188 13.3857H20.3877L21.141 13.9333L20.8532 14.8189L21.6066 14.2715L22.3602 14.8189L22.0724 13.9333L22.8257 13.3857H21.8945L21.6066 12.5Z" fill="#F0F0F0"/>
<path id="Vector_12" d="M19.4328 10.3262L19.145 11.2119H18.2139L18.9672 11.7595L18.6794 12.6451L19.4328 12.0978L20.1863 12.6451L19.8984 11.7595L20.6519 11.2119H19.7207L19.4328 10.3262Z" fill="#F0F0F0"/>
<path id="Vector_13" d="M17.2591 8.15234L16.9712 9.03809H16.04L16.7934 9.58564L16.5056 10.4713L17.2591 9.92393L18.0125 10.4713L17.7247 9.58564L18.478 9.03809H17.5469L17.2591 8.15234Z" fill="#F0F0F0"/>
<path id="Vector_14" d="M14.1302 7.06543L13.8423 7.95117H12.9111L13.6645 8.49863L13.3767 9.38428L14.1302 8.83691L14.8836 9.38428L14.5958 8.49863L15.3491 7.95117H14.418L14.1302 7.06543Z" fill="#F0F0F0"/>
</g>
</g>
<defs>
<clipPath id="clip0_105_760">
<rect width="50" height="50" fill="white"/>
</clipPath>
</defs>
</svg>
