<svg width="50" height="50" viewBox="0 0 50 50" fill="none" xmlns="http://www.w3.org/2000/svg">
<g id="icon=afghanistan" clip-path="url(#clip0_105_777)">
<path id="Vector" d="M35.8695 2.48066C32.5828 0.891406 28.8955 0 25 0C21.1045 0 17.4172 0.891406 14.1305 2.48066L11.9565 25L14.1305 47.5193C17.4172 49.1086 21.1045 50 25 50C28.8955 50 32.5828 49.1086 35.8695 47.5193L38.0435 25L35.8695 2.48066Z" fill="#D80027"/>
<path id="Vector_2" d="M14.1305 2.48145C5.76816 6.5251 0 15.0885 0 24.9999C0 34.9113 5.76816 43.4747 14.1305 47.5184V2.48145Z" fill="black"/>
<path id="Vector_3" d="M35.8696 2.48145V47.5184C44.2319 43.4747 50.0001 34.9113 50.0001 24.9999C50.0001 15.0885 44.2319 6.5251 35.8696 2.48145Z" fill="#496E2D"/>
<g id="Group">
<path id="Vector_4" d="M24.9998 16.3042C20.1973 16.3042 16.3042 20.1974 16.3042 24.9998C16.3042 29.8022 20.1974 33.6954 24.9998 33.6954C29.8022 33.6954 33.6954 29.8022 33.6954 24.9998C33.6954 20.1974 29.8023 16.3042 24.9998 16.3042ZM24.9998 30.4346C21.9982 30.4346 19.565 28.0013 19.565 24.9998C19.565 21.9983 21.9983 19.565 24.9998 19.565C28.0013 19.565 30.4346 21.9983 30.4346 24.9998C30.4346 28.0013 28.0014 30.4346 24.9998 30.4346Z" fill="#FFDA44"/>
<path id="Vector_5" d="M24.9996 21.7388C23.7989 21.7388 22.8257 22.712 22.8257 23.9127V27.1735H27.1735V23.9127C27.1735 22.712 26.2003 21.7388 24.9996 21.7388V21.7388Z" fill="#FFDA44"/>
</g>
</g>
<defs>
<clipPath id="clip0_105_777">
<rect width="50" height="50" fill="white"/>
</clipPath>
</defs>
</svg>
