<svg width="50" height="50" viewBox="0 0 50 50" fill="none" xmlns="http://www.w3.org/2000/svg">
<g id="icon=anguilla" clip-path="url(#clip0_105_824)">
<path id="Vector" d="M50 25C50 38.807 38.807 50 25 50C11.193 50 0 38.807 0 25C0 25.006 25 0.00273438 25 0C38.807 0 50 11.193 50 25Z" fill="#0052B4"/>
<g id="Group">
<path id="Vector_2" d="M24.9331 25H25C25 24.9775 25 24.9557 25 24.9331C24.9777 24.9555 24.9555 24.9777 24.9331 25Z" fill="#F0F0F0"/>
<path id="Vector_3" d="M25 13.0435C25 8.64453 25 5.76221 25 0H24.9958C11.1905 0.00234375 0 11.1942 0 25H13.0435V17.6552L20.3883 25H24.9332C24.9555 24.9777 24.9777 24.9555 25.0001 24.9331C25.0001 23.2488 25.0001 21.746 25.0001 20.3885L17.6551 13.0435H25Z" fill="#F0F0F0"/>
</g>
<g id="Group_2">
<path id="Vector_4" d="M12.648 3.26074C8.73791 5.48721 5.48723 8.73779 3.26086 12.6479V24.9999H9.78264V9.78272V9.78252H25C25 7.72559 25 5.76602 25 3.26074H12.648Z" fill="#D80027"/>
<path id="Vector_5" d="M25 21.9256L16.1177 13.0435H13.0435V13.0437L24.9998 24.9999H25C25 24.9999 25 22.8801 25 21.9256V21.9256Z" fill="#D80027"/>
</g>
<path id="Vector_6" d="M42.2792 28.6594C42.9981 27.6703 43.4782 26.4625 43.4782 24.9998V14.1303C42.5699 14.8127 41.4409 15.2172 40.2174 15.2172C38.4395 15.2172 36.8611 14.3634 35.8696 13.0435C34.878 14.3634 33.2995 15.2172 31.5217 15.2172C30.2981 15.2172 29.1692 14.8126 28.2609 14.1305V24.9998C28.2609 26.4625 28.741 27.6703 29.4599 28.6594H42.2792Z" fill="#F3F3F3"/>
<g id="Group_3">
<path id="Vector_7" d="M40.018 22.9832C40.3641 22.1389 40.6333 20.9048 40.6333 20.2906C40.6333 19.3038 39.3467 18.5039 39.3467 18.5039C39.3467 18.5039 38.0602 19.3038 38.0602 20.2906C38.0602 20.9049 38.3295 22.139 38.6754 22.9832L37.9327 24.6601C38.3692 24.8376 38.8463 24.9362 39.3468 24.9362C39.8473 24.9362 40.3244 24.8375 40.761 24.6601L40.018 22.9832Z" fill="#FF9811"/>
<path id="Vector_8" d="M34.9896 17.5538C34.0857 17.6763 32.8823 18.0605 32.3505 18.3676C31.4959 18.861 31.4463 20.375 31.4463 20.375C31.4463 20.375 32.7824 21.0892 33.6369 20.5958C34.1689 20.2887 35.1029 19.4387 35.6608 18.7168L37.4847 18.5215C37.4201 18.0549 37.2666 17.5923 37.0167 17.159C36.7663 16.7257 36.4426 16.3616 36.0705 16.0723L34.9896 17.5538Z" fill="#FF9811"/>
<path id="Vector_9" d="M32.8019 24.6236C33.3598 25.3451 34.2941 26.195 34.8262 26.5022C35.6807 26.9956 37.0168 26.2816 37.0168 26.2816C37.0168 26.2816 36.967 24.7675 36.1126 24.274C35.5805 23.9669 34.3772 23.583 33.4731 23.4607L32.3924 21.979C32.0204 22.2683 31.6966 22.6325 31.4463 23.0654C31.1962 23.4989 31.0431 23.9613 30.9782 24.4282L32.8019 24.6236Z" fill="#FF9811"/>
</g>
<path id="Vector_10" d="M29.191 28.2612C31.2211 31.5186 35.8697 32.6089 35.8697 32.6089C35.8697 32.6089 40.5181 31.5186 42.5483 28.2612H29.191Z" fill="#338AF3"/>
</g>
<defs>
<clipPath id="clip0_105_824">
<rect width="50" height="50" fill="white"/>
</clipPath>
</defs>
</svg>
