<svg width="50" height="50" viewBox="0 0 50 50" fill="none" xmlns="http://www.w3.org/2000/svg">
<g id="icon=trinidad and tobago" clip-path="url(#clip0_105_2655)">
<path id="Vector" d="M13.537 2.77588C11.2989 3.93105 9.19805 5.44521 7.32188 7.32139C5.44561 9.19766 3.93145 11.2985 2.77637 13.5366L18.8513 31.1488L36.4635 47.2237C38.7017 46.0686 40.8025 44.5544 42.6787 42.6783C44.555 40.8021 46.069 38.7012 47.2242 36.4631L31.1493 18.8508L13.537 2.77588Z" fill="#F0F0F0"/>
<path id="Vector_2" d="M42.6779 42.6785C43.7267 41.6298 44.662 40.5107 45.4854 39.337L10.6627 4.51416C9.48896 5.3375 8.36992 6.27285 7.32119 7.32158C6.27246 8.37031 5.33711 9.48936 4.51367 10.6632L39.3364 45.4858C40.5101 44.6625 41.6292 43.7272 42.6779 42.6785Z" fill="black"/>
<g id="Group">
<path id="Vector_3" d="M7.32148 42.6783C15.2089 50.5657 27.0543 52.0798 36.4631 47.2237L2.77607 13.5366C-2.07989 22.9454 -0.565535 34.7909 7.32148 42.6783V42.6783Z" fill="#D80027"/>
<path id="Vector_4" d="M42.6787 7.32136C34.7913 -0.565947 22.9459 -2.08001 13.5371 2.77575L47.2241 36.4631C52.0802 27.0543 50.5661 15.2087 42.6787 7.32136V7.32136Z" fill="#D80027"/>
</g>
</g>
<defs>
<clipPath id="clip0_105_2655">
<rect width="50" height="50" fill="white"/>
</clipPath>
</defs>
</svg>
