<svg width="50" height="50" viewBox="0 0 50 50" fill="none" xmlns="http://www.w3.org/2000/svg">
<g id="icon=san marino" clip-path="url(#clip0_105_2324)">
<path id="Vector" d="M50 25C50 38.807 38.807 50 25 50C11.193 50 0 38.807 0 25C1.08691 25 25 21.7392 25 21.7392L50 25Z" fill="#338AF3"/>
<path id="Vector_2" d="M0 25C0 11.193 11.193 0 25 0C38.807 0 50 11.193 50 25" fill="#F0F0F0"/>
<path id="Vector_3" d="M34.9238 17.2504L25.0004 27.1739L15.077 17.2504C13.7937 19.1554 13.0439 21.4482 13.0439 23.913V27.1738C13.0439 32.4098 16.4272 36.87 21.1223 38.4844C20.4956 39.7125 20.6013 41.2452 21.5195 42.3912C22.7391 41.4138 24.0017 40.402 25.0728 39.5438C26.1438 40.4021 27.4065 41.4139 28.626 42.3912C29.555 41.2318 29.653 39.6762 29.0017 38.4408C33.6325 36.7914 36.9568 32.3639 36.9568 27.1738V23.9131C36.9569 21.4482 36.2071 19.1555 34.9238 17.2504V17.2504Z" fill="#6DA544"/>
<path id="Vector_4" d="M25.0003 35.8695C20.2055 35.8695 16.3047 31.9687 16.3047 27.1739V23.9131C16.3047 19.1183 20.2056 15.2175 25.0003 15.2175C29.795 15.2175 33.6959 19.1184 33.6959 23.9131V27.1739C33.6959 31.9687 29.7951 35.8695 25.0003 35.8695Z" fill="#FFDA44"/>
<path id="Vector_5" d="M30.435 27.1739V23.9131C30.435 20.9163 27.9969 18.4783 25.0002 18.4783C22.0035 18.4783 19.5654 20.9164 19.5654 23.9131V27.1739L25.0002 28.2608L30.435 27.1739Z" fill="#338AF3"/>
<path id="Vector_6" d="M19.5654 27.1739C19.5654 30.1707 22.0035 32.6087 25.0002 32.6087C27.9969 32.6087 30.435 30.1706 30.435 27.1739H19.5654Z" fill="#6DA544"/>
<path id="Vector_7" d="M31.522 15.2174C31.522 13.4165 30.062 11.9565 28.2611 11.9565C27.4257 11.9565 26.6643 12.271 26.0872 12.7875V10.8695H27.1741V8.6956H26.0872V7.60869H23.9133V8.6956H22.8264V10.8695H23.9133V12.7875C23.3362 12.271 22.5747 11.9565 21.7394 11.9565C19.9385 11.9565 18.4785 13.4165 18.4785 15.2174C18.4785 16.1829 18.8985 17.0501 19.5654 17.6473V19.5652H30.435V17.6473C31.102 17.0501 31.522 16.1829 31.522 15.2174V15.2174Z" fill="#FFDA44"/>
</g>
<defs>
<clipPath id="clip0_105_2324">
<rect width="50" height="50" fill="white"/>
</clipPath>
</defs>
</svg>
