<svg width="50" height="50" viewBox="0 0 50 50" fill="none" xmlns="http://www.w3.org/2000/svg">
<g id="icon=tokelau" clip-path="url(#clip0_105_2637)">
<path id="Vector" d="M25 50C38.8071 50 50 38.8071 50 25C50 11.1929 38.8071 0 25 0C11.1929 0 0 11.1929 0 25C0 38.8071 11.1929 50 25 50Z" fill="#FFDA44"/>
<path id="Vector_2" d="M40.2174 11.9565C39.9932 13.0342 39.8913 14.1819 39.8913 15.3261C39.8913 21.9212 43.8229 27.6293 49.4571 30.1989C49.8119 28.5216 50 26.7828 50 25C50 11.193 38.807 0 25 0C11.193 0 0 11.193 0 25C0 38.807 11.193 50 25 50C33.5627 50 41.1189 45.6941 45.6246 39.1305H14.1305V35.8696H47.5193C47.861 35.163 48.1697 34.4375 48.4451 33.6957H14.1305L40.2174 11.9565Z" fill="#0052B4"/>
<g id="Group">
<path id="Vector_3" d="M18.3664 13.0435L18.9061 14.7042H20.6521L19.2396 15.7307L19.7792 17.3913L18.3664 16.365L16.9538 17.3913L17.4934 15.7307L16.0806 14.7042H17.8268L18.3664 13.0435Z" fill="#F0F0F0"/>
<path id="Vector_4" d="M11.2731 25L11.9478 27.0761H14.1304L12.3645 28.3588L13.0391 30.4348L11.2731 29.1518L9.50732 30.4348L10.1818 28.3588L8.41602 27.0761H10.5986L11.2731 25Z" fill="#F0F0F0"/>
<path id="Vector_5" d="M11.2731 7.60864L11.9478 9.68472H14.1304L12.3645 10.9674L13.0391 13.0434L11.2731 11.7604L9.50732 13.0434L10.1818 10.9674L8.41602 9.68472H10.5986L11.2731 7.60864Z" fill="#F0F0F0"/>
<path id="Vector_6" d="M5.83857 17.3914L6.51318 19.4674H8.6957L6.92988 20.7501L7.60449 22.8261L5.83857 21.5431L4.07275 22.8261L4.74727 20.7501L2.98145 19.4674H5.16396L5.83857 17.3914Z" fill="#F0F0F0"/>
</g>
</g>
<defs>
<clipPath id="clip0_105_2637">
<rect width="50" height="50" fill="white"/>
</clipPath>
</defs>
</svg>
