<svg width="50" height="50" viewBox="0 0 50 50" fill="none" xmlns="http://www.w3.org/2000/svg">
<g id="icon=sint maarten" clip-path="url(#clip0_105_2422)">
<path id="Vector" d="M22.8261 27.1739C22.8261 27.1739 7.33691 7.31885 7.32227 7.32236C11.8463 2.79824 18.0964 0 25 0C38.807 0 50 11.193 50 25L22.8261 27.1739Z" fill="#D80027"/>
<path id="Vector_2" d="M22.8261 25C22.8261 25 7.33691 42.6812 7.32227 42.6776C11.8463 47.2018 18.0964 50 25 50C38.807 50 50 38.807 50 25H22.8261Z" fill="#0052B4"/>
<path id="Vector_3" d="M7.32231 7.32227C-2.44077 17.0854 -2.44077 32.9145 7.32231 42.6777C11.3568 38.6433 15.237 34.7631 25 25L7.32231 7.32227Z" fill="#F0F0F0"/>
<g id="Group">
<path id="Vector_4" d="M2.74036 25.0002C2.72668 25.1797 2.71741 25.3606 2.71741 25.5436C2.71741 29.4456 5.88069 32.6088 9.78264 32.6088C13.6846 32.6088 16.8479 29.4456 16.8479 25.5436C16.8479 25.3606 16.8386 25.1796 16.8249 25.0002H2.74036Z" fill="#FFDA44"/>
<path id="Vector_5" d="M9.78269 21.7392C10.9833 21.7392 11.9566 20.7659 11.9566 19.5653C11.9566 18.3647 10.9833 17.3914 9.78269 17.3914C8.58206 17.3914 7.60876 18.3647 7.60876 19.5653C7.60876 20.7659 8.58206 21.7392 9.78269 21.7392Z" fill="#FFDA44"/>
</g>
<path id="Vector_6" d="M4.89136 19.0217V26.087C4.89136 29.8311 9.78267 30.9783 9.78267 30.9783C9.78267 30.9783 14.674 29.8311 14.674 26.087V19.0217H4.89136Z" fill="#D80027"/>
<path id="Vector_7" d="M9.78501 28.7031C8.87759 28.3765 7.06519 27.5419 7.06519 26.0869V21.1956H12.5V26.0869C12.5 27.5467 10.6878 28.3792 9.78501 28.7031V28.7031Z" fill="#338AF3"/>
<path id="Vector_8" d="M10.8695 23.9131V22.8261L9.78257 22.2826L8.69556 22.8261V23.9131L8.1521 24.4565V26.6304H11.413V24.4565L10.8695 23.9131Z" fill="#F3F3F3"/>
</g>
<defs>
<clipPath id="clip0_105_2422">
<rect width="50" height="50" fill="white"/>
</clipPath>
</defs>
</svg>
