<svg width="50" height="50" viewBox="0 0 50 50" fill="none" xmlns="http://www.w3.org/2000/svg">
<g id="icon=american samoa" clip-path="url(#clip0_105_801)">
<path id="Vector" d="M25 50C38.8071 50 50 38.8071 50 25C50 11.1929 38.8071 0 25 0C11.1929 0 0 11.1929 0 25C0 38.8071 11.1929 50 25 50Z" fill="#F0F0F0"/>
<g id="Group">
<path id="Vector_2" d="M37.1285 3.13594C33.5363 1.13906 29.4014 0 25 0C11.1939 0 0.00175781 11.1912 0 24.9971L17.3913 16.3044L37.1285 3.13594Z" fill="#0052B4"/>
<path id="Vector_3" d="M0 25.0029C0.00175781 38.8088 11.1939 50 25 50C29.4014 50 33.5363 48.8611 37.1285 46.8641L17.3913 33.6956L0 25.0029Z" fill="#0052B4"/>
</g>
<path id="Vector_4" d="M39.2119 4.43174C38.5404 3.96699 37.8446 3.53477 37.1276 3.13623L0 24.997V24.9999C0 24.9999 0 25.002 0 25.0028L37.1277 46.8635C37.8447 46.4648 38.5404 46.0327 39.212 45.568L4.27949 24.9999L39.2119 4.43174Z" fill="#D80027"/>
<path id="Vector_5" d="M43.4783 24.0676H40.5004C41.2747 23.1379 41.227 21.7548 40.3546 20.8826C41.2786 19.9587 41.2786 18.4605 40.3546 17.5364L40.2989 17.5923C41.2229 16.6684 41.2786 15.1144 40.3546 14.1904L26.9702 27.5748C27.8942 28.4989 29.3661 28.4879 30.29 27.5639L30.5477 27.3284L36.9566 26.7458V29.5022H39.1306V26.5481L42.3914 26.2518L43.4783 24.0676Z" fill="#A2001D"/>
<path id="Vector_6" d="M27.1747 30.4347L25 29.3478L27.1747 28.2607H41.3051V30.4347H27.1747Z" fill="#FFDA44"/>
</g>
<defs>
<clipPath id="clip0_105_801">
<rect width="50" height="50" fill="white"/>
</clipPath>
</defs>
</svg>
