<svg width="50" height="50" viewBox="0 0 50 50" fill="none" xmlns="http://www.w3.org/2000/svg">
<g id="icon=republic of macedonia" clip-path="url(#clip0_105_2268)">
<path id="Vector" d="M25 50C38.8071 50 50 38.8071 50 25C50 11.1929 38.8071 0 25 0C11.1929 0 0 11.1929 0 25C0 38.8071 11.1929 50 25 50Z" fill="#FFDA44"/>
<g id="Group">
<path id="Vector_2" d="M28.802 49.7126C32.868 49.0923 36.6107 47.4911 39.784 45.1601L25 25L28.802 49.7126Z" fill="#D80027"/>
<path id="Vector_3" d="M21.1979 0.287399C17.132 0.907712 13.3893 2.50888 10.2158 4.83984L25 25L21.1979 0.287399Z" fill="#D80027"/>
<path id="Vector_4" d="M10.2158 45.1601C13.3891 47.491 17.1318 49.0922 21.1978 49.7127L25 25L10.2158 45.1601Z" fill="#D80027"/>
<path id="Vector_5" d="M4.83979 10.2158C2.50874 13.3893 0.907764 17.1319 0.287354 21.1979L25 25L4.83979 10.2158Z" fill="#D80027"/>
<path id="Vector_6" d="M0.287354 28.802C0.907666 32.868 2.50884 36.6107 4.83989 39.784L25 25L0.287354 28.802Z" fill="#D80027"/>
<path id="Vector_7" d="M49.7126 21.1979C49.0922 17.132 47.4911 13.3893 45.1601 10.2159L25 25L49.7126 21.1979Z" fill="#D80027"/>
<path id="Vector_8" d="M39.784 4.83974C36.6106 2.50879 32.868 0.907712 28.802 0.287399L25 25L39.784 4.83974Z" fill="#D80027"/>
<path id="Vector_9" d="M45.1603 39.7841C47.4912 36.6107 49.0923 32.8679 49.7128 28.8021L25 25L45.1603 39.7841Z" fill="#D80027"/>
<path id="Vector_10" d="M24.9999 33.6956C29.8024 33.6956 33.6955 29.8025 33.6955 25C33.6955 20.1976 29.8024 16.3044 24.9999 16.3044C20.1975 16.3044 16.3043 20.1976 16.3043 25C16.3043 29.8025 20.1975 33.6956 24.9999 33.6956Z" fill="#D80027"/>
</g>
<path id="Vector_11" d="M25 31.5218C28.6019 31.5218 31.5218 28.6019 31.5218 25C31.5218 21.3981 28.6019 18.4782 25 18.4782C21.3982 18.4782 18.4783 21.3981 18.4783 25C18.4783 28.6019 21.3982 31.5218 25 31.5218Z" fill="#FFDA44"/>
</g>
<defs>
<clipPath id="clip0_105_2268">
<rect width="50" height="50" fill="white"/>
</clipPath>
</defs>
</svg>
