<svg width="51" height="50" viewBox="0 0 51 50" fill="none" xmlns="http://www.w3.org/2000/svg">
<g id="icon=swaziland" clip-path="url(#clip0_105_2551)">
<path id="Vector" d="M48.0975 35.8695C49.6867 32.5829 50.5781 28.8955 50.5781 25C50.5781 21.1045 49.6867 17.4171 48.0975 14.1305L25.5781 13.0435L3.05879 14.1304C1.46953 17.4171 0.578125 21.1045 0.578125 25C0.578125 28.8955 1.46953 32.5829 3.05879 35.8695L25.5781 36.9565L48.0975 35.8695Z" fill="#FFDA44"/>
<path id="Vector_2" d="M25.5779 0C15.6664 0 7.10234 5.76807 3.05859 14.1305H48.0972C44.0535 5.76807 35.4894 0 25.5779 0V0Z" fill="black"/>
<path id="Vector_3" d="M25.5779 50.0001C15.6664 50.0001 7.10234 44.232 3.05859 35.8696H48.0972C44.0535 44.232 35.4894 50.0001 25.5779 50.0001V50.0001Z" fill="#0052B4"/>
<path id="Vector_4" d="M49.3976 17.3914H1.75869C0.992871 19.7907 0.578125 22.3468 0.578125 25C0.578125 27.6533 0.992871 30.2094 1.75869 32.6087H49.3975C50.1634 30.2094 50.5781 27.6533 50.5781 25C50.5781 22.3468 50.1634 19.7907 49.3976 17.3914Z" fill="#A2001D"/>
<g id="Group">
<path id="Vector_5" d="M9.27393 23.9131H41.8826V26.087H9.27393V23.9131Z" fill="#FFDA44"/>
<path id="Vector_6" d="M13.6216 19.5652H37.5347V21.7391H13.6216V19.5652Z" fill="#FFDA44"/>
</g>
<path id="Vector_7" d="M37.6897 25C37.6897 25 32.0996 31.5218 25.5779 31.5218C19.0563 31.5218 19.0562 25 19.0562 25C19.0562 25 19.0562 18.4783 25.5779 18.4783C32.0997 18.4783 37.6897 25 37.6897 25Z" fill="#F0F0F0"/>
<path id="Vector_8" d="M25.5781 31.5218C19.0563 31.5218 13.4663 25 13.4663 25C13.4663 25 19.0563 18.4783 25.5781 18.4783" fill="black"/>
<path id="Vector_9" d="M21.2305 22.8262H23.4044V27.174H21.2305V22.8262Z" fill="#F0F0F0"/>
<path id="Vector_10" d="M27.752 22.8262H29.9259V27.174H27.752V22.8262Z" fill="black"/>
<g id="Group_2">
<path id="Vector_11" d="M9.27354 27.174C10.4742 27.174 11.4475 26.2007 11.4475 25.0001C11.4475 23.7995 10.4742 22.8262 9.27354 22.8262C8.07291 22.8262 7.09961 23.7995 7.09961 25.0001C7.09961 26.2007 8.07291 27.174 9.27354 27.174Z" fill="#0052B4"/>
<path id="Vector_12" d="M41.8824 27.174C43.083 27.174 44.0563 26.2007 44.0563 25.0001C44.0563 23.7995 43.083 22.8262 41.8824 22.8262C40.6818 22.8262 39.7085 23.7995 39.7085 25.0001C39.7085 26.2007 40.6818 27.174 41.8824 27.174Z" fill="#0052B4"/>
</g>
</g>
<defs>
<clipPath id="clip0_105_2551">
<rect width="50" height="50" fill="white" transform="translate(0.578125)"/>
</clipPath>
</defs>
</svg>
