<svg width="50" height="50" viewBox="0 0 50 50" fill="none" xmlns="http://www.w3.org/2000/svg">
<g id="icon=tibet" clip-path="url(#clip0_105_2613)">
<path id="Vector" d="M25 50C38.8071 50 50 38.8071 50 25C50 11.1929 38.8071 0 25 0C11.1929 0 0 11.1929 0 25C0 38.8071 11.1929 50 25 50Z" fill="#F0F0F0"/>
<path id="Vector_2" d="M10.9097 4.34785C14.9219 1.60508 19.7732 0 25.0002 0C30.2271 0 35.0785 1.60508 39.0907 4.34785L25.0002 5.43477L10.9097 4.34785Z" fill="#FFDA44"/>
<path id="Vector_3" d="M7.32363 42.6764L18.8512 31.1491L25 20.6522L31.1481 31.1484L42.6764 42.6764C47.2008 38.1526 50 31.9037 50 25C50 16.4199 45.6769 8.85015 39.0905 4.3479H10.9095C4.32314 8.85015 0 16.4199 0 25C0 31.9037 2.79922 38.1526 7.32363 42.6764V42.6764Z" fill="#D80027"/>
<g id="Group">
<path id="Vector_4" d="M48.1006 34.5723L29.8223 26.9983L31.1471 31.1471L42.6762 42.6762C44.9781 40.3746 46.8334 37.6263 48.1006 34.5723Z" fill="#0052B4"/>
<path id="Vector_5" d="M50 25.0001C50 21.609 49.3241 18.3761 48.1008 15.4277L25 25.0001H50Z" fill="#0052B4"/>
<path id="Vector_6" d="M42.6764 7.32368C41.5775 6.22505 40.3774 5.22769 39.0905 4.3479H33.5578L25 25L42.6764 7.32368Z" fill="#0052B4"/>
<path id="Vector_7" d="M25.0001 4.3479H16.4424L25.0001 25V4.3479Z" fill="#0052B4"/>
<path id="Vector_8" d="M7.32373 7.32373C5.02178 9.62549 3.1666 12.3736 1.89941 15.4276L25.0001 25.0001L7.32373 7.32373Z" fill="#0052B4"/>
<path id="Vector_9" d="M0 25C0 28.3911 0.675879 31.624 1.89922 34.5724L25 25H0Z" fill="#0052B4"/>
</g>
<g id="Group_2">
<path id="Vector_10" d="M10.9097 45.6521C14.9218 48.3949 19.7732 50 25.0002 50C30.2271 50 35.0785 48.3949 39.0907 45.6521H10.9097Z" fill="#FFDA44"/>
<path id="Vector_11" d="M25.0003 25L31.149 31.1488C32.7228 29.5751 33.696 27.4013 33.696 25C33.696 20.1975 29.8028 16.3044 25.0004 16.3044C20.198 16.3044 16.3047 20.1975 16.3047 25C16.3047 27.4012 17.2779 29.5751 18.8517 31.1488L25.0003 25Z" fill="#FFDA44"/>
<path id="Vector_12" d="M28.8046 37.5C28.8046 39.601 27.1012 40.2173 25.0002 40.2173C22.8992 40.2173 21.1958 39.601 21.1958 37.5C21.1958 35.3989 22.8992 33.6956 25.0002 33.6956C27.1012 33.6956 28.8046 35.3989 28.8046 37.5Z" fill="#FFDA44"/>
</g>
<path id="Vector_13" d="M28.8046 37.5C28.8046 39.6011 27.1012 41.3044 25.0002 41.3044C22.8992 41.3044 21.1958 39.6011 21.1958 37.5" fill="#0052B4"/>
</g>
<defs>
<clipPath id="clip0_105_2613">
<rect width="50" height="50" fill="white"/>
</clipPath>
</defs>
</svg>
