<svg width="50" height="51" viewBox="0 0 50 51" fill="none" xmlns="http://www.w3.org/2000/svg">
<g id="icon=gambia" clip-path="url(#clip0_105_1538)">
<path id="Vector" d="M25 50.9893C38.8071 50.9893 50 39.7964 50 25.9893C50 12.1821 38.8071 0.989258 25 0.989258C11.1929 0.989258 0 12.1821 0 25.9893C0 39.7964 11.1929 50.9893 25 50.9893Z" fill="#F0F0F0"/>
<path id="Vector_2" d="M25 0.989258C14.6645 0.989258 5.79458 7.26133 1.98706 16.2066H48.0129C44.2054 7.26133 35.3354 0.989258 25 0.989258Z" fill="#A2001D"/>
<path id="Vector_3" d="M25 50.9894C35.3354 50.9894 44.2054 44.7173 48.0128 35.772H1.98706C5.79458 44.7173 14.6645 50.9894 25 50.9894Z" fill="#496E2D"/>
<path id="Vector_4" d="M49.1388 19.4675H0.86123C0.300781 21.5469 0 23.7328 0 25.9893C0 28.2459 0.300781 30.4317 0.86123 32.5111H49.1389C49.6992 30.4317 50 28.2459 50 25.9893C50 23.7328 49.6992 21.5469 49.1388 19.4675V19.4675Z" fill="#0052B4"/>
</g>
<defs>
<clipPath id="clip0_105_1538">
<rect width="50" height="50" fill="white" transform="translate(0 0.989258)"/>
</clipPath>
</defs>
</svg>
