<svg width="50" height="50" viewBox="0 0 50 50" fill="none" xmlns="http://www.w3.org/2000/svg">
<g id="icon=micronesia" clip-path="url(#clip0_105_1968)">
<path id="Vector" d="M25 50C38.8071 50 50 38.8071 50 25C50 11.1929 38.8071 0 25 0C11.1929 0 0 11.1929 0 25C0 38.8071 11.1929 50 25 50Z" fill="#338AF3"/>
<g id="Group">
<path id="Vector_2" d="M24.9993 10.8696L26.0784 14.1911H29.571L26.7456 16.2439L27.8247 19.5653L24.9993 17.5126L22.1738 19.5653L23.2532 16.2439L20.4277 14.1911H23.9202L24.9993 10.8696Z" fill="#F0F0F0"/>
<path id="Vector_3" d="M10.8691 25.0001L14.1906 23.9208V20.4282L16.2435 23.2538L19.5648 22.1746L17.5121 25.0001L19.5648 27.8253L16.2435 26.746L14.1906 29.5715V26.0791L10.8691 25.0001Z" fill="#F0F0F0"/>
<path id="Vector_4" d="M24.9995 39.1308L23.9203 35.8093H20.4277L23.2533 33.7564L22.1741 30.4351L24.9995 32.4878L27.8248 30.4351L26.7455 33.7564L29.571 35.8093H26.0786L24.9995 39.1308Z" fill="#F0F0F0"/>
<path id="Vector_5" d="M39.1303 24.9998L35.8088 26.079V29.5715L33.756 26.746L30.4346 27.8252L32.4873 24.9998L30.4346 22.1745L33.756 23.2538L35.8088 20.4282V23.9207L39.1303 24.9998Z" fill="#F0F0F0"/>
</g>
</g>
<defs>
<clipPath id="clip0_105_1968">
<rect width="50" height="50" fill="white"/>
</clipPath>
</defs>
</svg>
