<svg width="50" height="50" viewBox="0 0 50 50" fill="none" xmlns="http://www.w3.org/2000/svg">
<g id="icon=sri lanka" clip-path="url(#clip0_105_2510)">
<path id="Vector" d="M0.001 4.3479H0V45.6522H0.001V25.0002V4.3479Z" fill="#FF9811"/>
<path id="Vector_2" d="M25 49.9999C38.807 49.9999 49.9999 38.807 49.9999 25C49.9999 11.1929 38.807 0 25 0C11.1929 0 0 11.1929 0 25C0 38.807 11.1929 49.9999 25 49.9999Z" fill="#FFDA44"/>
<path id="Vector_3" d="M19.5653 4.3479H10.9096C10.526 4.61011 10.1506 4.88306 9.78269 5.16558L7.60876 25L9.78269 44.8344C10.1506 45.117 10.526 45.39 10.9096 45.6521H19.5653V4.3479Z" fill="#FF9811"/>
<path id="Vector_4" d="M0.00012207 25C0.00012207 33.0806 3.8349 40.2644 9.78276 44.8345V5.16553C3.8349 9.73565 0.00012207 16.9195 0.00012207 25V25Z" fill="#6DA544"/>
<path id="Vector_5" d="M40.2174 15.2407V15.8662L40.2407 15.8697L40.2174 15.2407Z" fill="#FFDA44"/>
<path id="Vector_6" d="M48.0074 31.5218H43.2971L41.3044 33.6957V38.0436H36.9566V35.8696H39.1305V31.5218H29.3479V34.2392H27.1739V29.0604C26.5069 28.4633 26.087 27.596 26.087 26.6305V12.5001C26.087 10.6992 27.547 9.23922 29.3479 9.23922V29.3479H33.6957L35.1875 28.1047C34.927 27.4841 34.7826 26.8025 34.7826 26.0871V22.8263H31.5218V16.3046H38.0435C38.0435 15.2176 39.674 14.1306 39.674 14.1306C39.674 14.1306 41.3044 15.2175 41.3044 16.3046V17.935V22.8264C42.5137 22.8407 44.435 22.8094 46.5107 22.8264C45.9654 21.8732 45.6522 20.7423 45.6522 19.5655C45.6522 17.6474 46.4803 15.923 47.7985 14.7297C45.8985 10.5192 42.8666 6.92916 39.0906 4.3479H22.8262V45.6523H39.0907C43.6824 42.5135 47.1735 37.8835 48.8672 32.4599L48.0074 31.5218Z" fill="#A2001D"/>
</g>
<defs>
<clipPath id="clip0_105_2510">
<rect width="50" height="50" fill="white"/>
</clipPath>
</defs>
</svg>
