<svg width="50" height="50" viewBox="0 0 50 50" fill="none" xmlns="http://www.w3.org/2000/svg">
<g id="icon=honduras" clip-path="url(#clip0_105_1659)">
<path id="Vector" d="M25 50C38.8071 50 50 38.8071 50 25C50 11.1929 38.8071 0 25 0C11.1929 0 0 11.1929 0 25C0 38.8071 11.1929 50 25 50Z" fill="#F0F0F0"/>
<g id="Group">
<path id="Vector_2" d="M24.9998 50.0001C34.9112 50.0001 43.4754 44.232 47.5191 35.8696H2.48047C6.52422 44.232 15.0883 50.0001 24.9998 50.0001Z" fill="#338AF3"/>
<path id="Vector_3" d="M24.9998 0C15.0883 0 6.52422 5.76807 2.48047 14.1305H47.519C43.4754 5.76807 34.9112 0 24.9998 0V0Z" fill="#338AF3"/>
<path id="Vector_4" d="M15.3853 16.3044L16.1946 18.7956H18.8139L16.6949 20.335L17.5044 22.8261L15.3853 21.2866L13.2661 22.8261L14.0756 20.335L11.9565 18.7956H14.5758L15.3853 16.3044Z" fill="#338AF3"/>
<path id="Vector_5" d="M15.3853 27.1738L16.1946 29.665H18.8139L16.6949 31.2045L17.5044 33.6955L15.3853 32.156L13.2661 33.6955L14.0756 31.2045L11.9565 29.665H14.5758L15.3853 27.1738Z" fill="#338AF3"/>
<path id="Vector_6" d="M34.6147 16.3044L35.4242 18.7956H38.0435L35.9244 20.335L36.7339 22.8261L34.6147 21.2866L32.4956 22.8261L33.3051 20.335L31.186 18.7956H33.8054L34.6147 16.3044Z" fill="#338AF3"/>
<path id="Vector_7" d="M34.6147 27.1738L35.4242 29.665H38.0435L35.9244 31.2045L36.7339 33.6955L34.6147 32.156L32.4956 33.6955L33.3051 31.2045L31.186 29.665H33.8054L34.6147 27.1738Z" fill="#338AF3"/>
<path id="Vector_8" d="M25 21.7393L25.8095 24.2305H28.4287L26.3097 25.7699L27.1191 28.2609L25 26.7214L22.8809 28.2609L23.6903 25.7699L21.5713 24.2305H24.1905L25 21.7393Z" fill="#338AF3"/>
</g>
</g>
<defs>
<clipPath id="clip0_105_1659">
<rect width="50" height="50" fill="white"/>
</clipPath>
</defs>
</svg>
