<svg width="50" height="50" viewBox="0 0 50 50" fill="none" xmlns="http://www.w3.org/2000/svg">
<g id="icon=georgia" clip-path="url(#clip0_105_1543)">
<path id="Vector" d="M25 50C38.8071 50 50 38.8071 50 25C50 11.1929 38.8071 0 25 0C11.1929 0 0 11.1929 0 25C0 38.8071 11.1929 50 25 50Z" fill="#F0F0F0"/>
<g id="Group">
<path id="Vector_2" d="M49.7884 21.7392H28.261H28.2609V0.211621C27.1935 0.0726563 26.1052 0 25 0C23.8948 0 22.8065 0.0726563 21.7392 0.211621V21.739V21.7391H0.211621C0.0726563 22.8065 0 23.8948 0 25C0 26.1054 0.0726563 27.1935 0.211621 28.2608H21.739H21.7391V49.7884C22.8065 49.9273 23.8948 50 25 50C26.1052 50 27.1935 49.9274 28.2608 49.7884V28.261V28.2609H49.7884C49.9273 27.1935 50 26.1054 50 25C50 23.8948 49.9273 22.8065 49.7884 21.7392V21.7392Z" fill="#D80027"/>
<path id="Vector_3" d="M15.2174 11.9565V8.69556H11.9566V11.9565H8.69562V15.2173H11.9566V18.4782H15.2174V15.2173H18.4782V11.9565H15.2174Z" fill="#D80027"/>
<path id="Vector_4" d="M38.0435 11.9565V8.69556H34.7826V11.9565H31.5218V15.2173H34.7826V18.4782H38.0435V15.2173H41.3044V11.9565H38.0435Z" fill="#D80027"/>
<path id="Vector_5" d="M15.2174 34.7826V31.5217H11.9566V34.7826H8.69562V38.0434H11.9566V41.3043H15.2174V38.0434H18.4782V34.7826H15.2174Z" fill="#D80027"/>
<path id="Vector_6" d="M38.0435 34.7826V31.5217H34.7826V34.7826H31.5218V38.0434H34.7826V41.3043H38.0435V38.0434H41.3044V34.7826H38.0435Z" fill="#D80027"/>
</g>
</g>
<defs>
<clipPath id="clip0_105_1543">
<rect width="50" height="50" fill="white"/>
</clipPath>
</defs>
</svg>
