<svg width="50" height="50" viewBox="0 0 50 50" fill="none" xmlns="http://www.w3.org/2000/svg">
<g id="icon=bonaire" clip-path="url(#clip0_105_1001)">
<path id="Vector" d="M25 50C38.8071 50 50 38.8071 50 25C50 11.1929 38.8071 0 25 0C11.1929 0 0 11.1929 0 25C0 38.8071 11.1929 50 25 50Z" fill="#F0F0F0"/>
<path id="Vector_2" d="M7.32207 7.32224C1.96416 12.6801 -0.452542 19.8651 0.0702122 26.8716L26.8713 0.0704801C19.8648 -0.452371 12.68 1.96433 7.32207 7.32224V7.32224Z" fill="#FFDA44"/>
<path id="Vector_3" d="M8.92676 44.1476C18.7491 52.4114 33.4326 51.9227 42.6777 42.6776C51.9228 33.4326 52.4116 18.749 44.1477 8.92676L8.92676 44.1476Z" fill="#0052B4"/>
<path id="Vector_4" d="M24.9109 23.9931L27.0653 22.8261L24.9109 21.6591C24.4079 18.3915 21.8261 15.8095 18.5584 15.3066L17.3913 13.1521L16.2243 15.3065C12.9567 15.8094 10.3749 18.3914 9.87178 21.659L7.71729 22.8261L9.87168 23.9931C10.3747 27.2608 12.9565 29.8427 16.2242 30.3457L17.3913 32.5001L18.5583 30.3457C21.8261 29.8427 24.4079 27.2608 24.9109 23.9931V23.9931ZM17.3914 27.174C14.9901 27.174 13.0436 25.2275 13.0436 22.8261C13.0436 20.4248 14.99 18.4783 17.3914 18.4783C19.7928 18.4783 21.7393 20.4248 21.7393 22.8261C21.7393 25.2275 19.7927 27.174 17.3914 27.174Z" fill="black"/>
<path id="Vector_5" d="M17.3913 19.5652L18.3326 21.1956H20.2153L19.2739 22.826L20.2153 24.4565H18.3326L17.3913 26.0869L16.45 24.4565H14.5674L15.5087 22.826L14.5674 21.1956H16.45L17.3913 19.5652Z" fill="#D80027"/>
</g>
<defs>
<clipPath id="clip0_105_1001">
<rect width="50" height="50" fill="white"/>
</clipPath>
</defs>
</svg>
