<svg width="50" height="50" viewBox="0 0 50 50" fill="none" xmlns="http://www.w3.org/2000/svg">
<g id="icon=myanmar" clip-path="url(#clip0_105_2030)">
<path id="Vector" d="M48.445 33.6955C49.45 30.9873 50 28.0579 50 24.9999C50 21.9419 49.45 19.0125 48.445 16.3043L25 14.1304L1.55498 16.3043C0.550098 19.0125 0 21.9419 0 24.9999C0 28.0579 0.550098 30.9873 1.55498 33.6955L25 35.8694L48.445 33.6955Z" fill="#6DA544"/>
<path id="Vector_2" d="M48.4452 16.3044C44.9129 6.78437 35.7493 0 25.0002 0C14.2511 0 5.0875 6.78437 1.55518 16.3044H48.4452Z" fill="#FFDA44"/>
<path id="Vector_3" d="M25.0002 49.9999C35.7493 49.9999 44.9129 43.2156 48.4452 33.6956H1.55518C5.0875 43.2156 14.2511 49.9999 25.0002 49.9999Z" fill="#D80027"/>
<path id="Vector_4" d="M42.1434 21.1509H29.047L24.9999 8.69556L20.9528 21.1509H7.85645L18.4517 28.8488L14.4046 41.3043L24.9999 33.6956L35.5952 41.3042L31.5482 28.8487L42.1434 21.1509Z" fill="#F0F0F0"/>
</g>
<defs>
<clipPath id="clip0_105_2030">
<rect width="50" height="50" fill="white"/>
</clipPath>
</defs>
</svg>
