<svg width="50" height="50" viewBox="0 0 50 50" fill="none" xmlns="http://www.w3.org/2000/svg">
<g id="icon=kosovo" clip-path="url(#clip0_105_1782)">
<path id="Vector" d="M25 50C38.8071 50 50 38.8071 50 25C50 11.1929 38.8071 0 25 0C11.1929 0 0 11.1929 0 25C0 38.8071 11.1929 50 25 50Z" fill="#0052B4"/>
<g id="Group">
<path id="Vector_2" d="M10.9815 15.2173L11.5212 16.8782H13.2673L11.8547 17.9045L12.3942 19.5651L10.9815 18.5389L9.56875 19.5651L10.1085 17.9045L8.6958 16.8782H10.4418L10.9815 15.2173Z" fill="#F0F0F0"/>
<path id="Vector_3" d="M16.4165 13.5869L16.9562 15.2478H18.7022L17.2896 16.274L17.8292 17.9347L16.4165 16.9084L15.0038 17.9347L15.5435 16.274L14.1309 15.2478H15.877L16.4165 13.5869Z" fill="#F0F0F0"/>
<path id="Vector_4" d="M21.8511 11.9565L22.3907 13.6174H24.1368L22.7242 14.6438L23.2638 16.3044L21.8511 15.278L20.4384 16.3044L20.978 14.6438L19.5654 13.6174H21.3115L21.8511 11.9565Z" fill="#F0F0F0"/>
<path id="Vector_5" d="M39.0187 15.2173L38.479 16.8782H36.7329L38.1456 17.9045L37.606 19.5651L39.0187 18.5389L40.4314 19.5651L39.8917 17.9045L41.3044 16.8782H39.5583L39.0187 15.2173Z" fill="#F0F0F0"/>
<path id="Vector_6" d="M33.5841 13.5869L33.0444 15.2478H31.2983L32.711 16.274L32.1714 17.9347L33.5841 16.9084L34.9968 17.9347L34.4571 16.274L35.8697 15.2478H34.1236L33.5841 13.5869Z" fill="#F0F0F0"/>
<path id="Vector_7" d="M28.1495 11.9565L27.6099 13.6174H25.8638L27.2764 14.6438L26.7368 16.3044L28.1495 15.278L29.5622 16.3044L29.0226 14.6438L30.4352 13.6174H28.6891L28.1495 11.9565Z" fill="#F0F0F0"/>
</g>
<path id="Vector_8" d="M29.3477 26.0871L24.9998 20.6523L22.8259 21.7393V23.9132L19.565 26.0871H17.3911V28.8956C20.5774 30.1858 22.8259 33.3078 22.8259 36.9567H24.9998V34.7828L27.1737 32.6089L29.3477 34.7828L31.5216 32.6089V30.435L33.6955 27.1741L29.3477 26.0871Z" fill="#FFDA44"/>
</g>
<defs>
<clipPath id="clip0_105_1782">
<rect width="50" height="50" fill="white"/>
</clipPath>
</defs>
</svg>
