<svg width="50" height="50" viewBox="0 0 50 50" fill="none" xmlns="http://www.w3.org/2000/svg">
<g id="icon=british columbia" clip-path="url(#clip0_105_1026)">
<path id="Vector" d="M0 25C0 11.193 11.193 0 25 0C38.807 0 50 11.193 50 25H0Z" fill="#F0F0F0"/>
<g id="Group">
<path id="Vector_2" d="M18.478 23.6333L17.1113 25H18.478V23.6333Z" fill="#0052B4"/>
<path id="Vector_3" d="M31.522 23.6335V25.0001H32.8886L31.522 23.6335Z" fill="#0052B4"/>
<path id="Vector_4" d="M0.721289 19.022C0.251074 20.9376 0 22.9395 0 25.0001H7.88838L13.8665 19.022H0.721289Z" fill="#0052B4"/>
<path id="Vector_5" d="M36.1333 19.022L42.1114 25.0001H50C50 22.9395 49.7488 20.9376 49.2787 19.022H36.1333Z" fill="#0052B4"/>
</g>
<g id="Group_2">
<path id="Vector_6" d="M34.5963 19.022H31.522L37.5001 25.0001H40.5745L34.5963 19.022Z" fill="#D80027"/>
<path id="Vector_7" d="M18.4783 22.0961V19.022H18.4781L12.5 25.0001H15.5744L18.4783 22.0961Z" fill="#D80027"/>
</g>
<g id="Group_3">
<path id="Vector_8" d="M11.711 3.82251C10.6806 4.47056 9.70078 5.19146 8.77881 5.97827H13.8667L11.711 3.82251Z" fill="#0052B4"/>
<path id="Vector_9" d="M41.221 5.97827C40.299 5.19136 39.3193 4.47046 38.289 3.82251L36.1333 5.97827H41.221Z" fill="#0052B4"/>
</g>
<g id="Group_4">
<path id="Vector_10" d="M28.2609 15.7608H48.2365C47.2914 13.3859 45.9924 11.1908 44.4052 9.23906H28.261H28.2609V0.211621C27.1936 0.0726563 26.1053 0 25.0001 0C23.8947 0 22.8066 0.0726563 21.7393 0.211621V9.23897V9.23906H5.59502C4.00781 11.1908 2.70879 13.3859 1.76367 15.7608H21.7391H21.7392V25H28.2609V15.7609V15.7608Z" fill="#D80027"/>
<path id="Vector_11" d="M18.4784 5.97817V5.97808L14.7096 2.20923C14.0128 2.52437 13.3337 2.87153 12.6729 3.24683L15.4042 5.97817H18.4784Z" fill="#D80027"/>
<path id="Vector_12" d="M31.522 5.97822L35.2909 2.20938C34.574 1.88525 33.839 1.59463 33.088 1.33789L31.522 2.904V5.97822Z" fill="#D80027"/>
</g>
<path id="Vector_13" d="M50 25C50 38.807 38.807 50 25 50C11.193 50 0 38.807 0 25H50Z" fill="#F0F0F0"/>
<g id="Group_5">
<path id="Vector_14" d="M45.8332 28.1886C43.7499 28.1886 43.7499 26.2837 41.6665 26.2837C39.5832 26.2837 39.5832 28.1886 37.5 28.1886C35.4168 28.1886 35.4167 26.2837 33.3335 26.2837C31.2502 26.2837 31.2502 28.1886 29.1668 28.1886C27.0834 28.1886 27.0833 26.2837 24.9998 26.2837C22.9165 26.2837 22.9165 28.1886 20.8333 28.1886C18.7503 28.1886 18.7503 26.2837 16.667 26.2837C14.5835 26.2837 14.5835 28.1886 12.5 28.1886C10.4165 28.1886 10.4165 26.2837 8.33301 26.2837C6.25 26.2837 6.25 28.1886 4.1667 28.1886C2.09463 28.1886 2.08262 26.3047 0.0327148 26.2846C0.0904297 27.4281 0.226953 28.5508 0.433398 29.6486C2.09395 29.8927 2.23936 31.5219 4.1668 31.5219C6.2501 31.5219 6.2501 29.6172 8.33311 29.6172C10.4166 29.6172 10.4166 31.5219 12.5001 31.5219C14.5836 31.5219 14.5836 29.6172 16.6671 29.6172C18.7504 29.6172 18.7504 31.5219 20.8334 31.5219C22.9167 31.5219 22.9167 29.6172 24.9999 29.6172C27.0834 29.6172 27.0834 31.5219 29.1669 31.5219C31.2504 31.5219 31.2504 29.6172 33.3336 29.6172C35.4169 29.6172 35.4169 31.5219 37.5001 31.5219C39.5833 31.5219 39.5834 29.6172 41.6666 29.6172C43.7501 29.6172 43.7501 31.5219 45.8333 31.5219C47.7609 31.5219 47.9063 29.8928 49.567 29.6487C49.7735 28.5508 49.9099 27.4282 49.9679 26.2847C47.9176 26.3049 47.9054 28.1886 45.8332 28.1886V28.1886Z" fill="#0052B4"/>
<path id="Vector_15" d="M41.6665 32.8054C39.5832 32.8054 39.5832 34.7103 37.5 34.7103C35.4168 34.7103 35.4167 32.8054 33.3335 32.8054C31.2502 32.8054 31.2502 34.7103 29.1668 34.7103C27.0833 34.7103 27.0833 32.8054 24.9998 32.8054C22.9165 32.8054 22.9165 34.7103 20.8333 34.7103C18.7503 34.7103 18.7503 32.8054 16.667 32.8054C14.5835 32.8054 14.5835 34.7103 12.5 34.7103C10.4165 34.7103 10.4165 32.8054 8.33301 32.8054C6.25 32.8054 6.25 34.7103 4.1667 34.7103C2.67813 34.7103 2.25293 33.738 1.37158 33.1826C1.9583 34.8778 2.72158 36.4904 3.64082 37.9978C3.80068 38.0273 3.97471 38.0436 4.1667 38.0436C6.25 38.0436 6.25 36.1389 8.33301 36.1389C10.4165 36.1389 10.4165 38.0436 12.5 38.0436C14.5835 38.0436 14.5835 36.1389 16.667 36.1389C18.7503 36.1389 18.7503 38.0436 20.8333 38.0436C22.9166 38.0436 22.9166 36.1389 24.9998 36.1389C27.0833 36.1389 27.0833 38.0436 29.1668 38.0436C31.2503 38.0436 31.2503 36.1389 33.3335 36.1389C35.4168 36.1389 35.4168 38.0436 37.5 38.0436C39.5832 38.0436 39.5833 36.1389 41.6665 36.1389C43.75 36.1389 43.75 38.0436 45.8332 38.0436C46.0253 38.0436 46.1994 38.0273 46.3593 37.9977C47.2785 36.4904 48.0418 34.8778 48.6287 33.1827C47.7473 33.7378 47.3221 34.7103 45.8332 34.7103C43.75 34.7103 43.75 32.8054 41.6665 32.8054Z" fill="#0052B4"/>
</g>
<g id="Group_6">
<path id="Vector_16" d="M49.9863 24.2144C49.9885 24.2838 49.9909 24.3532 49.9925 24.4229C49.9909 24.3533 49.9884 24.2838 49.9863 24.2144Z" fill="#F0F0F0"/>
<path id="Vector_17" d="M0.00732422 24.4229C0.00898438 24.3533 0.0113281 24.2839 0.0134766 24.2144C0.0114258 24.2839 0.00888672 24.3534 0.00732422 24.4229V24.4229Z" fill="#F0F0F0"/>
<path id="Vector_18" d="M0 24.9998C0 24.8069 0.00292969 24.6148 0.00732422 24.4229C0.00283203 24.6148 0 24.8069 0 24.9998Z" fill="#F0F0F0"/>
<path id="Vector_19" d="M0 25C0 25.4554 0.0128906 25.9078 0.037207 26.3571C2.08242 26.3801 2.096 28.2608 4.1666 28.2608C6.2499 28.2608 6.2499 26.3562 8.33291 26.3562C10.4164 26.3562 10.4164 28.2608 12.4999 28.2608C14.5834 28.2608 14.5834 26.3562 16.6669 26.3562C18.7502 26.3562 18.7502 28.2608 20.8332 28.2608C22.9165 28.2608 22.9165 26.3562 24.9997 26.3562C27.0832 26.3562 27.0832 28.2608 29.1667 28.2608C31.2502 28.2608 31.2502 26.3562 33.3334 26.3562C35.4167 26.3562 35.4167 28.2608 37.4999 28.2608C39.5831 28.2608 39.5832 26.3562 41.6664 26.3562C43.7499 26.3562 43.7499 28.2608 45.8331 28.2608C47.9039 28.2608 47.9175 26.3801 49.9631 26.3571C49.9871 25.9077 50 25.4554 50 25H0Z" fill="#F0F0F0"/>
<path id="Vector_20" d="M49.9927 24.4229C49.9971 24.6146 50 24.8068 50 24.9998C50 24.8069 49.9972 24.6148 49.9927 24.4229Z" fill="#F0F0F0"/>
</g>
<path id="Vector_21" d="M41.6663 39.3271C39.583 39.3271 39.583 41.232 37.4998 41.232C35.4166 41.232 35.4165 39.3271 33.3333 39.3271C31.25 39.3271 31.25 41.232 29.1666 41.232C27.0831 41.232 27.0831 39.3271 24.9996 39.3271C22.9163 39.3271 22.9163 41.232 20.8331 41.232C18.7501 41.232 18.7501 39.3271 16.6668 39.3271C14.5833 39.3271 14.5833 41.232 12.4998 41.232C10.4163 41.232 10.4163 39.3271 8.33281 39.3271C6.89395 39.3271 6.44873 40.2357 5.62451 40.7979C7.81094 43.4763 10.5424 45.6915 13.6483 47.2776L25 46.7058L36.3516 47.2775C39.4574 45.6913 42.1889 43.4764 44.3753 40.798C43.5507 40.2359 43.1055 39.3271 41.6663 39.3271V39.3271Z" fill="#0052B4"/>
<path id="Vector_22" d="M38.8656 39.9232L31.2606 41.3778L30.2972 33.6957L25.0001 39.3456L19.7032 33.6956L18.7394 41.3777L11.1348 39.9231L14.8642 46.7055L13.6462 47.2784C17.0532 49.0184 20.9119 49.9999 25.0001 49.9999C29.0883 49.9999 32.947 49.0184 36.354 47.2786L35.1365 46.7058L38.8656 39.9232Z" fill="#FFDA44"/>
</g>
<defs>
<clipPath id="clip0_105_1026">
<rect width="50" height="50" fill="white"/>
</clipPath>
</defs>
</svg>
