<svg width="50" height="50" viewBox="0 0 50 50" fill="none" xmlns="http://www.w3.org/2000/svg">
<g id="icon=haiti" clip-path="url(#clip0_105_1642)">
<path id="Vector" d="M50 25C50 38.807 38.807 50 25 50C11.193 50 0 38.807 0 25C0 11.193 25 0 25 0C25 0 50 11.193 50 25Z" fill="#A2001D"/>
<path id="Vector_2" d="M0 25C0 11.193 11.193 0 25 0C38.807 0 50 11.193 50 25" fill="#0052B4"/>
<path id="Vector_3" d="M33.6954 31.5218L24.9998 30.4348L16.3042 31.5218V18.4783H33.6954V31.5218Z" fill="#F0F0F0"/>
<path id="Vector_4" d="M25.0002 30.4347C27.4014 30.4347 29.348 28.4881 29.348 26.0869C29.348 23.6856 27.4014 21.739 25.0002 21.739C22.5989 21.739 20.6523 23.6856 20.6523 26.0869C20.6523 28.4881 22.5989 30.4347 25.0002 30.4347Z" fill="#0052B4"/>
<path id="Vector_5" d="M25.0001 28.2609C26.2007 28.2609 27.174 27.2876 27.174 26.087C27.174 24.8864 26.2007 23.9131 25.0001 23.9131C23.7995 23.9131 22.8262 24.8864 22.8262 26.087C22.8262 27.2876 23.7995 28.2609 25.0001 28.2609Z" fill="#A2001D"/>
<path id="Vector_6" d="M21.7393 20.6521H28.2609L25.0001 23.913L21.7393 20.6521Z" fill="#6DA544"/>
<path id="Vector_7" d="M23.9131 22.8262H26.087V29.3479H23.9131V22.8262Z" fill="#FFDA44"/>
<path id="Vector_8" d="M28.478 28.6956H21.5214L16.3042 31.5217H33.6954L28.478 28.6956Z" fill="#6DA544"/>
</g>
<defs>
<clipPath id="clip0_105_1642">
<rect width="50" height="50" fill="white"/>
</clipPath>
</defs>
</svg>
