<svg width="50" height="50" viewBox="0 0 50 50" fill="none" xmlns="http://www.w3.org/2000/svg">
<g id="icon=bermuda" clip-path="url(#clip0_105_976)">
<path id="Vector" d="M50 25C50 38.807 38.807 50 25 50C11.193 50 0 38.807 0 25C0 25.006 25 0.00273438 25 0C38.807 0 50 11.193 50 25Z" fill="#D80027"/>
<g id="Group">
<path id="Vector_2" d="M25 11.9565V20.3885L16.3044 11.9565H25Z" fill="#0052B4"/>
<path id="Vector_3" d="M13.0435 24.9999H20.3883L13.0435 15.2173L11.9565 22.826L13.0435 24.9999Z" fill="#0052B4"/>
</g>
<g id="Group_2">
<path id="Vector_4" d="M24.9331 25H25C25 24.9775 25 24.9557 25 24.9331C24.9777 24.9555 24.9555 24.9777 24.9331 25Z" fill="#F0F0F0"/>
<path id="Vector_5" d="M25 13.0435C25 8.64453 25 5.76221 25 0H24.9958C11.1905 0.00234375 0 11.1942 0 25H13.0435V17.6552L20.3883 25H24.9332C24.9555 24.9777 24.9777 24.9555 25.0001 24.9331C25.0001 23.2488 25.0001 21.746 25.0001 20.3885L17.6551 13.0435H25Z" fill="#F0F0F0"/>
</g>
<g id="Group_3">
<path id="Vector_6" d="M12.648 3.26074C8.73792 5.48721 5.48723 8.73779 3.26086 12.6479V26.0868H9.78264V9.78272V9.78252H26.0869C26.0869 7.72559 26.0869 5.76602 26.0869 3.26074H12.648Z" fill="#D80027"/>
<path id="Vector_7" d="M25.9938 22.9193L16.1177 13.0435H13.0435V13.0437L25.9936 25.9937H25.9937C25.9938 25.9938 25.9938 23.874 25.9938 22.9193V22.9193Z" fill="#D80027"/>
</g>
<path id="Vector_8" d="M28.2609 13.0435V24.9999C28.2609 30.8241 43.4782 30.8241 43.4782 24.9999V13.0435H28.2609Z" fill="#F3F3F3"/>
<path id="Vector_9" d="M28.2609 25.0001V25C28.2609 30.8242 35.8696 32.6088 35.8696 32.6088C35.8696 32.6088 43.4782 30.8242 43.4782 25V25.0001H28.2609Z" fill="#6DA544"/>
<path id="Vector_10" d="M35.8695 20.2173L32.3369 21.7391V24.9999L35.8695 27.1738L39.4021 24.9999V21.7391L35.8695 20.2173Z" fill="#A2001D"/>
<path id="Vector_11" d="M32.3369 18.4783H39.4021V21.7391H32.3369V18.4783Z" fill="#338AF3"/>
</g>
<defs>
<clipPath id="clip0_105_976">
<rect width="50" height="50" fill="white"/>
</clipPath>
</defs>
</svg>
