<svg width="50" height="50" viewBox="0 0 50 50" fill="none" xmlns="http://www.w3.org/2000/svg">
<g id="icon=liechtenstein" clip-path="url(#clip0_105_1852)">
<path id="Vector" d="M50 25.0001C50 38.8071 38.807 50.0001 25 50.0001C11.193 50.0001 0 38.8071 0 25.0001C1.08691 25.0001 25 21.7393 25 21.7393L50 25.0001Z" fill="#D80027"/>
<path id="Vector_2" d="M0 25C0 11.193 11.193 0 25 0C38.807 0 50 11.193 50 25" fill="#0052B4"/>
<path id="Vector_3" d="M18.4783 17.3914C18.4783 15.5905 17.0183 14.1306 15.2174 14.1306C14.382 14.1306 13.6206 14.445 13.0435 14.9615V13.0436H14.1304V10.8696H13.0435V9.78271H10.8696V10.8696H9.78267V13.0436H10.8696V14.9615C10.2925 14.445 9.5311 14.1306 8.69565 14.1306C6.89478 14.1306 5.43481 15.5905 5.43481 17.3914C5.43481 18.3569 5.85483 19.2241 6.52173 19.8213V21.7393H17.3913V19.8213C18.0583 19.2241 18.4783 18.3569 18.4783 17.3914V17.3914Z" fill="#FFDA44"/>
</g>
<defs>
<clipPath id="clip0_105_1852">
<rect width="50" height="50" fill="white"/>
</clipPath>
</defs>
</svg>
