<svg width="50" height="50" viewBox="0 0 50 50" fill="none" xmlns="http://www.w3.org/2000/svg">
<g id="icon=moldova" clip-path="url(#clip0_105_1975)">
<path id="Vector" d="M35.8695 2.48066C32.5828 0.891406 28.8955 0 25 0C21.1045 0 17.4172 0.891406 14.1305 2.48066L11.9565 25L14.1305 47.5193C17.4172 49.1086 21.1045 50 25 50C28.8955 50 32.5828 49.1086 35.8695 47.5193L38.0435 25L35.8695 2.48066Z" fill="#FFDA44"/>
<path id="Vector_2" d="M14.1305 2.48145C5.76816 6.5251 0 15.0885 0 24.9999C0 34.9113 5.76816 43.4747 14.1305 47.5184V2.48145Z" fill="#0052B4"/>
<path id="Vector_3" d="M35.8695 2.48145V47.5184C44.2318 43.4747 50 34.9113 50 24.9999C50 15.0885 44.2318 6.5251 35.8695 2.48145Z" fill="#D80027"/>
<path id="Vector_4" d="M33.6957 19.6698H27.7174C27.7174 18.169 26.5008 16.9524 25 16.9524C23.4993 16.9524 22.2827 18.169 22.2827 19.6698H16.3044C16.3044 21.1474 17.5917 22.3452 19.0691 22.3452H18.98C18.98 23.8229 20.1779 25.0208 21.6556 25.0208C21.6556 26.3291 22.5953 27.4163 23.8363 27.6487L21.7279 32.4086C22.7381 32.8193 23.8422 33.0475 25 33.0475C26.1578 33.0475 27.262 32.8193 28.2721 32.4086L26.1638 27.6487C27.4048 27.4163 28.3445 26.3291 28.3445 25.0208C29.8222 25.0208 31.0201 23.8229 31.0201 22.3452H30.9309C32.4085 22.3452 33.6957 21.1473 33.6957 19.6698V19.6698Z" fill="#FF9811"/>
<path id="Vector_5" d="M25 23.3696L21.4674 25.0001V28.2609L25 30.4349L28.5326 28.2609V25.0001L25 23.3696Z" fill="#0052B4"/>
<path id="Vector_6" d="M21.4674 21.7393H28.5326V25.0001H21.4674V21.7393Z" fill="#D80027"/>
</g>
<defs>
<clipPath id="clip0_105_1975">
<rect width="50" height="50" fill="white"/>
</clipPath>
</defs>
</svg>
