<svg width="50" height="50" viewBox="0 0 50 50" fill="none" xmlns="http://www.w3.org/2000/svg">
<g id="icon=european union" clip-path="url(#clip0_105_1469)">
<path id="Vector" d="M25 50C38.8071 50 50 38.8071 50 25C50 11.1929 38.8071 0 25 0C11.1929 0 0 11.1929 0 25C0 38.8071 11.1929 50 25 50Z" fill="#0052B4"/>
<g id="Group">
<path id="Vector_2" d="M25.0001 9.78259L25.8096 12.2737H28.4287L26.3097 13.8133L27.1192 16.3044L25.0001 14.7647L22.881 16.3044L23.6905 13.8133L21.5714 12.2737H24.1906L25.0001 9.78259Z" fill="#FFDA44"/>
<path id="Vector_3" d="M14.2396 14.2397L16.5736 15.4287L18.4257 13.5768L18.0158 16.1637L20.3497 17.3529L17.7627 17.7626L17.3529 20.3497L16.1638 18.0158L13.5768 18.4257L15.4289 16.5737L14.2396 14.2397Z" fill="#FFDA44"/>
<path id="Vector_4" d="M9.78271 25L12.2738 24.1905V21.5713L13.8133 23.6904L16.3045 22.881L14.7647 25L16.3045 27.119L13.8133 26.3097L12.2738 28.4287V25.8095L9.78271 25Z" fill="#FFDA44"/>
<path id="Vector_5" d="M14.2396 35.7604L15.4288 33.4264L13.5768 31.5743L16.1639 31.9843L17.3528 29.6504L17.7627 32.2374L20.3496 32.6472L18.016 33.8363L18.4257 36.4232L16.5736 34.5712L14.2396 35.7604Z" fill="#FFDA44"/>
<path id="Vector_6" d="M25.0001 40.2174L24.1906 37.7263H21.5714L23.6906 36.1867L22.881 33.6958L25.0001 35.2353L27.1192 33.6958L26.3097 36.1867L28.4287 37.7263H25.8095L25.0001 40.2174Z" fill="#FFDA44"/>
<path id="Vector_7" d="M35.7604 35.7604L33.4265 34.5713L31.5744 36.4233L31.9843 33.8362L29.6506 32.6472L32.2375 32.2374L32.6473 29.6504L33.8363 31.9843L36.4232 31.5743L34.5712 33.4266L35.7604 35.7604Z" fill="#FFDA44"/>
<path id="Vector_8" d="M40.2174 25L37.7263 25.8095V28.4287L36.1867 26.3096L33.6958 27.119L35.2354 25L33.6958 22.881L36.1868 23.6904L37.7263 21.5713V24.1906L40.2174 25Z" fill="#FFDA44"/>
<path id="Vector_9" d="M35.7604 14.2396L34.5713 16.5736L36.4233 18.4256L33.8362 18.0157L32.6473 20.3495L32.2375 17.7625L29.6506 17.3527L31.9843 16.1636L31.5744 13.5768L33.4266 15.4287L35.7604 14.2396Z" fill="#FFDA44"/>
</g>
</g>
<defs>
<clipPath id="clip0_105_1469">
<rect width="50" height="50" fill="white"/>
</clipPath>
</defs>
</svg>
