<svg width="50" height="50" viewBox="0 0 50 50" fill="none" xmlns="http://www.w3.org/2000/svg">
<g id="icon=azores islands" clip-path="url(#clip0_105_893)">
<path id="Vector" d="M25 50C38.8071 50 50 38.8071 50 25C50 11.1929 38.8071 0 25 0C11.1929 0 0 11.1929 0 25C0 38.8071 11.1929 50 25 50Z" fill="#F0F0F0"/>
<path id="Vector_2" d="M0 24.9998C0 34.4759 5.27246 42.72 13.0435 46.9601V3.03955C5.27246 7.27959 0 15.5237 0 24.9998Z" fill="#D80027"/>
<path id="Vector_3" d="M0 25.0001C0 36.5508 7.83408 46.2701 18.4782 49.1389V0.861328C7.83408 3.73008 0 13.4494 0 25.0001Z" fill="#0052B4"/>
<path id="Vector_4" d="M8.96729 8.6958V12.7719C8.96729 14.7979 10.6097 16.4403 12.6357 16.4403C14.6618 16.4403 16.3042 14.7979 16.3042 12.7719V8.6958H8.96729Z" fill="#D80027"/>
<path id="Vector_5" d="M12.6359 14.2663C11.8118 14.2663 11.1414 13.5959 11.1414 12.7718V10.8696H14.1305V12.7718C14.1305 13.5959 13.46 14.2663 12.6359 14.2663Z" fill="#F0F0F0"/>
<g id="Group">
<path id="Vector_6" d="M27.1739 26.087H20.6521C20.6521 24.8864 19.6788 23.9131 18.4782 23.9131C17.2776 23.9131 16.3042 24.8864 16.3042 26.087H9.78247C9.78247 27.2877 10.8283 28.2609 12.0288 28.2609H11.9564C11.9564 29.4616 12.9295 30.4349 14.1303 30.4349C14.1303 31.6355 15.1035 32.6088 16.3042 32.6088H20.6521C21.8527 32.6088 22.826 31.6355 22.826 30.4349C24.0266 30.4349 25 29.4616 25 28.2609H24.9276C26.1281 28.2609 27.1739 27.2877 27.1739 26.087V26.087Z" fill="#FFDA44"/>
<path id="Vector_7" d="M28.0673 22.6082L27.4966 23.522L28.1889 24.347L27.1436 24.0867L26.5728 25.0001L26.4975 23.9254L25.4521 23.6647L26.4513 23.2612L26.3761 22.1865L27.0686 23.0119L28.0673 22.6082Z" fill="#FFDA44"/>
<path id="Vector_8" d="M24.7368 19.814L24.513 20.8678L25.4459 21.4063L24.3745 21.5194L24.1505 22.5729L23.7123 21.5888L22.6409 21.7013L23.4416 20.9804L23.0035 19.9964L23.9363 20.535L24.7368 19.814Z" fill="#FFDA44"/>
<path id="Vector_9" d="M20.6519 18.3271L20.8018 19.394L21.8626 19.5811L20.8945 20.0533L21.0444 21.1202L20.2961 20.3452L19.3278 20.8175L19.8335 19.8662L19.0852 19.0914L20.1462 19.2783L20.6519 18.3271Z" fill="#FFDA44"/>
<path id="Vector_10" d="M16.3045 18.3271L16.8104 19.2783L17.8712 19.0913L17.1229 19.8664L17.6286 20.8176L16.6604 20.3452L15.912 21.12L16.062 20.0533L15.0938 19.5812L16.1546 19.394L16.3045 18.3271Z" fill="#FFDA44"/>
<path id="Vector_11" d="M12.2194 19.814L13.02 20.535L13.9528 19.9964L13.5149 20.9808L14.3152 21.7014L13.244 21.5888L12.8056 22.5729L12.582 21.5192L11.5105 21.4067L12.4433 20.8679L12.2194 19.814Z" fill="#FFDA44"/>
<path id="Vector_12" d="M8.88921 22.6081L9.88833 23.0118L10.5804 22.1865L10.5056 23.2614L11.5043 23.665L10.4589 23.9254L10.3835 25L9.81313 24.0866L8.76782 24.3471L9.4603 23.5219L8.88921 22.6081Z" fill="#FFDA44"/>
</g>
</g>
<defs>
<clipPath id="clip0_105_893">
<rect width="50" height="50" fill="white"/>
</clipPath>
</defs>
</svg>
