<svg width="50" height="50" viewBox="0 0 50 50" fill="none" xmlns="http://www.w3.org/2000/svg">
<g id="icon=rwanda" clip-path="url(#clip0_105_2293)">
<path id="Vector" d="M0 25C0 29.3311 1.10186 33.4047 3.03975 36.9565L25 39.1305L46.9603 36.9565C48.8981 33.4047 50 29.3311 50 25L25 22.8261L0 25Z" fill="#FFDA44"/>
<path id="Vector_2" d="M46.9603 13.0435C42.7201 5.27236 34.4761 0 25 0C15.5239 0 7.27988 5.27236 3.03975 13.0435C1.10186 16.5953 0 20.6689 0 25H50C50 20.6689 48.8981 16.5953 46.9603 13.0435Z" fill="#338AF3"/>
<path id="Vector_3" d="M24.9998 50C34.4759 50 42.7199 44.7276 46.9601 36.9565H3.03955C7.27969 44.7276 15.5237 50 24.9998 50Z" fill="#496E2D"/>
<path id="Vector_4" d="M28.2607 14.631L31.3141 16.0672L29.6882 19.0242L33.0036 18.39L33.4237 21.7392L35.7329 19.2759L38.0423 21.7392L38.4623 18.39L41.7777 19.024L40.152 16.0671L43.2051 14.631L40.1519 13.1949L41.7777 10.2379L38.4624 10.8721L38.0422 7.52295L35.7329 9.98623L33.4236 7.52295L33.0036 10.8721L29.6881 10.2379L31.314 13.195L28.2607 14.631Z" fill="#FFDA44"/>
</g>
<defs>
<clipPath id="clip0_105_2293">
<rect width="50" height="50" fill="white"/>
</clipPath>
</defs>
</svg>
