<svg width="50" height="50" viewBox="0 0 50 50" fill="none" xmlns="http://www.w3.org/2000/svg">
<g id="icon=zambia" clip-path="url(#clip0_105_2881)">
<path id="Vector" d="M25 50C38.8071 50 50 38.8071 50 25C50 11.1929 38.8071 0 25 0C11.1929 0 0 11.1929 0 25C0 38.8071 11.1929 50 25 50Z" fill="#496E2D"/>
<path id="Vector_2" d="M34.7826 25H25V50C27.9223 50 30.7267 49.497 33.3333 48.5756L34.7826 25Z" fill="#D80027"/>
<path id="Vector_3" d="M41.6665 43.6321C46.7806 39.0546 49.9999 32.4036 49.9999 25H40.2173L41.6665 43.6321Z" fill="#FF9811"/>
<path id="Vector_4" d="M33.3335 25V48.5756C36.4387 47.4778 39.2623 45.7846 41.6669 43.6322V25H33.3335Z" fill="black"/>
<path id="Vector_5" d="M46.1956 16.3044H39.6738C39.6738 15.1038 38.7005 14.1305 37.4999 14.1305C36.2993 14.1305 35.326 15.1038 35.326 16.3044H28.8042C28.8042 17.5051 29.85 18.4783 31.0505 18.4783H30.9781C30.9781 19.679 31.9513 20.6522 33.1521 20.6522C33.1521 21.8529 34.1252 22.8262 35.326 22.8262H39.6738C40.8744 22.8262 41.8478 21.8529 41.8478 20.6522C43.0483 20.6522 44.0217 19.679 44.0217 18.4783H43.9493C45.1499 18.4782 46.1956 17.505 46.1956 16.3044V16.3044Z" fill="#FF9811"/>
</g>
<defs>
<clipPath id="clip0_105_2881">
<rect width="50" height="50" fill="white"/>
</clipPath>
</defs>
</svg>
