<svg width="51" height="50" viewBox="0 0 51 50" fill="none" xmlns="http://www.w3.org/2000/svg">
<g id="icon=nigeria" clip-path="url(#clip0_105_2103)">
<path id="Vector" d="M25.9883 50C39.7954 50 50.9883 38.8071 50.9883 25C50.9883 11.1929 39.7954 0 25.9883 0C12.1812 0 0.988281 11.1929 0.988281 25C0.988281 38.8071 12.1812 50 25.9883 50Z" fill="#F0F0F0"/>
<g id="Group">
<path id="Vector_2" d="M0.988281 25.0001C0.988281 35.7493 7.77266 44.9128 17.2927 48.4452V1.55518C7.77266 5.0874 0.988281 14.2511 0.988281 25.0001V25.0001Z" fill="#6DA544"/>
<path id="Vector_3" d="M50.9885 25.0001C50.9885 14.2511 44.2041 5.0874 34.6841 1.55518V48.4453C44.2041 44.9128 50.9885 35.7493 50.9885 25.0001V25.0001Z" fill="#6DA544"/>
</g>
</g>
<defs>
<clipPath id="clip0_105_2103">
<rect width="50" height="50" fill="white" transform="translate(0.988281)"/>
</clipPath>
</defs>
</svg>
