<svg width="50" height="50" viewBox="0 0 50 50" fill="none" xmlns="http://www.w3.org/2000/svg">
<g id="icon=serbia" clip-path="url(#clip0_105_2377)">
<path id="Vector" d="M25 50C38.8071 50 50 38.8071 50 25C50 11.1929 38.8071 0 25 0C11.1929 0 0 11.1929 0 25C0 38.8071 11.1929 50 25 50Z" fill="#F0F0F0"/>
<path id="Vector_2" d="M25 0C11.193 0 0 11.193 0 25C0 28.058 0.550098 30.9874 1.55498 33.6956H48.4451C49.45 30.9874 50 28.058 50 25C50 11.193 38.807 0 25 0Z" fill="#0052B4"/>
<g id="Group">
<path id="Vector_3" d="M25.0002 0C14.2511 0 5.0875 6.78437 1.55518 16.3044H48.4453C44.9129 6.78437 35.7493 0 25.0002 0V0Z" fill="#D80027"/>
<path id="Vector_4" d="M6.46484 14.1305V26.6018C6.46484 33.6959 15.7325 35.8697 15.7325 35.8697C15.7325 35.8697 25.0001 33.6959 25.0001 26.6018V14.1305H6.46484Z" fill="#D80027"/>
</g>
<g id="Group_2">
<path id="Vector_5" d="M10.2979 16.3044H21.1675V11.9565L18.9936 13.0434L15.7327 9.78259L12.4718 13.0434L10.2979 11.9565V16.3044Z" fill="#FFDA44"/>
<path id="Vector_6" d="M22.8263 28.3382L15.761 21.2729L8.6958 28.3382L11.0016 30.6439L15.761 25.8845L20.5205 30.6439L22.8263 28.3382Z" fill="#FFDA44"/>
</g>
<path id="Vector_7" d="M22.8263 21.7392H19.5298C19.7151 21.4192 19.8229 21.0487 19.8229 20.6524C19.8229 19.4517 18.8496 18.4785 17.649 18.4785C16.8194 18.4785 16.099 18.9432 15.7325 19.6263C15.366 18.9433 14.6456 18.4785 13.816 18.4785C12.6154 18.4785 11.6421 19.4517 11.6421 20.6524C11.6421 21.0487 11.7499 21.4193 11.9353 21.7392H8.6958C8.6958 22.9398 9.7416 23.9131 10.9421 23.9131H10.8697C10.8697 25.1138 11.843 26.087 13.0437 26.087C13.0437 27.1501 13.8071 28.0333 14.8154 28.2224L13.1025 32.0897C13.9234 32.4234 14.8205 32.6088 15.7611 32.6088C16.7018 32.6088 17.5988 32.4234 18.4197 32.0897L16.7068 28.2224C17.7151 28.0335 18.4786 27.1502 18.4786 26.087C19.6793 26.087 20.6525 25.1138 20.6525 23.9131H20.5802C21.7806 23.9131 22.8263 22.9397 22.8263 21.7392V21.7392Z" fill="#F0F0F0"/>
</g>
<defs>
<clipPath id="clip0_105_2377">
<rect width="50" height="50" fill="white"/>
</clipPath>
</defs>
</svg>
