<svg width="50" height="50" viewBox="0 0 50 50" fill="none" xmlns="http://www.w3.org/2000/svg">
<g id="icon=el salvador" clip-path="url(#clip0_105_1433)">
<path id="Vector" d="M25 50C38.8071 50 50 38.8071 50 25C50 11.1929 38.8071 0 25 0C11.1929 0 0 11.1929 0 25C0 38.8071 11.1929 50 25 50Z" fill="#F0F0F0"/>
<g id="Group">
<path id="Vector_2" d="M24.9998 0C15.0883 0 6.52422 5.76807 2.48047 14.1305H47.519C43.4754 5.76807 34.9112 0 24.9998 0V0Z" fill="#0052B4"/>
<path id="Vector_3" d="M24.9998 50C34.9112 50 43.4754 44.2319 47.5191 35.8695H2.48047C6.52422 44.2319 15.0883 50 24.9998 50Z" fill="#0052B4"/>
</g>
<path id="Vector_4" d="M19.9795 26.087L25 17.3914L30.0205 26.087H19.9795Z" fill="#FFDA44"/>
<path id="Vector_5" d="M31.5216 28.9581L24.9998 32.219L18.478 28.9581V24.6104H31.5216V28.9581Z" fill="#6DA544"/>
<path id="Vector_6" d="M31.1489 17.7644L28.8432 20.0702C29.8267 21.0537 30.4351 22.4124 30.4351 23.9131C30.4351 26.9147 28.0018 29.3479 25.0003 29.3479C21.9988 29.3479 19.5655 26.9146 19.5655 23.9131C19.5655 22.4124 20.1739 21.0537 21.1574 20.0702L18.8517 17.7644C17.2779 19.3378 16.3047 21.5118 16.3047 23.9131C16.3047 28.7157 20.1979 32.6087 25.0003 32.6087C29.8027 32.6087 33.6959 28.7156 33.6959 23.9131C33.6958 21.5118 32.7226 19.3378 31.1489 17.7644V17.7644Z" fill="#FFDA44"/>
</g>
<defs>
<clipPath id="clip0_105_1433">
<rect width="50" height="50" fill="white"/>
</clipPath>
</defs>
</svg>
