<svg width="50" height="50" viewBox="0 0 50 50" fill="none" xmlns="http://www.w3.org/2000/svg">
<g id="icon=sao tome and prince" clip-path="url(#clip0_105_2332)">
<path id="Vector" d="M25 50C38.8071 50 50 38.8071 50 25C50 11.1929 38.8071 0 25 0C11.1929 0 0 11.1929 0 25C0 38.8071 11.1929 50 25 50Z" fill="#FFDA44"/>
<g id="Group">
<path id="Vector_2" d="M15.2174 16.3044H48.4449C44.9127 6.78437 35.749 0 25 0C18.0963 0 11.8469 2.79873 7.32312 7.32314L15.2174 16.3044Z" fill="#6DA544"/>
<path id="Vector_3" d="M15.2174 33.6956H48.4449C44.9127 43.2156 35.749 49.9999 25 49.9999C18.0963 49.9999 11.8469 47.2012 7.32312 42.6768L15.2174 33.6956Z" fill="#6DA544"/>
</g>
<path id="Vector_4" d="M7.32231 7.32227C-2.44077 17.0854 -2.44077 32.9145 7.32231 42.6777C11.3568 38.6433 15.237 34.7631 25 25L7.32231 7.32227Z" fill="#D80027"/>
<path id="Vector_5" d="M31.7455 20.6521L32.8247 23.9736H36.3171L33.4917 26.0263L34.5709 29.3478L31.7455 27.295L28.9201 29.3478L29.9992 26.0263L27.174 23.9736H30.6663L31.7455 20.6521Z" fill="black"/>
<path id="Vector_6" d="M42.6151 20.6521L43.6942 23.9736H47.1866L44.3613 26.0263L45.4404 29.3478L42.6151 27.295L39.7896 29.3478L40.8688 26.0263L38.0435 23.9736H41.5358L42.6151 20.6521Z" fill="black"/>
</g>
<defs>
<clipPath id="clip0_105_2332">
<rect width="50" height="50" fill="white"/>
</clipPath>
</defs>
</svg>
