<svg width="50" height="50" viewBox="0 0 50 50" fill="none" xmlns="http://www.w3.org/2000/svg">
<g id="icon=united nations" clip-path="url(#clip0_105_2769)">
<path id="Vector" d="M25 50C38.8071 50 50 38.8071 50 25C50 11.1929 38.8071 0 25 0C11.1929 0 0 11.1929 0 25C0 38.8071 11.1929 50 25 50Z" fill="#338AF3"/>
<g id="Group">
<path id="Vector_2" d="M24.9271 16.3042C20.1244 16.3042 16.2314 20.1974 16.2314 24.9998C16.2314 29.8022 20.1245 33.6954 24.9271 33.6954C29.7294 33.6954 33.6227 29.8022 33.6227 24.9998C33.6227 20.1974 29.7293 16.3042 24.9271 16.3042ZM22.7531 24.9998C22.7531 23.7992 23.7264 22.8259 24.9271 22.8259C26.1276 22.8259 27.101 23.7992 27.101 24.9998C27.101 26.2005 26.1276 27.1737 24.9271 27.1737C23.7264 27.1737 22.7531 26.2005 22.7531 24.9998V24.9998ZM27.181 21.2812C26.8436 21.0762 26.4758 20.917 26.0863 20.8095V18.5829C27.0669 18.7589 27.971 19.1533 28.747 19.7152L27.181 21.2812ZM23.9125 20.7723C23.5046 20.8698 23.1192 21.0248 22.7651 21.2282L21.1919 19.655C21.9872 19.0981 22.9118 18.7135 23.9125 18.5569V20.7723ZM22.765 28.7714C23.1191 28.9747 23.5045 29.1298 23.9124 29.2272V31.4425C22.9116 31.2861 21.9872 30.9013 21.1919 30.3444L22.765 28.7714ZM26.0864 29.1901C26.4758 29.0826 26.8438 28.9235 27.181 28.7186L28.7469 30.2845C27.9709 30.8463 27.0669 31.2408 26.0863 31.4168V29.1902H26.0864V29.1901ZM28.6985 27.1619C28.89 26.8286 29.0397 26.4681 29.1379 26.0868H31.3568C31.1936 27.0597 30.8152 27.959 30.2719 28.735L28.6985 27.1619ZM29.1379 23.9129C29.0397 23.5315 28.89 23.1713 28.6985 22.8379L30.2718 21.2646C30.8151 22.0407 31.1936 22.9399 31.3567 23.9128H29.1378V23.9129H29.1379ZM19.6424 21.18L21.2083 22.7459C20.9906 23.1043 20.8233 23.4965 20.7161 23.9129H18.4972C18.6664 22.9045 19.0667 21.975 19.6424 21.18ZM18.4972 26.0867H20.7161C20.8232 26.5031 20.9905 26.8953 21.2083 27.2537L19.6424 28.8196C19.0667 28.0246 18.6664 27.0952 18.4972 26.0867Z" fill="#F0F0F0"/>
<path id="Vector_3" d="M39.0576 25C39.0576 21.1348 37.5051 17.6327 34.9904 15.0815L32.6847 17.3873C34.6093 19.3482 35.7968 22.0354 35.7968 25C35.7968 31.0031 30.9303 35.8695 24.9272 35.8695C18.924 35.8695 14.0577 31.0031 14.0577 25C14.0577 21.9983 15.2742 19.281 17.2413 17.3141L14.9355 15.0083C12.3784 17.5654 10.7969 21.098 10.7969 25C10.7969 31.4663 15.1403 36.9182 21.0689 38.5972C20.4189 39.8319 20.518 41.3865 21.4465 42.5452C22.666 41.5679 23.9286 40.556 24.9997 39.6978C26.0708 40.5561 27.3335 41.5679 28.5529 42.5452C29.4906 41.375 29.5829 39.8007 28.9113 38.56C34.7751 36.8397 39.0576 31.4204 39.0576 25V25Z" fill="#F0F0F0"/>
</g>
</g>
<defs>
<clipPath id="clip0_105_2769">
<rect width="50" height="50" fill="white"/>
</clipPath>
</defs>
</svg>
