<svg width="50" height="50" viewBox="0 0 50 50" fill="none" xmlns="http://www.w3.org/2000/svg">
<g id="icon=romania" clip-path="url(#clip0_105_2285)">
<path id="Vector" d="M33.6955 1.55488C30.9871 0.550098 28.0579 1.29978e-08 24.9999 1.29978e-08C21.9419 -9.76433e-05 19.0126 0.550098 16.3043 1.55488L14.1304 24.9999L16.3043 48.4449C19.0125 49.45 21.9418 50 24.9999 50C28.0578 50 30.9872 49.45 33.6955 48.4449L35.8693 25L33.6955 1.55488Z" fill="#FFDA44"/>
<path id="Vector_2" d="M49.9999 25C49.9999 14.251 43.2156 5.0872 33.6956 1.55498V48.4452C43.2156 44.9126 49.9999 35.7492 49.9999 25Z" fill="#D80027"/>
<path id="Vector_3" d="M0 24.9999C0 35.7492 6.78438 44.9126 16.3042 48.4451L16.3043 1.55508C6.78437 5.08731 0 14.2508 0 24.9999H0Z" fill="#0052B4"/>
</g>
<defs>
<clipPath id="clip0_105_2285">
<rect width="50" height="50" fill="white"/>
</clipPath>
</defs>
</svg>
