<svg width="50" height="50" viewBox="0 0 50 50" fill="none" xmlns="http://www.w3.org/2000/svg">
<g id="icon=andorra" clip-path="url(#clip0_105_809)">
<path id="Vector" d="M14.1305 47.5193C17.4172 49.1086 21.1044 50 25 50C28.8956 50 32.5828 49.1086 35.8695 47.5193L38.0435 25L35.8695 2.48066C32.5828 0.891406 28.8956 0 25 0C21.1044 0 17.4172 0.891406 14.1305 2.48066L11.9565 25L14.1305 47.5193Z" fill="#FFDA44"/>
<path id="Vector_2" d="M35.8696 47.5184C44.232 43.4748 50.0001 34.9113 50.0001 24.9999C50.0001 15.0885 44.232 6.525 35.8696 2.48145V47.5184Z" fill="#D80027"/>
<path id="Vector_3" d="M14.1305 47.5184V2.48145C5.76807 6.525 0 15.0884 0 24.9999C0 34.9114 5.76807 43.4748 14.1305 47.5184Z" fill="#0052B4"/>
<g id="Group">
<path id="Vector_4" d="M25 33.6956C25 29.7062 25 25 25 25H31.5218V28.2608C31.5218 28.8273 30.4349 30.9031 27.752 32.6087C26.7358 33.2548 25.684 33.4626 25 33.6956Z" fill="#D80027"/>
<path id="Vector_5" d="M18.4783 18.478H25V24.9998H18.4783V18.478Z" fill="#D80027"/>
</g>
<path id="Vector_6" d="M28.2609 16.3043C28.2609 15.1036 27.2875 14.1304 26.087 14.1304C25.6905 14.1304 25.32 14.2382 25 14.4235C24.68 14.2382 24.3096 14.1304 23.9131 14.1304C22.7125 14.1304 21.7392 15.1036 21.7392 16.3043H16.3044V27.1737C16.3044 31.2202 19.5179 33.5604 22.0379 34.7734C21.8494 35.0955 21.7392 35.4692 21.7392 35.8695C21.7392 37.0702 22.7125 38.0435 23.9131 38.0435C24.3096 38.0435 24.6801 37.9356 25 37.7503C25.3201 37.9356 25.6905 38.0435 26.087 38.0435C27.2875 38.0435 28.2609 37.0702 28.2609 35.8695C28.2609 35.4692 28.1507 35.0955 27.9621 34.7734C30.4821 33.5604 33.6957 31.2203 33.6957 27.1737V16.3043H28.2609ZM30.4348 27.1737C30.4348 27.7402 30.4348 29.464 27.752 31.1696C26.7358 31.8157 25.684 32.2347 25 32.4676C24.3161 32.2347 23.2643 31.8157 22.2481 31.1696C19.5653 29.464 19.5653 27.7402 19.5653 27.1737V19.5651H30.4348V27.1737Z" fill="#FF9811"/>
</g>
<defs>
<clipPath id="clip0_105_809">
<rect width="50" height="50" fill="white"/>
</clipPath>
</defs>
</svg>
