<svg width="50" height="50" viewBox="0 0 50 50" fill="none" xmlns="http://www.w3.org/2000/svg">
<g id="icon=mauritania" clip-path="url(#clip0_105_1932)">
<path id="Vector" d="M25 50C38.8071 50 50 38.8071 50 25C50 11.1929 38.8071 0 25 0C11.1929 0 0 11.1929 0 25C0 38.8071 11.1929 50 25 50Z" fill="#496E2D"/>
<g id="Group">
<path id="Vector_2" d="M24.9998 28.8817C20.8371 28.8817 17.3596 25.9562 16.5063 22.0494C16.3753 22.65 16.3042 23.2728 16.3042 23.9128C16.3042 28.7154 20.1973 32.6084 24.9998 32.6084C29.8023 32.6084 33.6954 28.7153 33.6954 23.9128C33.6954 23.2728 33.6243 22.65 33.4933 22.0493C32.64 25.9562 29.1625 28.8817 24.9998 28.8817Z" fill="#FFDA44"/>
<path id="Vector_3" d="M24.9999 17.3911L25.8093 19.8822H28.4287L26.3097 21.4218L27.119 23.9129L24.9999 22.3732L22.8809 23.9129L23.6903 21.4218L21.5713 19.8822H24.1905L24.9999 17.3911Z" fill="#FFDA44"/>
</g>
</g>
<defs>
<clipPath id="clip0_105_1932">
<rect width="50" height="50" fill="white"/>
</clipPath>
</defs>
</svg>
