<svg width="50" height="50" viewBox="0 0 50 50" fill="none" xmlns="http://www.w3.org/2000/svg">
<g id="icon=pitcairn islands" clip-path="url(#clip0_105_2232)">
<path id="Vector" d="M50 25C50 38.807 38.807 50 25 50C11.193 50 0 38.807 0 25C0 25.006 25 0.00273438 25 0C38.807 0 50 11.193 50 25Z" fill="#0052B4"/>
<g id="Group">
<path id="Vector_2" d="M24.9331 25H25C25 24.9775 25 24.9557 25 24.9331C24.9777 24.9555 24.9555 24.9777 24.9331 25Z" fill="#F0F0F0"/>
<path id="Vector_3" d="M25 13.0435C25 8.64453 25 5.76221 25 0H24.9958C11.1905 0.00234375 0 11.1942 0 25H13.0435V17.6552L20.3883 25H24.9332C24.9555 24.9777 24.9777 24.9555 25.0001 24.9331C25.0001 23.2488 25.0001 21.746 25.0001 20.3885L17.6551 13.0435H25Z" fill="#F0F0F0"/>
</g>
<g id="Group_2">
<path id="Vector_4" d="M12.6479 3.26086C8.73779 5.48733 5.48711 8.73791 3.26074 12.648V25H9.78252V9.78284V9.78264H24.9999C24.9999 7.72571 24.9999 5.76614 24.9999 3.26086H12.6479Z" fill="#D80027"/>
<path id="Vector_5" d="M25 21.9257L16.1177 13.0436H13.0435V13.0438L24.9998 25H25C25 25 25 22.8802 25 21.9257V21.9257Z" fill="#D80027"/>
</g>
<path id="Vector_6" d="M39.1307 15.2174L35.8697 16.3044L32.6089 15.2174L31.522 12.5L32.6089 9.78259H39.1307L38.0437 12.5L39.1307 15.2174Z" fill="#ACABB1"/>
<path id="Vector_7" d="M28.2607 15.2174V27.1739C28.2607 32.9981 35.8694 34.7826 35.8694 34.7826C35.8694 34.7826 43.4781 32.9981 43.4781 27.1739V15.2174H28.2607Z" fill="#338AF3"/>
<path id="Vector_8" d="M28.9468 30.0065C30.8171 33.5972 35.8696 34.7826 35.8696 34.7826C35.8696 34.7826 40.9222 33.5972 42.7925 30.0065L35.8696 18.4783L28.9468 30.0065Z" fill="#6DA544"/>
<path id="Vector_9" d="M43.4781 27.0531L35.8694 15.2174L28.2607 27.0531V27.1739C28.2607 28.2518 28.5219 29.191 28.9466 30.0065L35.8694 19.2374L42.7923 30.0064C43.217 29.1908 43.4781 28.2517 43.4781 27.1738V27.0531Z" fill="#FFDA44"/>
</g>
<defs>
<clipPath id="clip0_105_2232">
<rect width="50" height="50" fill="white"/>
</clipPath>
</defs>
</svg>
