<svg width="50" height="50" viewBox="0 0 50 50" fill="none" xmlns="http://www.w3.org/2000/svg">
<g id="icon=bosnia and herzegovina" clip-path="url(#clip0_105_1007)">
<path id="Vector" d="M25 50C38.8071 50 50 38.8071 50 25C50 11.1929 38.8071 0 25 0C11.1929 0 0 11.1929 0 25C0 38.8071 11.1929 50 25 50Z" fill="#F0F0F0"/>
<path id="Vector_2" d="M25.0001 0C16.1358 0 8.34971 4.61357 3.91064 11.5702L37.8129 46.4696C45.112 42.1042 50.0001 34.1233 50.0001 25C50.0001 11.193 38.8071 0 25.0001 0Z" fill="#FFDA44"/>
<g id="Group">
<path id="Vector_3" d="M49.9998 25C49.9998 18.5135 47.5293 12.6045 43.478 8.16138V41.8388C47.5293 37.3956 49.9998 31.4866 49.9998 25Z" fill="#0052B4"/>
<path id="Vector_4" d="M31.2294 47.0581L33.848 47.0564L34.6559 44.5653L35.4666 47.0554L36.7801 47.0546C37.5854 46.6235 38.3645 46.1497 39.1141 45.6358L4.36416 10.886C3.7915 11.7215 3.26924 12.594 2.79961 13.4983L3.1084 14.4467L5.72705 14.4451L3.60947 15.9856L4.42021 18.4757L2.30068 16.9378L1.03652 17.8574C0.362598 20.1207 0 22.518 0 25.0001C0 38.8072 11.193 50.0001 25 50.0001C27.9191 50.0001 30.721 49.499 33.3252 48.5791L31.2294 47.0581ZM5.57607 23.9132L6.38369 21.4222L4.26436 19.8841L6.88301 19.8825L7.69072 17.3914L8.50146 19.8815L11.1201 19.8798L9.00244 21.4204L9.81318 23.9105L7.69365 22.3726L5.57607 23.9132ZM10.9691 29.348L11.7768 26.857L9.65742 25.3189L12.2761 25.3172L13.0838 22.8261L13.8945 25.3163L16.5132 25.3146L14.3956 26.8551L15.2063 29.3453L13.0868 27.8074L10.9691 29.348ZM16.3621 34.7828L17.1697 32.2917L15.0504 30.7537L17.669 30.752L18.4768 28.2609L19.2875 30.751L21.9062 30.7494L19.7886 32.2899L20.5993 34.78L18.4798 33.2419L16.3621 34.7828ZM23.8728 38.677L21.7551 40.2175L22.5627 37.7265L20.4434 36.1884L23.062 36.1868L23.8698 33.6957L24.6806 36.1858L27.2992 36.1841L25.1816 37.7247L25.9924 40.2148L23.8728 38.677ZM27.1481 45.6523L27.9558 43.1613L25.8364 41.6232L28.4551 41.6215L29.2628 39.1304L30.0735 41.6206L32.6922 41.6189L30.5746 43.1594L31.3854 45.6496L29.2658 44.1115L27.1481 45.6523Z" fill="#0052B4"/>
</g>
</g>
<defs>
<clipPath id="clip0_105_1007">
<rect width="50" height="50" fill="white"/>
</clipPath>
</defs>
</svg>
