<svg width="50" height="50" viewBox="0 0 50 50" fill="none" xmlns="http://www.w3.org/2000/svg">
<g id="icon=democratic republic of congo" clip-path="url(#clip0_105_1358)">
<path id="Vector" d="M47.2242 13.5367C46.069 11.2985 44.5549 9.19776 42.6787 7.32158C40.8024 5.44532 38.7016 3.93116 36.4635 2.77608L18.8513 18.8509L2.77637 36.4631C3.93154 38.7013 5.4457 40.8022 7.32188 42.6783C9.19805 44.5545 11.2989 46.0687 13.537 47.2238L31.1492 31.1489L47.2242 13.5367Z" fill="#FFDA44"/>
<path id="Vector_2" d="M7.32158 42.6784C8.37031 43.7271 9.48936 44.6625 10.6631 45.486L45.4857 10.6632C44.6624 9.48945 43.7271 8.3704 42.6783 7.32167C41.6295 6.27294 40.5105 5.33769 39.3368 4.51425L4.51416 39.3369C5.3375 40.5104 6.27275 41.6297 7.32158 42.6784V42.6784Z" fill="#D80027"/>
<g id="Group">
<path id="Vector_3" d="M7.32169 7.32155C-0.565711 15.209 -2.07987 27.0545 2.77618 36.4632L36.4633 2.77614C27.0545 -2.07981 15.209 -0.565459 7.32169 7.32155V7.32155Z" fill="#338AF3"/>
<path id="Vector_4" d="M42.6786 42.6784C50.5659 34.7911 52.08 22.9456 47.2242 13.5369L13.5371 47.2239C22.9458 52.0799 34.7914 50.5658 42.6786 42.6784V42.6784Z" fill="#338AF3"/>
</g>
<path id="Vector_5" d="M13.3228 7.60791L14.6718 11.76H19.0374L15.5056 14.326L16.8546 18.4779L13.3228 15.9118L9.79072 18.4779L11.1399 14.326L7.60791 11.76H11.9735L13.3228 7.60791Z" fill="#FFDA44"/>
</g>
<defs>
<clipPath id="clip0_105_1358">
<rect width="50" height="50" fill="white"/>
</clipPath>
</defs>
</svg>
