<svg width="50" height="50" viewBox="0 0 50 50" fill="none" xmlns="http://www.w3.org/2000/svg">
<g id="icon=turks and caicos" clip-path="url(#clip0_105_2700)">
<path id="Vector" d="M50 25.001C50 38.808 38.807 50.001 25 50.001C11.193 50.001 0 38.808 0 25.001C0 25.0069 25 0.00371094 25 0.000976562C38.807 0.000976562 50 11.1939 50 25.001Z" fill="#0052B4"/>
<g id="Group">
<path id="Vector_2" d="M24.9331 25.001H25C25 24.9785 25 24.9566 25 24.9341C24.9777 24.9564 24.9555 24.9787 24.9331 25.001Z" fill="#F0F0F0"/>
<path id="Vector_3" d="M25 13.0444C25 8.64551 25 5.76318 25 0.000976562H24.9958C11.1905 0.00332031 0 11.1952 0 25.001H13.0435V17.6562L20.3883 25.001H24.9332C24.9555 24.9787 24.9777 24.9564 25.0001 24.9341C25.0001 23.2498 25.0001 21.747 25.0001 20.3895L17.6551 13.0444H25Z" fill="#F0F0F0"/>
</g>
<g id="Group_2">
<path id="Vector_4" d="M12.6479 3.26172C8.73779 5.48818 5.48711 8.73877 3.26074 12.6488V25.0009H9.78252V9.78369V9.7835H24.9999C24.9999 7.72656 24.9999 5.76699 24.9999 3.26172H12.6479Z" fill="#D80027"/>
<path id="Vector_5" d="M25 21.9266L16.1177 13.0444H13.0435V13.0446L24.9998 25.0009H25C25 25.0009 25 22.8811 25 21.9266V21.9266Z" fill="#D80027"/>
</g>
<path id="Vector_6" d="M28.2607 13.0444V25.0009C28.2607 30.8251 35.8694 32.6097 35.8694 32.6097C35.8694 32.6097 43.4781 30.8251 43.4781 25.0009V13.0444H28.2607Z" fill="#FFDA44"/>
<path id="Vector_7" d="M34.7827 17.3922C34.7827 18.5929 33.8094 21.74 32.6087 21.74C31.4081 21.74 30.4348 18.5929 30.4348 17.3922C30.4348 16.1915 32.6087 15.2183 32.6087 15.2183C32.6087 15.2183 34.7827 16.1915 34.7827 17.3922Z" fill="#FF9811"/>
<path id="Vector_8" d="M40.5513 19.7599C40.9021 18.9039 41.175 17.6527 41.175 17.0299C41.175 16.0293 39.8706 15.2183 39.8706 15.2183C39.8706 15.2183 38.5662 16.0294 38.5662 17.0299C38.5662 17.6527 38.839 18.9039 39.1898 19.7599L38.4368 21.4601C38.8793 21.6399 39.3631 21.7399 39.8705 21.7399C40.3778 21.7399 40.8616 21.6399 41.3042 21.4601L40.5513 19.7599Z" fill="#A2001D"/>
<path id="Vector_9" d="M34.2393 25.001C34.2393 25.001 33.1523 27.1749 33.1523 29.3488H38.5871C38.587 27.1749 37.5001 25.001 37.5001 25.001L35.8696 23.9141L34.2393 25.001Z" fill="#6DA544"/>
<path id="Vector_10" d="M37.5 25.0011V24.4576C37.5 23.5572 36.77 22.8271 35.8695 22.8271C34.9691 22.8271 34.239 23.5571 34.239 24.4576V25.0011H37.5Z" fill="#D80027"/>
</g>
<defs>
<clipPath id="clip0_105_2700">
<rect width="50" height="50" fill="white" transform="translate(0 0.000976562)"/>
</clipPath>
</defs>
</svg>
