<svg width="50" height="50" viewBox="0 0 50 50" fill="none" xmlns="http://www.w3.org/2000/svg">
<g id="icon=comoros" clip-path="url(#clip0_105_1268)">
<path id="Vector" d="M25 50C38.8071 50 50 38.8071 50 25C50 11.1929 38.8071 0 25 0C11.1929 0 0 11.1929 0 25C0 38.8071 11.1929 50 25 50Z" fill="#F0F0F0"/>
<path id="Vector_2" d="M49.999 24.9276H22.8984C17.5179 30.3083 14.2642 34.4623 10.9419 37.7845L25.0724 39.058L46.9995 36.8841C48.9131 33.3494 49.9999 29.3016 49.9999 25C49.9999 24.9758 49.999 24.9518 49.999 24.9276V24.9276Z" fill="#D80027"/>
<path id="Vector_3" d="M10.9422 12.9711H46.9199C42.6682 5.23984 34.4465 0 25.0001 0C18.1148 0 11.8809 2.78428 7.35986 7.2875L10.9422 12.9711Z" fill="#FFDA44"/>
<path id="Vector_4" d="M12.029 36.8841C9.78149 39.1316 8.91294 41.0146 7.28687 42.6405C11.8137 47.1861 18.0779 50 25 50C34.5054 50 42.7714 44.6948 46.9997 36.8841H12.029Z" fill="#0052B4"/>
<path id="Vector_5" d="M7.32231 7.24988C-2.44077 17.013 -2.44077 32.8422 7.32231 42.6053C11.3568 38.5709 15.237 34.6907 25 24.9276L7.32231 7.24988Z" fill="#6DA544"/>
<g id="Group">
<path id="Vector_6" d="M6.59419 24.9277C6.59419 21.2853 9.15405 18.2424 12.5724 17.4959C12.047 17.3812 11.5019 17.319 10.9419 17.319C6.7397 17.319 3.33325 20.7254 3.33325 24.9277C3.33325 29.1299 6.7397 32.5364 10.9419 32.5364C11.5018 32.5364 12.0469 32.4741 12.5724 32.3594C9.15405 31.6128 6.59419 28.57 6.59419 24.9277V24.9277Z" fill="#F0F0F0"/>
<path id="Vector_7" d="M12.4885 18.4059L12.8933 19.6514H14.2029L13.1433 20.4212L13.5481 21.6667L12.4885 20.897L11.429 21.6667L11.8337 20.4212L10.7742 19.6514H12.0837L12.4885 18.4059Z" fill="#F0F0F0"/>
<path id="Vector_8" d="M12.4885 21.6667L12.8933 22.9124H14.2029L13.1433 23.6821L13.5481 24.9277L12.4885 24.1579L11.429 24.9277L11.8337 23.6821L10.7742 22.9124H12.0837L12.4885 21.6667Z" fill="#F0F0F0"/>
<path id="Vector_9" d="M12.4885 24.9277L12.8933 26.1732H14.2029L13.1433 26.943L13.5481 28.1885L12.4885 27.4187L11.429 28.1885L11.8337 26.943L10.7742 26.1732H12.0837L12.4885 24.9277Z" fill="#F0F0F0"/>
<path id="Vector_10" d="M12.4885 28.1885L12.8933 29.434H14.2029L13.1433 30.2038L13.5481 31.4493L12.4885 30.6796L11.429 31.4493L11.8337 30.2038L10.7742 29.434H12.0837L12.4885 28.1885Z" fill="#F0F0F0"/>
</g>
</g>
<defs>
<clipPath id="clip0_105_1268">
<rect width="50" height="50" fill="white"/>
</clipPath>
</defs>
</svg>
