<svg width="50" height="50" viewBox="0 0 50 50" fill="none" xmlns="http://www.w3.org/2000/svg">
<g id="icon=turkmenistan" clip-path="url(#clip0_105_2672)">
<g id="Group">
<path id="Vector" d="M24.9999 0C23.1333 0 21.315 0.206348 19.5652 0.594238L18.4783 24.9999L19.5652 49.4057C21.3151 49.7936 23.1333 50 24.9999 50C38.807 50 49.9999 38.807 49.9999 24.9999C49.9998 11.1929 38.807 0 24.9999 0V0Z" fill="#496E2D"/>
<path id="Vector_2" d="M6.52168 8.16113C2.47051 12.6041 0 18.5133 0 24.9998C0 31.4863 2.47061 37.3955 6.52178 41.8387L7.60869 24.9998L6.52168 8.16113Z" fill="#496E2D"/>
</g>
<g id="Group_2">
<path id="Vector_3" d="M36.5645 18.8577C37.7945 15.4294 36.4127 11.7008 33.4472 9.84375C33.9806 9.91318 34.5146 10.0388 35.0415 10.2277C38.9969 11.6469 41.0529 16.0035 39.6338 19.9588C38.2146 23.9144 33.858 25.9702 29.9026 24.5511C29.3756 24.362 28.8835 24.1193 28.4277 23.8339C31.8975 24.2857 35.3346 22.286 36.5645 18.8577V18.8577Z" fill="#F0F0F0"/>
<path id="Vector_4" d="M29.7425 8.90381L28.6737 10.2849L27.0302 9.69512L28.0132 11.1383L26.9446 12.5191L28.6209 12.0303L29.6041 13.4732L29.6568 11.7279L31.3332 11.239L29.6897 10.6494L29.7425 8.90381Z" fill="#F0F0F0"/>
<path id="Vector_5" d="M32.6284 13.4038L31.5595 14.7848L29.916 14.195L30.8991 15.6382L29.8303 17.019L31.5066 16.53L32.4898 17.9732L32.5427 16.2278L34.219 15.7388L32.5754 15.1491L32.6284 13.4038Z" fill="#F0F0F0"/>
<path id="Vector_6" d="M24.6542 10.5425L23.5853 11.9233L21.9418 11.3338L22.925 12.7769L21.8562 14.1578L23.5324 13.6688L24.5156 15.1119L24.5685 13.3666L26.2448 12.8776L24.6013 12.2879L24.6542 10.5425Z" fill="#F0F0F0"/>
<path id="Vector_7" d="M24.5371 15.6973L23.4683 17.0782L21.8248 16.4886L22.808 17.9317L21.739 19.3126L23.4155 18.8237L24.3986 20.2667L24.4514 18.5214L26.1278 18.0324L24.4841 17.4427L24.5371 15.6973Z" fill="#F0F0F0"/>
<path id="Vector_8" d="M29.4418 17.457L28.373 18.8379L26.7295 18.2482L27.7127 19.6914L26.6438 21.0722L28.3203 20.5833L29.3034 22.0265L29.3562 20.281L31.0326 19.7921L29.3889 19.2024L29.4418 17.457Z" fill="#F0F0F0"/>
</g>
<path id="Vector_9" d="M6.52173 8.16123V41.8387C9.92798 45.5744 14.4524 48.2722 19.5652 49.4056V0.594238C14.4523 1.72764 9.92808 4.42539 6.52173 8.16123V8.16123Z" fill="#D80027"/>
<path id="Vector_10" d="M11.4994 13.1628L9.31567 11.536V9.23555L11.4994 7.60889H14.5877L16.7714 9.23555V11.536L14.5877 13.1628H11.4994Z" fill="#F0F0F0"/>
<g id="Group_3">
<path id="Vector_11" d="M13.0436 7.60889H11.4994L9.31567 9.23555V10.3603H13.0436V7.60889Z" fill="#FF9811"/>
<path id="Vector_12" d="M13.0437 13.1626H14.5878L16.7715 11.5358V10.3623H13.0437V13.1626Z" fill="#FF9811"/>
</g>
<path id="Vector_13" d="M11.4994 42.3913L9.31567 40.7645V38.4642L11.4994 36.8374H14.5877L16.7714 38.4642V40.7645L14.5877 42.3913H11.4994Z" fill="#F0F0F0"/>
<g id="Group_4">
<path id="Vector_14" d="M13.0436 36.8374H11.4994L9.31567 38.4642V39.5889H13.0436V36.8374Z" fill="#FF9811"/>
<path id="Vector_15" d="M13.0437 42.3915H14.5878L16.7715 40.7647V39.5913H13.0437V42.3915Z" fill="#FF9811"/>
</g>
<g id="Group_5">
<path id="Vector_16" d="M11.4994 27.7766L9.31567 26.1498V23.8494L11.4994 22.2227H14.5877L16.7714 23.8494V26.1498L14.5877 27.7766H11.4994Z" fill="#496E2D"/>
<path id="Vector_17" d="M16.8479 31.3556H15.8967V30.4045H14.2253L13.0435 29.2227L11.8617 30.4045H10.1903V31.3556H9.23926V33.2577H10.1903V34.2088H11.8616L13.0436 35.3907L14.2253 34.2088H15.8967V33.2577H16.8479V31.3556Z" fill="#496E2D"/>
<path id="Vector_18" d="M16.8479 16.7414H15.8967V15.7902H14.2253L13.0435 14.6084L11.8617 15.7902H10.1903V16.7414H9.23926V18.6436H10.1903V19.5946H11.8616L13.0436 20.7767L14.2253 19.5946H15.8967V18.6436H16.8479V16.7414Z" fill="#496E2D"/>
</g>
<g id="Group_6">
<path id="Vector_19" d="M11.9565 23.9131H14.1305V26.087H11.9565V23.9131Z" fill="#D80027"/>
<path id="Vector_20" d="M13.0435 18.7793C13.6437 18.7793 14.1304 18.2927 14.1304 17.6924C14.1304 17.0921 13.6437 16.6055 13.0435 16.6055C12.4432 16.6055 11.9565 17.0921 11.9565 17.6924C11.9565 18.2927 12.4432 18.7793 13.0435 18.7793Z" fill="#D80027"/>
<path id="Vector_21" d="M13.0435 33.3945C13.6437 33.3945 14.1304 32.9079 14.1304 32.3076C14.1304 31.7073 13.6437 31.2207 13.0435 31.2207C12.4432 31.2207 11.9565 31.7073 11.9565 32.3076C11.9565 32.9079 12.4432 33.3945 13.0435 33.3945Z" fill="#D80027"/>
</g>
</g>
<defs>
<clipPath id="clip0_105_2672">
<rect width="50" height="50" fill="white"/>
</clipPath>
</defs>
</svg>
