<svg width="50" height="50" viewBox="0 0 50 50" fill="none" xmlns="http://www.w3.org/2000/svg">
<g id="icon=taiwan" clip-path="url(#clip0_105_2583)">
<path id="Vector" d="M50 24.999C50 38.8061 38.807 49.999 25 49.999C11.193 49.999 0 38.8061 0 24.999C8.58691 16.4121 15.8695 9.12949 25 -0.000976562C38.807 -0.000976562 50 11.192 50 24.999Z" fill="#D80027"/>
<path id="Vector_2" d="M25 24.999C25 11.192 25 9.56426 25 -0.000976562C11.193 -0.000976562 0 11.192 0 24.999H25Z" fill="#0052B4"/>
<path id="Vector_3" d="M21.7391 14.63L18.6859 16.0663L20.3117 19.0232L16.9964 18.3889L16.5761 21.7382L14.267 19.2749L11.9576 21.7382L11.5376 18.3889L8.22214 19.023L9.84792 16.0661L6.7948 14.63L9.84802 13.1939L8.22214 10.2369L11.5375 10.8712L11.9577 7.52197L14.267 9.98525L16.5762 7.52197L16.9964 10.8712L20.3118 10.2369L18.6859 13.194L21.7391 14.63Z" fill="#F0F0F0"/>
<path id="Vector_4" d="M14.2674 19.2831C16.8375 19.2831 18.921 17.1996 18.921 14.6294C18.921 12.0593 16.8375 9.97583 14.2674 9.97583C11.6973 9.97583 9.61377 12.0593 9.61377 14.6294C9.61377 17.1996 11.6973 19.2831 14.2674 19.2831Z" fill="#0052B4"/>
<path id="Vector_5" d="M14.2669 17.1098C12.8997 17.1098 11.7874 15.9974 11.7874 14.6301C11.7874 13.2628 12.8998 12.1504 14.2669 12.1504C15.6342 12.1504 16.7466 13.2628 16.7466 14.6301C16.7465 15.9974 15.634 17.1098 14.2669 17.1098Z" fill="#F0F0F0"/>
</g>
<defs>
<clipPath id="clip0_105_2583">
<rect width="50" height="50" fill="white" transform="translate(0 -0.000976562)"/>
</clipPath>
</defs>
</svg>
