<svg width="50" height="50" viewBox="0 0 50 50" fill="none" xmlns="http://www.w3.org/2000/svg">
<g id="icon=israel" clip-path="url(#clip0_105_1719)">
<path id="Vector" d="M25 50C38.8071 50 50 38.8071 50 25C50 11.1929 38.8071 0 25 0C11.1929 0 0 11.1929 0 25C0 38.8071 11.1929 50 25 50Z" fill="#F0F0F0"/>
<g id="Group">
<path id="Vector_2" d="M34.4137 19.5651H28.138L25.0003 14.1304L21.8627 19.5651H15.5869L18.725 24.9999L15.5869 30.4347H21.8627L25.0003 35.8694L28.138 30.4347H34.4137L31.2756 24.9999L34.4137 19.5651ZM28.8553 24.9999L26.9279 28.3386H23.073L21.1453 24.9999L23.0729 21.6612H26.9278L28.8553 24.9999ZM25.0003 18.3225L25.7177 19.565H24.2831L25.0003 18.3225ZM19.2177 21.6612H20.6524L19.9351 22.9038L19.2177 21.6612ZM19.2177 28.3386L19.9352 27.096L20.6525 28.3386H19.2177ZM25.0003 31.6772L24.283 30.4347H25.7177L25.0003 31.6772ZM30.7829 28.3386H29.3481L30.0656 27.096L30.7829 28.3386ZM29.3481 21.6612H30.7829L30.0655 22.9038L29.3481 21.6612Z" fill="#0052B4"/>
<path id="Vector_3" d="M40.5623 5.43457H9.43789C7.15635 7.25176 5.19971 9.45898 3.66943 11.9563H46.3308C44.8004 9.45908 42.8437 7.25176 40.5623 5.43457V5.43457Z" fill="#0052B4"/>
<path id="Vector_4" d="M9.43789 44.5652H40.5622C42.8437 42.748 44.8004 40.5408 46.3307 38.0435H3.66943C5.1998 40.5407 7.15645 42.748 9.43789 44.5652V44.5652Z" fill="#0052B4"/>
</g>
</g>
<defs>
<clipPath id="clip0_105_1719">
<rect width="50" height="50" fill="white"/>
</clipPath>
</defs>
</svg>
