<svg width="50" height="50" viewBox="0 0 50 50" fill="none" xmlns="http://www.w3.org/2000/svg">
<g id="icon=burundi" clip-path="url(#clip0_105_1127)">
<path id="Vector" d="M25 50C38.8071 50 50 38.8071 50 25C50 11.1929 38.8071 0 25 0C11.1929 0 0 11.1929 0 25C0 38.8071 11.1929 50 25 50Z" fill="#F0F0F0"/>
<g id="Group">
<path id="Vector_2" d="M40.2224 5.16622C31.272 -1.72108 18.7282 -1.72108 9.77783 5.16613L25.0001 20.3884L40.2224 5.16622Z" fill="#D80027"/>
<path id="Vector_3" d="M24.9999 29.6118L9.77783 44.8338C18.7282 51.7211 31.272 51.7211 40.2224 44.8338L25.0001 29.6116L24.9999 29.6118Z" fill="#D80027"/>
</g>
<g id="Group_2">
<path id="Vector_4" d="M20.3881 25L5.16597 9.77771C-1.72134 18.7281 -1.72134 31.2719 5.16597 40.2222L20.3881 25Z" fill="#6DA544"/>
<path id="Vector_5" d="M29.6113 25L44.8334 40.2222C51.7207 31.2719 51.7207 18.7281 44.8334 9.77771L29.6113 25Z" fill="#6DA544"/>
</g>
<path id="Vector_6" d="M24.9999 35.8696C31.003 35.8696 35.8694 31.0031 35.8694 25C35.8694 18.9969 31.003 14.1305 24.9999 14.1305C18.9968 14.1305 14.1304 18.9969 14.1304 25C14.1304 31.0031 18.9968 35.8696 24.9999 35.8696Z" fill="#F0F0F0"/>
<g id="Group_3">
<path id="Vector_7" d="M24.9997 17.3914L25.941 19.0218H27.8237L26.8823 20.6522L27.8237 22.2827H25.941L24.9997 23.9131L24.0584 22.2827H22.1758L23.1171 20.6522L22.1758 19.0218H24.0584L24.9997 17.3914Z" fill="#D80027"/>
<path id="Vector_8" d="M20.2151 25L21.1564 26.6305H23.0391L22.0978 28.2608L23.0391 29.8913H21.1564L20.2151 31.5218L19.2737 29.8913H17.3911L18.3324 28.2608L17.3911 26.6305H19.2737L20.2151 25Z" fill="#D80027"/>
<path id="Vector_9" d="M29.7845 25L30.7258 26.6305H32.6084L31.6671 28.2608L32.6084 29.8913H30.7258L29.7845 31.5218L28.8431 29.8913H26.9604L27.9018 28.2608L26.9604 26.6305H28.8431L29.7845 25Z" fill="#D80027"/>
</g>
</g>
<defs>
<clipPath id="clip0_105_1127">
<rect width="50" height="50" fill="white"/>
</clipPath>
</defs>
</svg>
