<svg width="51" height="50" viewBox="0 0 51 50" fill="none" xmlns="http://www.w3.org/2000/svg">
<g id="icon=sweden" clip-path="url(#clip0_105_2566)">
<path id="Vector" d="M25.5781 49.999C39.3852 49.999 50.5781 38.8061 50.5781 24.999C50.5781 11.1919 39.3852 -0.000976562 25.5781 -0.000976562C11.771 -0.000976562 0.578125 11.1919 0.578125 24.999C0.578125 38.8061 11.771 49.999 25.5781 49.999Z" fill="#FFDA44"/>
<g id="Group">
<path id="Vector_2" d="M20.1432 21.7382H50.3662C48.7683 9.47187 38.2797 -0.000976562 25.5778 -0.000976562C23.7112 -0.000976562 21.893 0.205371 20.1431 0.593262V21.7382H20.1432Z" fill="#0052B4"/>
<path id="Vector_3" d="M13.6214 21.7381V3.03882C6.75674 6.78433 1.84258 13.6545 0.789551 21.7382H13.6214V21.7381Z" fill="#0052B4"/>
<path id="Vector_4" d="M13.6213 28.2598H0.789551C1.84258 36.3435 6.75674 43.2137 13.6214 46.9591L13.6213 28.2598Z" fill="#0052B4"/>
<path id="Vector_5" d="M20.1431 28.2599V49.4047C21.893 49.7926 23.7112 49.9989 25.5778 49.9989C38.2797 49.9989 48.7683 40.5261 50.3662 28.2598H20.1431V28.2599Z" fill="#0052B4"/>
</g>
</g>
<defs>
<clipPath id="clip0_105_2566">
<rect width="50" height="50" fill="white" transform="translate(0.578125 -0.000976562)"/>
</clipPath>
</defs>
</svg>
