<svg width="50" height="50" viewBox="0 0 50 50" fill="none" xmlns="http://www.w3.org/2000/svg">
<g id="icon=uganda" clip-path="url(#clip0_105_2736)">
<path id="Vector" d="M43.6321 41.6668C47.5914 37.2437 50 31.4037 50 25.0002C50 18.5967 47.5913 12.7565 43.632 8.3335L25 6.52197L6.36797 8.3335C2.40869 12.7565 0 18.5967 0 25.0002C0 31.4037 2.40859 37.2437 6.36787 41.6668L25 43.4784L43.6321 41.6668Z" fill="#FFDA44"/>
<path id="Vector_2" d="M6.36816 8.3333H43.6323C39.0547 3.21934 32.4038 0 25.0002 0C17.5966 0 10.9457 3.21934 6.36816 8.3333Z" fill="black"/>
<path id="Vector_3" d="M0 24.9999L25 27.1738L50 24.9999C50 22.0776 49.497 19.2731 48.5754 16.6665H1.42461C0.503027 19.2731 0 22.0776 0 24.9999H0Z" fill="#D80027"/>
<path id="Vector_4" d="M1.42461 33.3333H48.5756C49.497 30.7267 50 27.9223 50 25H0C0 27.9223 0.503027 30.7267 1.42461 33.3333V33.3333Z" fill="black"/>
<path id="Vector_5" d="M43.6319 41.6665H6.36768C10.9452 46.7806 17.5961 49.9999 24.9998 49.9999C32.4035 49.9999 39.0544 46.7806 43.6319 41.6665Z" fill="#D80027"/>
<path id="Vector_6" d="M33.3425 25.0001C33.3425 29.6078 29.6078 33.3425 25.0001 33.3425C20.3924 33.3425 16.6577 29.6078 16.6577 25.0001C16.6577 20.3924 20.3924 16.6577 25.0001 16.6577C29.6078 16.6577 33.3425 20.3924 33.3425 25.0001Z" fill="#F0F0F0"/>
<path id="Vector_7" d="M28.056 25.4254L24.9998 24.1011C24.9998 24.1011 25.7148 21.7277 25.7529 21.5653C25.7808 21.4467 25.7956 21.3229 25.7956 21.1958C25.7956 20.7455 25.6131 20.3379 25.318 20.043L26.0865 19.2744C25.5948 18.7827 24.9154 18.4785 24.165 18.4785C23.4146 18.4785 22.7353 18.7826 22.2436 19.2744L23.0121 20.043C22.717 20.338 22.5346 20.7456 22.5346 21.1958C22.5346 21.3604 22.5595 21.5191 22.6049 21.669L21.4478 22.8261H23.5509C23.5509 22.8261 22.6813 24.1321 22.2066 25.2047C21.7319 26.2771 22.2132 27.5864 23.3103 28.0741L23.9446 28.3561L24.9998 29.3479V30.4348L23.9129 31.5217H26.0868V29.3478L27.0787 28.3559H29.1303C29.1401 28.3355 29.1505 28.3155 29.1599 28.2946C29.6473 27.1977 29.1531 25.9129 28.056 25.4254Z" fill="black"/>
</g>
<defs>
<clipPath id="clip0_105_2736">
<rect width="50" height="50" fill="white"/>
</clipPath>
</defs>
</svg>
