<svg width="50" height="50" viewBox="0 0 50 50" fill="none" xmlns="http://www.w3.org/2000/svg">
<g id="icon=tonga" clip-path="url(#clip0_105_2645)">
<path id="Vector" d="M25 49.999C38.8071 49.999 50 38.8061 50 24.999C50 11.1919 38.8071 -0.000976562 25 -0.000976562C11.1929 -0.000976562 0 11.1919 0 24.999C0 38.8061 11.1929 49.999 25 49.999Z" fill="#F0F0F0"/>
<g id="Group">
<path id="Vector_2" d="M16.3045 13.0426V9.78174H13.0436V13.0426H9.78271V16.3035H13.0436V19.5644H16.3045V16.3035H19.5653V13.0426H16.3045Z" fill="#D80027"/>
<path id="Vector_3" d="M25 -0.000976562V24.999C11.193 24.9991 5.70557 24.999 0 24.9991C0 38.8061 11.193 49.999 25 49.999C38.807 49.999 50 38.8061 50 24.999C50 11.192 38.807 -0.000976562 25 -0.000976562Z" fill="#D80027"/>
</g>
</g>
<defs>
<clipPath id="clip0_105_2645">
<rect width="50" height="50" fill="white" transform="translate(0 -0.000976562)"/>
</clipPath>
</defs>
</svg>
