<svg width="50" height="50" viewBox="0 0 50 50" fill="none" xmlns="http://www.w3.org/2000/svg">
<g id="icon=namibia" clip-path="url(#clip0_105_2035)">
<path id="Vector" d="M25 50C38.8071 50 50 38.8071 50 25C50 11.1929 38.8071 0 25 0C11.1929 0 0 11.1929 0 25C0 38.8071 11.1929 50 25 50Z" fill="#F0F0F0"/>
<path id="Vector_2" d="M7.32197 42.6777C8.3707 43.7265 9.48965 44.6617 10.6634 45.4852L45.4846 10.6639C44.6612 9.49014 43.726 8.37119 42.6771 7.32246C41.6284 6.27373 40.5095 5.33857 39.3357 4.51514L4.51465 39.3364C5.33799 40.51 6.27324 41.629 7.32197 42.6777V42.6777Z" fill="#A2001D"/>
<path id="Vector_3" d="M7.32239 7.32216C-0.564715 15.2093 -2.07878 27.0542 2.77698 36.4626L36.4627 2.77694C27.0543 -2.07882 15.2093 -0.564562 7.32239 7.32216V7.32216Z" fill="#0052B4"/>
<path id="Vector_4" d="M42.6774 42.6778C50.5644 34.7909 52.0784 22.9458 47.2229 13.5374L13.5371 47.2231C22.9454 52.0789 34.7904 50.5648 42.6774 42.6778Z" fill="#496E2D"/>
<path id="Vector_5" d="M20.652 14.1304L17.8506 15.4481L19.3424 18.1612L16.3005 17.5793L15.9149 20.6521L13.7962 18.392L11.6773 20.6521L11.292 17.5793L8.25 18.1611L9.7417 15.448L6.94043 14.1304L9.7418 12.8126L8.25 10.0998L11.2919 10.6816L11.6774 7.60864L13.7962 9.8688L15.915 7.60864L16.3005 10.6816L19.3424 10.0998L17.8508 12.8127L20.652 14.1304Z" fill="#FFDA44"/>
</g>
<defs>
<clipPath id="clip0_105_2035">
<rect width="50" height="50" fill="white"/>
</clipPath>
</defs>
</svg>
