<svg width="50" height="50" viewBox="0 0 50 50" fill="none" xmlns="http://www.w3.org/2000/svg">
<g id="icon=papua new guinea" clip-path="url(#clip0_105_2202)">
<path id="Vector" d="M42.6778 42.6776C32.9147 52.4407 17.0856 52.4407 7.3223 42.6776C-2.44078 32.9145 -2.44078 17.0853 7.3224 7.32216C17.0855 -2.44092 31.3774 -0.903715 41.1405 8.85947C50.9035 18.6226 52.4408 32.9145 42.6778 42.6776V42.6776Z" fill="black"/>
<path id="Vector_2" d="M7.32239 7.32229C17.0855 -2.4408 32.9145 -2.4406 42.6778 7.32239C52.4408 17.0855 52.4408 32.9146 42.6778 42.6778" fill="#A2001D"/>
<g id="Group">
<path id="Vector_3" d="M19.1057 33.6957L19.5104 34.9413H20.8201L19.7605 35.711L20.1653 36.9566L19.1057 36.1868L18.0461 36.9566L18.4508 35.711L17.3914 34.9413H18.7009L19.1057 33.6957Z" fill="#F0F0F0"/>
<path id="Vector_4" d="M15.7609 21.7391L16.4356 23.8151H18.6182L16.8523 25.098L17.5268 27.174L15.7609 25.8909L13.9951 27.174L14.6697 25.098L12.9037 23.8151H15.0865L15.7609 21.7391Z" fill="#F0F0F0"/>
<path id="Vector_5" d="M15.7609 36.9566L16.4354 39.0326H18.6182L16.8521 40.3154L17.5268 42.3914L15.7609 41.1083L13.9951 42.3914L14.6695 40.3154L12.9037 39.0326H15.0862L15.7609 36.9566Z" fill="#F0F0F0"/>
<path id="Vector_6" d="M22.1428 27.174L22.8175 29.25H25.0001L23.2342 30.5328L23.9087 32.6088L22.1428 31.3257L20.377 32.6088L21.0516 30.5328L19.2856 29.25H21.4684L22.1428 27.174Z" fill="#F0F0F0"/>
<path id="Vector_7" d="M9.37896 27.174L10.0537 29.25H12.2362L10.4704 30.5328L11.1448 32.6088L9.37896 31.3257L7.61304 32.6088L8.28774 30.5328L6.52173 29.25H8.70444L9.37896 27.174Z" fill="#F0F0F0"/>
</g>
<path id="Vector_8" d="M41.8505 18.5118C40.7332 17.3945 39.2814 16.7345 37.7214 16.6211L42.3913 12.989C40.5314 11.1291 38.0387 10.2892 35.6063 10.4668C35.315 9.42031 34.7599 8.43184 33.9369 7.60889L32.0923 11.2981C31.9713 11.0776 31.8181 10.8701 31.6312 10.6833C30.5698 9.62207 28.8493 9.62207 27.7882 10.6833C26.727 11.7445 26.7269 13.465 27.7882 14.5263C27.975 14.7131 28.1826 14.8663 28.4031 14.9874L24.7139 16.832C25.537 17.6553 26.5262 18.2108 27.5732 18.5019C27.395 20.9343 28.2341 23.4267 30.094 25.2866L34.1741 20.0407C34.4811 19.7385 34.8864 19.5716 35.3177 19.5716C35.7532 19.5716 36.1626 19.7411 36.4705 20.0492C36.7785 20.3571 36.9481 20.7666 36.9481 21.202C36.9481 21.6376 36.7785 22.047 36.4705 22.355L38.0078 23.8923C38.7263 23.1737 39.1221 22.2184 39.1221 21.2021C39.1221 20.3707 38.8568 19.5803 38.3672 18.9268C39.0807 19.1173 39.755 19.4905 40.3136 20.0492C42.0089 21.7444 42.0089 24.5028 40.3136 26.1979L41.8509 27.7353C43.0826 26.5034 43.761 24.8657 43.761 23.1236C43.7607 21.3813 43.0822 19.7437 41.8505 18.5118V18.5118Z" fill="#FFDA44"/>
</g>
<defs>
<clipPath id="clip0_105_2202">
<rect width="50" height="50" fill="white"/>
</clipPath>
</defs>
</svg>
