<svg width="50" height="50" viewBox="0 0 50 50" fill="none" xmlns="http://www.w3.org/2000/svg">
<g id="icon=hungary" clip-path="url(#clip0_105_1677)">
<path id="Vector" d="M1.55498 16.3043C0.550098 19.0127 0 21.9419 0 24.9999C0 28.0579 0.550098 30.9873 1.55498 33.6955L25 35.8694L48.445 33.6955C49.4499 30.9873 50 28.0579 50 24.9999C50 21.9419 49.4499 19.0127 48.445 16.3043L25 14.1304L1.55498 16.3043Z" fill="#F0F0F0"/>
<path id="Vector_2" d="M25.0001 0C14.2511 0 5.0874 6.78437 1.55518 16.3044H48.4453C44.9128 6.78437 35.7493 0 25.0001 0V0Z" fill="#D80027"/>
<path id="Vector_3" d="M25.0001 49.9999C35.7493 49.9999 44.9128 43.2156 48.4452 33.6956H1.55518C5.0874 43.2156 14.2511 49.9999 25.0001 49.9999V49.9999Z" fill="#6DA544"/>
</g>
<defs>
<clipPath id="clip0_105_1677">
<rect width="50" height="50" fill="white"/>
</clipPath>
</defs>
</svg>
