<svg width="50" height="50" viewBox="0 0 50 50" fill="none" xmlns="http://www.w3.org/2000/svg">
<g id="icon=ivory coast" clip-path="url(#clip0_105_1729)">
<path id="Vector" d="M24.9999 50C28.0579 50 30.9873 49.45 33.6955 48.445L34.7825 25L33.6956 1.55498C30.9873 0.550098 28.0579 0 24.9999 0C21.9419 0 19.0125 0.550098 16.3043 1.55498L15.2173 25L16.3042 48.445C19.0125 49.45 21.9419 50 24.9999 50Z" fill="#F0F0F0"/>
<path id="Vector_2" d="M0 25.0002C0 35.7493 6.78437 44.9129 16.3044 48.4452V1.55518C6.78437 5.0875 0 14.2511 0 25.0002Z" fill="#FF9811"/>
<path id="Vector_3" d="M33.6956 1.55518V48.4453C43.2156 44.9129 49.9999 35.7493 49.9999 25.0002C49.9999 14.2511 43.2156 5.0875 33.6956 1.55518V1.55518Z" fill="#6DA544"/>
</g>
<defs>
<clipPath id="clip0_105_1729">
<rect width="50" height="50" fill="white"/>
</clipPath>
</defs>
</svg>
