<svg width="50" height="50" viewBox="0 0 50 50" fill="none" xmlns="http://www.w3.org/2000/svg">
<g id="icon=cocos island" clip-path="url(#clip0_105_1252)">
<path id="Vector" d="M25 50C38.8071 50 50 38.8071 50 25C50 11.1929 38.8071 0 25 0C11.1929 0 0 11.1929 0 25C0 38.8071 11.1929 50 25 50Z" fill="#6DA544"/>
<g id="Group">
<path id="Vector_2" d="M38.3775 35.8696L39.0636 37.304L40.6128 36.946L39.919 38.3768L41.1648 39.3647L39.6137 39.7143L39.6181 41.3044L38.3775 40.3096L37.1371 41.3044L37.1414 39.7143L35.5903 39.3647L36.8361 38.3768L36.1424 36.946L37.6915 37.304L38.3775 35.8696Z" fill="#FFDA44"/>
<path id="Vector_3" d="M31.9952 20.6522L32.6813 22.0866L34.2306 21.7285L33.5367 23.1594L34.7825 24.1473L33.2314 24.4969L33.2357 26.0869L31.9952 25.0922L30.7548 26.0869L30.759 24.4969L29.208 24.1473L30.4538 23.1594L29.76 21.7285L31.3093 22.0866L31.9952 20.6522Z" fill="#FFDA44"/>
<path id="Vector_4" d="M38.3774 11.9565L39.0635 13.391L40.6127 13.0328L39.919 14.4637L41.1647 15.4517L39.6136 15.8012L39.6178 17.3913L38.3774 16.3965L37.137 17.3913L37.1413 15.8012L35.5903 15.4517L36.836 14.4637L36.1423 13.0328L37.6914 13.391L38.3774 11.9565Z" fill="#FFDA44"/>
<path id="Vector_5" d="M43.9518 18.4782L44.6378 19.9127L46.1871 19.5546L45.4933 20.9854L46.7391 21.9733L45.188 22.3229L45.1923 23.9131L43.9518 22.9182L42.7113 23.9131L42.7155 22.3229L41.1646 21.9733L42.4104 20.9854L41.7165 19.5546L43.2657 19.9127L43.9518 18.4782Z" fill="#FFDA44"/>
<path id="Vector_6" d="M39.9659 26.0869L40.5057 27.7478H42.2519L40.8391 28.7741L41.3788 30.4348L39.9659 29.4085L38.5533 30.4348L39.0929 28.7741L37.6802 27.7478H39.4264L39.9659 26.0869Z" fill="#FFDA44"/>
<path id="Vector_7" d="M27.7173 32.0653C23.8152 32.0653 20.652 28.902 20.652 25C20.652 21.0981 23.8151 17.9348 27.7173 17.9348C28.9339 17.9348 30.0787 18.2425 31.0781 18.784C29.5103 17.2506 27.3662 16.3043 24.9997 16.3043C20.1974 16.3043 16.3042 20.1975 16.3042 24.9999C16.3042 29.8024 20.1974 33.6955 24.9997 33.6955C27.3661 33.6955 29.5103 32.7492 31.078 31.2158C30.0787 31.7575 28.9339 32.0653 27.7173 32.0653V32.0653Z" fill="#FFDA44"/>
<path id="Vector_8" d="M15.7214 9.78263C14.9694 8.48341 13.5656 7.6087 11.9566 7.6087C10.3477 7.6087 8.94385 8.48341 8.19189 9.78263H15.7214Z" fill="#FFDA44"/>
<path id="Vector_9" d="M15.7358 9.80774L11.9566 13.5869L8.17744 9.80774C7.81621 10.4416 7.60889 11.1747 7.60889 11.9566C7.60889 14.3578 9.55547 16.3044 11.9567 16.3044C14.358 16.3044 16.3046 14.3579 16.3046 11.9566C16.3045 11.1747 16.0971 10.4416 15.7358 9.80774V9.80774Z" fill="#FFDA44"/>
</g>
<path id="Vector_10" d="M10.8696 12.5V16.1674C11.217 16.2567 11.5812 16.3043 11.9565 16.3043C12.3318 16.3043 12.6961 16.2566 13.0435 16.1674V12.5H10.8696Z" fill="#A2001D"/>
</g>
<defs>
<clipPath id="clip0_105_1252">
<rect width="50" height="50" fill="white"/>
</clipPath>
</defs>
</svg>
