<svg width="50" height="50" viewBox="0 0 50 50" fill="none" xmlns="http://www.w3.org/2000/svg">
<g id="icon=slovakia" clip-path="url(#clip0_105_2432)">
<path id="Vector" d="M25 50.001C38.8071 50.001 50 38.8081 50 25.001C50 11.1939 38.8071 0.000976562 25 0.000976562C11.1929 0.000976562 0 11.1939 0 25.001C0 38.8081 11.1929 50.001 25 50.001Z" fill="#F0F0F0"/>
<path id="Vector_2" d="M25 50.001C38.807 50.001 50 38.8081 50 25.001C50 21.943 49.45 19.0136 48.445 16.3054H1.55498C0.550098 19.0136 0 21.943 0 25.001C0 38.8081 11.193 50.001 25 50.001Z" fill="#0052B4"/>
<path id="Vector_3" d="M25 50.0009C35.7491 50.0009 44.9126 43.2166 48.445 33.6965H1.55493C5.08726 43.2166 14.2508 50.0009 25 50.0009Z" fill="#D80027"/>
<path id="Vector_4" d="M6.4646 14.1315V26.6028C6.4646 33.6969 15.7323 35.8706 15.7323 35.8706C15.7323 35.8706 24.9999 33.6969 24.9999 26.6028V14.1315H6.4646Z" fill="#F0F0F0"/>
<path id="Vector_5" d="M8.63855 14.1315V26.6028C8.63855 27.4356 8.82351 28.2221 9.18992 28.9595H22.2746C22.641 28.2222 22.826 27.4356 22.826 26.6028V14.1315H8.63855Z" fill="#D80027"/>
<path id="Vector_6" d="M20.0801 22.8271H16.8194V20.6532H18.9933V18.4792H16.8194V16.3054H14.6455V18.4792H12.4716V20.6532H14.6455V22.8271H11.3845V25.001H14.6455V27.1749H16.8194V25.001H20.0801V22.8271Z" fill="#F0F0F0"/>
<path id="Vector_7" d="M12.1553 31.994C13.5562 32.8744 14.9955 33.3855 15.7323 33.6129C16.4691 33.3856 17.9083 32.8744 19.3092 31.994C20.7219 31.1061 21.7123 30.0907 22.2746 28.9594C21.6543 28.5206 20.8976 28.2618 20.0801 28.2618C19.7825 28.2618 19.4933 28.2971 19.2153 28.3618C18.6261 27.0231 17.2887 26.0879 15.7324 26.0879C14.176 26.0879 12.8385 27.0231 12.2495 28.3618C11.9714 28.2971 11.6822 28.2618 11.3846 28.2618C10.5671 28.2618 9.8104 28.5206 9.19019 28.9594C9.7522 30.0906 10.7425 31.1061 12.1553 31.994Z" fill="#0052B4"/>
</g>
<defs>
<clipPath id="clip0_105_2432">
<rect width="50" height="50" fill="white" transform="translate(0 0.000976562)"/>
</clipPath>
</defs>
</svg>
