<svg width="50" height="50" viewBox="0 0 50 50" fill="none" xmlns="http://www.w3.org/2000/svg">
<g id="icon=dominican republic" clip-path="url(#clip0_105_1407)">
<path id="Vector" d="M25 50C38.8071 50 50 38.8071 50 25C50 11.1929 38.8071 0 25 0C11.1929 0 0 11.1929 0 25C0 38.8071 11.1929 50 25 50Z" fill="#F0F0F0"/>
<path id="Vector_2" d="M0.861206 31.5218C3.1696 40.0865 9.91345 46.8305 18.4783 49.1389V31.5218H0.861206Z" fill="#D80027"/>
<path id="Vector_3" d="M18.4782 0.861237C9.91345 3.16954 3.16951 9.91348 0.861206 18.4782H18.4783V0.861237H18.4782Z" fill="#0052B4"/>
<path id="Vector_4" d="M49.1388 18.4782C46.8305 9.91348 40.0865 3.16954 31.5218 0.861237V18.4783H49.1388V18.4782Z" fill="#D80027"/>
<path id="Vector_5" d="M31.5218 49.1388C40.0865 46.8304 46.8305 40.0865 49.1389 31.5217H31.5218V49.1388Z" fill="#0052B4"/>
<path id="Vector_6" d="M31.5218 25C31.5218 28.602 28.6019 31.5218 25 31.5218C21.3981 31.5218 18.4782 28.602 18.4782 25C18.4782 21.3981 25 18.4782 25 18.4782C25 18.4782 31.5218 21.3981 31.5218 25Z" fill="#496E2D"/>
<path id="Vector_7" d="M18.4782 25C18.4782 21.3981 21.3981 18.4782 25 18.4782C28.6019 18.4782 31.5218 21.3981 31.5218 25" fill="#0052B4"/>
<path id="Vector_8" d="M21.3315 21.7392V25.8152C21.3315 27.8413 22.9739 29.4837 25 29.4837C27.0261 29.4837 28.6685 27.8413 28.6685 25.8152V21.7392H21.3315Z" fill="#D80027"/>
</g>
<defs>
<clipPath id="clip0_105_1407">
<rect width="50" height="50" fill="white"/>
</clipPath>
</defs>
</svg>
