<svg width="50" height="50" viewBox="0 0 50 50" fill="none" xmlns="http://www.w3.org/2000/svg">
<g id="icon=aland islands" clip-path="url(#clip0_105_784)">
<path id="Vector" d="M49.1388 31.5219C49.6992 29.4424 50 27.2566 50 25.0001C50 22.7436 49.6992 20.5578 49.1388 18.4783L22.8261 0.0952148C17.9412 0.516113 13.4585 2.34131 9.78262 5.16563L0.86123 18.4783C0.300781 20.5578 0 22.7436 0 25.0001C0 27.2435 0.297168 29.4172 0.851367 31.4857L9.78252 44.8346C13.4584 47.6589 17.9411 49.4842 22.826 49.905L49.1388 31.5219Z" fill="#FFDA44"/>
<g id="Group">
<path id="Vector_2" d="M0.861328 31.522C2.30781 36.8891 5.4958 41.5408 9.78272 44.8347V31.522H0.861328Z" fill="#0052B4"/>
<path id="Vector_3" d="M22.8262 49.9051C23.5428 49.9668 24.2675 50.0002 25.0001 50.0002C36.5508 50.0002 46.2701 42.1661 49.1389 31.522H22.8262V49.9051Z" fill="#0052B4"/>
<path id="Vector_4" d="M49.1389 18.4782C46.2701 7.83408 36.5508 0 25.0001 0C24.2675 0 23.5428 0.0333984 22.8262 0.0951172V18.4782H49.1389Z" fill="#0052B4"/>
<path id="Vector_5" d="M9.78272 5.16553C5.4958 8.45947 2.30781 13.1111 0.861328 18.4782H9.78272V5.16553Z" fill="#0052B4"/>
</g>
<path id="Vector_6" d="M49.7884 21.7392H19.5653H19.5652V0.594238C17.2549 1.10654 15.0646 1.93691 13.0435 3.03975V21.7391H0.211621C0.0724609 22.8065 0 23.8948 0 25C0 26.1052 0.0724609 27.1935 0.211621 28.2608H13.0434H13.0435V46.9602C15.0646 48.0629 17.2549 48.8935 19.5652 49.4057V28.2611V28.2609H49.7884C49.9273 27.1935 50 26.1052 50 25C50 23.8948 49.9273 22.8065 49.7884 21.7392V21.7392Z" fill="#D80027"/>
</g>
<defs>
<clipPath id="clip0_105_784">
<rect width="50" height="50" fill="white"/>
</clipPath>
</defs>
</svg>
