<svg width="50" height="50" viewBox="0 0 50 50" fill="none" xmlns="http://www.w3.org/2000/svg">
<g id="icon=jordan" clip-path="url(#clip0_105_1747)">
<path id="Vector" d="M25 50.001C38.8071 50.001 50 38.8081 50 25.001C50 11.1939 38.8071 0.000976562 25 0.000976562C11.1929 0.000976562 0 11.1939 0 25.001C0 38.8081 11.1929 50.001 25 50.001Z" fill="#F0F0F0"/>
<path id="Vector_2" d="M15.2174 16.3054H48.4449C44.9127 6.78535 35.749 0.000976562 25 0.000976562C18.0963 0.000976562 11.847 2.79971 7.32315 7.32412L15.2174 16.3054Z" fill="black"/>
<path id="Vector_3" d="M15.2174 33.6968H48.4449C44.9127 43.2168 35.749 50.0012 25 50.0012C18.0963 50.0012 11.847 47.2024 7.32315 42.678L15.2174 33.6968Z" fill="#6DA544"/>
<path id="Vector_4" d="M7.32227 7.32324C-2.44082 17.0863 -2.44082 32.9155 7.32227 42.6787C11.3567 38.6442 15.2369 34.7641 25 25.001L7.32227 7.32324Z" fill="#D80027"/>
<path id="Vector_5" d="M9.92237 19.5664L11.2943 22.4354L14.3929 21.7193L13.0052 24.5808L15.4969 26.5567L12.3946 27.2559L12.4032 30.4359L9.92237 28.4464L7.44141 30.4359L7.4501 27.2559L4.34785 26.5567L6.83946 24.5808L5.45196 21.7193L8.5503 22.4354L9.92237 19.5664Z" fill="#F0F0F0"/>
</g>
<defs>
<clipPath id="clip0_105_1747">
<rect width="50" height="50" fill="white" transform="translate(0 0.000976562)"/>
</clipPath>
</defs>
</svg>
