<svg width="50" height="50" viewBox="0 0 50 50" fill="none" xmlns="http://www.w3.org/2000/svg">
<g id="icon=thailand" clip-path="url(#clip0_105_2607)">
<path id="Vector" d="M25 50.001C38.8071 50.001 50 38.8081 50 25.001C50 11.1939 38.8071 0.000976562 25 0.000976562C11.1929 0.000976562 0 11.1939 0 25.001C0 38.8081 11.1929 50.001 25 50.001Z" fill="#F0F0F0"/>
<path id="Vector_2" d="M48.445 16.3054H1.55498C0.55 19.0137 0 21.943 0 25.001C0 28.059 0.55 30.9883 1.55498 33.6966H48.4451C49.45 30.9883 50 28.059 50 25.001C50 21.943 49.45 19.0137 48.445 16.3054Z" fill="#0052B4"/>
<g id="Group">
<path id="Vector_3" d="M25.0001 0.000976562C17.4229 0.000976562 10.6335 3.37246 6.04883 8.69658H43.9513C39.3667 3.37246 32.5773 0.000976562 25.0001 0.000976562V0.000976562Z" fill="#D80027"/>
<path id="Vector_4" d="M43.9514 41.3054H6.04883C10.6335 46.6295 17.4229 50.001 25.0001 50.001C32.5773 50.001 39.3667 46.6295 43.9514 41.3054Z" fill="#D80027"/>
</g>
</g>
<defs>
<clipPath id="clip0_105_2607">
<rect width="50" height="50" fill="white" transform="translate(0 0.000976562)"/>
</clipPath>
</defs>
</svg>
