<svg width="50" height="50" viewBox="0 0 50 50" fill="none" xmlns="http://www.w3.org/2000/svg">
<g id="icon=mauritius" clip-path="url(#clip0_105_1937)">
<path id="Vector" d="M3.03955 13.0435L24.9998 15.2174L46.9601 13.0435C42.7199 5.27236 34.4759 0 24.9998 0C15.5237 0 7.27969 5.27236 3.03955 13.0435V13.0435Z" fill="#D80027"/>
<path id="Vector_2" d="M3.03975 36.9566L25 39.1306L46.9603 36.9566C48.8981 33.4048 50 29.3312 50 25.0001L25 22.8262L0 25.0001C0 29.3312 1.10186 33.4048 3.03975 36.9566Z" fill="#FFDA44"/>
<path id="Vector_3" d="M3.03975 13.0435C1.10186 16.5953 0 20.6689 0 25H50C50 20.6689 48.8981 16.5953 46.9603 13.0435H25H3.03975Z" fill="#0052B4"/>
<path id="Vector_4" d="M24.9998 50C34.4759 50 42.7199 44.7276 46.9601 36.9565H3.03955C7.27969 44.7276 15.5237 50 24.9998 50Z" fill="#6DA544"/>
</g>
<defs>
<clipPath id="clip0_105_1937">
<rect width="50" height="50" fill="white"/>
</clipPath>
</defs>
</svg>
