<svg width="50" height="50" viewBox="0 0 50 50" fill="none" xmlns="http://www.w3.org/2000/svg">
<g id="icon=azerbaijan" clip-path="url(#clip0_105_886)">
<path id="Vector" d="M50 24.9999C50 21.9419 49.45 19.0125 48.445 16.3043L25 15.2173L1.55498 16.3042C0.550098 19.0125 0 21.9419 0 24.9999C0 28.0579 0.550098 30.9873 1.55498 33.6955L25 34.7825L48.445 33.6956C49.45 30.9873 50 28.0579 50 24.9999Z" fill="#D80027"/>
<path id="Vector_2" d="M25 50.0002C35.7491 50.0002 44.9126 43.2158 48.445 33.6958H1.55493C5.08726 43.2158 14.2508 50.0002 25 50.0002Z" fill="#6DA544"/>
<path id="Vector_3" d="M1.55493 16.3044H48.4451C44.9126 6.78437 35.7491 0 25 0C14.2508 0 5.08726 6.78437 1.55493 16.3044V16.3044Z" fill="#338AF3"/>
<g id="Group">
<path id="Vector_4" d="M25.5434 32.0651C21.6414 32.0651 18.4781 28.9019 18.4781 24.9999C18.4781 21.0979 21.6414 17.9347 25.5434 17.9347C26.76 17.9347 27.9048 18.2423 28.9042 18.7839C27.3362 17.2506 25.1921 16.3042 22.826 16.3042C18.0234 16.3042 14.1304 20.1974 14.1304 24.9998C14.1304 29.8022 18.0235 33.6954 22.826 33.6954C25.1922 33.6954 27.3363 32.749 28.9042 31.2157C27.9048 31.7575 26.76 32.0651 25.5434 32.0651Z" fill="#F0F0F0"/>
<path id="Vector_5" d="M30.9782 20.1084L31.9141 22.7403L34.4369 21.5409L33.2376 24.0638L35.8695 24.9997L33.2376 25.9356L34.4369 28.4585L31.9141 27.2591L30.9782 29.891L30.0425 27.2591L27.5195 28.4585L28.7189 25.9356L26.0869 24.9997L28.7189 24.0638L27.5195 21.5409L30.0425 22.7403L30.9782 20.1084Z" fill="#F0F0F0"/>
</g>
</g>
<defs>
<clipPath id="clip0_105_886">
<rect width="50" height="50" fill="white"/>
</clipPath>
</defs>
</svg>
