<svg width="50" height="50" viewBox="0 0 50 50" fill="none" xmlns="http://www.w3.org/2000/svg">
<g id="icon=laos" clip-path="url(#clip0_105_1806)">
<g id="Group">
<path id="Vector" d="M47.5194 14.1305C43.4756 5.76807 34.9116 0 25 0C15.0885 0 6.52446 5.76807 2.48071 14.1305L25 16.3044L47.5194 14.1305Z" fill="#D80027"/>
<path id="Vector_2" d="M2.48071 35.8697C6.52446 44.2321 15.0885 50.0002 25 50.0002C34.9116 50.0002 43.4756 44.2321 47.5194 35.8697L25 33.6958L2.48071 35.8697Z" fill="#D80027"/>
</g>
<path id="Vector_3" d="M47.5193 14.1304H2.48066C0.891406 17.417 0 21.1043 0 24.9999C0 28.8955 0.891406 32.5828 2.48066 35.8694H47.5192C49.1087 32.5828 50 28.8955 50 24.9999C50 21.1043 49.1087 17.417 47.5193 14.1304V14.1304Z" fill="#0052B4"/>
<path id="Vector_4" d="M25 33.6954C29.8025 33.6954 33.6957 29.8023 33.6957 24.9998C33.6957 20.1974 29.8025 16.3042 25 16.3042C20.1976 16.3042 16.3044 20.1974 16.3044 24.9998C16.3044 29.8023 20.1976 33.6954 25 33.6954Z" fill="#F0F0F0"/>
</g>
<defs>
<clipPath id="clip0_105_1806">
<rect width="50" height="50" fill="white"/>
</clipPath>
</defs>
</svg>
