<svg width="50" height="50" viewBox="0 0 50 50" fill="none" xmlns="http://www.w3.org/2000/svg">
<g id="icon=slovenia" clip-path="url(#clip0_105_2440)">
<path id="Vector" d="M25 50C38.8071 50 50 38.8071 50 25C50 11.1929 38.8071 0 25 0C11.1929 0 0 11.1929 0 25C0 38.8071 11.1929 50 25 50Z" fill="#F0F0F0"/>
<path id="Vector_2" d="M48.445 16.3044H21.7392V9.78259H8.69561V16.3044H1.55498C0.550098 19.0126 0 21.942 0 25C0 28.058 0.550098 30.9873 1.55498 33.6956L25 35.8695L48.445 33.6956C49.4499 30.9873 50 28.058 50 25C50 21.942 49.4499 19.0126 48.445 16.3044Z" fill="#0052B4"/>
<path id="Vector_3" d="M25 49.9999C35.7491 49.9999 44.9126 43.2156 48.445 33.6956H1.55493C5.08726 43.2156 14.2508 49.9999 25 49.9999Z" fill="#D80027"/>
<path id="Vector_4" d="M8.69556 16.3044V18.4783C8.69556 23.4706 15.2173 25.0001 15.2173 25.0001C15.2173 25.0001 21.7391 23.4706 21.7391 18.4783V16.3044L19.5652 18.4784L15.2173 15.2175L10.8695 18.4784L8.69556 16.3044Z" fill="#F0F0F0"/>
</g>
<defs>
<clipPath id="clip0_105_2440">
<rect width="50" height="50" fill="white"/>
</clipPath>
</defs>
</svg>
