<svg width="50" height="51" viewBox="0 0 50 51" fill="none" xmlns="http://www.w3.org/2000/svg">
<g id="icon=ethiopia" clip-path="url(#clip0_105_1461)">
<path id="Vector" d="M0 25.9893C0 29.0475 0.550098 31.9768 1.55508 34.6852L25 36.8588L48.4449 34.6851C49.45 31.9768 50 29.0474 50 25.9893C50 22.9732 49.4657 20.0819 48.4869 17.4048L25 15.1198L1.51309 17.4049C0.534277 20.0819 0 22.9732 0 25.9893H0Z" fill="#FFDA44"/>
<path id="Vector_2" d="M25 50.9892C35.7491 50.9892 44.9126 44.2048 48.445 34.6848H1.55493C5.08726 44.2048 14.2508 50.9892 25 50.9892Z" fill="#D80027"/>
<path id="Vector_3" d="M25 0.989258C14.2508 0.989258 5.08726 7.77363 1.55493 17.2937H48.4451C44.9126 7.77363 35.7491 0.989258 25 0.989258V0.989258Z" fill="#6DA544"/>
<path id="Vector_4" d="M25 37.9458C31.6034 37.9458 36.9565 32.5927 36.9565 25.9893C36.9565 19.3858 31.6034 14.0327 25 14.0327C18.3966 14.0327 13.0435 19.3858 13.0435 25.9893C13.0435 32.5927 18.3966 37.9458 25 37.9458Z" fill="#0052B4"/>
<g id="Group">
<path id="Vector_5" d="M24.9975 16.7306L27.1559 23.3734H34.1517L28.4898 27.4789L30.6652 34.1414L24.9975 30.0163L19.3385 34.1338L21.5051 27.4789L15.8484 23.3734H22.8391L24.9975 16.7306Z" fill="#FFDA44"/>
<path id="Vector_6" d="M33.6059 27.6426L26.7586 25.4176L30.9904 19.5934L29.2318 18.3154L24.9998 24.14L20.7683 18.3155L19.0095 19.5933L23.2411 25.418L16.3942 27.6425L17.0658 29.7102L23.9131 27.4855V34.6849H26.0869V27.4854L32.9339 29.7102L33.6059 27.6426Z" fill="#FFDA44"/>
</g>
</g>
<defs>
<clipPath id="clip0_105_1461">
<rect width="50" height="50" fill="white" transform="translate(0 0.989258)"/>
</clipPath>
</defs>
</svg>
