<svg width="50" height="50" viewBox="0 0 50 50" fill="none" xmlns="http://www.w3.org/2000/svg">
<g id="icon=marshall island" clip-path="url(#clip0_105_1915)">
<path id="Vector" d="M25 50C38.807 50 50 38.807 50 25C50 20.8044 48.9648 16.851 47.1385 13.3789L24.9706 25.0293L36.6211 2.86152C33.149 1.03516 29.1956 0 25 0C11.193 0 0 11.193 0 25C0 31.9036 2.79824 38.1536 7.32227 42.6777C11.8464 47.2019 18.0964 50 25 50Z" fill="#0052B4"/>
<path id="Vector_2" d="M47.112 13.4063C45.9677 11.2281 44.4799 9.18311 42.6484 7.35166C40.8169 5.52021 38.7722 4.03242 36.5938 2.88818L7.29297 42.707L47.112 13.4063Z" fill="#F0F0F0"/>
<path id="Vector_3" d="M7.29297 42.7069L47.112 13.4062C45.9677 11.228 44.4799 9.18301 42.6484 7.35156L7.29297 42.7069Z" fill="#FF9811"/>
<path id="Vector_4" d="M21.7097 14.6604L18.6566 16.0966L20.2825 19.0536L16.967 18.4193L16.5469 21.7686L14.2375 19.3052L11.9282 21.7686L11.5083 18.4193L8.19282 19.0534L9.81851 16.0965L6.76538 14.6604L9.8186 13.2242L8.19282 10.2674L11.5081 10.9015L11.9283 7.55225L14.2375 10.0156L16.5469 7.55225L16.967 10.9015L20.2826 10.2674L18.6567 13.2243L21.7097 14.6604Z" fill="#F0F0F0"/>
</g>
<defs>
<clipPath id="clip0_105_1915">
<rect width="50" height="50" fill="white"/>
</clipPath>
</defs>
</svg>
