<svg width="50" height="50" viewBox="0 0 50 50" fill="none" xmlns="http://www.w3.org/2000/svg">
<g id="icon=st barts" clip-path="url(#clip0_105_2517)">
<path id="Vector" d="M25 50.001C38.8071 50.001 50 38.8081 50 25.001C50 11.1939 38.8071 0.000976562 25 0.000976562C11.1929 0.000976562 0 11.1939 0 25.001C0 38.8081 11.1929 50.001 25 50.001Z" fill="#F0F0F0"/>
<g id="Group">
<path id="Vector_2" d="M44.6375 20.1097H36.4129C36.4129 18.609 35.1963 17.3923 33.6956 17.3923L31.5216 21.7401C31.5216 21.7401 33.8405 28.2619 33.768 28.2619H36.4853C37.9862 28.2619 39.2027 27.0454 39.2027 25.5445C40.7036 25.5445 41.9201 24.328 41.9201 22.8272H41.8296C43.3303 22.8271 44.6375 21.6105 44.6375 20.1097Z" fill="#ACABB1"/>
<path id="Vector_3" d="M5.3623 20.1097H13.5869C13.5869 18.609 14.8035 17.3923 16.3043 17.3923L18.4782 21.7401C18.4782 21.7401 16.1593 28.2619 16.2319 28.2619H13.5145C12.0137 28.2619 10.7971 27.0454 10.7971 25.5445C9.29629 25.5445 8.07977 24.328 8.07977 22.8272H8.17027C6.66943 22.8271 5.3623 21.6105 5.3623 20.1097V20.1097Z" fill="#ACABB1"/>
</g>
<path id="Vector_4" d="M33.6957 34.7834V35.8704H16.3043V34.7834H11.9565V39.1313H16.3043V40.2182H33.6957V39.1313H38.0435V34.7834H33.6957Z" fill="#FFDA44"/>
<path id="Vector_5" d="M16.3043 17.3921V28.2616C16.3043 34.9177 24.9999 36.9573 24.9999 36.9573C24.9999 36.9573 33.6955 34.9177 33.6955 28.2616V17.3921L24.9999 16.3052L16.3043 17.3921Z" fill="#0052B4"/>
<path id="Vector_6" d="M16.3044 21.7405H33.6957V28.2622H16.3044V21.7405Z" fill="#D80027"/>
<path id="Vector_7" d="M29.3477 11.9574V13.5878L28.2608 14.1313L27.1739 13.0443V9.78345H22.8261V13.0443L21.7392 14.1313L20.6521 13.5878V11.9574H16.3043V17.3921H33.6956V11.9574H29.3477Z" fill="#FFDA44"/>
</g>
<defs>
<clipPath id="clip0_105_2517">
<rect width="50" height="50" fill="white" transform="translate(0 0.000976562)"/>
</clipPath>
</defs>
</svg>
