<svg width="50" height="50" viewBox="0 0 50 50" fill="none" xmlns="http://www.w3.org/2000/svg">
<g id="icon=lithuania" clip-path="url(#clip0_105_1856)">
<path id="Vector" d="M48.445 33.6955C49.45 30.9873 50 28.0579 50 24.9999C50 21.9419 49.45 19.0125 48.445 16.3043L25 14.1304L1.55498 16.3043C0.55 19.0125 0 21.9419 0 24.9999C0 28.0579 0.55 30.9873 1.55498 33.6955L25 35.8694L48.445 33.6955Z" fill="#6DA544"/>
<path id="Vector_2" d="M48.445 16.3044C44.9126 6.78437 35.7491 0 25 0C14.2508 0 5.08726 6.78437 1.55493 16.3044H48.445Z" fill="#FFDA44"/>
<path id="Vector_3" d="M25 50.0002C35.7491 50.0002 44.9126 43.2158 48.445 33.6958H1.55493C5.08726 43.2158 14.2508 50.0002 25 50.0002Z" fill="#D80027"/>
</g>
<defs>
<clipPath id="clip0_105_1856">
<rect width="50" height="50" fill="white"/>
</clipPath>
</defs>
</svg>
