<svg width="50" height="50" viewBox="0 0 50 50" fill="none" xmlns="http://www.w3.org/2000/svg">
<g id="icon=Algeria" clip-path="url(#clip0_105_795)">
<path id="Vector" d="M25.0001 0C38.8071 0 50.0001 11.193 50.0001 25C50.0001 38.807 38.8071 50 25.0001 50C25.0001 48.9131 21.7393 25 21.7393 25L25.0001 0Z" fill="#F0F0F0"/>
<path id="Vector_2" d="M25 50C11.193 50 0 38.807 0 25C0 11.193 11.193 0 25 0" fill="#496E2D"/>
<g id="Group">
<path id="Vector_3" d="M30.3717 20.2046L28.3205 23.0313L24.9985 21.9539L27.053 24.7781L25.0021 27.6048L28.3228 26.5236L30.3772 29.3478L30.3751 25.8555L33.6959 24.7742L30.374 23.6971L30.3717 20.2046Z" fill="#D80027"/>
<path id="Vector_4" d="M27.0741 32.0651C23.1722 32.0651 20.0089 28.9019 20.0089 24.9999C20.0089 21.0979 23.1722 17.9347 27.0741 17.9347C28.2907 17.9347 29.4355 18.2423 30.435 18.7839C28.867 17.2506 26.7229 16.3042 24.3567 16.3042C19.5542 16.3042 15.6611 20.1974 15.6611 24.9998C15.6611 29.8022 19.5543 33.6954 24.3567 33.6954C26.7229 33.6954 28.8671 32.749 30.435 31.2157C29.4355 31.7575 28.2907 32.0651 27.0741 32.0651Z" fill="#D80027"/>
</g>
</g>
<defs>
<clipPath id="clip0_105_795">
<rect width="50" height="50" fill="white"/>
</clipPath>
</defs>
</svg>
