<svg width="50" height="50" viewBox="0 0 50 50" fill="none" xmlns="http://www.w3.org/2000/svg">
<g id="icon=bhutan" clip-path="url(#clip0_105_992)">
<path id="Vector" d="M42.6776 42.6777C32.9145 52.4407 17.0854 52.4407 7.32225 42.6777C-2.44083 32.9146 -2.44083 17.0854 7.32225 7.32219C7.32577 7.32219 29.7889 0.68479 39.552 10.4479C49.3152 20.211 42.6844 42.6708 42.6776 42.6777Z" fill="#FFDA44"/>
<path id="Vector_2" d="M42.6776 42.6778C52.4407 32.9147 52.4407 17.0855 42.6776 7.32235C32.9146 -2.44083 17.0854 -2.44073 7.32227 7.32235L42.6776 42.6778Z" fill="#D80027"/>
<path id="Vector_3" d="M31.5348 31.5373C30.5078 31.9406 29.3145 31.8978 28.2793 31.3168C26.4502 30.2903 25.7973 27.9666 26.8241 26.1373L26.5124 25.9625C29.6443 25.2073 31.9614 22.3645 31.9208 19.0098C31.8956 16.9242 30.9637 15.0583 29.5059 13.7815L27.2234 16.12C28.0863 16.8077 28.6458 17.8625 28.6601 19.0494C28.6855 21.147 26.9998 22.8743 24.9022 22.8996L24.9066 23.2567C22.6866 20.9221 19.0663 20.3369 16.1814 22.0494C14.3879 23.1142 13.2381 24.8541 12.861 26.7549L16.0274 27.5625C16.1916 26.4713 16.8253 25.4594 17.8459 24.8535C19.6497 23.7827 21.9884 24.3792 23.0592 26.1829L23.3666 26.0005C22.4547 29.0902 23.7579 32.5182 26.6836 34.1604C28.5025 35.1813 30.5842 35.3072 32.4189 34.6833L31.5348 31.5373ZM24.9285 25.073L24.9283 25.0731L24.9285 25.073Z" fill="#FF9811"/>
<path id="Vector_4" d="M34.2564 16.9318L32.4894 23.2375L27.1877 22.2585L23.775 15.2239L14.5555 18.4955L13.8285 16.4466L11.4164 16.1495L13.2339 21.2714L19.5785 19.6488L21.3815 24.7297L16.9956 31.2025L24.4386 37.5507L23.0278 39.2047L23.9765 41.4425L27.5037 37.3074L22.9261 32.6241L26.4249 28.5222L34.2235 29.0841L35.9998 19.464L38.1376 19.8588L39.6013 17.9184L34.2564 16.9318ZM24.9981 25.1702V25.1704V25.1702Z" fill="#FFEACF"/>
</g>
<defs>
<clipPath id="clip0_105_992">
<rect width="50" height="50" fill="white"/>
</clipPath>
</defs>
</svg>
