<svg width="50" height="50" viewBox="0 0 50 50" fill="none" xmlns="http://www.w3.org/2000/svg">
<g id="icon=malaysia" clip-path="url(#clip0_105_1892)">
<path id="Vector" d="M25 50C38.8071 50 50 38.8071 50 25C50 11.1929 38.8071 0 25 0C11.1929 0 0 11.1929 0 25C0 38.8071 11.1929 50 25 50Z" fill="#F0F0F0"/>
<g id="Group">
<path id="Vector_2" d="M23.9131 24.9998H50C50 22.7433 49.6992 20.5575 49.1388 18.478H23.9131V24.9998Z" fill="#D80027"/>
<path id="Vector_3" d="M23.9131 11.9563H46.3307C44.8003 9.45908 42.8438 7.25176 40.5622 5.43457H23.9131V11.9563Z" fill="#D80027"/>
<path id="Vector_4" d="M24.9997 49.9997C30.8834 49.9997 36.2913 47.9661 40.5619 44.5649H9.4375C13.7081 47.9661 19.116 49.9997 24.9997 49.9997V49.9997Z" fill="#D80027"/>
<path id="Vector_5" d="M3.66943 38.0433H46.3308C47.5594 36.0386 48.5121 33.8471 49.1389 31.5215H0.861328C1.48799 33.8471 2.44082 36.0386 3.66943 38.0433V38.0433Z" fill="#D80027"/>
</g>
<path id="Vector_6" d="M25 25C25 11.193 25 9.56523 25 0C11.193 0 0 11.193 0 25H25Z" fill="#0052B4"/>
<g id="Group_2">
<path id="Vector_7" d="M16.6241 21.3995C13.2099 21.3995 10.4421 18.6316 10.4421 15.2175C10.4421 11.8033 13.21 9.03545 16.6241 9.03545C17.6887 9.03545 18.6903 9.30469 19.5648 9.77852C18.193 8.43701 16.3168 7.60889 14.2464 7.60889C10.0443 7.60889 6.6377 11.0154 6.6377 15.2176C6.6377 19.4197 10.0443 22.8263 14.2464 22.8263C16.3168 22.8263 18.193 21.9981 19.5648 20.6566C18.6903 21.1303 17.6888 21.3995 16.6241 21.3995V21.3995Z" fill="#FFDA44"/>
<path id="Vector_8" d="M18.366 10.8696L19.4636 13.1647L21.9422 12.5921L20.8322 14.8811L22.8256 16.4618L20.3438 17.0213L20.3507 19.5653L18.366 17.9737L16.3812 19.5653L16.3881 17.0213L13.9062 16.4618L15.8996 14.8811L14.7896 12.5921L17.2684 13.1647L18.366 10.8696Z" fill="#FFDA44"/>
</g>
</g>
<defs>
<clipPath id="clip0_105_1892">
<rect width="50" height="50" fill="white"/>
</clipPath>
</defs>
</svg>
