<svg width="50" height="50" viewBox="0 0 50 50" fill="none" xmlns="http://www.w3.org/2000/svg">
<g id="icon=antigua and barbuda" clip-path="url(#clip0_105_839)">
<path id="Vector" d="M0 24.9998C0 26.7122 0.172656 28.3843 0.500684 29.9998L25 31.5216L49.4994 29.9998C49.8275 28.3843 50 26.7122 50 24.9998C50 23.2874 49.8273 21.6153 49.4994 19.9998L25 18.478L0.500684 19.9998C0.172656 21.6153 0 23.2874 0 24.9998H0Z" fill="#0052B4"/>
<path id="Vector_2" d="M49.4994 30H0.500687C2.817 41.4111 12.9054 50 25 50C37.0946 50 47.183 41.4111 49.4994 30Z" fill="#F0F0F0"/>
<path id="Vector_3" d="M0.500687 20H49.4995C47.183 8.58887 37.0948 0 25 0C12.9052 0 2.817 8.58887 0.500687 20V20Z" fill="black"/>
<path id="Vector_4" d="M35.8695 19.9998H14.1305L18.5719 17.9105L16.2067 13.6093L21.0295 14.5316L21.6408 9.65967L25 13.2431L28.3594 9.65967L28.9703 14.5316L33.7933 13.6093L31.4283 17.9107L35.8695 19.9998Z" fill="#FFDA44"/>
<g id="Group">
<path id="Vector_5" d="M0 24.9999C0 38.8069 11.193 49.9999 25 49.9999L4.99961 9.99902C1.86055 14.1776 0 19.3713 0 24.9999Z" fill="#A2001D"/>
<path id="Vector_6" d="M25 49.9999C38.807 49.9999 50 38.8069 50 24.9999C50 19.3713 48.1395 14.1776 45.0004 9.99902L25 49.9999Z" fill="#A2001D"/>
</g>
</g>
<defs>
<clipPath id="clip0_105_839">
<rect width="50" height="50" fill="white"/>
</clipPath>
</defs>
</svg>
