<svg width="50" height="50" viewBox="0 0 50 50" fill="none" xmlns="http://www.w3.org/2000/svg">
<g id="icon=northern marianas islands" clip-path="url(#clip0_105_2146)">
<path id="Vector" d="M25 50C38.8071 50 50 38.8071 50 25C50 11.1929 38.8071 0 25 0C11.1929 0 0 11.1929 0 25C0 38.8071 11.1929 50 25 50Z" fill="#338AF3"/>
<path id="Vector_2" d="M24.212 40.7412C23.538 40.7086 22.9804 40.2706 22.762 39.676C22.3761 40.1792 21.713 40.4325 21.0598 40.2641C20.4054 40.0956 19.9479 39.5543 19.8533 38.926C19.3728 39.3411 18.6728 39.4541 18.0674 39.1575C17.4609 38.8597 17.1218 38.2367 17.1566 37.603C16.6034 37.9139 15.8947 37.8835 15.361 37.4704C14.8284 37.0573 14.6208 36.3802 14.7816 35.766C14.1772 35.9595 13.4903 35.7878 13.05 35.2758C12.6098 34.7649 12.5423 34.0595 12.8229 33.491C12.1924 33.5583 11.5534 33.2519 11.225 32.6628C10.8957 32.0736 10.9718 31.3683 11.362 30.867C10.7304 30.8062 10.1652 30.3768 9.96304 29.7333C9.75981 29.0898 9.9772 28.4138 10.4609 28.0018C9.85434 27.8147 9.38911 27.2799 9.32065 26.6094C9.2522 25.9388 9.60005 25.3225 10.1554 25.0159C9.59995 24.7115 9.24995 24.0953 9.31626 23.4257H9.31733C9.38364 22.7539 9.84888 22.2182 10.4542 22.0289C9.97056 21.6181 9.75102 20.9431 9.9521 20.2995C10.1532 19.655 10.7172 19.2245 11.3489 19.1614C10.9586 18.6614 10.8804 17.9559 11.2076 17.3658C11.5347 16.7767 12.1739 16.469 12.8054 16.5354C12.5228 15.9669 12.5891 15.2614 13.0283 14.7484C13.4664 14.2365 14.1533 14.0637 14.7587 14.255C14.5957 13.6419 14.8022 12.9637 15.3348 12.5496C15.8664 12.1354 16.575 12.1038 17.1283 12.4125C17.0924 11.7789 17.4304 11.156 18.0359 10.857C18.6403 10.5592 19.3414 10.6701 19.8228 11.0853C19.9152 10.4571 20.3728 9.91368 21.026 9.74395C21.6782 9.57442 22.3413 9.82549 22.7282 10.3276C22.9466 9.73311 23.5032 9.29395 24.1771 9.26026C24.8499 9.22559 25.4477 9.60371 25.726 10.1724C26.0586 9.63321 26.6913 9.31368 27.3576 9.41475C28.0249 9.51475 28.537 10.006 28.6957 10.6202C29.1304 10.157 29.8152 9.97344 30.4478 10.206C31.0815 10.4397 31.4836 11.0244 31.5141 11.6592C32.0326 11.294 32.7413 11.2516 33.3141 11.6081C33.887 11.9636 34.162 12.6168 34.0641 13.2439C34.6457 12.9907 35.3478 13.0918 35.837 13.5548C36.3261 14.0189 36.4652 14.7135 36.2435 15.308C36.8641 15.1765 37.5316 15.4156 37.9185 15.9689C38.3054 16.521 38.3022 17.2297 37.9664 17.7678C38.6 17.7634 39.2055 18.133 39.474 18.7515C39.7414 19.371 39.5946 20.0656 39.1566 20.5254C39.7794 20.6493 40.2979 21.133 40.4348 21.7939C40.5707 22.4547 40.287 23.1036 39.7664 23.4656C40.349 23.7125 40.7598 24.2896 40.7609 24.9635V24.9853V24.9994C40.7609 25.6732 40.3522 26.2516 39.7696 26.5005C40.2914 26.8604 40.5772 27.5092 40.4414 28.17C40.3066 28.8309 39.7892 29.3157 39.1664 29.4418C39.6055 29.9005 39.7544 30.5939 39.4881 31.2147C39.2218 31.8342 38.6164 32.2049 37.9816 32.2016C38.3185 32.7397 38.324 33.4483 37.9381 34.0016C37.5523 34.555 36.886 34.7962 36.2653 34.6657C36.4881 35.2592 36.35 35.9549 35.8621 36.4201C35.3729 36.8844 34.6718 36.9864 34.0903 36.7354C34.1892 37.3614 33.9153 38.0158 33.3435 38.3734C32.7717 38.7311 32.063 38.6897 31.5435 38.3256C31.5141 38.9604 31.1141 39.5463 30.4816 39.7811C29.8491 40.0158 30.4816 39.7811 30.4805 39.7811C29.8479 40.0148 29.1631 39.8322 28.7273 39.3703C28.5707 39.9856 28.0599 40.4778 27.3925 40.5801C26.7262 40.6812 26.0925 40.3638 25.7588 39.8246C25.4936 40.3714 24.9328 40.7431 24.2936 40.7431C24.2664 40.7435 24.2392 40.7424 24.212 40.7412V40.7412Z" fill="#F3F3F3"/>
<path id="Vector_3" d="M25 35.8696C31.0031 35.8696 35.8696 31.0031 35.8696 25C35.8696 18.9969 31.0031 14.1305 25 14.1305C18.9969 14.1305 14.1305 18.9969 14.1305 25C14.1305 31.0031 18.9969 35.8696 25 35.8696Z" fill="#338AF3"/>
<path id="Vector_4" d="M27.3792 21.3105C27.9132 20.9144 28.2608 20.2813 28.2608 19.5653V18.4784C28.2608 17.2777 27.2876 16.3044 26.0869 16.3044H23.9131C22.7124 16.3044 21.7391 17.2777 21.7391 18.4784V19.5653C21.7391 20.2813 22.0868 20.9144 22.6208 21.3105L20.6522 41.3043C20.6522 41.3043 21.7391 42.3915 25.0001 42.3915C28.261 42.3915 29.3479 41.3043 29.3479 41.3043L27.3792 21.3105Z" fill="#BDBCC1"/>
<path id="Vector_5" d="M25 16.3044L26.8884 22.1167H33.0002L28.0559 25.7093L29.9443 31.5218L25 27.9295L20.0554 31.5218L21.9442 25.7093L16.9998 22.1167H23.1114L25 16.3044Z" fill="#F0F0F0"/>
</g>
<defs>
<clipPath id="clip0_105_2146">
<rect width="50" height="50" fill="white"/>
</clipPath>
</defs>
</svg>
