<svg width="50" height="50" viewBox="0 0 50 50" fill="none" xmlns="http://www.w3.org/2000/svg">
<g id="icon=tuvalu" clip-path="url(#clip0_105_2714)">
<path id="Vector" d="M50 25C50 38.807 38.807 50 25.0001 50C11.193 50 0 38.807 0 25C0 25.006 25.0001 0.00273438 25.0001 0C38.807 0 50 11.193 50 25Z" fill="#338AF3"/>
<g id="Group">
<path id="Vector_2" d="M11.9565 24.9998H20.3884L13.0435 16.3042L11.9565 19.565V24.9998Z" fill="#0052B4"/>
<path id="Vector_3" d="M24.9999 20.3885L16.3042 11.9565H24.9998L24.9999 20.3885Z" fill="#0052B4"/>
</g>
<g id="Group_2">
<path id="Vector_4" d="M24.9331 25H25C25 24.9775 25 24.9557 25 24.9331C24.9777 24.9555 24.9555 24.9777 24.9331 25Z" fill="#F0F0F0"/>
<path id="Vector_5" d="M25.0001 13.0435C25.0001 8.64453 25.0001 5.76211 25.0001 0H24.9959C11.1906 0.00234375 0 11.1942 0 25H13.0436V17.6552L20.3884 25H24.9333C24.9556 24.9777 24.9778 24.9555 25.0002 24.9331C25.0002 23.2488 25.0002 21.746 25.0002 20.3885L17.6551 13.0435H25.0001Z" fill="#F0F0F0"/>
</g>
<g id="Group_3">
<path id="Vector_6" d="M12.6479 3.26074C8.73779 5.48721 5.48721 8.73779 3.26074 12.6479V24.9999H9.78252V9.78272V9.78252H24.9999C24.9999 7.72559 24.9999 5.76602 24.9999 3.26074H12.6479Z" fill="#D80027"/>
<path id="Vector_7" d="M25 21.9256L16.1177 13.0435H13.0435V13.0437L24.9998 24.9999H25C25 24.9999 25 22.8801 25 21.9256V21.9256Z" fill="#D80027"/>
</g>
<g id="Group_4">
<path id="Vector_8" d="M27.2857 41.3042L27.8254 42.9649H29.5716L28.159 43.9913L28.6986 45.652L27.2857 44.6257L25.8731 45.652L26.4128 43.9913L25 42.9649H26.7461L27.2857 41.3042Z" fill="#FFDA44"/>
<path id="Vector_9" d="M41.1926 30.4346L41.7321 32.0953H43.4783L42.0657 33.1218L42.6055 34.7824L41.1926 33.7562L39.78 34.7824L40.3196 33.1218L38.9067 32.0953H40.6529L41.1926 30.4346Z" fill="#FFDA44"/>
<path id="Vector_10" d="M44.6769 14.1304L45.2165 15.7911H46.9627L45.5501 16.8175L46.0896 18.4781L44.6769 17.4519L43.2643 18.4781L43.8039 16.8175L42.3911 15.7911H44.1373L44.6769 14.1304Z" fill="#FFDA44"/>
<path id="Vector_11" d="M45.5402 26.0869L46.0798 27.7478H47.826L46.4134 28.7741L46.953 30.4348L45.5402 29.4085L44.1276 30.4348L44.6673 28.7741L43.2544 27.7478H45.0006L45.5402 26.0869Z" fill="#FFDA44"/>
<path id="Vector_12" d="M29.7895 37.3983L31.3456 38.1912L32.5803 36.9565L32.3072 38.6811L33.863 39.4738L32.1382 39.7471L31.865 41.4718L31.0725 39.9158L29.3477 40.1892L30.5823 38.9545L29.7895 37.3983Z" fill="#FFDA44"/>
<path id="Vector_13" d="M29.7895 30.8765L31.3456 31.6692L32.5803 30.4346L32.3072 32.1592L33.863 32.9519L32.1382 33.2251L31.865 34.9498L31.0725 33.3939L29.3477 33.6672L30.5823 32.4325L29.7895 30.8765Z" fill="#FFDA44"/>
<path id="Vector_14" d="M35.2245 35.057L36.7807 35.8499L38.0153 34.6152L37.7423 36.3397L39.298 37.1325L37.5732 37.4058L37.3001 39.1305L36.5075 37.5744L34.7827 37.8479L36.0174 36.6132L35.2245 35.057Z" fill="#FFDA44"/>
<path id="Vector_15" d="M35.2245 21.0938L36.7807 21.8865L38.0153 20.6519L37.7423 22.3765L39.298 23.1691L37.5732 23.4424L37.3001 25.1671L36.5075 23.6112L34.7827 23.8845L36.0174 22.6498L35.2245 21.0938Z" fill="#FFDA44"/>
<path id="Vector_16" d="M40.4916 20.9268L42.0478 21.7195L43.2824 20.4849L43.0093 22.2095L44.5651 23.0021L42.8403 23.2754L42.5672 25.0001L41.7746 23.4442L40.0498 23.7175L41.2845 22.4828L40.4916 20.9268Z" fill="#FFDA44"/>
</g>
</g>
<defs>
<clipPath id="clip0_105_2714">
<rect width="50" height="50" fill="white"/>
</clipPath>
</defs>
</svg>
