<svg width="50" height="50" viewBox="0 0 50 50" fill="none" xmlns="http://www.w3.org/2000/svg">
<g id="icon=mozambique" clip-path="url(#clip0_105_2021)">
<path id="Vector" d="M25 50C38.8071 50 50 38.8071 50 25C50 11.1929 38.8071 0 25 0C11.1929 0 0 11.1929 0 25C0 38.8071 11.1929 50 25 50Z" fill="#F0F0F0"/>
<path id="Vector_2" d="M13.5129 34.7827L7.32324 42.677C11.8471 47.2014 18.0964 50.0001 25.0001 50.0001C35.3351 50.0001 44.2036 43.7277 48.0109 34.7827H13.5129Z" fill="#FFDA44"/>
<path id="Vector_3" d="M48.0498 15.3079C44.2638 6.31465 35.37 0 25.0001 0C18.0964 0 11.8471 2.79873 7.32324 7.32314L13.584 15.3079H48.0498Z" fill="#496E2D"/>
<path id="Vector_4" d="M5.43457 18.3877V31.5217H49.1387C49.6994 29.4425 49.9998 27.2565 49.9998 25C49.9998 22.7107 49.6914 20.4939 49.1149 18.3877H5.43457Z" fill="black"/>
<path id="Vector_5" d="M7.32231 7.32227C-2.44077 17.0854 -2.44077 32.9145 7.32231 42.6777C11.3568 38.6433 15.237 34.7631 25 25L7.32231 7.32227Z" fill="#A2001D"/>
<path id="Vector_6" d="M10.1181 18.4783L11.7367 23.4603H16.9756L12.7375 26.5396L14.3561 31.5218L10.1181 28.4426L5.87988 31.5218L7.49883 26.5396L3.26074 23.4603H8.49922L10.1181 18.4783Z" fill="#FFDA44"/>
<path id="Vector_7" d="M5.38135 25H14.8563V29.3479H5.38135V25Z" fill="#F0F0F0"/>
<path id="Vector_8" d="M16.6502 20.0156L15.113 18.4783L10.1181 23.4732L5.12314 18.4783L3.58594 20.0156L8.58525 25.006L3.58594 30.0054L5.12314 31.5218L10.1181 26.5359L15.113 31.5218L16.6502 30.0054L11.6509 25.006L16.6502 20.0156Z" fill="black"/>
</g>
<defs>
<clipPath id="clip0_105_2021">
<rect width="50" height="50" fill="white"/>
</clipPath>
</defs>
</svg>
