<svg width="50" height="50" viewBox="0 0 50 50" fill="none" xmlns="http://www.w3.org/2000/svg">
<g id="icon=cook islands" clip-path="url(#clip0_105_1280)">
<path id="Vector" d="M50 25C50 38.807 38.807 50 25 50C11.193 50 0 38.807 0 25C0 25.006 25 0.00273438 25 0C38.807 0 50 11.193 50 25Z" fill="#0052B4"/>
<g id="Group">
<path id="Vector_2" d="M24.9331 25H25C25 24.9775 25 24.9557 25 24.9331C24.9777 24.9555 24.9555 24.9777 24.9331 25Z" fill="#F0F0F0"/>
<path id="Vector_3" d="M25 13.0435C25 8.64453 25 5.76221 25 0H24.9958C11.1905 0.00234375 0 11.1942 0 25H13.0435V17.6552L20.3883 25H24.9332C24.9555 24.9777 24.9777 24.9555 25.0001 24.9331C25.0001 23.2488 25.0001 21.746 25.0001 20.3885L17.6551 13.0435H25Z" fill="#F0F0F0"/>
</g>
<g id="Group_2">
<path id="Vector_4" d="M12.6479 3.26086C8.73779 5.48733 5.48711 8.73791 3.26074 12.648V25H9.78252V9.78284V9.78264H24.9999C24.9999 7.72571 24.9999 5.76614 24.9999 3.26086H12.6479Z" fill="#D80027"/>
<path id="Vector_5" d="M25 21.9257L16.1177 13.0436H13.0435V13.0438L24.9998 25H25C25 25 25 22.8802 25 21.9257V21.9257Z" fill="#D80027"/>
</g>
<g id="Group_3">
<path id="Vector_6" d="M33.6957 25L34.1584 26.4234H35.6549L34.4442 27.3031L34.9067 28.7267L33.6957 27.8469L32.4848 28.7267L32.9473 27.3031L31.7366 26.4234H33.2332L33.6957 25Z" fill="#F0F0F0"/>
<path id="Vector_7" d="M27.5469 27.547L28.8804 28.2264L29.9388 27.1681L29.7046 28.6464L31.0382 29.3259L29.5599 29.5599L29.3258 31.0384L28.6462 29.7047L27.168 29.9389L28.2265 28.8806L27.5469 27.547Z" fill="#F0F0F0"/>
<path id="Vector_8" d="M25 33.6956L26.4234 33.2331L26.4236 31.7366L27.3031 32.9473L28.7267 32.4847L27.8469 33.6956L28.7267 34.9067L27.3031 34.4442L26.4236 35.6549V34.1583L25 33.6956Z" fill="#F0F0F0"/>
<path id="Vector_9" d="M27.5469 39.8443L28.2263 38.5107L27.168 37.4525L28.6463 37.6866L29.3258 36.353L29.5599 37.8313L31.0382 38.0653L29.7046 38.7449L29.9388 40.2233L28.8804 39.1647L27.5469 39.8443Z" fill="#F0F0F0"/>
<path id="Vector_10" d="M33.6955 42.3913L33.233 40.9678H31.7363L32.9472 40.0881L32.4847 38.6647L33.6955 39.5444L34.9065 38.6647L34.444 40.0881L35.6548 40.9678H34.1582L33.6955 42.3913Z" fill="#F0F0F0"/>
<path id="Vector_11" d="M39.8443 39.8443L38.5107 39.165L37.4525 40.2233L37.6866 38.7449L36.353 38.0655L37.8313 37.8313L38.0655 36.353L38.7449 37.6866L40.2232 37.4525L39.1647 38.5108L39.8443 39.8443Z" fill="#F0F0F0"/>
<path id="Vector_12" d="M42.3912 33.6956L40.9677 34.1583V35.6549L40.088 34.4441L38.6646 34.9067L39.5443 33.6956L38.6646 32.4847L40.088 32.9473L40.9677 31.7366V33.2331L42.3912 33.6956Z" fill="#F0F0F0"/>
<path id="Vector_13" d="M39.8443 27.5471L39.165 28.8806L40.2232 29.9389L38.7449 29.7047L38.0655 31.0384L37.8313 29.5599L36.353 29.3258L37.6866 28.6464L37.4525 27.1682L38.5108 28.2264L39.8443 27.5471Z" fill="#F0F0F0"/>
</g>
</g>
<defs>
<clipPath id="clip0_105_1280">
<rect width="50" height="50" fill="white"/>
</clipPath>
</defs>
</svg>
