<svg width="51" height="50" viewBox="0 0 51 50" fill="none" xmlns="http://www.w3.org/2000/svg">
<g id="icon=niue" clip-path="url(#clip0_105_2108)">
<path id="Vector" d="M50.9883 25C50.9883 38.807 39.7953 50 25.9883 50C12.1812 50 0.988281 38.807 0.988281 25C0.988281 25.006 25.9883 0.00273438 25.9883 0C39.7953 0 50.9883 11.193 50.9883 25Z" fill="#FFDA44"/>
<g id="Group">
<path id="Vector_2" d="M25.9881 11.9565V20.3885L17.2925 11.9565H25.9881Z" fill="#0052B4"/>
<path id="Vector_3" d="M14.0317 24.9999H21.3766L14.0317 15.2173L12.9448 22.826L14.0317 24.9999Z" fill="#0052B4"/>
</g>
<g id="Group_2">
<path id="Vector_4" d="M25.9214 25H25.9883C25.9883 24.9775 25.9883 24.9557 25.9883 24.9331C25.966 24.9555 25.9438 24.9777 25.9214 25Z" fill="#F0F0F0"/>
<path id="Vector_5" d="M25.9883 13.0435C25.9883 8.64453 25.9883 5.76221 25.9883 0H25.9841C12.1788 0.00234375 0.988281 11.1942 0.988281 25H14.0317V17.6552L21.3766 25H25.9215C25.9437 24.9777 25.966 24.9555 25.9884 24.9331C25.9884 23.2488 25.9884 21.746 25.9884 20.3885L18.6434 13.0435H25.9883Z" fill="#F0F0F0"/>
</g>
<g id="Group_3">
<path id="Vector_6" d="M25.9883 21.9256L17.106 13.0435H14.0317V13.0437L25.9881 24.9999H25.9883C25.9883 24.9999 25.9883 22.8801 25.9883 21.9256V21.9256Z" fill="#D80027"/>
<path id="Vector_7" d="M13.6361 3.26074C12.6724 3.80957 11.749 4.42119 10.8709 5.08887H11.8967L9.18555 7.05898L10.2209 10.2462L7.50977 8.27646L7.22129 8.48613C6.09561 9.76445 5.09756 11.1578 4.24902 12.6479V24.9999H10.7708V9.78272V9.78252H25.9882C25.9882 7.72559 25.9882 5.76602 25.9882 3.26074H13.6361Z" fill="#D80027"/>
</g>
<path id="Vector_8" d="M11.6679 4.50708C11.3982 4.69585 11.1324 4.88989 10.8706 5.08901L9.18555 7.05913L7.50977 8.27651L7.21885 8.48784C6.60498 9.18511 6.0293 9.91675 5.49512 10.6797C6.104 10.9752 6.7875 11.1414 7.50977 11.1414C10.0611 11.1414 12.1293 9.07319 12.1293 6.52183C12.1295 5.79936 11.9635 5.11606 11.6679 4.50708V4.50708Z" fill="#0052B4"/>
<g id="Group_4">
<path id="Vector_9" d="M7.21875 8.48794L7.50967 8.27661L10.2208 10.2464L9.18535 7.05923L11.8963 5.08911H10.8703C9.54277 6.09878 8.31943 7.23784 7.21875 8.48794V8.48794Z" fill="#FFDA44"/>
<path id="Vector_10" d="M18.2679 4.3479L18.8075 6.00855H20.5536L19.141 7.03501L19.6804 8.69565L18.2679 7.66929L16.8553 8.69565L17.3945 7.03501L15.9819 6.00855H17.7281L18.2679 4.3479Z" fill="#FFDA44"/>
<path id="Vector_11" d="M7.50996 15.2175L8.04961 16.8782H9.7957L8.3832 17.9047L8.92256 19.5654L7.50996 18.5389L6.09727 19.5654L6.63662 17.9047L5.22412 16.8782H6.97021L7.50996 15.2175Z" fill="#FFDA44"/>
</g>
</g>
<defs>
<clipPath id="clip0_105_2108">
<rect width="50" height="50" fill="white" transform="translate(0.988281)"/>
</clipPath>
</defs>
</svg>
