<svg width="50" height="50" viewBox="0 0 50 50" fill="none" xmlns="http://www.w3.org/2000/svg">
<g id="icon=montserrat" clip-path="url(#clip0_105_2006)">
<path id="Vector" d="M50 25C50 38.807 38.807 50 25 50C11.193 50 0 38.807 0 25C0 25.006 25 0.00273438 25 0C38.807 0 50 11.193 50 25Z" fill="#0052B4"/>
<g id="Group">
<path id="Vector_2" d="M24.9331 25H25C25 24.9775 25 24.9557 25 24.9331C24.9777 24.9555 24.9555 24.9777 24.9331 25Z" fill="#F0F0F0"/>
<path id="Vector_3" d="M25 13.0435C25 8.64453 25 5.76221 25 0H24.9958C11.1905 0.00234375 0 11.1942 0 25H13.0435V17.6552L20.3883 25H24.9332C24.9555 24.9777 24.9777 24.9555 25.0001 24.9331C25.0001 23.2488 25.0001 21.746 25.0001 20.3885L17.6551 13.0435H25Z" fill="#F0F0F0"/>
</g>
<g id="Group_2">
<path id="Vector_4" d="M12.6479 3.26074C8.73779 5.48721 5.48711 8.73779 3.26074 12.6479V24.9999H9.78252V9.78272V9.78252H24.9999C24.9999 7.72559 24.9999 5.76602 24.9999 3.26074H12.6479Z" fill="#D80027"/>
<path id="Vector_5" d="M25 21.9256L16.1177 13.0435H13.0435V13.0437L24.9998 24.9999H25C25 24.9999 25 22.8801 25 21.9256V21.9256Z" fill="#D80027"/>
</g>
<path id="Vector_6" d="M28.2607 13.0435V24.9999C28.2607 30.8241 35.8694 32.6087 35.8694 32.6087C35.8694 32.6087 43.4781 30.8241 43.4781 24.9999V13.0435H28.2607Z" fill="#338AF3"/>
<path id="Vector_7" d="M28.2607 25C28.2607 30.8242 35.8694 32.6088 35.8694 32.6088C35.8694 32.6088 43.4781 30.8242 43.4781 25H28.2607Z" fill="#A2001D"/>
<path id="Vector_8" d="M39.1307 18.4785H36.9566V16.3044H34.7827V18.4785H32.6089V20.6523H34.7827V27.174H36.9566V20.6523H39.1307V18.4785Z" fill="black"/>
</g>
<defs>
<clipPath id="clip0_105_2006">
<rect width="50" height="50" fill="white"/>
</clipPath>
</defs>
</svg>
