<svg width="50" height="50" viewBox="0 0 50 50" fill="none" xmlns="http://www.w3.org/2000/svg">
<g id="icon=basque country" clip-path="url(#clip0_105_934)">
<path id="Vector" d="M25 50C38.8071 50 50 38.8071 50 25C50 11.1929 38.8071 0 25 0C11.1929 0 0 11.1929 0 25C0 38.8071 11.1929 50 25 50Z" fill="#F0F0F0"/>
<g id="Group">
<path id="Vector_2" d="M0.211914 28.261C0.793555 32.7251 2.55352 36.8184 5.16846 40.2204L18.4784 28.261H0.211914Z" fill="#D80027"/>
<path id="Vector_3" d="M21.7392 49.7883V31.5217L9.77979 44.8318C13.1818 47.4467 17.275 49.2068 21.7392 49.7883V49.7883Z" fill="#D80027"/>
<path id="Vector_4" d="M21.7392 0.21167C17.275 0.793311 13.1818 2.55327 9.77979 5.16821L21.7392 18.4784V0.21167Z" fill="#D80027"/>
<path id="Vector_5" d="M0.211914 21.7392H18.4784L5.16836 9.77979C2.55342 13.1817 0.793457 17.275 0.211914 21.7392V21.7392Z" fill="#D80027"/>
<path id="Vector_6" d="M28.2612 0.21167V18.4783L40.2208 5.16821C36.8188 2.55347 32.7255 0.793213 28.2612 0.21167V0.21167Z" fill="#D80027"/>
<path id="Vector_7" d="M49.7886 21.7393C49.2069 17.2751 47.447 13.1818 44.832 9.77979L31.522 21.7393H49.7886Z" fill="#D80027"/>
<path id="Vector_8" d="M31.522 28.261L44.8321 40.2205C47.447 36.8184 49.207 32.7251 49.7887 28.261H31.522Z" fill="#D80027"/>
<path id="Vector_9" d="M28.2612 49.7883C32.7254 49.2067 36.8187 47.4467 40.2207 44.8317L28.2612 31.5217V49.7883Z" fill="#D80027"/>
</g>
<path id="Vector_10" d="M44.8336 40.2223L29.6115 25.0001L29.6114 25L44.8336 9.77778C44.1771 8.92466 43.459 8.10396 42.6775 7.32231C41.8961 6.54087 41.0753 5.82261 40.2221 5.16626L24.9999 20.3884H24.9998L9.77764 5.16626C8.92451 5.82271 8.10371 6.54077 7.32207 7.32231C6.54063 8.10396 5.82236 8.92466 5.16602 9.77788L20.3882 24.9999L20.3883 25L5.16611 40.2223C5.82256 41.0753 6.54072 41.8961 7.32217 42.6778C8.10371 43.4592 8.92451 44.1775 9.77773 44.8338L24.9998 29.6117L40.2221 44.8338C41.0751 44.1774 41.8959 43.4592 42.6775 42.6778C43.4591 41.8961 44.1771 41.0753 44.8336 40.2223V40.2223Z" fill="#496E2D"/>
<path id="Vector_11" d="M28.2608 49.7884V28.2611V28.2609H49.7884C49.9275 27.1935 50 26.1052 50 25C50 23.8949 49.9274 22.8066 49.7884 21.7393H28.261L28.2609 21.7392V0.211719C27.1936 0.0727539 26.1054 0 25 0C23.8948 9.76563e-05 22.8065 0.0727539 21.7392 0.211719L21.7393 21.739V21.7392H0.211719C0.0726562 22.8065 0 23.8948 0 25C9.76563e-05 26.1054 0.0726562 27.1935 0.211719 28.2608H21.7391L21.7392 49.7884C22.8066 49.9273 23.8946 50 25 50C26.1054 50 27.1936 49.9273 28.2608 49.7884V49.7884Z" fill="#F0F0F0"/>
</g>
<defs>
<clipPath id="clip0_105_934">
<rect width="50" height="50" fill="white"/>
</clipPath>
</defs>
</svg>
