<svg width="50" height="50" viewBox="0 0 50 50" fill="none" xmlns="http://www.w3.org/2000/svg">
<g id="icon=south africa" clip-path="url(#clip0_105_2469)">
<path id="Vector" d="M25 50C38.8071 50 50 38.8071 50 25C50 11.1929 38.8071 0 25 0C11.1929 0 0 11.1929 0 25C0 38.8071 11.1929 50 25 50Z" fill="#F0F0F0"/>
<path id="Vector_2" d="M7.32231 42.6777C-2.44077 32.9145 -2.44077 17.0854 7.32231 7.32227C7.32163 7.32334 21.7392 25 21.7392 25L7.32231 42.6777Z" fill="black"/>
<path id="Vector_3" d="M21.7393 25L3.31582 12.55C2.74463 13.5429 2.24092 14.5792 1.80811 15.6519L11.1352 25L1.8084 34.3487C2.24082 35.4206 2.74404 36.4562 3.31484 37.4484L21.7393 25Z" fill="#FFDA44"/>
<path id="Vector_4" d="M49.7886 21.7391H21.7387L7.32227 7.32263C5.76875 8.87615 4.41904 10.6331 3.31592 12.5502L15.7416 25L3.31494 37.4482C4.41807 39.3658 5.76836 41.1233 7.32227 42.6772L21.7387 28.2608H49.7886C49.9275 27.1934 50.0002 26.1052 50.0002 25C50.0002 23.8948 49.9275 22.8065 49.7886 21.7391V21.7391Z" fill="#6DA544"/>
<path id="Vector_5" d="M9.7793 44.8317C13.995 48.0721 19.2721 50 25.0002 50C36.5509 50 46.2702 42.1659 49.139 31.5217H23.0894L9.7793 44.8317Z" fill="#0052B4"/>
<path id="Vector_6" d="M49.139 18.4782C46.2702 7.83408 36.5509 0 25.0002 0C19.2721 0 13.995 1.92783 9.7793 5.16826L23.0893 18.4782H49.139Z" fill="#D80027"/>
</g>
<defs>
<clipPath id="clip0_105_2469">
<rect width="50" height="50" fill="white"/>
</clipPath>
</defs>
</svg>
