<svg width="50" height="50" viewBox="0 0 50 50" fill="none" xmlns="http://www.w3.org/2000/svg">
<g id="icon=kazakhstan" clip-path="url(#clip0_105_1753)">
<path id="Vector" d="M25 50C38.8071 50 50 38.8071 50 25C50 11.1929 38.8071 0 25 0C11.1929 0 0 11.1929 0 25C0 38.8071 11.1929 50 25 50Z" fill="#338AF3"/>
<path id="Vector_2" d="M39.1306 25.272H10.8696C10.8696 27.223 12.5689 28.8046 14.5198 28.8046H14.4022C14.4022 30.7557 15.9838 32.3372 17.9349 32.3372C17.9349 34.2883 19.5164 35.8698 21.4675 35.8698H28.5327C30.4838 35.8698 32.0653 34.2883 32.0653 32.3372C34.0164 32.3372 35.5979 30.7557 35.5979 28.8046H35.4804C37.4311 28.8046 39.1306 27.223 39.1306 25.272V25.272Z" fill="#FFDA44"/>
<path id="Vector_3" d="M34.7825 20.6523C34.7825 26.0551 30.4026 30.435 24.9999 30.435C19.5971 30.435 15.2173 26.0551 15.2173 20.6523" fill="#338AF3"/>
<path id="Vector_4" d="M32.4722 20.6521L29.4189 22.0883L31.0448 25.0453L27.7294 24.411L27.3093 27.7603L25 25.2969L22.6906 27.7603L22.2706 24.411L18.9552 25.0451L20.581 22.0882L17.5278 20.6521L20.5811 19.2159L18.9552 16.259L22.2705 16.8932L22.6907 13.5439L25 16.0073L27.3094 13.5439L27.7294 16.8932L31.0449 16.259L29.419 19.216L32.4722 20.6521Z" fill="#FFDA44"/>
</g>
<defs>
<clipPath id="clip0_105_1753">
<rect width="50" height="50" fill="white"/>
</clipPath>
</defs>
</svg>
