<svg width="50" height="50" viewBox="0 0 50 50" fill="none" xmlns="http://www.w3.org/2000/svg">
<g id="icon=albania" clip-path="url(#clip0_105_792)">
<path id="Vector" d="M25 50C38.8071 50 50 38.8071 50 25C50 11.1929 38.8071 0 25 0C11.1929 0 0 11.1929 0 25C0 38.8071 11.1929 50 25 50Z" fill="#D80027"/>
<path id="Vector_2" d="M39.1305 18.5555H30.0752C30.6342 17.9701 30.9782 17.1776 30.9782 16.3043C30.9782 14.5034 29.5183 13.0435 27.7174 13.0435C26.5828 13.0435 25.5841 13.6231 25 14.5021C24.4159 13.6231 23.4171 13.0435 22.2826 13.0435C20.4817 13.0435 19.0218 14.5034 19.0218 16.3043C19.0218 17.1776 19.3658 17.9702 19.9248 18.5555H10.8696C10.8696 20.9567 12.9611 22.9032 15.3622 22.9032H15.2173C15.2173 25.3046 17.1639 27.2512 19.5652 27.2512C19.5652 28.0289 19.7702 28.758 20.128 29.3893L16.5216 32.9958L19.2886 35.7626L23.2136 31.8377C23.3673 31.894 23.5264 31.9393 23.6906 31.97L21.3188 37.325L25 41.3043L28.6812 37.3248L26.3094 31.9698C26.4737 31.9391 26.6327 31.8939 26.7864 31.8375L30.7114 35.7624L33.4784 32.9955L29.8719 29.389C30.2298 28.7578 30.4348 28.0286 30.4348 27.2509C32.836 27.2509 34.7826 25.3044 34.7826 22.9029H34.6378C37.0389 22.9031 39.1305 20.9567 39.1305 18.5555V18.5555Z" fill="black"/>
</g>
<defs>
<clipPath id="clip0_105_792">
<rect width="50" height="50" fill="white"/>
</clipPath>
</defs>
</svg>
