<svg width="50" height="50" viewBox="0 0 50 50" fill="none" xmlns="http://www.w3.org/2000/svg">
<g id="icon=south sudan" clip-path="url(#clip0_105_2498)">
<path id="Vector" d="M25 50C38.8071 50 50 38.8071 50 25C50 11.1929 38.8071 0 25 0C11.1929 0 0 11.1929 0 25C0 38.8071 11.1929 50 25 50Z" fill="#F0F0F0"/>
<path id="Vector_2" d="M48.0498 15.3079C44.2638 6.31465 35.37 0 25.0001 0C18.0964 0 11.8471 2.79873 7.32324 7.32314L13.584 15.3079H48.0498Z" fill="black"/>
<path id="Vector_3" d="M13.655 34.6016L7.32324 42.6769C11.8471 47.2013 18.0964 50 25.0001 50C35.405 50 44.3241 43.6432 48.0884 34.6016H13.655Z" fill="#496E2D"/>
<path id="Vector_4" d="M5.43457 18.3877V31.5217H49.1387C49.6994 29.4425 49.9998 27.2565 49.9998 25C49.9998 22.7107 49.6914 20.4939 49.1149 18.3877H5.43457Z" fill="#A2001D"/>
<path id="Vector_5" d="M7.32231 7.32227C-2.44077 17.0854 -2.44077 32.9145 7.32231 42.6777C11.3568 38.6433 15.237 34.7631 25 25L7.32231 7.32227Z" fill="#0052B4"/>
<path id="Vector_6" d="M8.14287 18.7844L11.1941 23.0423L16.1871 21.4559L13.0806 25.674L16.1318 29.9321L11.1604 28.281L8.05371 32.499L8.08789 27.2604L3.11621 25.6091L8.10879 24.0228L8.14287 18.7844Z" fill="#FFDA44"/>
</g>
<defs>
<clipPath id="clip0_105_2498">
<rect width="50" height="50" fill="white"/>
</clipPath>
</defs>
</svg>
