<svg width="50" height="50" viewBox="0 0 50 50" fill="none" xmlns="http://www.w3.org/2000/svg">
<g id="icon=kyrgyzstan" clip-path="url(#clip0_105_1797)">
<path id="Vector" d="M25 50C38.8071 50 50 38.8071 50 25C50 11.1929 38.8071 0 25 0C11.1929 0 0 11.1929 0 25C0 38.8071 11.1929 50 25 50Z" fill="#D80027"/>
<path id="Vector_2" d="M37.2262 25.0001L32.2306 27.3499L34.8909 32.1885L29.4658 31.1505L28.7787 36.6306L24.9999 32.6003L21.2213 36.6306L20.5339 31.1505L15.1093 32.1883L17.7695 27.3497L12.7737 25.0001L17.7695 22.6504L15.1093 17.8117L20.5337 18.8498L21.2215 13.3696L24.9999 17.4L28.7789 13.3696L29.4658 18.8498L34.8911 17.8117L32.2307 22.6507L37.2262 25.0001Z" fill="#FFDA44"/>
<path id="Vector_3" d="M25 32.6085C29.2022 32.6085 32.6087 29.202 32.6087 24.9998C32.6087 20.7976 29.2022 17.3911 25 17.3911C20.7979 17.3911 17.3914 20.7976 17.3914 24.9998C17.3914 29.202 20.7979 32.6085 25 32.6085Z" fill="#D80027"/>
<g id="Group">
<path id="Vector_4" d="M21.1957 25C21.0124 25 20.8314 25.0094 20.6528 25.0271C20.6594 26.081 21.0406 27.0455 21.6703 27.7948C22.0063 26.8908 22.5078 26.0665 23.1403 25.361C22.5362 25.1287 21.8809 25 21.1957 25Z" fill="#FFDA44"/>
<path id="Vector_5" d="M23.5376 29.0951C23.9946 29.2584 24.4867 29.3479 25 29.3479C25.5133 29.3479 26.0054 29.2584 26.4624 29.0951C26.2133 28.1174 25.6989 27.2445 25 26.5586C24.3011 27.2444 23.7867 28.1174 23.5376 29.0951Z" fill="#FFDA44"/>
<path id="Vector_6" d="M28.7651 22.827C28.0134 21.5275 26.6094 20.6523 25 20.6523C23.3906 20.6523 21.9866 21.5274 21.2349 22.827C22.6054 22.8339 23.8905 23.2065 25 23.85C26.1095 23.2065 27.3944 22.8339 28.7651 22.827Z" fill="#FFDA44"/>
<path id="Vector_7" d="M26.8596 25.3615C27.4921 26.0669 27.9937 26.8912 28.3296 27.7953C28.9593 27.046 29.3406 26.0814 29.3471 25.0276C29.1684 25.0098 28.9875 25.0005 28.8042 25.0005C28.1193 25.0004 27.4639 25.1291 26.8596 25.3615V25.3615Z" fill="#FFDA44"/>
</g>
</g>
<defs>
<clipPath id="clip0_105_1797">
<rect width="50" height="50" fill="white"/>
</clipPath>
</defs>
</svg>
