<svg width="50" height="50" viewBox="0 0 50 50" fill="none" xmlns="http://www.w3.org/2000/svg">
<g id="icon=East Timor" clip-path="url(#clip0_105_1416)">
<path id="Vector" d="M25 50.001C38.8071 50.001 50 38.8081 50 25.001C50 11.1939 38.8071 0.000976562 25 0.000976562C11.1929 0.000976562 0 11.1939 0 25.001C0 38.8081 11.1929 50.001 25 50.001Z" fill="#FFDA44"/>
<path id="Vector_2" d="M25 0.000976562C18.8792 0.000976562 13.2731 2.20186 8.92725 5.85391L35.8695 25.001L8.92725 44.148C13.2731 47.8001 18.8792 50.001 25 50.001C38.807 50.001 50 38.808 50 25.001C50 11.1939 38.807 0.000976562 25 0.000976562Z" fill="#D80027"/>
<path id="Vector_3" d="M7.32227 7.32324C-2.44082 17.0863 -2.44082 32.9155 7.32227 42.6787C11.3567 38.6442 15.2369 34.7641 25 25.001L7.32227 7.32324Z" fill="black"/>
<path id="Vector_4" d="M6.93154 19.2739L10.7362 22.8747L15.3366 20.3685L13.0881 25.0999L16.8929 28.7008L11.6981 28.0242L9.44932 32.7556L8.4877 27.606L3.29297 26.9292L7.89316 24.4232L6.93154 19.2739Z" fill="#F0F0F0"/>
</g>
<defs>
<clipPath id="clip0_105_1416">
<rect width="50" height="50" fill="white" transform="translate(0 0.000976562)"/>
</clipPath>
</defs>
</svg>
