<svg width="50" height="50" viewBox="0 0 50 50" fill="none" xmlns="http://www.w3.org/2000/svg">
<g id="icon=jersey" clip-path="url(#clip0_105_1742)">
<path id="Vector" d="M25 50C38.8071 50 50 38.8071 50 25C50 11.1929 38.8071 0 25 0C11.1929 0 0 11.1929 0 25C0 38.8071 11.1929 50 25 50Z" fill="#F0F0F0"/>
<path id="Vector_2" d="M44.8338 40.222L29.6116 24.9999H29.6115L44.8338 9.77754C44.1772 8.92441 43.4591 8.10361 42.6777 7.32207C41.8962 6.54063 41.0755 5.82236 40.2223 5.16602L25.0001 20.3882L25 20.3883L9.77782 5.16602C8.92479 5.82246 8.10389 6.54053 7.32235 7.32207C6.54081 8.10361 5.82264 8.92441 5.1663 9.77754L20.3885 24.9996L20.3886 24.9997L5.1662 40.2221C5.82274 41.0752 6.54091 41.896 7.32225 42.6775C8.1038 43.459 8.9245 44.1772 9.77772 44.8336L25 29.6114L25.0001 29.6113L40.2223 44.8335C41.0753 44.177 41.8962 43.4589 42.6777 42.6774C43.4593 41.8959 44.1773 41.0751 44.8338 40.222V40.222Z" fill="#D80027"/>
<path id="Vector_3" d="M20.6522 7.60859L25 8.69551L29.3479 7.60859V3.91299L27.6087 4.78252L25 2.17383L22.3913 4.78252L20.6522 3.91299V7.60859Z" fill="#FFDA44"/>
<path id="Vector_4" d="M20.6522 7.60889V10.3265C20.6522 13.6546 25 14.6743 25 14.6743C25 14.6743 29.3479 13.6545 29.3479 10.3265V7.60889H20.6522Z" fill="#D80027"/>
</g>
<defs>
<clipPath id="clip0_105_1742">
<rect width="50" height="50" fill="white"/>
</clipPath>
</defs>
</svg>
