<svg width="51" height="50" viewBox="0 0 51 50" fill="none" xmlns="http://www.w3.org/2000/svg">
<g id="icon=nicaragua" clip-path="url(#clip0_105_2088)">
<path id="Vector" d="M25.9883 50C39.7954 50 50.9883 38.8071 50.9883 25C50.9883 11.1929 39.7954 0 25.9883 0C12.1812 0 0.988281 11.1929 0.988281 25C0.988281 38.8071 12.1812 50 25.9883 50Z" fill="#F0F0F0"/>
<g id="Group">
<path id="Vector_2" d="M25.9881 0C16.0766 0 7.5125 5.76807 3.46875 14.1305H48.5073C44.4637 5.76807 35.8995 0 25.9881 0V0Z" fill="#338AF3"/>
<path id="Vector_3" d="M25.9881 50.0001C35.8995 50.0001 44.4637 44.232 48.5074 35.8696H3.46875C7.5125 44.232 16.0766 50.0001 25.9881 50.0001Z" fill="#338AF3"/>
</g>
<path id="Vector_4" d="M25.9881 17.3914C21.7859 17.3914 18.3794 20.7979 18.3794 25C18.3794 29.2022 21.7859 32.6087 25.9881 32.6087C30.1902 32.6087 33.5968 29.2022 33.5968 25C33.5968 20.7979 30.1902 17.3914 25.9881 17.3914ZM25.9881 29.3479C23.5869 29.3479 21.6402 27.4014 21.6402 25C21.6402 22.5987 23.5868 20.6522 25.9881 20.6522C28.3894 20.6522 30.3359 22.5987 30.3359 25C30.3359 27.4014 28.3893 29.3479 25.9881 29.3479Z" fill="#FFDA44"/>
<path id="Vector_5" d="M29.7537 26.0869L25.9883 25L22.2229 26.0869L20.9678 28.2608H31.0087L29.7537 26.0869Z" fill="#0052B4"/>
<path id="Vector_6" d="M25.9883 19.5652L23.478 23.913L25.9883 25L28.4985 23.913L25.9883 19.5652Z" fill="#338AF3"/>
<path id="Vector_7" d="M22.2227 26.0869H29.7535L28.4983 23.9131H23.4778L22.2227 26.0869Z" fill="#6DA544"/>
</g>
<defs>
<clipPath id="clip0_105_2088">
<rect width="50" height="50" fill="white" transform="translate(0.988281)"/>
</clipPath>
</defs>
</svg>
