<svg width="51" height="50" viewBox="0 0 51 50" fill="none" xmlns="http://www.w3.org/2000/svg">
<g id="icon=new zealand" clip-path="url(#clip0_105_2075)">
<path id="Vector" d="M50.9883 25C50.9883 38.807 39.7953 50 25.9883 50C12.1812 50 0.988281 38.807 0.988281 25C0.988281 25.006 25.9883 0.00273438 25.9883 0C39.7953 0 50.9883 11.193 50.9883 25Z" fill="#0052B4"/>
<g id="Group">
<path id="Vector_2" d="M25.9214 25H25.9883C25.9883 24.9775 25.9883 24.9557 25.9883 24.9331C25.966 24.9555 25.9438 24.9777 25.9214 25Z" fill="#F0F0F0"/>
<path id="Vector_3" d="M25.9883 13.0435C25.9883 8.64453 25.9883 5.76221 25.9883 0H25.9841C12.1789 0.00234375 0.988281 11.1942 0.988281 25H14.0317V17.6552L21.3767 25H25.9215C25.9437 24.9777 25.9661 24.9555 25.9884 24.9331C25.9884 23.2488 25.9884 21.746 25.9884 20.3885L18.6434 13.0435H25.9883Z" fill="#F0F0F0"/>
</g>
<g id="Group_2">
<path id="Vector_4" d="M13.6361 3.26074C9.72607 5.48721 6.47549 8.73779 4.24902 12.6479V24.9999H10.7708V9.78272V9.78252H25.9882C25.9882 7.72559 25.9882 5.76602 25.9882 3.26074H13.6361Z" fill="#D80027"/>
<path id="Vector_5" d="M25.9882 21.9256L17.1061 13.0435C17.1061 13.0435 14.0317 13.0437 14.0317 13.0435V13.0437L25.9881 24.9999H25.9882C25.9882 24.9999 25.9882 22.8801 25.9882 21.9256Z" fill="#D80027"/>
<path id="Vector_6" d="M44.282 18.5505L44.8216 20.2113H46.5678L45.1551 21.2376L45.6947 22.8983L44.282 21.872L42.8692 22.8983L43.4089 21.2376L41.9961 20.2113H43.7423L44.282 18.5505Z" fill="#D80027"/>
<path id="Vector_7" d="M38.04 30.5071L38.8495 32.9983H41.4688L39.3496 34.5377L40.1592 37.0289L38.04 35.4893L35.9209 37.0289L36.7305 34.5377L34.6113 32.9983H37.2306L38.04 30.5071Z" fill="#D80027"/>
<path id="Vector_8" d="M38.2758 10.9419L38.9504 13.018H41.1332L39.3671 14.3007L40.0417 16.3767L38.2758 15.0936L36.51 16.3767L37.1845 14.3007L35.4187 13.018H37.6013L38.2758 10.9419Z" fill="#D80027"/>
<path id="Vector_9" d="M32.2695 18.478L33.0789 20.9692H35.6982L33.5791 22.5087L34.3887 24.9998L32.2695 23.4603L30.1504 24.9998L30.96 22.5087L28.8408 20.9692H31.4601L32.2695 18.478Z" fill="#D80027"/>
</g>
</g>
<defs>
<clipPath id="clip0_105_2075">
<rect width="50" height="50" fill="white" transform="translate(0.988281)"/>
</clipPath>
</defs>
</svg>
