<svg width="50" height="50" viewBox="0 0 50 50" fill="none" xmlns="http://www.w3.org/2000/svg">
<g id="icon=bahrain" clip-path="url(#clip0_105_913)">
<path id="Vector" d="M25 50C38.8071 50 50 38.8071 50 25C50 11.1929 38.8071 0 25 0C11.1929 0 0 11.1929 0 25C0 38.8071 11.1929 50 25 50Z" fill="#F0F0F0"/>
<path id="Vector_2" d="M25 0C19.9828 0 15.3117 1.479 11.3965 4.02324L17.826 8.33272L9.78259 12.4993L17.826 16.6659L9.78259 20.8325L17.826 24.9986L9.78259 29.1651L17.826 33.3316L9.78259 37.4986L17.826 41.6652L11.3957 45.9761C15.3111 48.5208 19.9825 50 25 50C38.807 50 50 38.807 50 25C50 11.193 38.807 0 25 0V0Z" fill="#D80027"/>
</g>
<defs>
<clipPath id="clip0_105_913">
<rect width="50" height="50" fill="white"/>
</clipPath>
</defs>
</svg>
