<svg width="50" height="50" viewBox="0 0 50 50" fill="none" xmlns="http://www.w3.org/2000/svg">
<g id="icon=lesotho" clip-path="url(#clip0_105_1823)">
<path id="Vector" d="M0 25.001C0 28.8965 0.891309 32.5838 2.48066 35.8705L25 36.9575L47.5193 35.8706C49.1087 32.5838 50 28.8965 50 25.001C50 21.1055 49.1087 17.4182 47.5193 14.1314L25 13.0444L2.48066 14.1313C0.891309 17.4182 0 21.1055 0 25.001H0Z" fill="#F0F0F0"/>
<path id="Vector_2" d="M25 50.0011C34.9114 50.0011 43.4756 44.233 47.5193 35.8706H2.48067C6.52442 44.233 15.0885 50.0011 25 50.0011Z" fill="#6DA544"/>
<path id="Vector_3" d="M25 0.000976562C15.0885 0.000976562 6.52442 5.76904 2.48067 14.1314H47.5192C43.4756 5.76904 34.9114 0.000976562 25 0.000976562V0.000976562Z" fill="#0052B4"/>
<path id="Vector_4" d="M26.6305 24.4577V18.4795H23.3696V24.4577L19.4312 28.3963C20.5766 30.2713 22.6421 31.5229 25.0001 31.5229C27.3581 31.5229 29.4235 30.2713 30.569 28.3963L26.6305 24.4577Z" fill="black"/>
</g>
<defs>
<clipPath id="clip0_105_1823">
<rect width="50" height="50" fill="white" transform="translate(0 0.000976562)"/>
</clipPath>
</defs>
</svg>
