<svg width="50" height="50" viewBox="0 0 50 50" fill="none" xmlns="http://www.w3.org/2000/svg">
<g id="icon=panama" clip-path="url(#clip0_105_2196)">
<path id="Vector" d="M25 50C38.8071 50 50 38.8071 50 25C50 11.1929 38.8071 0 25 0C11.1929 0 0 11.1929 0 25C0 38.8071 11.1929 50 25 50Z" fill="#F0F0F0"/>
<path id="Vector_2" d="M0 25C0 38.807 11.193 50 25 50C25 40.4927 25 25 25 25C25 25 8.69561 25 0 25Z" fill="#0052B4"/>
<path id="Vector_3" d="M25 0C38.807 0 50 11.193 50 25C40.4927 25 25 25 25 25C25 25 25 8.69561 25 0Z" fill="#D80027"/>
<path id="Vector_4" d="M14.8818 8.69556L16.5007 13.6778H21.7393L17.5012 16.7569L19.1199 21.7391L14.8818 18.6599L10.6437 21.7391L12.2625 16.7569L8.02441 13.6778H13.263L14.8818 8.69556Z" fill="#0052B4"/>
<path id="Vector_5" d="M35.1182 28.2609L36.737 33.2431H41.9756L37.7374 36.3222L39.3563 41.3044L35.1182 38.2252L30.8801 41.3044L32.4988 36.3222L28.2607 33.2431H33.4993L35.1182 28.2609Z" fill="#D80027"/>
</g>
<defs>
<clipPath id="clip0_105_2196">
<rect width="50" height="50" fill="white"/>
</clipPath>
</defs>
</svg>
