<svg width="50" height="50" viewBox="0 0 50 50" fill="none" xmlns="http://www.w3.org/2000/svg">
<g id="icon=russia" clip-path="url(#clip0_105_2289)">
<path id="Vector" d="M25 50C38.8071 50 50 38.8071 50 25C50 11.1929 38.8071 0 25 0C11.1929 0 0 11.1929 0 25C0 38.8071 11.1929 50 25 50Z" fill="#F0F0F0"/>
<path id="Vector_2" d="M48.445 33.6956C49.45 30.9873 50 28.058 50 25C50 21.942 49.45 19.0127 48.445 16.3044H1.55498C0.550098 19.0127 0 21.942 0 25C0 28.058 0.550098 30.9873 1.55498 33.6956L25 35.8695L48.445 33.6956Z" fill="#0052B4"/>
<path id="Vector_3" d="M25 50C35.7491 50 44.9126 43.2156 48.445 33.6956H1.55493C5.08726 43.2156 14.2508 50 25 50Z" fill="#D80027"/>
</g>
<defs>
<clipPath id="clip0_105_2289">
<rect width="50" height="50" fill="white"/>
</clipPath>
</defs>
</svg>
