<svg width="51" height="50" viewBox="0 0 51 50" fill="none" xmlns="http://www.w3.org/2000/svg">
<g id="icon=st vincent and the grenadines" clip-path="url(#clip0_105_2531)">
<path id="Vector" d="M37.5348 3.04072C33.9829 1.10283 29.9093 0.000976562 25.5782 0.000976562C21.2472 0.000976562 17.1735 1.10283 13.6217 3.04072L11.4478 25.001L13.6217 46.9612C17.1735 48.8991 21.2472 50.001 25.5782 50.001C29.9093 50.001 33.9829 48.8991 37.5348 46.9612L39.7087 25.001L37.5348 3.04072Z" fill="#FFDA44"/>
<path id="Vector_2" d="M13.6216 46.9609V3.04053C5.85049 7.28076 0.578125 15.5248 0.578125 25.0009C0.578125 34.477 5.85049 42.721 13.6216 46.9609Z" fill="#338AF3"/>
<g id="Group">
<path id="Vector_3" d="M50.5781 25.0009C50.5781 15.5248 45.3058 7.28076 37.5347 3.04053V46.9609C45.3058 42.721 50.5781 34.477 50.5781 25.0009V25.0009Z" fill="#6DA544"/>
<path id="Vector_4" d="M20.1434 31.5226L15.7954 25.0008L20.1433 18.479L24.4913 25.0008L20.1434 31.5226Z" fill="#6DA544"/>
<path id="Vector_5" d="M31.0129 31.5226L26.665 25.0008L31.0129 18.479L35.3607 25.0008L31.0129 31.5226Z" fill="#6DA544"/>
<path id="Vector_6" d="M25.5781 40.2183L21.2302 33.6965L25.5781 27.1748L29.9259 33.6965L25.5781 40.2183Z" fill="#6DA544"/>
</g>
</g>
<defs>
<clipPath id="clip0_105_2531">
<rect width="50" height="50" fill="white" transform="translate(0.578125 0.000976562)"/>
</clipPath>
</defs>
</svg>
