<svg width="50" height="50" viewBox="0 0 50 50" fill="none" xmlns="http://www.w3.org/2000/svg">
<g id="icon=falkland islands" clip-path="url(#clip0_105_1480)">
<path id="Vector" d="M50 25.001C50 38.808 38.807 50.001 25 50.001C11.193 50.001 0 38.808 0 25.001C0 25.0069 25 0.00371094 25 0.000976562C38.807 0.000976562 50 11.1939 50 25.001Z" fill="#0052B4"/>
<g id="Group">
<path id="Vector_2" d="M24.9331 25.001H25C25 24.9785 25 24.9566 25 24.9341C24.9777 24.9564 24.9555 24.9787 24.9331 25.001Z" fill="#F0F0F0"/>
<path id="Vector_3" d="M25 13.0444C25 8.64551 25 5.76318 25 0.000976562H24.9958C11.1906 0.00332031 0 11.1952 0 25.001H13.0435V17.6562L20.3884 25.001H24.9332L25.0001 24.9341C25.0001 23.2498 25.0001 21.747 25.0001 20.3895L17.6551 13.0444H25Z" fill="#F0F0F0"/>
</g>
<g id="Group_2">
<path id="Vector_4" d="M12.6479 3.26184C8.73788 5.48831 5.4873 8.73889 3.26083 12.649V25.001H9.78261V9.78381V9.78362H25C25 7.72669 25 5.76711 25 3.26184H12.6479Z" fill="#D80027"/>
<path id="Vector_5" d="M25 21.9267L16.1179 13.0446H13.0435V13.0448L24.9998 25.001H25C25 25.001 25 22.8812 25 21.9267Z" fill="#D80027"/>
</g>
<path id="Vector_6" d="M40.2174 29.3489V30.4358H31.5218V29.3489H28.2608V33.6966H30.4348V34.7836H41.3044V33.6966H43.4782V29.3489H40.2174Z" fill="#FFDA44"/>
<path id="Vector_7" d="M28.2608 13.0444V25.001C28.2608 30.8251 35.8695 32.6097 35.8695 32.6097C35.8695 32.6097 43.4782 30.8251 43.4782 25.001V13.0444H28.2608Z" fill="#338AF3"/>
<g id="Group_3">
<path id="Vector_8" d="M35.8691 21.9628C33.9671 21.9628 33.9671 23.7019 32.065 23.7019C30.163 23.7019 30.163 21.9628 28.2609 21.9628V25.0062C30.163 25.0062 30.163 26.7454 32.065 26.7454C33.9671 26.7454 33.9671 25.0062 35.8691 25.0062C37.7714 25.0062 37.7714 26.7454 39.6737 26.7454C41.5761 26.7454 41.576 25.0062 43.4783 25.0062V21.9628C41.5761 21.9628 41.5761 23.7019 39.6737 23.7019C37.7714 23.7019 37.7714 21.9628 35.8691 21.9628V21.9628Z" fill="#F3F3F3"/>
<path id="Vector_9" d="M35.8691 15.8705C33.9671 15.8705 33.9671 17.6096 32.065 17.6096C30.163 17.6096 30.163 15.8705 28.2609 15.8705V18.9139C30.163 18.9139 30.163 20.6531 32.065 20.6531C33.9671 20.6531 33.9671 18.9139 35.8691 18.9139C37.7714 18.9139 37.7714 20.6531 39.6737 20.6531C41.5761 20.6531 41.576 18.9139 43.4783 18.9139V15.8705C41.5761 15.8705 41.5761 17.6096 39.6737 17.6096C37.7714 17.6096 37.7714 15.8705 35.8691 15.8705Z" fill="#F3F3F3"/>
</g>
</g>
<defs>
<clipPath id="clip0_105_1480">
<rect width="50" height="50" fill="white" transform="translate(0 0.000976562)"/>
</clipPath>
</defs>
</svg>
