<svg width="50" height="50" viewBox="0 0 50 50" fill="none" xmlns="http://www.w3.org/2000/svg">
<g id="icon=mali" clip-path="url(#clip0_105_1907)">
<path id="Vector" d="M33.6956 1.55498C30.9873 0.550098 28.058 0 25 0C21.942 0 19.0127 0.550098 16.3044 1.55498L14.1305 25L16.3044 48.445C19.0127 49.45 21.942 50 25 50C28.058 50 30.9873 49.45 33.6956 48.445L35.8696 25L33.6956 1.55498Z" fill="#FFDA44"/>
<path id="Vector_2" d="M49.9999 25.0001C49.9999 14.2511 43.2156 5.0874 33.6956 1.55518V48.4453C43.2156 44.9128 49.9999 35.7493 49.9999 25.0001V25.0001Z" fill="#D80027"/>
<path id="Vector_3" d="M0 25.0001C0 35.7493 6.78437 44.9128 16.3044 48.4452V1.55518C6.78437 5.0874 0 14.2511 0 25.0001V25.0001Z" fill="#6DA544"/>
</g>
<defs>
<clipPath id="clip0_105_1907">
<rect width="50" height="50" fill="white"/>
</clipPath>
</defs>
</svg>
