<svg width="50" height="50" viewBox="0 0 50 50" fill="none" xmlns="http://www.w3.org/2000/svg">
<g id="icon=vanuatu" clip-path="url(#clip0_105_2813)">
<path id="Vector" d="M50 25.0009C50 23.8958 49.9274 22.8075 49.7883 21.7401H21.7389C16.6314 16.6329 7.32191 7.32402 7.3223 7.32324C-2.44077 17.0863 -2.44077 32.9154 7.3223 42.6786L21.7392 28.2619H49.7883C49.9273 27.1944 50 26.1061 50 25.0009V25.0009Z" fill="black"/>
<g id="Group">
<path id="Vector_2" d="M49.9928 25.5698C49.9917 25.6181 49.9906 25.6665 49.9893 25.7147C49.9904 25.6663 49.9916 25.6181 49.9928 25.5698Z" fill="#F0F0F0"/>
<path id="Vector_3" d="M49.9688 26.2529C49.9666 26.3007 49.9632 26.3482 49.9607 26.3959C49.9632 26.3483 49.9664 26.3007 49.9688 26.2529Z" fill="#F0F0F0"/>
<path id="Vector_4" d="M49.935 26.7979C49.93 26.8681 49.9251 26.9383 49.9194 27.0083C49.9251 26.9383 49.9299 26.8681 49.935 26.7979Z" fill="#F0F0F0"/>
<path id="Vector_5" d="M49.8516 22.2764C49.8607 22.36 49.8699 22.4435 49.8782 22.5272C49.8699 22.4434 49.8606 22.36 49.8516 22.2764Z" fill="#F0F0F0"/>
<path id="Vector_6" d="M49.9604 23.6064C49.9631 23.6541 49.9663 23.7017 49.9686 23.7494C49.9662 23.7017 49.9631 23.654 49.9604 23.6064Z" fill="#F0F0F0"/>
<path id="Vector_7" d="M49.9893 24.2876C49.9906 24.3358 49.9916 24.3843 49.9928 24.4325C49.9917 24.3841 49.9905 24.3358 49.9893 24.2876Z" fill="#F0F0F0"/>
<path id="Vector_8" d="M49.9194 22.9941C49.9251 23.0642 49.93 23.1344 49.935 23.2046C49.9299 23.1344 49.9251 23.0642 49.9194 22.9941Z" fill="#F0F0F0"/>
</g>
<path id="Vector_9" d="M49.7883 21.74C49.7995 21.8256 49.8094 21.9118 49.8197 21.9976C48.3359 9.60682 37.7904 0.000976562 24.9999 0.000976562C18.0962 0.000976562 11.8461 2.79931 7.32202 7.32362L21.7384 21.7401H49.7883V21.74Z" fill="#D80027"/>
<path id="Vector_10" d="M49.7883 28.262H21.7384L7.32202 42.6785C11.8461 47.2027 18.0962 50.0011 24.9999 50.0011C37.7904 50.0011 48.336 40.3953 49.8197 28.0044C49.8094 28.0902 49.7993 28.1764 49.7883 28.262V28.262Z" fill="#6DA544"/>
<path id="Vector_11" d="M49.8782 27.4746C49.8699 27.5584 49.8607 27.6419 49.8516 27.7255C49.8607 27.6419 49.87 27.5585 49.8782 27.4746Z" fill="#F0F0F0"/>
<path id="Vector_12" d="M49.9351 23.2041C49.9445 23.3378 49.9531 23.4718 49.9605 23.6061C49.953 23.4718 49.9445 23.3378 49.9351 23.2041V23.2041Z" fill="black"/>
<path id="Vector_13" d="M49.8198 21.9976C49.8311 22.0902 49.8417 22.1831 49.8517 22.2761C49.8415 22.1831 49.8309 22.0903 49.8198 21.9976Z" fill="black"/>
<path id="Vector_14" d="M49.8782 22.5273C49.8934 22.6825 49.9072 22.8381 49.9196 22.9942C49.9073 22.8381 49.8935 22.6824 49.8782 22.5273Z" fill="black"/>
<path id="Vector_15" d="M49.9998 25.001C49.9998 25.1911 49.9969 25.3805 49.9927 25.5694C49.9969 25.3804 49.9998 25.191 49.9998 25.001Z" fill="black"/>
<path id="Vector_16" d="M49.9604 26.3955C49.953 26.5298 49.9444 26.6638 49.9351 26.7975C49.9444 26.6638 49.9529 26.5298 49.9604 26.3955Z" fill="black"/>
<path id="Vector_17" d="M49.9196 27.0083C49.9072 27.1643 49.8934 27.3199 49.8782 27.475C49.8935 27.3199 49.9073 27.1643 49.9196 27.0083Z" fill="black"/>
<path id="Vector_18" d="M49.8517 27.7256C49.8417 27.8186 49.8311 27.9113 49.8198 28.0041C49.8309 27.9114 49.8415 27.8186 49.8517 27.7256Z" fill="black"/>
<path id="Vector_19" d="M49.9927 24.4326C49.9969 24.6217 49.9998 24.8111 49.9998 25.0011C49.9998 24.8111 49.9969 24.6217 49.9927 24.4326Z" fill="black"/>
<path id="Vector_20" d="M49.9688 23.749C49.9775 23.9279 49.9842 24.1075 49.9893 24.2874C49.9842 24.1074 49.9776 23.9279 49.9688 23.749Z" fill="black"/>
<path id="Vector_21" d="M49.9893 25.7144C49.9842 25.8942 49.9775 26.0738 49.9688 26.2527C49.9777 26.0737 49.9843 25.8942 49.9893 25.7144Z" fill="black"/>
<g id="Group_2">
<path id="Vector_22" d="M49.976 23.9051H20.8203L5.84409 8.93115C5.36001 9.4417 4.8353 10.1546 4.51079 10.6623L18.8329 24.992L4.49878 39.3264C4.78257 39.8313 5.40083 40.5786 5.83491 41.0648L20.8206 26.0791H49.9796C49.9951 25.7185 50 25.3564 50 24.9922C49.9999 24.5041 49.9864 24.1442 49.976 23.9051Z" fill="#FFDA44"/>
<path id="Vector_23" d="M6.07289 30.3303V28.2362C8.16254 28.2362 9.86244 26.5361 9.86244 24.4467C9.86244 22.9683 8.65961 21.7655 7.18129 21.7655C6.17416 21.7655 5.35473 22.5849 5.35473 23.5922C5.35473 24.2362 5.87866 24.7602 6.5228 24.7602C6.88686 24.7602 7.18305 24.4639 7.18305 24.0998H9.27699C9.27699 25.6186 8.04145 26.8542 6.52289 26.8542C4.72417 26.8543 3.26099 25.3908 3.26099 23.5924C3.26099 21.4306 5.01977 19.6719 7.18139 19.6719C9.81439 19.6719 11.9566 21.8141 11.9566 24.447C11.9565 27.6908 9.31713 30.3303 6.07289 30.3303V30.3303Z" fill="#FFDA44"/>
</g>
</g>
<defs>
<clipPath id="clip0_105_2813">
<rect width="50" height="50" fill="white" transform="translate(0 0.000976562)"/>
</clipPath>
</defs>
</svg>
