<svg width="50" height="50" viewBox="0 0 50 50" fill="none" xmlns="http://www.w3.org/2000/svg">
<g id="icon=cambodia" clip-path="url(#clip0_105_1140)">
<path id="Vector" d="M0 25C0 29.331 1.10186 33.4047 3.03975 36.9565L25 39.1304L46.9603 36.9565C48.8981 33.4047 50 29.331 50 25C50 20.6689 48.8981 16.5953 46.9603 13.0434L25 10.8695L3.03975 13.0434C1.10186 16.5953 0 20.6689 0 25H0Z" fill="#D80027"/>
<g id="Group">
<path id="Vector_2" d="M3.03955 13.0435H46.96C42.7199 5.27236 34.4759 0 24.9998 0C15.5237 0 7.27969 5.27236 3.03955 13.0435V13.0435Z" fill="#0052B4"/>
<path id="Vector_3" d="M24.9998 50C34.4759 50 42.7199 44.7276 46.9601 36.9565H3.03955C7.27969 44.7276 15.5237 50 24.9998 50Z" fill="#0052B4"/>
</g>
<path id="Vector_4" d="M33.6955 29.8913V26.6305H31.5217V22.2826L29.3478 20.1087L27.1738 22.2826V17.9348L24.9999 15.7609L22.826 17.9348V22.2826L20.6521 20.1087L18.4781 22.2826V26.6305H16.3043V29.8913H14.1304V33.1522H35.8694V29.8913H33.6955Z" fill="#F0F0F0"/>
</g>
<defs>
<clipPath id="clip0_105_1140">
<rect width="50" height="50" fill="white"/>
</clipPath>
</defs>
</svg>
