<svg width="51" height="50" viewBox="0 0 51 50" fill="none" xmlns="http://www.w3.org/2000/svg">
<g id="icon=burkina faso" clip-path="url(#clip0_105_1123)">
<path id="Vector" d="M0.988281 25.001C0.988281 11.1939 12.1812 0.000976562 25.9883 0.000976562C39.7953 0.000976562 50.9883 11.1939 50.9883 25.001C49.9014 25.001 25.9883 28.2618 25.9883 28.2618L0.988281 25.001Z" fill="#D80027"/>
<path id="Vector_2" d="M50.9883 25.001C50.9883 38.808 39.7953 50.001 25.9883 50.001C12.1812 50.001 0.988281 38.808 0.988281 25.001" fill="#6DA544"/>
<path id="Vector_3" d="M25.9882 16.3054L27.8766 22.1177H33.9886L29.044 25.7101L30.9325 31.5228L25.9882 27.9305L21.0437 31.5228L22.9325 25.7101L17.9879 22.1177H24.0996L25.9882 16.3054Z" fill="#FFDA44"/>
</g>
<defs>
<clipPath id="clip0_105_1123">
<rect width="50" height="50" fill="white" transform="translate(0.988281 0.000976562)"/>
</clipPath>
</defs>
</svg>
