<svg width="51" height="50" viewBox="0 0 51 50" fill="none" xmlns="http://www.w3.org/2000/svg">
<g id="icon=niger" clip-path="url(#clip0_105_2097)">
<path id="Vector" d="M3.46895 14.1305C1.87969 17.4172 0.988281 21.1044 0.988281 25C0.988281 28.8956 1.87969 32.5828 3.46895 35.8695L25.9883 38.0435L48.5076 35.8695C50.0969 32.5828 50.9883 28.8956 50.9883 25C50.9883 21.1044 50.0969 17.4172 48.5076 14.1305L25.9883 11.9565L3.46895 14.1305Z" fill="#F0F0F0"/>
<path id="Vector_2" d="M3.46973 35.8696C7.51328 44.232 16.0767 50.0001 25.9882 50.0001C35.8997 50.0001 44.4631 44.232 48.5066 35.8696H3.46973Z" fill="#6DA544"/>
<g id="Group">
<path id="Vector_3" d="M3.46973 14.1305H48.5066C44.4631 5.76807 35.8996 0 25.9882 0C16.0768 0 7.51328 5.76807 3.46973 14.1305Z" fill="#FF9811"/>
<path id="Vector_4" d="M25.9881 33.6957C30.7905 33.6957 34.6837 29.8025 34.6837 25C34.6837 20.1976 30.7905 16.3044 25.9881 16.3044C21.1856 16.3044 17.2925 20.1976 17.2925 25C17.2925 29.8025 21.1856 33.6957 25.9881 33.6957Z" fill="#FF9811"/>
</g>
</g>
<defs>
<clipPath id="clip0_105_2097">
<rect width="50" height="50" fill="white" transform="translate(0.988281)"/>
</clipPath>
</defs>
</svg>
