<svg width="50" height="50" viewBox="0 0 50 50" fill="none" xmlns="http://www.w3.org/2000/svg">
<g id="icon=mongolia" clip-path="url(#clip0_105_1985)">
<path id="Vector" d="M24.9999 50C28.0579 50 30.9873 49.45 33.6955 48.445L34.7825 25L33.6956 1.55498C30.9873 0.550098 28.0579 0 24.9999 0C21.9419 0 19.0125 0.550098 16.3043 1.55498L15.2173 25L16.3042 48.445C19.0125 49.45 21.9419 50 24.9999 50Z" fill="#0052B4"/>
<g id="Group">
<path id="Vector_2" d="M0 25C0 35.7491 6.78437 44.9126 16.3044 48.445V1.55493C6.78437 5.08726 0 14.2508 0 25Z" fill="#A2001D"/>
<path id="Vector_3" d="M33.6956 1.55493V48.4451C43.2156 44.9126 49.9999 35.7491 49.9999 25C49.9999 14.2508 43.2156 5.08726 33.6956 1.55493V1.55493Z" fill="#A2001D"/>
</g>
<g id="Group_2">
<path id="Vector_4" d="M11.9565 25H14.1305V33.6956H11.9565V25Z" fill="#FFDA44"/>
<path id="Vector_5" d="M3.26074 25H5.43467V33.6956H3.26074V25Z" fill="#FFDA44"/>
<path id="Vector_6" d="M8.69541 30.4348C9.89604 30.4348 10.8693 29.4615 10.8693 28.2608C10.8693 27.0602 9.89604 26.0869 8.69541 26.0869C7.49478 26.0869 6.52148 27.0602 6.52148 28.2608C6.52148 29.4615 7.49478 30.4348 8.69541 30.4348Z" fill="#FFDA44"/>
<path id="Vector_7" d="M8.69556 21.739C9.29584 21.739 9.78247 21.2524 9.78247 20.6521C9.78247 20.0518 9.29584 19.5652 8.69556 19.5652C8.09527 19.5652 7.60864 20.0518 7.60864 20.6521C7.60864 21.2524 8.09527 21.739 8.69556 21.739Z" fill="#FFDA44"/>
<path id="Vector_8" d="M6.52173 31.5217H10.8696V33.6957H6.52173V31.5217Z" fill="#FFDA44"/>
<path id="Vector_9" d="M6.52173 22.8262H10.8696V25.0001H6.52173V22.8262Z" fill="#FFDA44"/>
<path id="Vector_10" d="M8.69541 13.0435L9.46533 15.4126H11.9563L9.94121 16.8769L10.7105 19.246L8.69541 17.7817L6.68037 19.246L7.44971 16.8769L5.43457 15.4126H7.92559L8.69541 13.0435Z" fill="#FFDA44"/>
</g>
</g>
<defs>
<clipPath id="clip0_105_1985">
<rect width="50" height="50" fill="white"/>
</clipPath>
</defs>
</svg>
