<svg width="50" height="50" viewBox="0 0 50 50" fill="none" xmlns="http://www.w3.org/2000/svg">
<g id="icon=equatorial guinea" clip-path="url(#clip0_105_1444)">
<path id="Vector" d="M25 50C38.8071 50 50 38.8071 50 25C50 11.1929 38.8071 0 25 0C11.1929 0 0 11.1929 0 25C0 38.8071 11.1929 50 25 50Z" fill="#F0F0F0"/>
<path id="Vector_2" d="M15.2175 16.3044H48.445C44.9128 6.78437 35.7491 0 25.0001 0C18.0964 0 11.8471 2.79873 7.32324 7.32314L15.2175 16.3044Z" fill="#6DA544"/>
<path id="Vector_3" d="M15.2175 33.6956H48.445C44.9128 43.2156 35.7491 49.9999 25.0001 49.9999C18.0964 49.9999 11.8471 47.2012 7.32324 42.6768L15.2175 33.6956Z" fill="#D80027"/>
<path id="Vector_4" d="M7.32231 7.32227C-2.44077 17.0854 -2.44077 32.9145 7.32231 42.6777C11.3568 38.6433 15.237 34.7631 25 25L7.32231 7.32227Z" fill="#0052B4"/>
<path id="Vector_5" d="M29.3477 20.6521V26.0869C29.3477 29.415 33.6955 30.4348 33.6955 30.4348C33.6955 30.4348 38.0434 29.415 38.0434 26.0869V20.6521H29.3477Z" fill="#DEDDE0"/>
<path id="Vector_6" d="M32.6089 25.1086H34.7828V28.2608H32.6089V25.1086Z" fill="#786145"/>
<path id="Vector_7" d="M35.8693 23.9131C35.8693 22.7124 34.8961 21.7391 33.6954 21.7391C32.4947 21.7391 31.5215 22.7124 31.5215 23.9131C30.9212 23.9131 30.4346 24.3997 30.4346 25C30.4346 25.6003 30.9212 26.0869 31.5215 26.0869H35.8693C36.4696 26.0869 36.9562 25.6003 36.9562 25C36.9562 24.3997 36.4697 23.9131 35.8693 23.9131V23.9131Z" fill="#6DA544"/>
</g>
<defs>
<clipPath id="clip0_105_1444">
<rect width="50" height="50" fill="white"/>
</clipPath>
</defs>
</svg>
