<svg width="50" height="50" viewBox="0 0 50 50" fill="none" xmlns="http://www.w3.org/2000/svg">
<g id="icon=Rapa Nui" clip-path="url(#clip0_105_2265)">
<path id="Vector" d="M25 50C38.8071 50 50 38.8071 50 25C50 11.1929 38.8071 0 25 0C11.1929 0 0 11.1929 0 25C0 38.8071 11.1929 50 25 50Z" fill="#FCFCFC"/>
<path id="Vector_2" d="M32.6083 20.6522V22.8261H35.5919C34.3468 24.5566 32.6883 25.9692 30.7613 26.9205C30.267 26.4069 29.5729 26.0869 28.8039 26.0869C27.5075 26.0869 26.4239 26.995 26.1525 28.2098C25.7727 28.2432 25.3882 28.2609 24.9996 28.2609C24.611 28.2609 24.2266 28.243 23.8467 28.2098C23.5753 26.9951 22.4917 26.0869 21.1953 26.0869C20.4263 26.0869 19.7324 26.4069 19.2379 26.9205C17.3109 25.9693 15.6525 24.5565 14.4074 22.8261H17.3909V20.6522H9.78223C9.78223 29.0564 16.5954 35.8695 24.9996 35.8695C33.404 35.8695 40.217 29.0564 40.217 20.6522H32.6083Z" fill="#D80027"/>
</g>
<defs>
<clipPath id="clip0_105_2265">
<rect width="50" height="50" fill="white"/>
</clipPath>
</defs>
</svg>
