<svg width="50" height="50" viewBox="0 0 50 50" fill="none" xmlns="http://www.w3.org/2000/svg">
<g id="icon=sierra leone" clip-path="url(#clip0_105_2393)">
<path id="Vector" d="M48.445 33.6947C49.45 30.9864 50 28.0571 50 24.999C50 21.941 49.45 19.0117 48.445 16.3034L25 14.1295L1.55498 16.3034C0.55 19.0117 0 21.941 0 24.999C0 28.0571 0.55 30.9864 1.55498 33.6947L25 35.8686L48.445 33.6947Z" fill="#F0F0F0"/>
<path id="Vector_2" d="M24.9998 49.999C35.7488 49.999 44.9125 43.2146 48.4447 33.6946H1.55469C5.08711 43.2146 14.2506 49.999 24.9998 49.999Z" fill="#338AF3"/>
<path id="Vector_3" d="M24.9998 -0.000976562C14.2506 -0.000976562 5.08711 6.7834 1.55469 16.3034H48.4448C44.9125 6.7834 35.7488 -0.000976562 24.9998 -0.000976562Z" fill="#6DA544"/>
</g>
<defs>
<clipPath id="clip0_105_2393">
<rect width="50" height="50" fill="white" transform="translate(0 -0.000976562)"/>
</clipPath>
</defs>
</svg>
