<svg width="51" height="50" viewBox="0 0 51 50" fill="none" xmlns="http://www.w3.org/2000/svg">
<g id="icon=north korea" clip-path="url(#clip0_105_2131)">
<path id="Vector" d="M25.9883 50C39.7954 50 50.9883 38.8071 50.9883 25C50.9883 11.1929 39.7954 0 25.9883 0C12.1812 0 0.988281 11.1929 0.988281 25C0.988281 38.8071 12.1812 50 25.9883 50Z" fill="#F0F0F0"/>
<g id="Group">
<path id="Vector_2" d="M25.9884 0C18.4111 0 11.6218 3.37148 7.03711 8.69561H44.9396C40.355 3.37148 33.5656 0 25.9884 0V0Z" fill="#0052B4"/>
<path id="Vector_3" d="M44.9396 41.3044H7.03711C11.6218 46.6286 18.4111 50 25.9884 50C33.5656 50 40.355 46.6286 44.9396 41.3044Z" fill="#0052B4"/>
</g>
<path id="Vector_4" d="M47.3189 11.9565H4.65762C2.33057 15.7539 0.988281 20.22 0.988281 25C0.988281 29.78 2.33057 34.2462 4.65762 38.0435H47.3189C49.646 34.2462 50.9883 29.78 50.9883 25C50.9883 20.22 49.646 15.7539 47.3189 11.9565Z" fill="#D80027"/>
<path id="Vector_5" d="M16.3686 34.6194C21.6813 34.6194 25.9881 30.3126 25.9881 24.9999C25.9881 19.6872 21.6813 15.3804 16.3686 15.3804C11.0558 15.3804 6.74902 19.6872 6.74902 24.9999C6.74902 30.3126 11.0558 34.6194 16.3686 34.6194Z" fill="#F0F0F0"/>
<path id="Vector_6" d="M16.3688 15.3804L18.5271 22.023H25.523L19.8612 26.1287L22.0364 32.7912L16.3688 28.666L10.7099 32.7835L12.8765 26.1287L7.21973 22.023H14.2104L16.3688 15.3804Z" fill="#D80027"/>
</g>
<defs>
<clipPath id="clip0_105_2131">
<rect width="50" height="50" fill="white" transform="translate(0.988281)"/>
</clipPath>
</defs>
</svg>
