<svg width="50" height="50" viewBox="0 0 50 50" fill="none" xmlns="http://www.w3.org/2000/svg">
<g id="icon=iraq" clip-path="url(#clip0_105_1704)">
<path id="Vector" d="M25 50C38.8071 50 50 38.8071 50 25C50 11.1929 38.8071 0 25 0C11.1929 0 0 11.1929 0 25C0 38.8071 11.1929 50 25 50Z" fill="#F0F0F0"/>
<path id="Vector_2" d="M25.0002 0C14.2511 0 5.0875 6.78437 1.55518 16.3044H48.4453C44.9129 6.78437 35.7493 0 25.0002 0V0Z" fill="#A2001D"/>
<path id="Vector_3" d="M25.0002 50.0002C35.7493 50.0002 44.9129 43.2158 48.4452 33.6958H1.55518C5.0875 43.2158 14.2511 50.0002 25.0002 50.0002Z" fill="black"/>
<g id="Group">
<path id="Vector_4" d="M19.022 23.3693C19.0083 23.3693 18.9949 23.3702 18.9812 23.3704V23.3693H14.2022C14.4445 22.4332 15.2939 21.7389 16.3046 21.7389V18.478C13.3078 18.478 10.8698 20.9161 10.8698 23.9128V26.5759V26.6303H18.9812H19.022C19.3217 26.6303 19.5654 26.8741 19.5654 27.1737V28.2606H8.6958V31.5215H22.8263V27.1736C22.8263 25.076 21.1196 23.3693 19.022 23.3693V23.3693Z" fill="#496E2D"/>
<path id="Vector_5" d="M27.1739 28.2606V18.478H23.9131V31.5216H29.3479V28.2606H27.1739Z" fill="#496E2D"/>
<path id="Vector_6" d="M38.0437 28.2607V18.478H34.7829V28.2607H33.6959V24.9999H30.4351V31.5217H40.2177V28.2607H38.0437Z" fill="#496E2D"/>
</g>
</g>
<defs>
<clipPath id="clip0_105_1704">
<rect width="50" height="50" fill="white"/>
</clipPath>
</defs>
</svg>
