<svg width="50" height="50" viewBox="0 0 50 50" fill="none" xmlns="http://www.w3.org/2000/svg">
<g id="icon=philippines" clip-path="url(#clip0_105_2223)">
<path id="Vector" d="M25 50C38.8071 50 50 38.8071 50 25C50 11.1929 38.8071 0 25 0C11.1929 0 0 11.1929 0 25C0 38.8071 11.1929 50 25 50Z" fill="#F0F0F0"/>
<path id="Vector_2" d="M25 0V25L7.32227 42.6777C11.8464 47.2018 18.0964 50 25 50C38.807 50 50 38.807 50 25C50 11.193 25 0 25 0Z" fill="#D80027"/>
<path id="Vector_3" d="M25 0C18.0964 0 11.8464 2.79824 7.32227 7.32227C13.4561 13.4561 15.6335 15.6336 25 25H50C50 11.193 38.807 0 25 0Z" fill="#0052B4"/>
<g id="Group">
<path id="Vector_4" d="M17.1182 25L14.065 23.5638L15.6909 20.6069L12.3755 21.2412L11.9554 17.8918L9.646 20.3551L7.33672 17.8918L6.9165 21.2412L3.60117 20.6068L5.22705 23.5638L2.17383 25L5.22705 26.4361L3.60117 29.393L6.9168 28.7588L7.33662 32.1081L9.646 29.6448L11.9554 32.1081L12.3755 28.7588L15.6907 29.3931L14.0649 26.4362L17.1182 25Z" fill="#FFDA44"/>
<path id="Vector_5" d="M6.66724 9.78259L7.68325 11.2028L9.3478 10.6756L8.31089 12.0806L9.32691 13.5009L7.67007 12.949L6.63325 14.354L6.64624 12.6079L4.9895 12.0559L6.65435 11.5287L6.66724 9.78259Z" fill="#FFDA44"/>
<path id="Vector_6" d="M6.66724 35.646L7.68325 37.0662L9.3478 36.5389L8.31089 37.944L9.32691 39.3643L7.67007 38.8124L6.63325 40.2174L6.64624 38.4713L4.9895 37.9193L6.65435 37.3921L6.66724 35.646Z" fill="#FFDA44"/>
<path id="Vector_7" d="M21.1586 22.7144L20.1427 24.1346L18.478 23.6071L19.5149 25.0123L18.4989 26.4326L20.1558 25.8807L21.1927 27.2856L21.1796 25.5396L22.8363 24.9877L21.1716 24.4604L21.1586 22.7144Z" fill="#FFDA44"/>
</g>
</g>
<defs>
<clipPath id="clip0_105_2223">
<rect width="50" height="50" fill="white"/>
</clipPath>
</defs>
</svg>
