<svg width="50" height="50" viewBox="0 0 50 50" fill="none" xmlns="http://www.w3.org/2000/svg">
<g id="icon=cuba" clip-path="url(#clip0_105_1333)">
<path id="Vector" d="M0.001 4.34785H0V45.6521H0.001V25.0001V4.34785Z" fill="#FF9811"/>
<path id="Vector_2" d="M24.9999 49.9999C38.807 49.9999 49.9998 38.8071 49.9998 25C49.9998 11.1929 38.807 9.15527e-05 24.9999 9.15527e-05C11.1928 9.15527e-05 0 11.1929 0 25C0 38.8071 11.1928 49.9999 24.9999 49.9999Z" fill="#F0F0F0"/>
<g id="Group">
<path id="Vector_3" d="M25.0001 0.000198364C16.8212 0.000198364 9.56006 3.92823 4.99902 10.0002H45.0011C40.4401 3.92813 33.1789 0.000198364 25.0001 0.000198364V0.000198364Z" fill="#0052B4"/>
<path id="Vector_4" d="M25.0001 49.9999C33.179 49.9999 40.4401 46.0719 45.0012 39.9999H4.99902C9.55996 46.072 16.8212 49.9999 25.0001 49.9999Z" fill="#0052B4"/>
<path id="Vector_5" d="M0 25.0001C0 26.7125 0.172656 28.3846 0.500684 30.0001H49.4994C49.8274 28.3846 50 26.7125 50 25.0001C50 23.2877 49.8273 21.6156 49.4994 20.0001H0.500684C0.172656 21.6156 0 23.2877 0 25.0001V25.0001Z" fill="#0052B4"/>
</g>
<path id="Vector_6" d="M7.32224 7.32246C-2.44075 17.0855 -2.44075 32.9146 7.32224 42.6778C11.3567 38.6434 15.2368 34.7632 24.9999 25.0002L7.32224 7.32246Z" fill="#D80027"/>
<path id="Vector_7" d="M10.1181 18.4784L11.7366 23.4604H16.9755L12.7375 26.5397L14.3561 31.5217L10.1181 28.4426L5.87988 31.5217L7.49883 26.5397L3.26074 23.4604H8.49922L10.1181 18.4784Z" fill="#F0F0F0"/>
</g>
<defs>
<clipPath id="clip0_105_1333">
<rect width="50" height="50" fill="white"/>
</clipPath>
</defs>
</svg>
