<svg width="50" height="50" viewBox="0 0 50 50" fill="none" xmlns="http://www.w3.org/2000/svg">
<g id="icon=pakistan" clip-path="url(#clip0_105_2180)">
<g id="Group">
<path id="Vector" d="M25 50C38.8071 50 50 38.8071 50 25C50 11.1929 38.8071 0 25 0C11.1929 0 0 11.1929 0 25C0 38.8071 11.1929 50 25 50Z" fill="#F0F0F0"/>
<path id="Vector_2" d="M0 25C0 34.4761 5.27236 42.7202 13.0435 46.9603V3.03979C5.27236 7.27993 0 15.524 0 25Z" fill="#F0F0F0"/>
</g>
<path id="Vector_3" d="M25 0C20.6689 0 16.5953 1.10186 13.0435 3.03975V46.9602C16.5953 48.8981 20.6689 50 25 50C38.807 50 50 38.807 50 25C50 11.193 38.807 0 25 0Z" fill="#496E2D"/>
<g id="Group_2">
<path id="Vector_4" d="M35.6885 29.1345C32.5257 31.4197 28.1091 30.7084 25.824 27.5457C23.5386 24.3828 24.2501 19.9663 27.4129 17.6811C28.399 16.9686 29.507 16.5474 30.6342 16.4011C28.4656 16.0767 26.1731 16.5654 24.2554 17.9511C20.3629 20.7638 19.4872 26.1994 22.2998 30.0922C25.1124 33.9847 30.5481 34.8604 34.4409 32.0475C36.3588 30.6619 37.5424 28.6391 37.9153 26.4781C37.4225 27.5021 36.6748 28.4219 35.6885 29.1345V29.1345Z" fill="#F0F0F0"/>
<path id="Vector_5" d="M35.5532 16.3046L37.3349 18.2246L39.7114 17.1238L38.4357 19.4113L40.2173 21.3315L37.6474 20.8252L36.3718 23.1129L36.0592 20.5123L33.4893 20.0059L35.8659 18.9052L35.5532 16.3046Z" fill="#F0F0F0"/>
</g>
</g>
<defs>
<clipPath id="clip0_105_2180">
<rect width="50" height="50" fill="white"/>
</clipPath>
</defs>
</svg>
