<svg width="50" height="50" viewBox="0 0 50 50" fill="none" xmlns="http://www.w3.org/2000/svg">
<g id="icon=british virgin islands" clip-path="url(#clip0_105_1084)">
<path id="Vector" d="M50 25C50 38.807 38.807 50 25 50C11.193 50 0 38.807 0 25C0 25.006 25 0.00273438 25 0C38.807 0 50 11.193 50 25Z" fill="#0052B4"/>
<g id="Group">
<path id="Vector_2" d="M24.9331 25H25C25 24.9775 25 24.9557 25 24.9331C24.9777 24.9555 24.9555 24.9777 24.9331 25Z" fill="#F0F0F0"/>
<path id="Vector_3" d="M25 13.0435C25 8.64453 25 5.76221 25 0H24.9958C11.1905 0.00234375 0 11.1942 0 25H13.0435V17.6552L20.3883 25H24.9332C24.9555 24.9777 24.9777 24.9555 25.0001 24.9331C25.0001 23.2488 25.0001 21.746 25.0001 20.3885L17.6551 13.0435H25Z" fill="#F0F0F0"/>
</g>
<path id="Vector_4" d="M12.6479 3.26074C8.73779 5.48721 5.48711 8.73779 3.26074 12.6479V24.9999H9.78252V9.78272V9.78252H24.9999C24.9999 7.72559 24.9999 5.76602 24.9999 3.26074H12.6479Z" fill="#D80027"/>
<path id="Vector_5" d="M35.8694 25L29.1123 31.7571C30.3787 34.1996 32.9283 35.8695 35.8694 35.8695C38.8105 35.8695 41.3602 34.1996 42.6266 31.7571L35.8694 25Z" fill="#FFDA44"/>
<path id="Vector_6" d="M25 21.9256L16.1177 13.0435H13.0435V13.0437L24.9998 24.9999H25C25 24.9999 25 22.8801 25 21.9256V21.9256Z" fill="#D80027"/>
<path id="Vector_7" d="M28.2607 13.0435V24.9999V25C28.2608 30.8241 35.8694 32.6087 35.8694 32.6087C35.8694 32.6087 43.478 30.8241 43.4781 25V24.9999V13.0435H28.2607Z" fill="#6DA544"/>
<path id="Vector_8" d="M34.2393 18.4783H37.5001V27.1739H34.2393V18.4783Z" fill="#F0F0F0"/>
<path id="Vector_9" d="M35.8695 20.1086C36.77 20.1086 37.5 19.3786 37.5 18.4781C37.5 17.5776 36.77 16.8477 35.8695 16.8477C34.969 16.8477 34.239 17.5776 34.239 18.4781C34.239 19.3786 34.969 20.1086 35.8695 20.1086Z" fill="#A2001D"/>
<g id="Group_2">
<path id="Vector_10" d="M30.4348 15.2173H32.6087V17.3912H30.4348V15.2173Z" fill="#FFDA44"/>
<path id="Vector_11" d="M30.4348 20.1086H32.6087V22.2826H30.4348V20.1086Z" fill="#FFDA44"/>
<path id="Vector_12" d="M30.4348 25H32.6087V27.1739H30.4348V25Z" fill="#FFDA44"/>
<path id="Vector_13" d="M39.1306 15.2173H41.3045V17.3912H39.1306V15.2173Z" fill="#FFDA44"/>
<path id="Vector_14" d="M39.1306 20.1086H41.3045V22.2826H39.1306V20.1086Z" fill="#FFDA44"/>
<path id="Vector_15" d="M39.1306 25H41.3045V27.1739H39.1306V25Z" fill="#FFDA44"/>
</g>
</g>
<defs>
<clipPath id="clip0_105_1084">
<rect width="50" height="50" fill="white"/>
</clipPath>
</defs>
</svg>
