<svg width="50" height="50" viewBox="0 0 50 50" fill="none" xmlns="http://www.w3.org/2000/svg">
<g id="icon=uzbekista&#204;&#129;n" clip-path="url(#clip0_105_2792)">
<path id="Vector" d="M1.18047 17.3912C0.414648 19.7904 -9.7639e-05 22.3464 1.72417e-08 24.9996C-9.7639e-05 27.6529 0.414746 30.2091 1.18057 32.6083L25 33.6954L48.8194 32.6085C49.5852 30.2092 50.0001 27.6529 50.0001 24.9998C50 22.3465 49.5853 19.7904 48.8194 17.3911L25 16.3042L1.18047 17.3912Z" fill="#F0F0F0"/>
<g id="Group">
<path id="Vector_2" d="M48.8193 17.3916L24.9999 16.3047L1.18037 17.3916C0.953418 18.1029 0.758008 18.8282 0.594238 19.5655H49.4052C49.2416 18.8281 49.0463 18.1027 48.8193 17.3916Z" fill="#D80027"/>
<path id="Vector_3" d="M0.594482 30.4351C0.758057 31.1724 0.953467 31.8976 1.18042 32.6089L1.18276 32.609L24.9998 33.6959L48.8192 32.609C49.0461 31.8977 49.2416 31.1724 49.4052 30.4351H0.594482Z" fill="#D80027"/>
</g>
<path id="Vector_4" d="M25 49.9997C36.1539 49.9997 45.6002 42.6947 48.8194 32.6084H1.18066C4.3999 42.6946 13.8464 49.9997 25 49.9997V49.9997Z" fill="#6DA544"/>
<path id="Vector_5" d="M24.9999 9.7911e-10C13.8461 9.76572e-05 4.39985 7.30508 1.18042 17.3913L48.8192 17.3914C45.6001 7.30498 36.1538 -9.76553e-05 24.9999 9.7911e-10V9.7911e-10Z" fill="#338AF3"/>
<g id="Group_2">
<path id="Vector_6" d="M11.4244 10.3258C11.4244 7.98428 13.07 6.02822 15.2676 5.54834C14.9299 5.47451 14.5794 5.43457 14.2194 5.43457C11.5181 5.43457 9.32812 7.62441 9.32812 10.3259C9.32812 13.0273 11.5179 15.2172 14.2194 15.2172C14.5794 15.2172 14.9298 15.1771 15.2676 15.1034C13.0701 14.6233 11.4244 12.6673 11.4244 10.3258V10.3258Z" fill="#F0F0F0"/>
<path id="Vector_7" d="M18.1586 12.5493L18.4896 13.5684H19.5611L18.6943 14.1982L19.0254 15.2173L18.1586 14.5875L17.2916 15.2173L17.6228 14.1982L16.7559 13.5684H17.8273L18.1586 12.5493Z" fill="#F0F0F0"/>
<path id="Vector_8" d="M21.5786 12.5493L21.9097 13.5684H22.9812L22.1143 14.1982L22.4455 15.2173L21.5786 14.5875L20.7117 15.2173L21.0428 14.1982L20.176 13.5684H21.2474L21.5786 12.5493Z" fill="#F0F0F0"/>
<path id="Vector_9" d="M24.9984 12.5493L25.3295 13.5684H26.4011L25.5342 14.1982L25.8652 15.2173L24.9984 14.5875L24.1314 15.2173L24.4627 14.1982L23.5957 13.5684H24.6673L24.9984 12.5493Z" fill="#F0F0F0"/>
<path id="Vector_10" d="M28.4186 12.5493L28.7498 13.5684H29.8211L28.9543 14.1982L29.2855 15.2173L28.4186 14.5875L27.5516 15.2173L27.8829 14.1982L27.0159 13.5684H28.0874L28.4186 12.5493Z" fill="#F0F0F0"/>
<path id="Vector_11" d="M31.8386 12.5493L32.1697 13.5684H33.2412L32.3744 14.1982L32.7056 15.2173L31.8386 14.5875L30.9717 15.2173L31.3028 14.1982L30.436 13.5684H31.5074L31.8386 12.5493Z" fill="#F0F0F0"/>
<path id="Vector_12" d="M21.5786 8.99219L21.9097 10.0111H22.9812L22.1143 10.6411L22.4455 11.6601L21.5786 11.0303L20.7117 11.6601L21.0428 10.6411L20.176 10.0111H21.2474L21.5786 8.99219Z" fill="#F0F0F0"/>
<path id="Vector_13" d="M24.9984 8.99219L25.3295 10.0111H26.4011L25.5342 10.6411L25.8652 11.6601L24.9984 11.0303L24.1314 11.6601L24.4627 10.6411L23.5957 10.0111H24.6673L24.9984 8.99219Z" fill="#F0F0F0"/>
<path id="Vector_14" d="M28.4186 8.99219L28.7498 10.0111H29.8211L28.9543 10.6411L29.2855 11.6601L28.4186 11.0303L27.5516 11.6601L27.8829 10.6411L27.0159 10.0111H28.0874L28.4186 8.99219Z" fill="#F0F0F0"/>
<path id="Vector_15" d="M31.8386 8.99219L32.1697 10.0111H33.2412L32.3744 10.6411L32.7056 11.6601L31.8386 11.0303L30.9717 11.6601L31.3028 10.6411L30.436 10.0111H31.5074L31.8386 8.99219Z" fill="#F0F0F0"/>
<path id="Vector_16" d="M24.9984 5.43457L25.3295 6.45371H26.4011L25.5342 7.0835L25.8652 8.10264L24.9984 7.47285L24.1314 8.10264L24.4627 7.0835L23.5957 6.45371H24.6673L24.9984 5.43457Z" fill="#F0F0F0"/>
<path id="Vector_17" d="M28.4186 5.43457L28.7498 6.45371H29.8211L28.9543 7.0835L29.2855 8.10264L28.4186 7.47285L27.5516 8.10264L27.8829 7.0835L27.0159 6.45371H28.0874L28.4186 5.43457Z" fill="#F0F0F0"/>
<path id="Vector_18" d="M31.8386 5.43457L32.1697 6.45371H33.2412L32.3744 7.0835L32.7056 8.10264L31.8386 7.47285L30.9717 8.10264L31.3028 7.0835L30.436 6.45371H31.5074L31.8386 5.43457Z" fill="#F0F0F0"/>
</g>
</g>
<defs>
<clipPath id="clip0_105_2792">
<rect width="50" height="50" fill="white"/>
</clipPath>
</defs>
</svg>
