<svg width="50" height="50" viewBox="0 0 50 50" fill="none" xmlns="http://www.w3.org/2000/svg">
<g id="icon=jamaica" clip-path="url(#clip0_105_1733)">
<path id="Vector" d="M25 50C38.8071 50 50 38.8071 50 25C50 11.1929 38.8071 0 25 0C11.1929 0 0 11.1929 0 25C0 38.8071 11.1929 50 25 50Z" fill="#FFDA44"/>
<path id="Vector_2" d="M40.2203 5.16797C36.0047 1.92764 30.7279 0 25 0C19.272 0 13.9951 1.92773 9.77954 5.16797L25 20.3883L40.2203 5.16797Z" fill="#6DA544"/>
<path id="Vector_3" d="M5.16787 9.77979C1.92773 13.9953 0 19.2722 0 25.0001C0 30.728 1.92773 36.005 5.16797 40.2206L20.3884 25.0001L5.16787 9.77979Z" fill="black"/>
<path id="Vector_4" d="M9.77954 44.8321C13.9952 48.0725 19.272 50.0001 25 50.0001C30.7279 50.0001 36.0047 48.0724 40.2204 44.8321L25 29.6118L9.77954 44.8321Z" fill="#6DA544"/>
<path id="Vector_5" d="M44.8321 40.2204C48.0725 36.0049 50.0001 30.728 50.0001 25.0001C50.0001 19.2722 48.0725 13.9953 44.8321 9.77979L29.6118 25.0001L44.8321 40.2204Z" fill="black"/>
</g>
<defs>
<clipPath id="clip0_105_1733">
<rect width="50" height="50" fill="white"/>
</clipPath>
</defs>
</svg>
