<svg width="50" height="50" viewBox="0 0 50 50" fill="none" xmlns="http://www.w3.org/2000/svg">
<g id="icon=republic of the congo" clip-path="url(#clip0_105_2281)">
<path id="Vector" d="M13.5518 47.2309L31.9175 31.9176L47.2308 13.5519C44.8499 8.93787 41.0747 5.16063 36.4625 2.77675L18.0823 18.0825L2.77673 36.4625C5.16042 41.0749 8.93766 44.85 13.5518 47.2309V47.2309Z" fill="#FFDA44"/>
<path id="Vector_2" d="M42.6783 42.6784C50.5656 34.7911 52.0797 22.9457 47.2238 13.5369L13.5367 47.2239C22.9455 52.0798 34.791 50.5656 42.6783 42.6784Z" fill="#D80027"/>
<path id="Vector_3" d="M7.32134 7.32144C-0.565946 15.2087 -2.08001 27.0542 2.77575 36.463L36.4629 2.77595C27.0541 -2.08 15.2086 -0.565748 7.32134 7.32144V7.32144Z" fill="#6DA544"/>
</g>
<defs>
<clipPath id="clip0_105_2281">
<rect width="50" height="50" fill="white"/>
</clipPath>
</defs>
</svg>
