<svg width="50" height="50" viewBox="0 0 50 50" fill="none" xmlns="http://www.w3.org/2000/svg">
<g id="icon=ossetia" clip-path="url(#clip0_105_2176)">
<path id="Vector" d="M48.445 33.6956C49.45 30.9873 50 28.058 50 25C50 21.942 49.45 19.0127 48.445 16.3044L25 14.1305L1.55498 16.3044C0.550098 19.0127 0 21.942 0 25C0 28.058 0.550098 30.9873 1.55498 33.6956L25 35.8696L48.445 33.6956Z" fill="#D80027"/>
<path id="Vector_2" d="M24.9998 49.9999C35.7488 49.9999 44.9125 43.2156 48.4447 33.6956H1.55469C5.08711 43.2156 14.2506 49.9999 24.9998 49.9999Z" fill="#FFDA44"/>
<path id="Vector_3" d="M24.9998 0C14.2506 0 5.08711 6.78437 1.55469 16.3044H48.4448C44.9125 6.78437 35.7488 0 24.9998 0Z" fill="#F0F0F0"/>
</g>
<defs>
<clipPath id="clip0_105_2176">
<rect width="50" height="50" fill="white"/>
</clipPath>
</defs>
</svg>
