<svg width="51" height="50" viewBox="0 0 51 50" fill="none" xmlns="http://www.w3.org/2000/svg">
<g id="icon=nauru" clip-path="url(#clip0_105_2054)">
<path id="Vector" d="M25.9883 50C39.7954 50 50.9883 38.8071 50.9883 25C50.9883 11.1929 39.7954 0 25.9883 0C12.1812 0 0.988281 11.1929 0.988281 25C0.988281 38.8071 12.1812 50 25.9883 50Z" fill="#0052B4"/>
<path id="Vector_2" d="M25.9883 50C39.7954 50 50.9883 38.8071 50.9883 25C50.9883 11.1929 39.7954 0 25.9883 0C12.1812 0 0.988281 11.1929 0.988281 25C0.988281 38.8071 12.1812 50 25.9883 50Z" fill="#FFDA44"/>
<g id="Group">
<path id="Vector_3" d="M25.9883 0C12.9137 0 2.18535 10.0372 1.0835 22.8261H50.8932C49.7912 10.0372 39.0629 0 25.9883 0V0Z" fill="#0052B4"/>
<path id="Vector_4" d="M25.9883 49.9999C39.0629 49.9999 49.7912 39.9627 50.8932 27.1738H1.0835C2.18535 39.9627 12.9137 49.9999 25.9883 49.9999Z" fill="#0052B4"/>
</g>
<path id="Vector_5" d="M21.6406 33.6955L18.8392 35.0133L20.3309 37.7263L17.289 37.1443L16.9036 40.2173L14.7847 37.9572L12.666 40.2173L12.2805 37.1443L9.23853 37.7262L10.7303 35.0132L7.92896 33.6955L10.7304 32.3778L9.23853 29.6649L12.2804 30.2468L12.6661 27.1738L14.7847 29.4339L16.9037 27.1738L17.289 30.2468L20.331 29.6649L18.8393 32.3779L21.6406 33.6955Z" fill="#F0F0F0"/>
</g>
<defs>
<clipPath id="clip0_105_2054">
<rect width="50" height="50" fill="white" transform="translate(0.988281)"/>
</clipPath>
</defs>
</svg>
