<svg width="50" height="50" viewBox="0 0 50 50" fill="none" xmlns="http://www.w3.org/2000/svg">
<g id="icon=estonia" clip-path="url(#clip0_105_1457)">
<path id="Vector" d="M0 25C0 28.058 0.550098 30.9873 1.55498 33.6956L25 34.7826L48.445 33.6957C49.45 30.9873 50 28.058 50 25C50 21.942 49.45 19.0127 48.445 16.3044L25 15.2174L1.55498 16.3043C0.550098 19.0127 0 21.942 0 25H0Z" fill="black"/>
<path id="Vector_2" d="M25 0C14.2508 0 5.08726 6.78437 1.55493 16.3044H48.4451C44.9126 6.78437 35.7491 0 25 0V0Z" fill="#0052B4"/>
<path id="Vector_3" d="M48.445 33.6956H1.55493C5.08726 43.2155 14.2508 49.9999 25 49.9999C35.7491 49.9999 44.9126 43.2155 48.445 33.6956Z" fill="#F0F0F0"/>
</g>
<defs>
<clipPath id="clip0_105_1457">
<rect width="50" height="50" fill="white"/>
</clipPath>
</defs>
</svg>
