<svg width="50" height="50" viewBox="0 0 50 50" fill="none" xmlns="http://www.w3.org/2000/svg">
<g id="icon=oman" clip-path="url(#clip0_105_2160)">
<path id="Vector" d="M25 50C38.8071 50 50 38.8071 50 25C50 11.1929 38.8071 0 25 0C11.1929 0 0 11.1929 0 25C0 38.8071 11.1929 50 25 50Z" fill="#F0F0F0"/>
<g id="Group">
<path id="Vector_2" d="M0 25C0 34.4761 5.27246 42.7203 13.0435 46.9603V3.03979C5.27246 7.27983 0 15.524 0 25Z" fill="#D80027"/>
<path id="Vector_3" d="M48.4451 33.6957C49.45 30.9874 50 28.0581 50 25C50 21.942 49.45 19.0126 48.4451 16.3044H1.55508C0.550098 19.0126 0 21.942 0 25C0 28.0581 0.550098 30.9874 1.55508 33.6957L25 35.8696L48.4451 33.6957Z" fill="#D80027"/>
</g>
<path id="Vector_4" d="M25.0001 49.9999C35.7493 49.9999 44.9128 43.2156 48.4452 33.6956H1.55518C5.0874 43.2156 14.2511 49.9999 25.0001 49.9999V49.9999Z" fill="#6DA544"/>
<path id="Vector_5" d="M0 25C0 36.5507 7.83408 46.27 18.4782 49.1387V0.861206C7.83408 3.72996 0 13.4493 0 25Z" fill="#D80027"/>
<path id="Vector_6" d="M15.2946 11.0013L12.9888 8.69556L11.4517 10.2329L9.9146 8.69556L7.60884 11.0013L9.14604 12.5385L7.60864 14.0758L9.9144 16.3816L11.4516 14.8443L12.9888 16.3816L15.2946 14.0758L13.7574 12.5385L15.2946 11.0013Z" fill="#F0F0F0"/>
</g>
<defs>
<clipPath id="clip0_105_2160">
<rect width="50" height="50" fill="white"/>
</clipPath>
</defs>
</svg>
