<svg width="50" height="50" viewBox="0 0 50 50" fill="none" xmlns="http://www.w3.org/2000/svg">
<g id="icon=yemen" clip-path="url(#clip0_105_2877)">
<path id="Vector" d="M25 50C38.8071 50 50 38.8071 50 25C50 11.1929 38.8071 0 25 0C11.1929 0 0 11.1929 0 25C0 38.8071 11.1929 50 25 50Z" fill="#F0F0F0"/>
<path id="Vector_2" d="M24.9997 50.0002C35.7488 50.0002 44.9124 43.2158 48.4447 33.6958H1.55469C5.08701 43.2158 14.2506 50.0002 24.9997 50.0002Z" fill="black"/>
<path id="Vector_3" d="M24.9997 0C14.2506 0 5.08701 6.78437 1.55469 16.3044H48.4448C44.9124 6.78437 35.7488 0 24.9997 0V0Z" fill="#D80027"/>
</g>
<defs>
<clipPath id="clip0_105_2877">
<rect width="50" height="50" fill="white"/>
</clipPath>
</defs>
</svg>
