<svg width="50" height="50" viewBox="0 0 50 50" fill="none" xmlns="http://www.w3.org/2000/svg">
<g id="icon=libya" clip-path="url(#clip0_105_1845)">
<path id="Vector" d="M2.48066 14.1305C0.891406 17.4172 0 21.1044 0 25C0 28.8956 0.891406 32.5828 2.48066 35.8695L25 38.0435L47.5193 35.8695C49.1086 32.5828 50 28.8956 50 25C50 21.1044 49.1086 17.4172 47.5193 14.1305L25 11.9565L2.48066 14.1305Z" fill="black"/>
<path id="Vector_2" d="M2.48157 35.8696C6.52512 44.232 15.0885 50.0001 25 50.0001C34.9115 50.0001 43.4749 44.232 47.5185 35.8696H2.48157Z" fill="#496E2D"/>
<path id="Vector_3" d="M2.48157 14.1305H47.5185C43.4749 5.76807 34.9115 0 25 0C15.0885 0 6.52512 5.76807 2.48157 14.1305Z" fill="#D80027"/>
<g id="Group">
<path id="Vector_4" d="M30.8189 20.4282L32.8701 23.2549L36.1921 22.1777L34.1376 25.002L36.1886 27.8285L32.8679 26.7473L30.8134 29.5715L30.8155 26.0792L27.4946 24.9979L30.8167 23.9208L30.8189 20.4282Z" fill="#F0F0F0"/>
<path id="Vector_5" d="M25.2208 32.0651C21.3189 32.0651 18.1556 28.9019 18.1556 24.9999C18.1556 21.0979 21.3189 17.9347 25.2208 17.9347C26.4375 17.9347 27.5823 18.2423 28.5817 18.7839C27.0137 17.2506 24.8696 16.3042 22.5035 16.3042C17.7009 16.3042 13.8079 20.1974 13.8079 24.9998C13.8079 29.8022 17.701 33.6954 22.5035 33.6954C24.8697 33.6954 27.0138 32.749 28.5817 31.2157C27.5822 31.7575 26.4375 32.0651 25.2208 32.0651Z" fill="#F0F0F0"/>
</g>
</g>
<defs>
<clipPath id="clip0_105_1845">
<rect width="50" height="50" fill="white"/>
</clipPath>
</defs>
</svg>
