<svg width="50" height="50" viewBox="0 0 50 50" fill="none" xmlns="http://www.w3.org/2000/svg">
<g id="icon=hawaii" clip-path="url(#clip0_105_1651)">
<path id="Vector" d="M25 50C38.8071 50 50 38.8071 50 25C50 11.1929 38.8071 0 25 0C11.1929 0 0 11.1929 0 25C0 38.8071 11.1929 50 25 50Z" fill="#F0F0F0"/>
<path id="Vector_2" d="M25.0001 50C31.3396 50 37.127 47.6391 41.5339 43.75H8.46631C12.8732 47.6391 18.6605 50 25.0001 50Z" fill="#D80027"/>
<g id="Group">
<path id="Vector_3" d="M0.787598 31.25C1.3584 33.4674 2.22617 35.5655 3.34531 37.5H46.6546C47.7737 35.5655 48.6415 33.4674 49.2123 31.25L25 29.3479L0.787598 31.25Z" fill="#0052B4"/>
<path id="Vector_4" d="M49.2123 18.75C48.6415 16.5326 47.7737 14.4346 46.6546 12.5L24.9999 11.9565C24.9999 7.59004 24.9999 3.46338 24.9999 0C23.1428 0 21.3328 0.202637 19.5911 0.586719C19.5577 0.594141 3.26074 13.449 3.26074 25C3.67744 25.0725 24.9999 27.1739 24.9999 27.1739C24.9999 27.1739 24.9999 22.4121 24.9999 18.75H49.2123Z" fill="#0052B4"/>
</g>
<path id="Vector_5" d="M25 15.5979V3.09785H17.0825L19.592 0.588379C9.29014 2.86045 1.37461 11.4858 0.163086 22.1468C0.0566406 23.0833 0 24.035 0 25H12.6631V20.0173L17.6951 25H26.639L17.0824 15.5979H25Z" fill="#F0F0F0"/>
<path id="Vector_6" d="M25.0114 25L15.6093 15.5979H12.6631V15.598L22.0651 25H9.51084V12.5H46.6547C45.2936 10.1472 43.5594 8.0374 41.5339 6.25H9.51084V5.37842C6.98857 7.37227 4.86045 9.8418 3.26084 12.6518V25H0C0 27.1581 0.273437 29.2524 0.787598 31.25H49.2124C49.7266 29.2523 50 27.1581 50 25H25.0114Z" fill="#D80027"/>
</g>
<defs>
<clipPath id="clip0_105_1651">
<rect width="50" height="50" fill="white"/>
</clipPath>
</defs>
</svg>
