<svg width="50" height="50" viewBox="0 0 50 50" fill="none" xmlns="http://www.w3.org/2000/svg">
<g id="icon=sahrawi arab democratic republic" clip-path="url(#clip0_105_2307)">
<path id="Vector" d="M2.48066 14.1305C0.891406 17.4172 0 21.1044 0 25C0 28.8956 0.891406 32.5828 2.48066 35.8695L25 38.0435L47.5193 35.8695C49.1086 32.5828 50 28.8956 50 25C50 21.1044 49.1086 17.4172 47.5193 14.1305L25 11.9565L2.48066 14.1305Z" fill="#F0F0F0"/>
<path id="Vector_2" d="M2.48145 35.8695C6.525 44.2319 15.0885 50 24.9999 50C34.9113 50 43.4748 44.2319 47.5184 35.8695H2.48145Z" fill="#496E2D"/>
<path id="Vector_3" d="M2.48145 14.1305H47.5184C43.4748 5.76807 34.9114 0 24.9999 0C15.0884 0 6.525 5.76807 2.48145 14.1305Z" fill="black"/>
<g id="Group">
<path id="Vector_4" d="M7.32231 7.32227C-2.44077 17.0854 -2.44077 32.9145 7.32231 42.6777C11.3568 38.6433 15.237 34.7631 25 25L7.32231 7.32227Z" fill="#D80027"/>
<path id="Vector_5" d="M31.5217 25C31.5217 21.3576 34.0815 18.3147 37.4999 17.5683C36.9745 17.4535 36.4294 17.3913 35.8694 17.3913C31.6672 17.3913 28.2607 20.7978 28.2607 25C28.2607 29.2022 31.6672 32.6087 35.8694 32.6087C36.4293 32.6087 36.9744 32.5465 37.4999 32.4317C34.0815 31.6853 31.5217 28.6424 31.5217 25Z" fill="#D80027"/>
<path id="Vector_6" d="M37.8195 20.1087L38.8989 23.4304H42.3912L39.5658 25.4829L40.6451 28.8044L37.8195 26.7517L34.9942 28.8044L36.0736 25.4829L33.248 23.4304H36.7403L37.8195 20.1087Z" fill="#D80027"/>
</g>
</g>
<defs>
<clipPath id="clip0_105_2307">
<rect width="50" height="50" fill="white"/>
</clipPath>
</defs>
</svg>
