<svg width="50" height="50" viewBox="0 0 50 50" fill="none" xmlns="http://www.w3.org/2000/svg">
<g id="icon=canary islands" clip-path="url(#clip0_105_1157)">
<path id="Vector" d="M24.9999 0C21.9419 0 19.0125 0.550098 16.3043 1.55498L15.2173 25L16.3042 48.445C19.0125 49.45 21.9419 50 24.9999 50C28.0579 50 30.9873 49.45 33.6955 48.445L34.7825 25L33.6956 1.55498C30.9873 0.550098 28.0579 0 24.9999 0V0Z" fill="#338AF3"/>
<path id="Vector_2" d="M50.0002 25C50.0002 14.2508 43.2158 5.08726 33.6958 1.55493V48.4451C43.2158 44.9126 50.0002 35.7491 50.0002 25V25Z" fill="#FFDA44"/>
<path id="Vector_3" d="M16.3044 48.445V1.55493C6.78437 5.08726 0 14.2508 0 25C0 35.7491 6.78437 44.9126 16.3044 48.445Z" fill="#F0F0F0"/>
</g>
<defs>
<clipPath id="clip0_105_1157">
<rect width="50" height="50" fill="white"/>
</clipPath>
</defs>
</svg>
