<svg width="50" height="50" viewBox="0 0 50 50" fill="none" xmlns="http://www.w3.org/2000/svg">
<g id="icon=tanzania" clip-path="url(#clip0_105_2602)">
<path id="Vector" d="M25 50C38.8071 50 50 38.8071 50 25C50 11.1929 38.8071 0 25 0C11.1929 0 0 11.1929 0 25C0 38.8071 11.1929 50 25 50Z" fill="#FFDA44"/>
<path id="Vector_2" d="M7.32236 42.6778C8.37109 43.7266 9.49004 44.6618 10.6638 45.4853L45.4851 10.6639C44.6618 9.49014 43.7265 8.37119 42.6777 7.32246C41.6289 6.27373 40.5101 5.33857 39.3363 4.51514L4.51514 39.3365C5.33838 40.51 6.27373 41.629 7.32236 42.6778V42.6778Z" fill="black"/>
<path id="Vector_3" d="M7.32228 7.32216C-0.564638 15.2093 -2.0788 27.0541 2.77696 36.4626L36.4627 2.77694C27.0542 -2.07882 15.2093 -0.564562 7.32228 7.32216V7.32216Z" fill="#6DA544"/>
<path id="Vector_4" d="M42.6777 42.6778C50.5646 34.7909 52.0787 22.9458 47.2231 13.5374L13.5374 47.2231C22.9457 52.0789 34.7907 50.5647 42.6777 42.6778Z" fill="#338AF3"/>
</g>
<defs>
<clipPath id="clip0_105_2602">
<rect width="50" height="50" fill="white"/>
</clipPath>
</defs>
</svg>
