<svg width="50" height="50" viewBox="0 0 50 50" fill="none" xmlns="http://www.w3.org/2000/svg">
<g id="icon=aruba" clip-path="url(#clip0_105_857)">
<path id="Vector" d="M25 50C38.8071 50 50 38.8071 50 25C50 11.1929 38.8071 0 25 0C11.1929 0 0 11.1929 0 25C0 38.8071 11.1929 50 25 50Z" fill="#FFDA44"/>
<g id="Group">
<path id="Vector_2" d="M25.0001 49.9998C32.5773 49.9998 39.3667 46.6283 43.9514 41.3042H6.04883C10.6335 46.6283 17.4229 49.9998 25.0001 49.9998Z" fill="#338AF3"/>
<path id="Vector_3" d="M50 25C50 11.193 38.807 0 25 0C11.193 0 0 11.193 0 25C0 27.2565 0.300781 29.4423 0.86123 31.5218H49.1389C49.6992 29.4423 50 27.2565 50 25Z" fill="#338AF3"/>
<path id="Vector_4" d="M1.9873 34.7827C2.46924 35.9151 3.03262 37.0042 3.66943 38.0436H46.3308C46.9676 37.0041 47.531 35.915 48.0131 34.7827H1.9873Z" fill="#338AF3"/>
</g>
<path id="Vector_5" d="M11.4566 15.7679L6.57227 13.6122L11.4566 11.4565L13.6122 6.57227L15.7678 11.4565L20.6521 13.6122L15.7678 15.7679L13.6122 20.6521L11.4566 15.7679Z" fill="#F0F0F0"/>
<path id="Vector_6" d="M13.6125 9.26416L14.9437 12.2807L17.9603 13.612L14.9437 14.9433L13.6125 17.9598L12.2812 14.9433L9.26465 13.612L12.2812 12.2807L13.6125 9.26416Z" fill="#D80027"/>
</g>
<defs>
<clipPath id="clip0_105_857">
<rect width="50" height="50" fill="white"/>
</clipPath>
</defs>
</svg>
