<svg width="50" height="50" viewBox="0 0 50 50" fill="none" xmlns="http://www.w3.org/2000/svg">
<g id="icon=vatican city" clip-path="url(#clip0_105_2839)">
<path id="Vector" d="M25.0001 0C38.8071 0 50.0001 11.193 50.0001 25C50.0001 38.807 38.8071 50 25.0001 50C25.0001 48.9131 21.7393 25 21.7393 25L25.0001 0Z" fill="#F0F0F0"/>
<path id="Vector_2" d="M25 50C11.193 50 0 38.807 0 25C0 11.193 11.193 0 25 0" fill="#FFDA44"/>
<path id="Vector_3" d="M34.5732 21.7543L39.2716 27.9697C38.5313 29.0906 38.5353 30.6008 39.3914 31.7333C40.4773 33.1699 42.5224 33.4543 43.9591 32.3683C45.3957 31.2823 45.6801 29.2373 44.5939 27.8007C43.738 26.6682 42.286 26.2525 41.0058 26.659L33.6834 16.9722L31.9492 18.2831L29.3477 20.2493L31.9695 23.7176L34.5732 21.7543ZM41.3372 28.8998C41.8161 28.5377 42.4979 28.6326 42.8599 29.1113C43.2218 29.5902 43.1271 30.272 42.6482 30.6341C42.1694 30.9959 41.4877 30.9014 41.1258 30.4224C40.7636 29.9435 40.8584 29.2617 41.3372 28.8998V28.8998Z" fill="#ACABB1"/>
<path id="Vector_4" d="M42.6317 23.7178L45.2536 20.2495L42.6522 18.2831L40.918 16.9722L33.5957 26.659C32.3156 26.2525 30.8636 26.6683 30.0075 27.8007C28.9214 29.2374 29.2057 31.2823 30.6424 32.3683C32.0791 33.4542 34.124 33.1699 35.2099 31.7333C36.066 30.6008 36.0699 29.0906 35.3298 27.9697L40.0281 21.7543L42.6317 23.7178ZM33.4758 30.4226C33.1138 30.9016 32.4322 30.9962 31.9533 30.6343C31.4744 30.2722 31.3797 29.5904 31.7417 29.1115C32.1036 28.6328 32.7853 28.5379 33.2643 28.9C33.7431 29.262 33.8378 29.9437 33.4758 30.4226V30.4226Z" fill="#FFDA44"/>
</g>
<defs>
<clipPath id="clip0_105_2839">
<rect width="50" height="50" fill="white"/>
</clipPath>
</defs>
</svg>
