<svg width="50" height="50" viewBox="0 0 50 50" fill="none" xmlns="http://www.w3.org/2000/svg">
<g id="icon=macao" clip-path="url(#clip0_105_1864)">
<path id="Vector" d="M25 50C38.8071 50 50 38.8071 50 25C50 11.1929 38.8071 0 25 0C11.1929 0 0 11.1929 0 25C0 38.8071 11.1929 50 25 50Z" fill="#496E2D"/>
<path id="Vector_2" d="M29.348 23.9577C28.7344 23.9577 28.1518 24.0801 27.6107 24.2748C27.9071 23.6143 28.1059 22.8793 28.1059 22.0944C28.1059 18.9889 25.0003 16.6597 25.0003 16.6597C25.0003 16.6597 21.8947 18.9889 21.8947 22.0944C21.8947 22.8792 22.0935 23.6143 22.3898 24.2748C21.8487 24.0803 21.2661 23.9577 20.6525 23.9577C17.547 23.9577 15.2178 27.0633 15.2178 27.0633C15.2178 27.0633 17.547 30.1689 20.6525 30.1689C22.4733 30.1689 24.0263 29.1018 25.0004 28.2184C25.9745 29.1017 27.5274 30.1689 29.3482 30.1689C32.4538 30.1689 34.783 27.0633 34.783 27.0633C34.783 27.0633 32.4536 23.9577 29.348 23.9577V23.9577Z" fill="#F0F0F0"/>
<g id="Group">
<path id="Vector_3" d="M25.0001 9.78271L25.6416 11.7569H27.7175L26.0383 12.9772L26.6793 14.9515L25.0001 13.7312L23.3209 14.9515L23.9619 12.9772L22.2827 11.7569H24.3586L25.0001 9.78271Z" fill="#FFDA44"/>
<path id="Vector_4" d="M17.1061 13.2358L18.3402 14.347L19.7784 13.5167L19.103 15.0338L20.3371 16.1451L18.6855 15.9715L18.0102 17.4886L17.6646 15.8643L16.0132 15.6906L17.4513 14.8602L17.1061 13.2358Z" fill="#FFDA44"/>
<path id="Vector_5" d="M11.3276 19.0144L12.9521 19.3596L13.7824 17.9214L13.9561 19.5729L15.5803 19.9184L14.0633 20.5938L14.2369 22.2452L13.1255 21.0113L11.6085 21.6867L12.4389 20.2484L11.3276 19.0144Z" fill="#FFDA44"/>
<path id="Vector_6" d="M32.894 13.2358L31.66 14.347L30.2218 13.5167L30.8971 15.0338L29.6631 16.1451L31.3147 15.9715L31.99 17.4886L32.3355 15.8643L33.987 15.6906L32.5489 14.8602L32.894 13.2358Z" fill="#FFDA44"/>
<path id="Vector_7" d="M38.6726 19.0144L37.0481 19.3596L36.2179 17.9214L36.0441 19.5729L34.4199 19.9184L35.9369 20.5938L35.7633 22.2452L36.8747 21.0113L38.3917 21.6867L37.5613 20.2484L38.6726 19.0144Z" fill="#FFDA44"/>
</g>
<g id="Group_2">
<path id="Vector_8" d="M24.9997 38.8646C27.4666 38.8646 29.7404 38.0416 31.5645 36.6567H18.4351C20.2591 38.0415 22.5328 38.8646 24.9997 38.8646Z" fill="#F0F0F0"/>
<path id="Vector_9" d="M15.0356 32.3428C15.3807 33.1324 15.8182 33.872 16.332 34.5507H33.6678C34.1816 33.8721 34.6191 33.1324 34.9642 32.3428H15.0356Z" fill="#F0F0F0"/>
</g>
</g>
<defs>
<clipPath id="clip0_105_1864">
<rect width="50" height="50" fill="white"/>
</clipPath>
</defs>
</svg>
