<svg width="50" height="50" viewBox="0 0 50 50" fill="none" xmlns="http://www.w3.org/2000/svg">
<g id="icon=barbados" clip-path="url(#clip0_105_928)">
<path id="Vector" d="M35.8695 2.48066C32.5828 0.891406 28.8955 0 25 0C21.1045 0 17.4172 0.891406 14.1305 2.48066L11.9565 25L14.1305 47.5193C17.4172 49.1086 21.1045 50 25 50C28.8955 50 32.5828 49.1086 35.8695 47.5193L38.0435 25L35.8695 2.48066Z" fill="#FFDA44"/>
<g id="Group">
<path id="Vector_2" d="M14.1305 2.48145C5.76816 6.525 0 15.0884 0 24.9999C0 34.9114 5.76816 43.4748 14.1305 47.5184V2.48145Z" fill="#0052B4"/>
<path id="Vector_3" d="M35.8696 2.48145V47.5184C44.2319 43.4748 50.0001 34.9113 50.0001 24.9999C50.0001 15.0885 44.2319 6.525 35.8696 2.48145Z" fill="#0052B4"/>
</g>
<path id="Vector_4" d="M32.6088 15.2174L34.0671 15.9465L32.6088 15.2174L31.1504 14.4883C31.0625 14.6642 29.1583 18.5385 28.8473 24.4565H26.6306V15.2174L25.0001 13.0435L23.3696 15.2174V24.4565H21.1529C20.8418 18.5385 18.9377 14.6642 18.8497 14.4883L15.9331 15.9466C15.9532 15.9866 17.935 20.0203 17.935 26.087V27.7175H23.3697V36.9566H26.6306V27.7175H32.0653V26.0869C32.0653 22.9504 32.608 20.3641 33.0634 18.7467C33.5598 16.983 34.064 15.953 34.0689 15.9428L32.6088 15.2174Z" fill="black"/>
</g>
<defs>
<clipPath id="clip0_105_928">
<rect width="50" height="50" fill="white"/>
</clipPath>
</defs>
</svg>
