<svg width="50" height="50" viewBox="0 0 50 50" fill="none" xmlns="http://www.w3.org/2000/svg">
<g id="icon=belarus" clip-path="url(#clip0_105_947)">
<path id="Vector" d="M25 50C38.8071 50 50 38.8071 50 25C50 11.1929 38.8071 0 25 0C11.1929 0 0 11.1929 0 25C0 38.8071 11.1929 50 25 50Z" fill="#FCFCFC"/>
<g id="Group">
<path id="Vector_2" d="M10.3258 23.1884L7.6084 18.2584L10.3258 13.4058L13.0432 18.2584L10.3258 23.1884Z" fill="#A2001D"/>
<path id="Vector_3" d="M4.89121 23.1884L2.17383 18.2584L4.89121 13.4058L7.60859 18.2584L4.89121 23.1884Z" fill="#A2001D"/>
<path id="Vector_4" d="M10.3258 36.5944L7.6084 31.6644L10.3258 26.8118L13.0432 31.6644L10.3258 36.5944Z" fill="#A2001D"/>
<path id="Vector_5" d="M4.89121 36.5944L2.17383 31.6644L4.89121 26.8118L7.60859 31.6644L4.89121 36.5944Z" fill="#A2001D"/>
<path id="Vector_6" d="M13.0432 4.85283L12.2738 3.479C10.8939 4.29658 9.59971 5.24316 8.40723 6.30215L10.3258 9.78272L13.0432 4.85283Z" fill="#A2001D"/>
<path id="Vector_7" d="M10.3261 40.2175L8.38721 43.68C9.57861 44.7404 10.872 45.6884 12.2513 46.5077L13.0436 45.0703L10.3261 40.2175Z" fill="#A2001D"/>
</g>
<path id="Vector_8" d="M15.2173 31.5217V48.0123C18.2221 49.2913 21.528 50 24.9999 50C35.749 50 44.9126 43.2156 48.4449 33.6956L15.2173 31.5217Z" fill="#6DA544"/>
<path id="Vector_9" d="M48.4449 33.6956C49.4499 30.9873 49.9999 28.058 49.9999 25C49.9999 11.193 38.8069 0 24.9999 0C21.5283 0 18.2221 0.708301 15.2173 1.98711V33.6957H48.4449V33.6956Z" fill="#A2001D"/>
</g>
<defs>
<clipPath id="clip0_105_947">
<rect width="50" height="50" fill="white"/>
</clipPath>
</defs>
</svg>
