<svg width="50" height="50" viewBox="0 0 50 50" fill="none" xmlns="http://www.w3.org/2000/svg">
<g id="icon=virgin islands" clip-path="url(#clip0_105_2860)">
<path id="Vector" d="M25 49.999C38.8071 49.999 50 38.8061 50 24.999C50 11.1919 38.8071 -0.000976562 25 -0.000976562C11.1929 -0.000976562 0 11.1919 0 24.999C0 38.8061 11.1929 49.999 25 49.999Z" fill="#FCFCFC"/>
<g id="Group">
<path id="Vector_2" d="M29.246 17.4646C29.246 15.1197 27.345 13.2188 25 13.2188C22.655 13.2188 20.754 15.1197 20.754 17.4646H11.4131C11.4131 19.7733 13.4242 21.6451 15.7329 21.6451H15.5938C15.5938 23.954 17.4653 25.8259 19.7744 25.8259C19.7744 27.8701 21.2426 29.5688 23.1815 29.9318L23.1707 29.9563H26.8294L26.8186 29.9318C28.7576 29.5686 30.2257 27.87 30.2257 25.8259C32.5347 25.8259 34.4063 23.954 34.4063 21.6451H34.267C36.5757 21.6451 38.5869 19.7733 38.5869 17.4646H29.246Z" fill="#FFDA44"/>
<path id="Vector_3" d="M23.1336 29.5229L20.501 35.4666C21.89 36.0313 23.4083 36.3451 25.0002 36.3451C26.5921 36.3451 28.1104 36.0313 29.4993 35.4666L26.8668 29.5229H23.1336Z" fill="#FFDA44"/>
</g>
<path id="Vector_4" d="M19.5654 19.5522V26.8658C19.5654 31.0258 25.0002 32.3006 25.0002 32.3006C25.0002 32.3006 30.435 31.0258 30.435 26.8658V19.5522H19.5654Z" fill="#F0F0F0"/>
<g id="Group_2">
<path id="Vector_5" d="M6.0626 25.1748L9.00195 33.3959L11.9107 25.1748H14.1307L9.88984 36.0443H8.11396L3.84277 25.1748H6.0626Z" fill="#338AF3"/>
<path id="Vector_6" d="M40.2178 36.0443V25.1748H42.3304V36.0443H40.2178Z" fill="#338AF3"/>
</g>
<g id="Group_3">
<path id="Vector_7" d="M21.7393 21.9141V30.7768C22.4864 31.3267 23.2903 31.7049 23.9132 31.9471V21.9141H21.7393Z" fill="#D80027"/>
<path id="Vector_8" d="M28.2608 21.9141V30.7768C27.5137 31.3267 26.7098 31.7049 26.0869 31.9471V21.9141H28.2608Z" fill="#D80027"/>
</g>
<path id="Vector_9" d="M19.5654 19.5522H30.435V23.0011H19.5654V19.5522Z" fill="#0052B4"/>
</g>
<defs>
<clipPath id="clip0_105_2860">
<rect width="50" height="50" fill="white" transform="translate(0 -0.000976562)"/>
</clipPath>
</defs>
</svg>
